%TF.GenerationSoftware,KiCad,Pcbnew,7.0.1*%
%TF.CreationDate,2023-06-07T19:09:21+09:00*%
%TF.ProjectId,trace,74726163-652e-46b6-9963-61645f706362,rev?*%
%TF.SameCoordinates,Original*%
%TF.FileFunction,Copper,L4,Bot*%
%TF.FilePolarity,Positive*%
%FSLAX46Y46*%
G04 Gerber Fmt 4.6, Leading zero omitted, Abs format (unit mm)*
G04 Created by KiCad (PCBNEW 7.0.1) date 2023-06-07 19:09:21*
%MOMM*%
%LPD*%
G01*
G04 APERTURE LIST*
G04 Aperture macros list*
%AMHorizOval*
0 Thick line with rounded ends*
0 $1 width*
0 $2 $3 position (X,Y) of the first rounded end (center of the circle)*
0 $4 $5 position (X,Y) of the second rounded end (center of the circle)*
0 Add line between two ends*
20,1,$1,$2,$3,$4,$5,0*
0 Add two circle primitives to create the rounded ends*
1,1,$1,$2,$3*
1,1,$1,$4,$5*%
%AMRotRect*
0 Rectangle, with rotation*
0 The origin of the aperture is its center*
0 $1 length*
0 $2 width*
0 $3 Rotation angle, in degrees counterclockwise*
0 Add horizontal line*
21,1,$1,$2,0,0,$3*%
G04 Aperture macros list end*
%TA.AperFunction,ComponentPad*%
%ADD10C,1.600000*%
%TD*%
%TA.AperFunction,ComponentPad*%
%ADD11O,1.600000X1.600000*%
%TD*%
%TA.AperFunction,ComponentPad*%
%ADD12R,1.700000X1.700000*%
%TD*%
%TA.AperFunction,ComponentPad*%
%ADD13O,1.700000X1.700000*%
%TD*%
%TA.AperFunction,ComponentPad*%
%ADD14R,1.530000X1.530000*%
%TD*%
%TA.AperFunction,ComponentPad*%
%ADD15C,1.530000*%
%TD*%
%TA.AperFunction,ComponentPad*%
%ADD16C,1.524000*%
%TD*%
%TA.AperFunction,ComponentPad*%
%ADD17RotRect,1.700000X1.700000X310.000000*%
%TD*%
%TA.AperFunction,ComponentPad*%
%ADD18HorizOval,1.700000X0.000000X0.000000X0.000000X0.000000X0*%
%TD*%
%TA.AperFunction,ComponentPad*%
%ADD19R,1.508000X1.508000*%
%TD*%
%TA.AperFunction,ComponentPad*%
%ADD20C,1.508000*%
%TD*%
%TA.AperFunction,ComponentPad*%
%ADD21R,1.524000X1.524000*%
%TD*%
%TA.AperFunction,ComponentPad*%
%ADD22HorizOval,1.600000X0.000000X0.000000X0.000000X0.000000X0*%
%TD*%
%TA.AperFunction,ComponentPad*%
%ADD23RotRect,1.700000X1.700000X50.000000*%
%TD*%
%TA.AperFunction,ComponentPad*%
%ADD24HorizOval,1.700000X0.000000X0.000000X0.000000X0.000000X0*%
%TD*%
%TA.AperFunction,ComponentPad*%
%ADD25R,1.600000X1.600000*%
%TD*%
%TA.AperFunction,ComponentPad*%
%ADD26HorizOval,1.600000X0.000000X0.000000X0.000000X0.000000X0*%
%TD*%
%TA.AperFunction,ComponentPad*%
%ADD27R,1.995000X1.995000*%
%TD*%
%TA.AperFunction,ComponentPad*%
%ADD28C,1.995000*%
%TD*%
%TA.AperFunction,ComponentPad*%
%ADD29R,1.368000X1.368000*%
%TD*%
%TA.AperFunction,ComponentPad*%
%ADD30C,1.368000*%
%TD*%
%TA.AperFunction,ComponentPad*%
%ADD31RotRect,1.368000X1.368000X301.000000*%
%TD*%
%TA.AperFunction,ComponentPad*%
%ADD32RotRect,1.368000X1.368000X59.000000*%
%TD*%
%TA.AperFunction,ViaPad*%
%ADD33C,0.800000*%
%TD*%
%TA.AperFunction,Conductor*%
%ADD34C,0.400000*%
%TD*%
%TA.AperFunction,Conductor*%
%ADD35C,1.000000*%
%TD*%
G04 APERTURE END LIST*
D10*
%TO.P,R3,1*%
%TO.N,+3.3V*%
X122417500Y-60620000D03*
D11*
%TO.P,R3,2*%
%TO.N,Net-(R3-Pad2)*%
X122417500Y-53000000D03*
%TD*%
D12*
%TO.P,C2,1*%
%TO.N,+5V*%
X156217500Y-105417500D03*
D13*
%TO.P,C2,2*%
%TO.N,GND*%
X156217500Y-102877500D03*
%TD*%
D10*
%TO.P,R2,1*%
%TO.N,LLS*%
X101817500Y-66852500D03*
D11*
%TO.P,R2,2*%
%TO.N,GND*%
X101817500Y-59232500D03*
%TD*%
D10*
%TO.P,R7,1*%
%TO.N,+3.3V*%
X156217500Y-62352500D03*
D11*
%TO.P,R7,2*%
%TO.N,Net-(R7-Pad2)*%
X156217500Y-54732500D03*
%TD*%
D14*
%TO.P,U1,3_1,PA9*%
%TO.N,LHallA*%
X116037500Y-115762500D03*
D15*
%TO.P,U1,3_2,PA10*%
%TO.N,AIN1*%
X118577500Y-115762500D03*
%TO.P,U1,3_3,NRST_1*%
%TO.N,unconnected-(U1A-NRST_1-Pad3_3)*%
X121117500Y-115762500D03*
%TO.P,U1,3_4,GND_1*%
%TO.N,GND*%
X123657500Y-115762500D03*
%TO.P,U1,3_5,PA12*%
%TO.N,Net-(U13-IN)*%
X126197500Y-115762500D03*
%TO.P,U1,3_6,PB0*%
%TO.N,MRS*%
X128737500Y-115762500D03*
%TO.P,U1,3_7,PB7*%
%TO.N,SDA*%
X131277500Y-115762500D03*
%TO.P,U1,3_8,PB6*%
%TO.N,SCL*%
X133817500Y-115762500D03*
%TO.P,U1,3_9,PB1*%
%TO.N,MLS*%
X136357500Y-115762500D03*
%TO.P,U1,3_10,PF0*%
%TO.N,Net-(U1A-PF0)*%
X138897500Y-115762500D03*
%TO.P,U1,3_11,PF1*%
%TO.N,Net-(U1A-PF1)*%
X141437500Y-115762500D03*
%TO.P,U1,3_12,PA8*%
%TO.N,LHallB*%
X143977500Y-115762500D03*
%TO.P,U1,3_13,PA11*%
%TO.N,AIN2*%
X146517500Y-115762500D03*
%TO.P,U1,3_14,PB5*%
%TO.N,BIN2*%
X149057500Y-115762500D03*
%TO.P,U1,3_15,PB4*%
%TO.N,BIN1*%
X151597500Y-115762500D03*
D14*
%TO.P,U1,4_1,VIN*%
%TO.N,+5V*%
X116037500Y-100522500D03*
D15*
%TO.P,U1,4_2,GND_2*%
%TO.N,GND*%
X118577500Y-100522500D03*
%TO.P,U1,4_3,NRST_2*%
%TO.N,unconnected-(U1B-NRST_2-Pad4_3)*%
X121117500Y-100522500D03*
%TO.P,U1,4_4,+5V*%
%TO.N,+5V*%
X123657500Y-100522500D03*
%TO.P,U1,4_5,PA2*%
%TO.N,RHallB*%
X126197500Y-100522500D03*
%TO.P,U1,4_6,PA7*%
%TO.N,BSEN*%
X128737500Y-100522500D03*
%TO.P,U1,4_7,PA6*%
%TO.N,RRS*%
X131277500Y-100522500D03*
%TO.P,U1,4_8,PA5*%
%TO.N,FRS*%
X133817500Y-100522500D03*
%TO.P,U1,4_9,PA4*%
%TO.N,FLS*%
X136357500Y-100522500D03*
%TO.P,U1,4_10,PA3*%
%TO.N,LLS*%
X138897500Y-100522500D03*
%TO.P,U1,4_11,PA1*%
%TO.N,RHallA*%
X141437500Y-100522500D03*
%TO.P,U1,4_12,PA0*%
%TO.N,unconnected-(U1B-PA0-Pad4_12)*%
X143977500Y-100522500D03*
%TO.P,U1,4_13,AREF*%
%TO.N,unconnected-(U1B-AREF-Pad4_13)*%
X146517500Y-100522500D03*
%TO.P,U1,4_14,+3V3*%
%TO.N,+3.3V*%
X149057500Y-100522500D03*
%TO.P,U1,4_15,PB3*%
%TO.N,unconnected-(U1B-PB3-Pad4_15)*%
X151597500Y-100522500D03*
%TD*%
D12*
%TO.P,J1,1,Pin_1*%
%TO.N,Net-(J1-Pin_1)*%
X113097500Y-120842500D03*
D13*
%TO.P,J1,2,Pin_2*%
%TO.N,GND*%
X115637500Y-120842500D03*
%TO.P,J1,3,Pin_3*%
%TO.N,LHallA*%
X118177500Y-120842500D03*
%TO.P,J1,4,Pin_4*%
%TO.N,LHallB*%
X120717500Y-120842500D03*
%TO.P,J1,5,Pin_5*%
%TO.N,+3.3V*%
X123257500Y-120842500D03*
%TO.P,J1,6,Pin_6*%
%TO.N,Net-(J1-Pin_6)*%
X125797500Y-120842500D03*
%TD*%
D16*
%TO.P,U14,1,GND*%
%TO.N,GND*%
X126197500Y-95832500D03*
%TO.P,U14,2,BO1*%
%TO.N,Net-(J7-Pin_1)*%
X126197500Y-93292500D03*
%TO.P,U14,3,BO2*%
%TO.N,Net-(J7-Pin_6)*%
X126197500Y-90752500D03*
%TO.P,U14,4,AO2*%
%TO.N,Net-(J1-Pin_1)*%
X126197500Y-88212500D03*
%TO.P,U14,5,AO1*%
%TO.N,Net-(J1-Pin_6)*%
X126197500Y-85672500D03*
%TO.P,U14,6,GND*%
%TO.N,GND*%
X126197500Y-83132500D03*
%TO.P,U14,7,NC*%
%TO.N,unconnected-(U14-NC-Pad7)*%
X126197500Y-80592500D03*
%TO.P,U14,8,VM*%
%TO.N,VDD*%
X126197500Y-78052500D03*
%TO.P,U14,9,NC*%
%TO.N,unconnected-(U14-NC-Pad9)*%
X141437500Y-78052500D03*
%TO.P,U14,10,AIN2*%
%TO.N,AIN2*%
X141437500Y-80592500D03*
%TO.P,U14,11,AIN1*%
%TO.N,AIN1*%
X141437500Y-83132500D03*
%TO.P,U14,12,STBY*%
%TO.N,+3.3V*%
X141437500Y-85672500D03*
%TO.P,U14,13,BIN1*%
%TO.N,BIN1*%
X141437500Y-88212500D03*
%TO.P,U14,14,BIN2*%
%TO.N,BIN2*%
X141437500Y-90752500D03*
%TO.P,U14,15,NC*%
%TO.N,unconnected-(U14-NC-Pad15)*%
X141437500Y-93292500D03*
%TO.P,U14,16,GND*%
%TO.N,GND*%
X141437500Y-95832500D03*
%TD*%
D10*
%TO.P,R10,1*%
%TO.N,VCC*%
X126027500Y-110842500D03*
D11*
%TO.P,R10,2*%
%TO.N,BSEN*%
X118407500Y-110842500D03*
%TD*%
D17*
%TO.P,J2,1,Pin_1*%
%TO.N,Net-(J2-Pin_1)*%
X163864708Y-71650255D03*
D18*
%TO.P,J2,2,Pin_2*%
X165497389Y-73596008D03*
%TO.P,J2,3,Pin_3*%
%TO.N,Net-(J2-Pin_3)*%
X161918955Y-73282936D03*
%TO.P,J2,4,Pin_4*%
X163551636Y-75228688D03*
%TO.P,J2,5,Pin_5*%
%TO.N,Net-(J2-Pin_5)*%
X159973202Y-74915616D03*
%TO.P,J2,6,Pin_6*%
X161605883Y-76861369D03*
%TD*%
D19*
%TO.P,S2,1*%
%TO.N,GND*%
X146903000Y-96192500D03*
D20*
%TO.P,S2,2*%
X153403000Y-96192500D03*
%TO.P,S2,3*%
%TO.N,unconnected-(S2-Pad3)*%
X146903000Y-91692500D03*
%TO.P,S2,4*%
%TO.N,Net-(U1A-PF1)*%
X153403000Y-91692500D03*
%TD*%
D10*
%TO.P,R5,1*%
%TO.N,+3.3V*%
X136517500Y-59370000D03*
D11*
%TO.P,R5,2*%
%TO.N,Net-(R5-Pad2)*%
X136517500Y-51750000D03*
%TD*%
D10*
%TO.P,R4,1*%
%TO.N,FLS*%
X132317500Y-59310000D03*
D11*
%TO.P,R4,2*%
%TO.N,GND*%
X132317500Y-51690000D03*
%TD*%
D16*
%TO.P,U12,1,VCC*%
%TO.N,+3.3V*%
X141877500Y-104192500D03*
%TO.P,U12,2,VCCIO*%
%TO.N,unconnected-(U12-VCCIO-Pad2)*%
X144417500Y-104192500D03*
%TO.P,U12,3,3v3*%
%TO.N,+3.3V*%
X146957500Y-104192500D03*
D21*
%TO.P,U12,4,GND*%
%TO.N,GND*%
X141877500Y-112292500D03*
D16*
%TO.P,U12,5,SDA*%
%TO.N,SDA*%
X144417500Y-112292500D03*
%TO.P,U12,6,SCL*%
%TO.N,SCL*%
X146957500Y-112292500D03*
%TD*%
D12*
%TO.P,J4,1,Pin_1*%
%TO.N,+3.3V*%
X164210000Y-91750000D03*
D13*
%TO.P,J4,2,Pin_2*%
X166750000Y-91750000D03*
%TO.P,J4,3,Pin_3*%
%TO.N,GND*%
X164210000Y-94290000D03*
%TO.P,J4,4,Pin_4*%
X166750000Y-94290000D03*
%TO.P,J4,5,Pin_5*%
%TO.N,MLS*%
X164210000Y-96830000D03*
%TO.P,J4,6,Pin_6*%
X166750000Y-96830000D03*
%TD*%
D10*
%TO.P,R14,1*%
%TO.N,Net-(R14-Pad1)*%
X164523480Y-79113871D03*
D22*
%TO.P,R14,2*%
%TO.N,Net-(J2-Pin_5)*%
X169421522Y-84951130D03*
%TD*%
D12*
%TO.P,J5,1,Pin_1*%
%TO.N,+3.3V*%
X101329500Y-91725000D03*
D13*
%TO.P,J5,2,Pin_2*%
X103869500Y-91725000D03*
%TO.P,J5,3,Pin_3*%
%TO.N,GND*%
X101329500Y-94265000D03*
%TO.P,J5,4,Pin_4*%
X103869500Y-94265000D03*
%TO.P,J5,5,Pin_5*%
%TO.N,MRS*%
X101329500Y-96805000D03*
%TO.P,J5,6,Pin_6*%
X103869500Y-96805000D03*
%TD*%
D12*
%TO.P,J7,1,Pin_1*%
%TO.N,Net-(J7-Pin_1)*%
X143192500Y-120817500D03*
D13*
%TO.P,J7,2,Pin_2*%
%TO.N,GND*%
X145732500Y-120817500D03*
%TO.P,J7,3,Pin_3*%
%TO.N,RHallA*%
X148272500Y-120817500D03*
%TO.P,J7,4,Pin_4*%
%TO.N,RHallB*%
X150812500Y-120817500D03*
%TO.P,J7,5,Pin_5*%
%TO.N,+3.3V*%
X153352500Y-120817500D03*
%TO.P,J7,6,Pin_6*%
%TO.N,Net-(J7-Pin_6)*%
X155892500Y-120817500D03*
%TD*%
D23*
%TO.P,J3,1,Pin_1*%
%TO.N,Net-(J3-Pin_1)*%
X103075624Y-73257969D03*
D24*
%TO.P,J3,2,Pin_2*%
X104708305Y-71312216D03*
%TO.P,J3,3,Pin_3*%
%TO.N,Net-(J3-Pin_3)*%
X105021377Y-74890650D03*
%TO.P,J3,4,Pin_4*%
X106654057Y-72944897D03*
%TO.P,J3,5,Pin_5*%
%TO.N,Net-(J3-Pin_5)*%
X106967130Y-76523330D03*
%TO.P,J3,6,Pin_6*%
X108599810Y-74577577D03*
%TD*%
D12*
%TO.P,C1,1*%
%TO.N,VCC*%
X156217500Y-111667500D03*
D13*
%TO.P,C1,2*%
%TO.N,GND*%
X156217500Y-114207500D03*
%TD*%
D16*
%TO.P,SW1,1,A*%
%TO.N,VCC*%
X103000000Y-106210000D03*
%TO.P,SW1,2,B*%
%TO.N,VDD*%
X103000000Y-108750000D03*
%TO.P,SW1,3,C*%
%TO.N,unconnected-(SW1-C-Pad3)*%
X103000000Y-111290000D03*
%TD*%
D10*
%TO.P,R6,1*%
%TO.N,FRS*%
X146317500Y-60052500D03*
D11*
%TO.P,R6,2*%
%TO.N,GND*%
X146317500Y-52432500D03*
%TD*%
D25*
%TO.P,C3,1*%
%TO.N,VDD*%
X159500000Y-94000000D03*
D10*
%TO.P,C3,2*%
%TO.N,GND*%
X157500000Y-94000000D03*
%TD*%
%TO.P,R12,1*%
%TO.N,Net-(R12-Pad1)*%
X98737480Y-85459130D03*
D26*
%TO.P,R12,2*%
%TO.N,Net-(J3-Pin_5)*%
X103635522Y-79621871D03*
%TD*%
D10*
%TO.P,R9,1*%
%TO.N,Net-(J3-Pin_1)*%
X95435480Y-82411130D03*
D26*
%TO.P,R9,2*%
%TO.N,Net-(R9-Pad2)*%
X100333522Y-76573871D03*
%TD*%
D16*
%TO.P,U13,1,IN*%
%TO.N,Net-(U13-IN)*%
X121117500Y-83442500D03*
%TO.P,U13,2,OUT*%
%TO.N,GND*%
X113517500Y-83392500D03*
%TD*%
D12*
%TO.P,J6,1,Pin_1*%
%TO.N,GND*%
X162717500Y-114067500D03*
D13*
%TO.P,J6,2,Pin_2*%
%TO.N,VDD*%
X162717500Y-116607500D03*
%TD*%
D19*
%TO.P,S1,1*%
%TO.N,GND*%
X113967500Y-95992500D03*
D20*
%TO.P,S1,2*%
X120467500Y-95992500D03*
%TO.P,S1,3*%
%TO.N,unconnected-(S1-Pad3)*%
X113967500Y-91492500D03*
%TO.P,S1,4*%
%TO.N,Net-(U1A-PF0)*%
X120467500Y-91492500D03*
%TD*%
D10*
%TO.P,R1,1*%
%TO.N,+3.3V*%
X112217500Y-63252500D03*
D11*
%TO.P,R1,2*%
%TO.N,Net-(R1-Pad2)*%
X112217500Y-55632500D03*
%TD*%
D10*
%TO.P,R8,1*%
%TO.N,RRS*%
X166717500Y-65952500D03*
D11*
%TO.P,R8,2*%
%TO.N,GND*%
X166717500Y-58332500D03*
%TD*%
D10*
%TO.P,R13,1*%
%TO.N,Net-(J2-Pin_1)*%
X167698480Y-76446871D03*
D22*
%TO.P,R13,2*%
%TO.N,Net-(R13-Pad2)*%
X172596522Y-82284130D03*
%TD*%
D10*
%TO.P,R11,1*%
%TO.N,BSEN*%
X118607500Y-105342500D03*
D11*
%TO.P,R11,2*%
%TO.N,GND*%
X126227500Y-105342500D03*
%TD*%
D27*
%TO.P,\u4E09\u7AEF\u5B501,1,Pin_1*%
%TO.N,+5V*%
X165592500Y-108382500D03*
D28*
%TO.P,\u4E09\u7AEF\u5B501,2,Pin_2*%
%TO.N,GND*%
X165592500Y-105842500D03*
%TO.P,\u4E09\u7AEF\u5B501,3,Pin_3*%
%TO.N,VCC*%
X165592500Y-103302500D03*
%TD*%
D29*
%TO.P,U9,1*%
%TO.N,Net-(U8-Pad4)*%
X160247500Y-62392500D03*
D30*
%TO.P,U9,2*%
%TO.N,RRS*%
X160247500Y-58292500D03*
%TO.P,U9,3*%
%TO.N,+3.3V*%
X162787500Y-58292500D03*
%TO.P,U9,4*%
%TO.N,GND*%
X162787500Y-62392500D03*
%TD*%
D31*
%TO.P,U11,1*%
%TO.N,Net-(R13-Pad2)*%
X177338709Y-102967226D03*
D30*
%TO.P,U11,2*%
%TO.N,Net-(R14-Pad1)*%
X180853095Y-100855569D03*
%TO.P,U11,3*%
%TO.N,Net-(J2-Pin_1)*%
X182161291Y-103032774D03*
%TO.P,U11,4*%
%TO.N,Net-(J2-Pin_3)*%
X178646905Y-105144431D03*
%TD*%
D29*
%TO.P,U8,1*%
%TO.N,Net-(R7-Pad2)*%
X170464291Y-67092500D03*
D30*
%TO.P,U8,2*%
%TO.N,RRS*%
X170464291Y-62992500D03*
%TO.P,U8,3*%
%TO.N,+3.3V*%
X173004291Y-62992500D03*
%TO.P,U8,4*%
%TO.N,Net-(U8-Pad4)*%
X173004291Y-67092500D03*
%TD*%
D29*
%TO.P,U4,1*%
%TO.N,Net-(R3-Pad2)*%
X126147500Y-57692500D03*
D30*
%TO.P,U4,2*%
%TO.N,FLS*%
X126147500Y-53592500D03*
%TO.P,U4,3*%
%TO.N,+3.3V*%
X128687500Y-53592500D03*
%TO.P,U4,4*%
%TO.N,Net-(U4-Pad4)*%
X128687500Y-57692500D03*
%TD*%
D32*
%TO.P,U10,1*%
%TO.N,Net-(R9-Pad2)*%
X89103095Y-105144431D03*
D30*
%TO.P,U10,2*%
%TO.N,Net-(R12-Pad1)*%
X85588709Y-103032774D03*
%TO.P,U10,3*%
%TO.N,Net-(J3-Pin_1)*%
X86896905Y-100855569D03*
%TO.P,U10,4*%
%TO.N,Net-(J3-Pin_3)*%
X90411291Y-102967226D03*
%TD*%
D29*
%TO.P,U5,1*%
%TO.N,Net-(U4-Pad4)*%
X116060710Y-59442500D03*
D30*
%TO.P,U5,2*%
%TO.N,FLS*%
X116060710Y-55342500D03*
%TO.P,U5,3*%
%TO.N,+3.3V*%
X118600710Y-55342500D03*
%TO.P,U5,4*%
%TO.N,GND*%
X118600710Y-59442500D03*
%TD*%
D29*
%TO.P,U7,1*%
%TO.N,Net-(U6-Pad4)*%
X140047500Y-57692500D03*
D30*
%TO.P,U7,2*%
%TO.N,FRS*%
X140047500Y-53592500D03*
%TO.P,U7,3*%
%TO.N,+3.3V*%
X142587500Y-53592500D03*
%TO.P,U7,4*%
%TO.N,GND*%
X142587500Y-57692500D03*
%TD*%
D29*
%TO.P,U2,1*%
%TO.N,Net-(R1-Pad2)*%
X95117500Y-68042500D03*
D30*
%TO.P,U2,2*%
%TO.N,LLS*%
X95117500Y-63942500D03*
%TO.P,U2,3*%
%TO.N,+3.3V*%
X97657500Y-63942500D03*
%TO.P,U2,4*%
%TO.N,Net-(U2-Pad4)*%
X97657500Y-68042500D03*
%TD*%
D29*
%TO.P,U6,1*%
%TO.N,Net-(R5-Pad2)*%
X149747500Y-59092500D03*
D30*
%TO.P,U6,2*%
%TO.N,FRS*%
X149747500Y-54992500D03*
%TO.P,U6,3*%
%TO.N,+3.3V*%
X152287500Y-54992500D03*
%TO.P,U6,4*%
%TO.N,Net-(U6-Pad4)*%
X152287500Y-59092500D03*
%TD*%
D29*
%TO.P,U3,1*%
%TO.N,Net-(U2-Pad4)*%
X105547500Y-63092500D03*
D30*
%TO.P,U3,2*%
%TO.N,LLS*%
X105547500Y-58992500D03*
%TO.P,U3,3*%
%TO.N,+3.3V*%
X108087500Y-58992500D03*
%TO.P,U3,4*%
%TO.N,GND*%
X108087500Y-63092500D03*
%TD*%
D33*
%TO.N,Net-(J3-Pin_3)*%
X89100000Y-96800000D03*
%TO.N,RRS*%
X137417500Y-90842500D03*
%TO.N,+3.3V*%
X153317500Y-107842500D03*
X155717500Y-98242500D03*
X153417500Y-80242500D03*
%TO.N,Net-(R1-Pad2)*%
X99750000Y-66000000D03*
X110000000Y-63500000D03*
%TO.N,LLS*%
X137417500Y-85742500D03*
X139117500Y-87642500D03*
X114717500Y-67500000D03*
%TO.N,GND*%
X159000000Y-112750000D03*
X175250000Y-61750000D03*
X117000000Y-78250000D03*
X159250000Y-102000000D03*
X150250000Y-118500000D03*
X159250000Y-82750000D03*
X136000000Y-91000000D03*
X160500000Y-112750000D03*
X130500000Y-86500000D03*
X163500000Y-129000000D03*
X123100000Y-97700000D03*
X159000000Y-110750000D03*
X170250000Y-58500000D03*
X144500000Y-94250000D03*
X118750000Y-65750000D03*
X120750000Y-65750000D03*
X132000000Y-122000000D03*
X134250000Y-122000000D03*
X163250000Y-86750000D03*
X147000000Y-130500000D03*
X145250000Y-81000000D03*
X105500000Y-67750000D03*
X143750000Y-130500000D03*
X159000000Y-118900000D03*
X104000000Y-129750000D03*
X175250000Y-63750000D03*
X101500000Y-127250000D03*
X125000000Y-107750000D03*
X165750000Y-126500000D03*
X129750000Y-80500000D03*
X149750000Y-78000000D03*
X160250000Y-54500000D03*
X130500000Y-89000000D03*
X160500000Y-110750000D03*
X134250000Y-124500000D03*
X115250000Y-103000000D03*
X132600000Y-77500000D03*
X153750000Y-84500000D03*
X175250000Y-66250000D03*
X124500000Y-74500000D03*
X129750000Y-122000000D03*
X132000000Y-124500000D03*
X115250000Y-109750000D03*
X150000000Y-130500000D03*
X156000000Y-79500000D03*
X127750000Y-112000000D03*
X110250000Y-67750000D03*
X106250000Y-132000000D03*
X129750000Y-124500000D03*
X151500000Y-63250000D03*
X160750000Y-131750000D03*
X151250000Y-87000000D03*
X107750000Y-67750000D03*
X159250000Y-88500000D03*
X119500000Y-78250000D03*
X93000000Y-64250000D03*
X98750000Y-60000000D03*
X156250000Y-56750000D03*
X165500000Y-98900000D03*
X115250000Y-105000000D03*
%TO.N,FLS*%
X132617500Y-97242500D03*
%TO.N,Net-(R5-Pad2)*%
X138500000Y-58500000D03*
X141250000Y-62000000D03*
%TO.N,FRS*%
X144500000Y-73500000D03*
X150250000Y-67000000D03*
X138317500Y-77942500D03*
%TO.N,Net-(R7-Pad2)*%
X158500000Y-63500000D03*
X159250000Y-66750000D03*
%TO.N,RRS*%
X145000000Y-83750000D03*
%TO.N,Net-(U2-Pad4)*%
X99750000Y-64750000D03*
%TO.N,Net-(U6-Pad4)*%
X142625000Y-60375000D03*
X144250000Y-63000000D03*
%TO.N,Net-(J3-Pin_1)*%
X90750000Y-91750000D03*
%TO.N,Net-(R9-Pad2)*%
X100750000Y-83750000D03*
X92250000Y-99000000D03*
%TO.N,Net-(R13-Pad2)*%
X179300000Y-99700000D03*
%TO.N,Net-(R14-Pad1)*%
X174900000Y-95900000D03*
%TO.N,Net-(J3-Pin_3)*%
X93700000Y-87700000D03*
%TO.N,Net-(J2-Pin_3)*%
X176750000Y-100500000D03*
%TO.N,MLS*%
X138317500Y-120942500D03*
X141417500Y-123342500D03*
%TO.N,MRS*%
X106417500Y-111642500D03*
X105817500Y-101800000D03*
%TO.N,Net-(U1A-PF0)*%
X137217500Y-108342500D03*
%TO.N,Net-(U1A-PF1)*%
X148717500Y-98542500D03*
X143417500Y-108842500D03*
%TO.N,Net-(U13-IN)*%
X129117500Y-106942500D03*
X128217500Y-96242500D03*
X130117500Y-102750000D03*
X128117500Y-92342500D03*
%TO.N,BIN2*%
X143117500Y-107342500D03*
%TO.N,BIN1*%
X150317500Y-108242500D03*
%TO.N,AIN2*%
X140217500Y-108142500D03*
%TO.N,Net-(J7-Pin_6)*%
X108917500Y-120742500D03*
X107817500Y-102642500D03*
%TO.N,Net-(J7-Pin_1)*%
X111917500Y-115842500D03*
X111817500Y-104442500D03*
X143017500Y-124242500D03*
X113300000Y-130400000D03*
%TO.N,RHallA*%
X135217500Y-108842500D03*
X132717500Y-104942500D03*
%TO.N,RHallB*%
X130017500Y-108542500D03*
X131817500Y-118542500D03*
%TO.N,LHallB*%
X141117500Y-120942500D03*
%TD*%
D34*
%TO.N,Net-(U13-IN)*%
X130017500Y-102650000D02*
X130017500Y-98042500D01*
X130117500Y-102750000D02*
X130017500Y-102650000D01*
X130017500Y-98042500D02*
X128217500Y-96242500D01*
%TO.N,Net-(J2-Pin_3)*%
X178646905Y-102353095D02*
X178646905Y-105144431D01*
X178750000Y-102250000D02*
X178646905Y-102353095D01*
X177000000Y-100500000D02*
X178750000Y-102250000D01*
X176750000Y-100500000D02*
X177000000Y-100500000D01*
%TO.N,Net-(J3-Pin_3)*%
X93550000Y-87700000D02*
X93700000Y-87700000D01*
X89100000Y-96800000D02*
X89100000Y-92150000D01*
X89100000Y-92150000D02*
X93550000Y-87700000D01*
%TO.N,MLS*%
X166750000Y-97500000D02*
X166750000Y-96830000D01*
X163000000Y-121300000D02*
X167250000Y-117050000D01*
X163000000Y-122382500D02*
X163000000Y-121300000D01*
X162132500Y-123250000D02*
X163000000Y-122382500D01*
X167250000Y-98000000D02*
X166750000Y-97500000D01*
X141417500Y-123342500D02*
X141825000Y-123342500D01*
X141825000Y-123342500D02*
X141917500Y-123250000D01*
X141917500Y-123250000D02*
X162132500Y-123250000D01*
X167250000Y-117050000D02*
X167250000Y-98000000D01*
D35*
%TO.N,+3.3V*%
X141877500Y-103742500D02*
X142997500Y-102622500D01*
X141877500Y-104192500D02*
X141877500Y-103742500D01*
D34*
%TO.N,Net-(R9-Pad2)*%
X100800000Y-77040349D02*
X100333522Y-76573871D01*
X100800000Y-83700000D02*
X100800000Y-77040349D01*
X100750000Y-83750000D02*
X100800000Y-83700000D01*
%TO.N,RRS*%
X156547500Y-65952500D02*
X166717500Y-65952500D01*
X146317500Y-76182500D02*
X156547500Y-65952500D01*
X146317500Y-82432500D02*
X146317500Y-76182500D01*
X145000000Y-83750000D02*
X146317500Y-82432500D01*
%TO.N,Net-(U6-Pad4)*%
X144250000Y-62000000D02*
X142625000Y-60375000D01*
X144250000Y-63000000D02*
X144250000Y-62000000D01*
D35*
%TO.N,+3.3V*%
X162500000Y-95000000D02*
X162500000Y-93460000D01*
X162500000Y-93460000D02*
X164210000Y-91750000D01*
X147987500Y-85672500D02*
X153417500Y-80242500D01*
X159357500Y-98142500D02*
X162500000Y-95000000D01*
X146957500Y-104192500D02*
X146957500Y-102622500D01*
X153352500Y-107877500D02*
X153317500Y-107842500D01*
X155000000Y-81825000D02*
X153417500Y-80242500D01*
X154500000Y-98142500D02*
X155617500Y-98142500D01*
X142997500Y-102622500D02*
X146957500Y-102622500D01*
X155617500Y-98142500D02*
X155717500Y-98242500D01*
X154500000Y-98142500D02*
X155000000Y-98142500D01*
X149057500Y-100522500D02*
X151437500Y-98142500D01*
X155000000Y-98142500D02*
X155000000Y-81825000D01*
X155000000Y-98142500D02*
X159357500Y-98142500D01*
X141437500Y-85672500D02*
X147987500Y-85672500D01*
X151437500Y-98142500D02*
X154500000Y-98142500D01*
X146957500Y-102622500D02*
X149057500Y-100522500D01*
X153352500Y-120817500D02*
X153352500Y-107877500D01*
D34*
%TO.N,Net-(R1-Pad2)*%
X99000000Y-69000000D02*
X99000000Y-67500000D01*
X98500000Y-69500000D02*
X99000000Y-69000000D01*
X95542500Y-68042500D02*
X97000000Y-69500000D01*
X99000000Y-67500000D02*
X99750000Y-66750000D01*
X97000000Y-69500000D02*
X98500000Y-69500000D01*
X95117500Y-68042500D02*
X95542500Y-68042500D01*
X99750000Y-66750000D02*
X99750000Y-66000000D01*
X110000000Y-57850000D02*
X112217500Y-55632500D01*
X110000000Y-63500000D02*
X110000000Y-57850000D01*
%TO.N,LLS*%
X125217500Y-79342500D02*
X131017500Y-79342500D01*
X114750000Y-67500000D02*
X115750000Y-68500000D01*
X115750000Y-69875000D02*
X125217500Y-79342500D01*
X139117500Y-87642500D02*
X139117500Y-100302500D01*
X139117500Y-100302500D02*
X138897500Y-100522500D01*
X131017500Y-79342500D02*
X137417500Y-85742500D01*
X115750000Y-68500000D02*
X115750000Y-69875000D01*
X114717500Y-67500000D02*
X114750000Y-67500000D01*
X101817500Y-62722500D02*
X105547500Y-58992500D01*
X101817500Y-66852500D02*
X101817500Y-62722500D01*
%TO.N,GND*%
X126750000Y-105865000D02*
X126750000Y-108500000D01*
X145000000Y-81000000D02*
X145250000Y-81000000D01*
X131000000Y-95250000D02*
X131750000Y-95250000D01*
X127117500Y-83132500D02*
X129750000Y-80500000D01*
X165500000Y-98900000D02*
X165500000Y-95540000D01*
X134350000Y-79250000D02*
X143250000Y-79250000D01*
X131750000Y-95250000D02*
X136000000Y-91000000D01*
X143250000Y-79250000D02*
X145000000Y-81000000D01*
X165592500Y-105842500D02*
X163500000Y-103750000D01*
X165500000Y-99500000D02*
X165500000Y-98900000D01*
X165500000Y-95540000D02*
X166750000Y-94290000D01*
X126917500Y-95832500D02*
X127500000Y-95250000D01*
X151250000Y-87000000D02*
X153750000Y-84500000D01*
X132600000Y-77500000D02*
X134350000Y-79250000D01*
X126197500Y-83132500D02*
X127117500Y-83132500D01*
X148050000Y-118500000D02*
X150250000Y-118500000D01*
X126750000Y-108500000D02*
X127750000Y-109500000D01*
X127500000Y-95250000D02*
X131000000Y-95250000D01*
X163500000Y-101500000D02*
X165500000Y-99500000D01*
X126197500Y-95832500D02*
X126917500Y-95832500D01*
X126227500Y-105342500D02*
X126750000Y-105865000D01*
X145732500Y-120817500D02*
X148050000Y-118500000D01*
X163500000Y-103750000D02*
X163500000Y-101500000D01*
X127750000Y-109500000D02*
X127750000Y-112000000D01*
%TO.N,Net-(R3-Pad2)*%
X122417500Y-52542500D02*
X122417500Y-53962500D01*
X122417500Y-53962500D02*
X126147500Y-57692500D01*
%TO.N,FLS*%
X132617500Y-97242500D02*
X133077500Y-97242500D01*
X129165000Y-56000000D02*
X132317500Y-59152500D01*
X126147500Y-53647500D02*
X128500000Y-56000000D01*
X126147500Y-53592500D02*
X126147500Y-53647500D01*
X128500000Y-56000000D02*
X129165000Y-56000000D01*
X133077500Y-97242500D02*
X136357500Y-100522500D01*
%TO.N,Net-(R5-Pad2)*%
X138517500Y-58482500D02*
X138500000Y-58500000D01*
X138517500Y-53532500D02*
X138517500Y-58482500D01*
X136517500Y-51532500D02*
X138517500Y-53532500D01*
%TO.N,FRS*%
X142500000Y-56000000D02*
X143250000Y-56000000D01*
X140047500Y-53592500D02*
X140092500Y-53592500D01*
X138317500Y-77942500D02*
X139417500Y-77942500D01*
X144500000Y-57250000D02*
X144500000Y-58235000D01*
X144500000Y-74250000D02*
X144500000Y-73500000D01*
X141250000Y-76000000D02*
X142750000Y-76000000D01*
X150250000Y-67000000D02*
X146317500Y-63067500D01*
X142750000Y-76000000D02*
X144500000Y-74250000D01*
X140092500Y-53592500D02*
X142500000Y-56000000D01*
X144500000Y-58235000D02*
X146317500Y-60052500D01*
X146317500Y-63067500D02*
X146317500Y-60052500D01*
X146317500Y-58422500D02*
X146317500Y-60052500D01*
X139417500Y-77942500D02*
X139417500Y-77832500D01*
X143250000Y-56000000D02*
X144500000Y-57250000D01*
X149747500Y-54992500D02*
X146317500Y-58422500D01*
X139417500Y-77832500D02*
X141250000Y-76000000D01*
%TO.N,Net-(R7-Pad2)*%
X168000000Y-67250000D02*
X168157500Y-67092500D01*
X168157500Y-67092500D02*
X170464291Y-67092500D01*
X159250000Y-66750000D02*
X159750000Y-67250000D01*
X156732500Y-54732500D02*
X156217500Y-54732500D01*
X157750000Y-55750000D02*
X156732500Y-54732500D01*
X158500000Y-63500000D02*
X157750000Y-62750000D01*
X157750000Y-62750000D02*
X157750000Y-55750000D01*
X159750000Y-67250000D02*
X168000000Y-67250000D01*
%TO.N,RRS*%
X160247500Y-58292500D02*
X162705000Y-60750000D01*
X131277500Y-96982500D02*
X131277500Y-100522500D01*
X166717500Y-63717500D02*
X166717500Y-65952500D01*
X137417500Y-90842500D02*
X131277500Y-96982500D01*
X163750000Y-60750000D02*
X166717500Y-63717500D01*
X162705000Y-60750000D02*
X163750000Y-60750000D01*
%TO.N,Net-(U2-Pad4)*%
X97657500Y-66842500D02*
X99750000Y-64750000D01*
X97657500Y-68042500D02*
X97657500Y-66842500D01*
%TO.N,Net-(U4-Pad4)*%
X116192500Y-59442500D02*
X120000000Y-63250000D01*
X123130000Y-63250000D02*
X128687500Y-57692500D01*
X120000000Y-63250000D02*
X123130000Y-63250000D01*
X116060710Y-59442500D02*
X116192500Y-59442500D01*
%TO.N,BSEN*%
X118607500Y-105342500D02*
X118607500Y-110642500D01*
X118607500Y-110642500D02*
X118407500Y-110842500D01*
%TO.N,Net-(J3-Pin_1)*%
X86896905Y-100853095D02*
X90750000Y-97000000D01*
X86896905Y-100855569D02*
X86896905Y-100853095D01*
X90750000Y-97000000D02*
X90750000Y-91750000D01*
%TO.N,Net-(R9-Pad2)*%
X92000000Y-99000000D02*
X92250000Y-99000000D01*
X89103095Y-102103095D02*
X89000000Y-102000000D01*
X89000000Y-102000000D02*
X92000000Y-99000000D01*
X89103095Y-105144431D02*
X89103095Y-102103095D01*
%TO.N,Net-(R13-Pad2)*%
X179300000Y-98300000D02*
X179300000Y-99700000D01*
X172596522Y-82284130D02*
X174700000Y-84387608D01*
X174700000Y-93700000D02*
X179300000Y-98300000D01*
X174700000Y-84387608D02*
X174700000Y-93700000D01*
%TO.N,Net-(R14-Pad1)*%
X180708664Y-101000000D02*
X180853095Y-100855569D01*
X178500000Y-101000000D02*
X180708664Y-101000000D01*
X174900000Y-95900000D02*
X174900000Y-97400000D01*
X174900000Y-97400000D02*
X178500000Y-101000000D01*
%TO.N,Net-(J2-Pin_5)*%
X163074982Y-78425018D02*
X164250000Y-77250000D01*
X169421522Y-81921522D02*
X169421522Y-84951130D01*
X161538977Y-77063995D02*
X162900000Y-78425018D01*
X162900000Y-78425018D02*
X163074982Y-78425018D01*
X164750000Y-77250000D02*
X169421522Y-81921522D01*
X164250000Y-77250000D02*
X164750000Y-77250000D01*
%TO.N,MLS*%
X138117500Y-120842500D02*
X138317500Y-120942500D01*
X138317500Y-120942500D02*
X138217500Y-120842500D01*
X136357500Y-115762500D02*
X136357500Y-119082500D01*
X136357500Y-119082500D02*
X138117500Y-120842500D01*
%TO.N,MRS*%
X105817500Y-111242500D02*
X106417500Y-111642500D01*
X105817500Y-101800000D02*
X105817500Y-111242500D01*
D35*
%TO.N,+5V*%
X159182500Y-108382500D02*
X156217500Y-105417500D01*
X165592500Y-108382500D02*
X159182500Y-108382500D01*
X118457500Y-102942500D02*
X116037500Y-100522500D01*
X131517500Y-106242500D02*
X128117500Y-102842500D01*
X123217500Y-102942500D02*
X118457500Y-102942500D01*
X123817500Y-100682500D02*
X123657500Y-100522500D01*
X156217500Y-105417500D02*
X150542500Y-105417500D01*
X123817500Y-102342500D02*
X123817500Y-100682500D01*
X150542500Y-105417500D02*
X149717500Y-106242500D01*
X124317500Y-102842500D02*
X123817500Y-102342500D01*
X123817500Y-102342500D02*
X123217500Y-102942500D01*
X149717500Y-106242500D02*
X131517500Y-106242500D01*
X128117500Y-102842500D02*
X124317500Y-102842500D01*
D34*
%TO.N,Net-(U1A-PF0)*%
X137217500Y-108342500D02*
X137217500Y-114082500D01*
X137217500Y-114082500D02*
X138897500Y-115762500D01*
%TO.N,Net-(U1A-PF1)*%
X143117500Y-109142500D02*
X143117500Y-114082500D01*
X148717500Y-96378000D02*
X148717500Y-98542500D01*
X148717500Y-98542500D02*
X148717500Y-98442500D01*
X143117500Y-114082500D02*
X141437500Y-115762500D01*
X143117500Y-109142500D02*
X143417500Y-108842500D01*
X153403000Y-91692500D02*
X148717500Y-96378000D01*
%TO.N,Net-(U13-IN)*%
X128117500Y-84942500D02*
X128117500Y-92342500D01*
X121117500Y-83442500D02*
X124017500Y-83442500D01*
X124867500Y-84292500D02*
X124917500Y-84342500D01*
X124017500Y-83442500D02*
X124867500Y-84292500D01*
X127517500Y-84342500D02*
X128117500Y-84942500D01*
X124917500Y-84342500D02*
X127517500Y-84342500D01*
X128617500Y-113342500D02*
X126197500Y-115762500D01*
X128617500Y-107442500D02*
X128617500Y-113342500D01*
X129117500Y-106942500D02*
X128617500Y-107442500D01*
%TO.N,BIN2*%
X148817500Y-111742500D02*
X148817500Y-115522500D01*
X143117500Y-107342500D02*
X144417500Y-107342500D01*
X144417500Y-107342500D02*
X148817500Y-111742500D01*
X148817500Y-115522500D02*
X149057500Y-115762500D01*
%TO.N,BIN1*%
X150317500Y-108242500D02*
X150317500Y-114482500D01*
X150317500Y-114482500D02*
X151597500Y-115762500D01*
%TO.N,AIN1*%
X113217500Y-110402500D02*
X113217500Y-99242500D01*
X113217500Y-99242500D02*
X117917500Y-94542500D01*
X130027500Y-94542500D02*
X141437500Y-83132500D01*
X118577500Y-115762500D02*
X113217500Y-110402500D01*
X117917500Y-94542500D02*
X130027500Y-94542500D01*
%TO.N,AIN2*%
X145717500Y-117742500D02*
X146517500Y-116942500D01*
X146517500Y-116942500D02*
X146517500Y-115762500D01*
X140217500Y-116642500D02*
X141317500Y-117742500D01*
X140217500Y-108142500D02*
X140217500Y-116642500D01*
X141317500Y-117742500D02*
X145717500Y-117742500D01*
D35*
%TO.N,Net-(J1-Pin_6)*%
X108117500Y-123542500D02*
X123097500Y-123542500D01*
X126197500Y-85672500D02*
X110387500Y-85672500D01*
X101000000Y-116425000D02*
X108117500Y-123542500D01*
X106417500Y-96882500D02*
X101000000Y-102300000D01*
X110387500Y-85672500D02*
X106417500Y-89642500D01*
X101000000Y-102300000D02*
X101000000Y-116425000D01*
X123097500Y-123542500D02*
X125797500Y-120842500D01*
X106417500Y-89642500D02*
X106417500Y-96882500D01*
%TO.N,Net-(J1-Pin_1)*%
X110117500Y-90842500D02*
X112747500Y-88212500D01*
X110117500Y-117862500D02*
X110117500Y-90842500D01*
X112747500Y-88212500D02*
X126197500Y-88212500D01*
X113097500Y-120842500D02*
X110117500Y-117862500D01*
%TO.N,Net-(J7-Pin_6)*%
X107817500Y-102642500D02*
X107817500Y-119642500D01*
X107817500Y-119642500D02*
X108917500Y-120742500D01*
%TO.N,Net-(J7-Pin_1)*%
X111828904Y-115753904D02*
X111917500Y-115842500D01*
X111917500Y-115842500D02*
X111817500Y-115742500D01*
X136860000Y-130400000D02*
X113300000Y-130400000D01*
X143017500Y-124242500D02*
X136860000Y-130400000D01*
X111817500Y-104442500D02*
X111828904Y-104453904D01*
X111828904Y-104453904D02*
X111828904Y-115753904D01*
D34*
%TO.N,RHallA*%
X137017500Y-104942500D02*
X132717500Y-104942500D01*
X135217500Y-119742500D02*
X137917500Y-122442500D01*
X148272500Y-120817500D02*
X146647500Y-122442500D01*
X135217500Y-108842500D02*
X135217500Y-119742500D01*
X141437500Y-100522500D02*
X137017500Y-104942500D01*
X146647500Y-122442500D02*
X137917500Y-122442500D01*
%TO.N,RHallB*%
X130017500Y-116742500D02*
X131817500Y-118542500D01*
X130017500Y-108542500D02*
X130017500Y-116742500D01*
%TO.N,LHallB*%
X147717500Y-114342500D02*
X147717500Y-117642500D01*
X147717500Y-117642500D02*
X145917500Y-119442500D01*
X145917500Y-119442500D02*
X141817500Y-119442500D01*
X143977500Y-115762500D02*
X143977500Y-114782500D01*
X144817500Y-113942500D02*
X147317500Y-113942500D01*
X143977500Y-114782500D02*
X144817500Y-113942500D01*
X141817500Y-119442500D02*
X141117500Y-120142500D01*
X141117500Y-120142500D02*
X141117500Y-120942500D01*
X147317500Y-113942500D02*
X147717500Y-114342500D01*
%TO.N,LHallA*%
X116037500Y-118702500D02*
X118177500Y-120842500D01*
X116037500Y-115762500D02*
X116037500Y-118702500D01*
%TD*%
%TA.AperFunction,Conductor*%
%TO.N,GND*%
G36*
X155136856Y-106715655D02*
G01*
X155260017Y-106761591D01*
X155319627Y-106768000D01*
X156101716Y-106767999D01*
X156149169Y-106777438D01*
X156189397Y-106804318D01*
X158464931Y-109079851D01*
X158467124Y-109082100D01*
X158527442Y-109145554D01*
X158575862Y-109179255D01*
X158583371Y-109184916D01*
X158629093Y-109222198D01*
X158656062Y-109236285D01*
X158669482Y-109244416D01*
X158694449Y-109261794D01*
X158748663Y-109285059D01*
X158757173Y-109289101D01*
X158809451Y-109316409D01*
X158838700Y-109324777D01*
X158853470Y-109330035D01*
X158881442Y-109342040D01*
X158881445Y-109342040D01*
X158881446Y-109342041D01*
X158939226Y-109353914D01*
X158948369Y-109356157D01*
X159005082Y-109372386D01*
X159035420Y-109374696D01*
X159050948Y-109376873D01*
X159080759Y-109383000D01*
X159139744Y-109383000D01*
X159149159Y-109383358D01*
X159153306Y-109383673D01*
X159207976Y-109387837D01*
X159234778Y-109384423D01*
X159238152Y-109383994D01*
X159253817Y-109383000D01*
X163978293Y-109383000D01*
X164036423Y-109397470D01*
X164080986Y-109437501D01*
X164094126Y-109473389D01*
X164095466Y-109472890D01*
X164100909Y-109487483D01*
X164151204Y-109622331D01*
X164237454Y-109737546D01*
X164352669Y-109823796D01*
X164487517Y-109874091D01*
X164547127Y-109880500D01*
X166425500Y-109880499D01*
X166487500Y-109897112D01*
X166532887Y-109942499D01*
X166549500Y-110004499D01*
X166549500Y-116708481D01*
X166540061Y-116755934D01*
X166513181Y-116796162D01*
X162595662Y-120713681D01*
X162555434Y-120740561D01*
X162507981Y-120750000D01*
X157355878Y-120750000D01*
X157297027Y-120735145D01*
X157252277Y-120694139D01*
X157232350Y-120636807D01*
X157227563Y-120582093D01*
X157227563Y-120582092D01*
X157166403Y-120353837D01*
X157066535Y-120139671D01*
X156930995Y-119946099D01*
X156763901Y-119779005D01*
X156570330Y-119643465D01*
X156356163Y-119543597D01*
X156295002Y-119527209D01*
X156127907Y-119482436D01*
X155892500Y-119461840D01*
X155657092Y-119482436D01*
X155428836Y-119543597D01*
X155214670Y-119643465D01*
X155021098Y-119779005D01*
X154854005Y-119946098D01*
X154724075Y-120131659D01*
X154679757Y-120170525D01*
X154622500Y-120184536D01*
X154565243Y-120170525D01*
X154520925Y-120131659D01*
X154433621Y-120006976D01*
X154390995Y-119946099D01*
X154389319Y-119944423D01*
X154362439Y-119904195D01*
X154353000Y-119856742D01*
X154353000Y-116607499D01*
X161361840Y-116607499D01*
X161382436Y-116842907D01*
X161420164Y-116983710D01*
X161443597Y-117071163D01*
X161543465Y-117285330D01*
X161679005Y-117478901D01*
X161846099Y-117645995D01*
X162039670Y-117781535D01*
X162253837Y-117881403D01*
X162482092Y-117942563D01*
X162717500Y-117963159D01*
X162952908Y-117942563D01*
X163181163Y-117881403D01*
X163395330Y-117781535D01*
X163588901Y-117645995D01*
X163755995Y-117478901D01*
X163891535Y-117285330D01*
X163991403Y-117071163D01*
X164052563Y-116842908D01*
X164073159Y-116607500D01*
X164068952Y-116559420D01*
X164052563Y-116372092D01*
X164026389Y-116274408D01*
X163991403Y-116143837D01*
X163891535Y-115929671D01*
X163755995Y-115736099D01*
X163633681Y-115613785D01*
X163602385Y-115561039D01*
X163600196Y-115499746D01*
X163627649Y-115444901D01*
X163678028Y-115409922D01*
X163809589Y-115360852D01*
X163924688Y-115274688D01*
X164010852Y-115159589D01*
X164061097Y-115024875D01*
X164067500Y-114965324D01*
X164067500Y-114317500D01*
X161367500Y-114317500D01*
X161367500Y-114965324D01*
X161373902Y-115024875D01*
X161424147Y-115159589D01*
X161510311Y-115274688D01*
X161625411Y-115360852D01*
X161756971Y-115409922D01*
X161807350Y-115444901D01*
X161834803Y-115499746D01*
X161832614Y-115561039D01*
X161801319Y-115613785D01*
X161679003Y-115736101D01*
X161543465Y-115929670D01*
X161443597Y-116143836D01*
X161382436Y-116372092D01*
X161361840Y-116607499D01*
X154353000Y-116607499D01*
X154353000Y-114457500D01*
X154886864Y-114457500D01*
X154944069Y-114670992D01*
X155043899Y-114885076D01*
X155179393Y-115078581D01*
X155346418Y-115245606D01*
X155539923Y-115381100D01*
X155754007Y-115480930D01*
X155967499Y-115538135D01*
X155967500Y-115538136D01*
X155967500Y-114457500D01*
X156467500Y-114457500D01*
X156467500Y-115538135D01*
X156680992Y-115480930D01*
X156895076Y-115381100D01*
X157088581Y-115245606D01*
X157255606Y-115078581D01*
X157391100Y-114885076D01*
X157490930Y-114670992D01*
X157548136Y-114457500D01*
X156467500Y-114457500D01*
X155967500Y-114457500D01*
X154886864Y-114457500D01*
X154353000Y-114457500D01*
X154353000Y-112565369D01*
X154867000Y-112565369D01*
X154873409Y-112624983D01*
X154923704Y-112759831D01*
X155009954Y-112875046D01*
X155125169Y-112961296D01*
X155257098Y-113010502D01*
X155307478Y-113045481D01*
X155334931Y-113100325D01*
X155332742Y-113161618D01*
X155301447Y-113214365D01*
X155179388Y-113336424D01*
X155043900Y-113529921D01*
X154944069Y-113744007D01*
X154886864Y-113957499D01*
X154886864Y-113957500D01*
X157548136Y-113957500D01*
X157548135Y-113957499D01*
X157510622Y-113817500D01*
X161367500Y-113817500D01*
X162467500Y-113817500D01*
X162467500Y-112717500D01*
X162967500Y-112717500D01*
X162967500Y-113817500D01*
X164067500Y-113817500D01*
X164067500Y-113169676D01*
X164061097Y-113110124D01*
X164010852Y-112975410D01*
X163924688Y-112860311D01*
X163809589Y-112774147D01*
X163674875Y-112723902D01*
X163615324Y-112717500D01*
X162967500Y-112717500D01*
X162467500Y-112717500D01*
X161819676Y-112717500D01*
X161760124Y-112723902D01*
X161625410Y-112774147D01*
X161510311Y-112860311D01*
X161424147Y-112975410D01*
X161373902Y-113110124D01*
X161367500Y-113169676D01*
X161367500Y-113817500D01*
X157510622Y-113817500D01*
X157490930Y-113744007D01*
X157391099Y-113529921D01*
X157255609Y-113336421D01*
X157133553Y-113214365D01*
X157102257Y-113161619D01*
X157100068Y-113100326D01*
X157127521Y-113045481D01*
X157177898Y-113010503D01*
X157309831Y-112961296D01*
X157425046Y-112875046D01*
X157511296Y-112759831D01*
X157561591Y-112624983D01*
X157568000Y-112565373D01*
X157567999Y-110769628D01*
X157561591Y-110710017D01*
X157511296Y-110575169D01*
X157425046Y-110459954D01*
X157309831Y-110373704D01*
X157174983Y-110323409D01*
X157115373Y-110317000D01*
X157115369Y-110317000D01*
X155319630Y-110317000D01*
X155260015Y-110323409D01*
X155125169Y-110373704D01*
X155009954Y-110459954D01*
X154923704Y-110575168D01*
X154873409Y-110710016D01*
X154867000Y-110769630D01*
X154867000Y-112565369D01*
X154353000Y-112565369D01*
X154353000Y-107891738D01*
X154353040Y-107888596D01*
X154355256Y-107801139D01*
X154355255Y-107801138D01*
X154355256Y-107801136D01*
X154344845Y-107743054D01*
X154343542Y-107733763D01*
X154337574Y-107675062D01*
X154328464Y-107646028D01*
X154324723Y-107630786D01*
X154319358Y-107600847D01*
X154301089Y-107555112D01*
X154292247Y-107508070D01*
X154301883Y-107461181D01*
X154328559Y-107421439D01*
X155005844Y-106744154D01*
X155067165Y-106710671D01*
X155136856Y-106715655D01*
G37*
%TD.AperFunction*%
%TA.AperFunction,Conductor*%
G36*
X162905470Y-96107936D02*
G01*
X162961466Y-96147144D01*
X162988176Y-96210068D01*
X162977482Y-96277584D01*
X162936097Y-96366333D01*
X162874936Y-96594592D01*
X162854340Y-96830000D01*
X162874936Y-97065407D01*
X162904402Y-97175375D01*
X162936097Y-97293663D01*
X163035965Y-97507830D01*
X163171505Y-97701401D01*
X163338599Y-97868495D01*
X163532170Y-98004035D01*
X163746337Y-98103903D01*
X163974592Y-98165063D01*
X164210000Y-98185659D01*
X164445408Y-98165063D01*
X164673663Y-98103903D01*
X164887830Y-98004035D01*
X165081401Y-97868495D01*
X165248495Y-97701401D01*
X165378426Y-97515839D01*
X165422743Y-97476975D01*
X165480000Y-97462964D01*
X165537257Y-97476975D01*
X165581573Y-97515839D01*
X165711505Y-97701401D01*
X165878599Y-97868495D01*
X166072170Y-98004035D01*
X166286337Y-98103903D01*
X166359303Y-98123454D01*
X166414890Y-98155547D01*
X166513181Y-98253838D01*
X166540061Y-98294066D01*
X166549500Y-98341519D01*
X166549500Y-101909013D01*
X166533312Y-101970272D01*
X166488974Y-102015536D01*
X166428062Y-102032987D01*
X166366484Y-102018068D01*
X166196302Y-101925970D01*
X166196298Y-101925968D01*
X166196297Y-101925968D01*
X165961501Y-101845362D01*
X165756898Y-101811220D01*
X165716628Y-101804500D01*
X165468372Y-101804500D01*
X165428102Y-101811220D01*
X165223498Y-101845362D01*
X164988702Y-101925968D01*
X164988698Y-101925969D01*
X164988698Y-101925970D01*
X164905531Y-101970978D01*
X164770362Y-102044128D01*
X164574454Y-102196607D01*
X164406313Y-102379258D01*
X164270533Y-102587085D01*
X164170811Y-102814430D01*
X164170810Y-102814433D01*
X164141384Y-102930634D01*
X164109866Y-103055096D01*
X164089365Y-103302499D01*
X164109866Y-103549903D01*
X164109866Y-103549906D01*
X164109867Y-103549908D01*
X164170810Y-103790567D01*
X164190167Y-103834696D01*
X164270533Y-104017914D01*
X164406313Y-104225741D01*
X164574454Y-104408392D01*
X164611813Y-104437469D01*
X164678236Y-104489168D01*
X164715109Y-104536040D01*
X164725836Y-104594705D01*
X164724223Y-104620671D01*
X165858371Y-105754819D01*
X165890465Y-105810406D01*
X165890465Y-105874593D01*
X165858371Y-105930181D01*
X165680181Y-106108372D01*
X165624594Y-106140466D01*
X165560407Y-106140466D01*
X165504819Y-106108372D01*
X164370870Y-104974423D01*
X164270974Y-105127326D01*
X164171285Y-105354594D01*
X164110361Y-105595179D01*
X164089867Y-105842500D01*
X164110361Y-106089820D01*
X164171286Y-106330405D01*
X164270974Y-106557674D01*
X164403646Y-106760744D01*
X164422781Y-106812417D01*
X164417638Y-106867280D01*
X164389233Y-106914497D01*
X164366247Y-106929592D01*
X164366942Y-106930520D01*
X164352670Y-106941203D01*
X164352669Y-106941204D01*
X164274128Y-107000000D01*
X164237454Y-107027454D01*
X164151204Y-107142668D01*
X164095466Y-107292110D01*
X164094127Y-107291610D01*
X164080981Y-107327505D01*
X164036418Y-107367532D01*
X163978292Y-107382000D01*
X159648283Y-107382000D01*
X159600830Y-107372561D01*
X159560602Y-107345681D01*
X157604318Y-105389398D01*
X157577438Y-105349170D01*
X157567999Y-105301717D01*
X157567999Y-104519630D01*
X157565889Y-104500000D01*
X157561591Y-104460017D01*
X157511296Y-104325169D01*
X157425046Y-104209954D01*
X157309831Y-104123704D01*
X157177899Y-104074496D01*
X157127521Y-104039518D01*
X157100068Y-103984673D01*
X157102257Y-103923380D01*
X157133553Y-103870633D01*
X157255609Y-103748577D01*
X157391100Y-103555076D01*
X157490930Y-103340992D01*
X157548136Y-103127500D01*
X154886864Y-103127500D01*
X154944069Y-103340992D01*
X155043899Y-103555076D01*
X155179393Y-103748581D01*
X155301446Y-103870634D01*
X155332742Y-103923380D01*
X155334931Y-103984673D01*
X155307478Y-104039518D01*
X155257099Y-104074497D01*
X155125169Y-104123703D01*
X155125169Y-104123704D01*
X155009954Y-104209954D01*
X154947308Y-104293639D01*
X154923703Y-104325171D01*
X154919539Y-104336335D01*
X154893100Y-104378571D01*
X154852170Y-104406988D01*
X154803358Y-104417000D01*
X154374000Y-104417000D01*
X154312000Y-104400387D01*
X154266613Y-104355000D01*
X154250000Y-104293000D01*
X154250000Y-102627500D01*
X154886864Y-102627500D01*
X155967500Y-102627500D01*
X155967500Y-101546864D01*
X156467500Y-101546864D01*
X156467500Y-102627500D01*
X157548136Y-102627500D01*
X157548135Y-102627499D01*
X157490930Y-102414007D01*
X157391099Y-102199921D01*
X157255609Y-102006421D01*
X157088581Y-101839393D01*
X156895076Y-101703899D01*
X156680992Y-101604069D01*
X156467500Y-101546864D01*
X155967500Y-101546864D01*
X155967499Y-101546864D01*
X155754007Y-101604069D01*
X155539921Y-101703900D01*
X155346421Y-101839390D01*
X155179390Y-102006421D01*
X155043900Y-102199921D01*
X154944069Y-102414007D01*
X154886864Y-102627499D01*
X154886864Y-102627500D01*
X154250000Y-102627500D01*
X154250000Y-99267000D01*
X154266613Y-99205000D01*
X154312000Y-99159613D01*
X154374000Y-99143000D01*
X154398259Y-99143000D01*
X154550742Y-99143000D01*
X154898259Y-99143000D01*
X154971499Y-99143000D01*
X154977778Y-99143158D01*
X155002842Y-99144430D01*
X155050935Y-99146869D01*
X155050935Y-99146868D01*
X155050936Y-99146869D01*
X155066857Y-99144429D01*
X155085635Y-99143000D01*
X155250057Y-99143000D01*
X155307468Y-99157091D01*
X155344449Y-99176408D01*
X155344451Y-99176409D01*
X155540082Y-99232386D01*
X155742976Y-99247837D01*
X155944828Y-99222130D01*
X156061927Y-99182103D01*
X156149304Y-99152238D01*
X156150204Y-99154873D01*
X156193781Y-99143000D01*
X159343221Y-99143000D01*
X159346362Y-99143039D01*
X159433863Y-99145257D01*
X159491932Y-99134848D01*
X159501236Y-99133543D01*
X159559938Y-99127574D01*
X159588967Y-99118465D01*
X159604200Y-99114726D01*
X159634153Y-99109358D01*
X159688926Y-99087478D01*
X159697801Y-99084319D01*
X159715175Y-99078867D01*
X159754088Y-99066659D01*
X159780694Y-99051890D01*
X159794862Y-99045162D01*
X159823117Y-99033877D01*
X159872379Y-99001409D01*
X159880410Y-98996543D01*
X159932002Y-98967909D01*
X159955087Y-98948089D01*
X159967614Y-98938644D01*
X159993019Y-98921902D01*
X160034751Y-98880168D01*
X160041623Y-98873800D01*
X160086395Y-98835366D01*
X160105024Y-98811298D01*
X160115383Y-98799536D01*
X162777421Y-96137497D01*
X162837206Y-96104358D01*
X162905470Y-96107936D01*
G37*
%TD.AperFunction*%
%TA.AperFunction,Conductor*%
G36*
X153505181Y-81745101D02*
G01*
X153963181Y-82203101D01*
X153990061Y-82243329D01*
X153999500Y-82290782D01*
X153999500Y-90391978D01*
X153986712Y-90446822D01*
X153950986Y-90490354D01*
X153899691Y-90513595D01*
X153843406Y-90511753D01*
X153621671Y-90452338D01*
X153403000Y-90433207D01*
X153184328Y-90452338D01*
X152972295Y-90509153D01*
X152773356Y-90601920D01*
X152773354Y-90601921D01*
X152616855Y-90711503D01*
X152593539Y-90727829D01*
X152438329Y-90883039D01*
X152438326Y-90883042D01*
X152438326Y-90883043D01*
X152313162Y-91061797D01*
X152312420Y-91062856D01*
X152219653Y-91261795D01*
X152162838Y-91473828D01*
X152143707Y-91692500D01*
X152160279Y-91881921D01*
X152153273Y-91935139D01*
X152124432Y-91980409D01*
X148368681Y-95736161D01*
X148319318Y-95766411D01*
X148261602Y-95770953D01*
X148208115Y-95748798D01*
X148170515Y-95704775D01*
X148157000Y-95648480D01*
X148157000Y-95390676D01*
X148150597Y-95331124D01*
X148100352Y-95196410D01*
X148014188Y-95081311D01*
X147899089Y-94995147D01*
X147764375Y-94944902D01*
X147704824Y-94938500D01*
X147153000Y-94938500D01*
X147153000Y-97446500D01*
X147704824Y-97446500D01*
X147764375Y-97440097D01*
X147849666Y-97408286D01*
X147908453Y-97401435D01*
X147963720Y-97422612D01*
X148002876Y-97466993D01*
X148017000Y-97524468D01*
X148017000Y-97927108D01*
X148008764Y-97971545D01*
X147985150Y-98010080D01*
X147984966Y-98010283D01*
X147890320Y-98174215D01*
X147831826Y-98354242D01*
X147831825Y-98354244D01*
X147831826Y-98354244D01*
X147828176Y-98388963D01*
X147807658Y-98445340D01*
X147763072Y-98485485D01*
X147704857Y-98500000D01*
X141624000Y-98500000D01*
X141562000Y-98483387D01*
X141516613Y-98438000D01*
X141500000Y-98376000D01*
X141500000Y-97207478D01*
X141514855Y-97148627D01*
X141555861Y-97103877D01*
X141613193Y-97083950D01*
X141657478Y-97080075D01*
X141870781Y-97022920D01*
X142070908Y-96929600D01*
X142135687Y-96884240D01*
X141536319Y-96284872D01*
X141509439Y-96244644D01*
X141500000Y-96197191D01*
X141500000Y-95832501D01*
X141791053Y-95832501D01*
X142489240Y-96530686D01*
X142534600Y-96465908D01*
X142545515Y-96442500D01*
X145649000Y-96442500D01*
X145649000Y-96994324D01*
X145655402Y-97053875D01*
X145705647Y-97188589D01*
X145791811Y-97303688D01*
X145906910Y-97389852D01*
X146041624Y-97440097D01*
X146101176Y-97446500D01*
X146653000Y-97446500D01*
X146653000Y-96442500D01*
X145649000Y-96442500D01*
X142545515Y-96442500D01*
X142627920Y-96265781D01*
X142685075Y-96052478D01*
X142694697Y-95942500D01*
X145649000Y-95942500D01*
X146653000Y-95942500D01*
X146653000Y-94938500D01*
X146101176Y-94938500D01*
X146041624Y-94944902D01*
X145906910Y-94995147D01*
X145791811Y-95081311D01*
X145705647Y-95196410D01*
X145655402Y-95331124D01*
X145649000Y-95390676D01*
X145649000Y-95942500D01*
X142694697Y-95942500D01*
X142704321Y-95832500D01*
X142685075Y-95612521D01*
X142627921Y-95399220D01*
X142534598Y-95199089D01*
X142489240Y-95134311D01*
X141791053Y-95832500D01*
X141791053Y-95832501D01*
X141500000Y-95832501D01*
X141500000Y-95467809D01*
X141509439Y-95420356D01*
X141536319Y-95380128D01*
X142135687Y-94780758D01*
X142070906Y-94735398D01*
X141941719Y-94675158D01*
X141889543Y-94629401D01*
X141870123Y-94562776D01*
X141889543Y-94496151D01*
X141941719Y-94450394D01*
X142071162Y-94390034D01*
X142252120Y-94263326D01*
X142408326Y-94107120D01*
X142535034Y-93926162D01*
X142628394Y-93725950D01*
X142685570Y-93512568D01*
X142704823Y-93292500D01*
X142685570Y-93072432D01*
X142628394Y-92859050D01*
X142535034Y-92658839D01*
X142408326Y-92477880D01*
X142252120Y-92321674D01*
X142071162Y-92194966D01*
X141942311Y-92134882D01*
X141890135Y-92089125D01*
X141870716Y-92022500D01*
X141890135Y-91955875D01*
X141942311Y-91910118D01*
X141947527Y-91907685D01*
X142071162Y-91850034D01*
X142252120Y-91723326D01*
X142282946Y-91692500D01*
X145643707Y-91692500D01*
X145662838Y-91911171D01*
X145719653Y-92123204D01*
X145750177Y-92188663D01*
X145812421Y-92322146D01*
X145938326Y-92501957D01*
X146093543Y-92657174D01*
X146273354Y-92783079D01*
X146472297Y-92875847D01*
X146684326Y-92932661D01*
X146903000Y-92951792D01*
X147121674Y-92932661D01*
X147333703Y-92875847D01*
X147532646Y-92783079D01*
X147712457Y-92657174D01*
X147867674Y-92501957D01*
X147993579Y-92322146D01*
X148086347Y-92123203D01*
X148143161Y-91911174D01*
X148162292Y-91692500D01*
X148143161Y-91473826D01*
X148086347Y-91261797D01*
X147993579Y-91062854D01*
X147867674Y-90883043D01*
X147712457Y-90727826D01*
X147532646Y-90601921D01*
X147383630Y-90532434D01*
X147333704Y-90509153D01*
X147121671Y-90452338D01*
X146903000Y-90433207D01*
X146684328Y-90452338D01*
X146472295Y-90509153D01*
X146273356Y-90601920D01*
X146273354Y-90601921D01*
X146116855Y-90711503D01*
X146093539Y-90727829D01*
X145938329Y-90883039D01*
X145938326Y-90883042D01*
X145938326Y-90883043D01*
X145813162Y-91061797D01*
X145812420Y-91062856D01*
X145719653Y-91261795D01*
X145662838Y-91473828D01*
X145643707Y-91692500D01*
X142282946Y-91692500D01*
X142408326Y-91567120D01*
X142535034Y-91386162D01*
X142628394Y-91185950D01*
X142685570Y-90972568D01*
X142704823Y-90752500D01*
X142701236Y-90711505D01*
X142690038Y-90583500D01*
X142685570Y-90532432D01*
X142628394Y-90319050D01*
X142535034Y-90118839D01*
X142408326Y-89937880D01*
X142252120Y-89781674D01*
X142071162Y-89654966D01*
X141942311Y-89594882D01*
X141890135Y-89549125D01*
X141870716Y-89482500D01*
X141890135Y-89415875D01*
X141942311Y-89370118D01*
X141947527Y-89367685D01*
X142071162Y-89310034D01*
X142252120Y-89183326D01*
X142408326Y-89027120D01*
X142535034Y-88846162D01*
X142628394Y-88645950D01*
X142685570Y-88432568D01*
X142704823Y-88212500D01*
X142685570Y-87992432D01*
X142628394Y-87779050D01*
X142535034Y-87578839D01*
X142408326Y-87397880D01*
X142252120Y-87241674D01*
X142071162Y-87114966D01*
X142071161Y-87114965D01*
X141942311Y-87054881D01*
X141890135Y-87009124D01*
X141870716Y-86942498D01*
X141890136Y-86875873D01*
X141942310Y-86830118D01*
X142071162Y-86770034D01*
X142177714Y-86695425D01*
X142211551Y-86678739D01*
X142248838Y-86673000D01*
X147973221Y-86673000D01*
X147976362Y-86673039D01*
X148063863Y-86675257D01*
X148121932Y-86664848D01*
X148131236Y-86663543D01*
X148189938Y-86657574D01*
X148218967Y-86648465D01*
X148234200Y-86644726D01*
X148264153Y-86639358D01*
X148318926Y-86617478D01*
X148327801Y-86614319D01*
X148345175Y-86608867D01*
X148384088Y-86596659D01*
X148410694Y-86581890D01*
X148424862Y-86575162D01*
X148453117Y-86563877D01*
X148502379Y-86531409D01*
X148510410Y-86526543D01*
X148562002Y-86497909D01*
X148585087Y-86478089D01*
X148597614Y-86468644D01*
X148623019Y-86451902D01*
X148664751Y-86410168D01*
X148671623Y-86403800D01*
X148716395Y-86365366D01*
X148735019Y-86341303D01*
X148745380Y-86329539D01*
X153329819Y-81745100D01*
X153385406Y-81713007D01*
X153449594Y-81713007D01*
X153505181Y-81745101D01*
G37*
%TD.AperFunction*%
%TA.AperFunction,Conductor*%
G36*
X153950986Y-92894646D02*
G01*
X153986712Y-92938178D01*
X153999500Y-92993022D01*
X153999500Y-94892495D01*
X153986712Y-94947339D01*
X153950986Y-94990871D01*
X153899691Y-95014112D01*
X153843406Y-95012270D01*
X153621584Y-94952833D01*
X153403000Y-94933709D01*
X153184413Y-94952833D01*
X152972467Y-95009624D01*
X152773605Y-95102355D01*
X152710555Y-95146501D01*
X153668872Y-96104818D01*
X153700966Y-96160405D01*
X153700966Y-96224593D01*
X153668872Y-96280180D01*
X153490680Y-96458372D01*
X153435093Y-96490466D01*
X153370905Y-96490466D01*
X153315318Y-96458372D01*
X152357001Y-95500055D01*
X152312855Y-95563105D01*
X152220124Y-95761967D01*
X152163333Y-95973913D01*
X152144209Y-96192499D01*
X152163333Y-96411086D01*
X152220124Y-96623032D01*
X152312856Y-96821895D01*
X152400369Y-96946877D01*
X152422529Y-97009890D01*
X152408783Y-97075257D01*
X152363122Y-97124009D01*
X152298794Y-97142000D01*
X151451739Y-97142000D01*
X151448597Y-97141960D01*
X151361135Y-97139743D01*
X151303089Y-97150146D01*
X151293764Y-97151454D01*
X151235062Y-97157425D01*
X151206028Y-97166534D01*
X151190788Y-97170275D01*
X151160845Y-97175642D01*
X151106068Y-97197521D01*
X151097198Y-97200679D01*
X151040910Y-97218341D01*
X151014309Y-97233105D01*
X151000139Y-97239835D01*
X150971885Y-97251122D01*
X150922621Y-97283587D01*
X150914570Y-97288464D01*
X150862998Y-97317090D01*
X150839914Y-97336907D01*
X150827387Y-97346353D01*
X150801981Y-97363098D01*
X150760275Y-97404803D01*
X150753368Y-97411204D01*
X150708603Y-97449635D01*
X150689980Y-97473693D01*
X150679608Y-97485469D01*
X149797182Y-98367895D01*
X149743160Y-98399558D01*
X149680554Y-98400788D01*
X149625330Y-98371270D01*
X149591570Y-98318532D01*
X149582350Y-98290157D01*
X149544679Y-98174216D01*
X149544679Y-98174215D01*
X149450033Y-98010283D01*
X149449850Y-98010080D01*
X149426236Y-97971545D01*
X149418000Y-97927108D01*
X149418000Y-96719519D01*
X149427439Y-96672066D01*
X149454319Y-96631838D01*
X150359530Y-95726627D01*
X153115091Y-92971064D01*
X153160360Y-92942225D01*
X153213572Y-92935219D01*
X153403000Y-92951792D01*
X153621674Y-92932661D01*
X153833703Y-92875847D01*
X153833703Y-92875846D01*
X153843406Y-92873247D01*
X153899691Y-92871405D01*
X153950986Y-92894646D01*
G37*
%TD.AperFunction*%
%TA.AperFunction,Conductor*%
G36*
X125423449Y-89218739D02*
G01*
X125457285Y-89235425D01*
X125563836Y-89310033D01*
X125692689Y-89370118D01*
X125744865Y-89415875D01*
X125764284Y-89482500D01*
X125744865Y-89549125D01*
X125692689Y-89594882D01*
X125563838Y-89654966D01*
X125382879Y-89781674D01*
X125226674Y-89937879D01*
X125099966Y-90118838D01*
X125006606Y-90319048D01*
X124949429Y-90532434D01*
X124930176Y-90752500D01*
X124949429Y-90972565D01*
X125006606Y-91185951D01*
X125065892Y-91313090D01*
X125099966Y-91386162D01*
X125226674Y-91567120D01*
X125382880Y-91723326D01*
X125563838Y-91850034D01*
X125683248Y-91905715D01*
X125692689Y-91910118D01*
X125744865Y-91955875D01*
X125764284Y-92022500D01*
X125744865Y-92089125D01*
X125692689Y-92134882D01*
X125563838Y-92194966D01*
X125382879Y-92321674D01*
X125226674Y-92477879D01*
X125099966Y-92658838D01*
X125006606Y-92859048D01*
X124949429Y-93072434D01*
X124930176Y-93292500D01*
X124949429Y-93512565D01*
X124995876Y-93685906D01*
X124997718Y-93742191D01*
X124974477Y-93793486D01*
X124930945Y-93829212D01*
X124876101Y-93842000D01*
X117942421Y-93842000D01*
X117934934Y-93841774D01*
X117874891Y-93838141D01*
X117815727Y-93848983D01*
X117808328Y-93850110D01*
X117748624Y-93857360D01*
X117739151Y-93860953D01*
X117717547Y-93866976D01*
X117707569Y-93868805D01*
X117652725Y-93893487D01*
X117645810Y-93896351D01*
X117589570Y-93917681D01*
X117581223Y-93923443D01*
X117561687Y-93934461D01*
X117552444Y-93938621D01*
X117505108Y-93975705D01*
X117499082Y-93980139D01*
X117449572Y-94014316D01*
X117409684Y-94059338D01*
X117404552Y-94064789D01*
X116853910Y-94615432D01*
X115456400Y-96012943D01*
X115263162Y-96206181D01*
X115222934Y-96233061D01*
X115175481Y-96242500D01*
X114217500Y-96242500D01*
X114217500Y-97200481D01*
X114208061Y-97247934D01*
X114181181Y-97288162D01*
X113505662Y-97963681D01*
X113465434Y-97990561D01*
X113417981Y-98000000D01*
X111242000Y-98000000D01*
X111180000Y-97983387D01*
X111134613Y-97938000D01*
X111118000Y-97876000D01*
X111118000Y-96242500D01*
X112713500Y-96242500D01*
X112713500Y-96794324D01*
X112719902Y-96853875D01*
X112770147Y-96988589D01*
X112856311Y-97103688D01*
X112971410Y-97189852D01*
X113106124Y-97240097D01*
X113165676Y-97246500D01*
X113717500Y-97246500D01*
X113717500Y-96242500D01*
X112713500Y-96242500D01*
X111118000Y-96242500D01*
X111118000Y-95742500D01*
X112713500Y-95742500D01*
X113717500Y-95742500D01*
X113717500Y-94738500D01*
X114217500Y-94738500D01*
X114217500Y-95742500D01*
X115221500Y-95742500D01*
X115221500Y-95190676D01*
X115215097Y-95131124D01*
X115164852Y-94996410D01*
X115078688Y-94881311D01*
X114963589Y-94795147D01*
X114828875Y-94744902D01*
X114769324Y-94738500D01*
X114217500Y-94738500D01*
X113717500Y-94738500D01*
X113165676Y-94738500D01*
X113106124Y-94744902D01*
X112971410Y-94795147D01*
X112856311Y-94881311D01*
X112770147Y-94996410D01*
X112719902Y-95131124D01*
X112713500Y-95190676D01*
X112713500Y-95742500D01*
X111118000Y-95742500D01*
X111118000Y-91492500D01*
X112708207Y-91492500D01*
X112727338Y-91711171D01*
X112784153Y-91923204D01*
X112823640Y-92007883D01*
X112876921Y-92122146D01*
X113002826Y-92301957D01*
X113158043Y-92457174D01*
X113337854Y-92583079D01*
X113536797Y-92675847D01*
X113748826Y-92732661D01*
X113967500Y-92751792D01*
X114186174Y-92732661D01*
X114398203Y-92675847D01*
X114597146Y-92583079D01*
X114776957Y-92457174D01*
X114932174Y-92301957D01*
X115058079Y-92122146D01*
X115150847Y-91923203D01*
X115207661Y-91711174D01*
X115226792Y-91492500D01*
X119208207Y-91492500D01*
X119227338Y-91711171D01*
X119284153Y-91923204D01*
X119323640Y-92007883D01*
X119376921Y-92122146D01*
X119502826Y-92301957D01*
X119658043Y-92457174D01*
X119837854Y-92583079D01*
X120036797Y-92675847D01*
X120248826Y-92732661D01*
X120467500Y-92751792D01*
X120686174Y-92732661D01*
X120898203Y-92675847D01*
X121097146Y-92583079D01*
X121276957Y-92457174D01*
X121432174Y-92301957D01*
X121558079Y-92122146D01*
X121650847Y-91923203D01*
X121707661Y-91711174D01*
X121726792Y-91492500D01*
X121707661Y-91273826D01*
X121650847Y-91061797D01*
X121558079Y-90862854D01*
X121432174Y-90683043D01*
X121276957Y-90527826D01*
X121097146Y-90401921D01*
X121005421Y-90359149D01*
X120898204Y-90309153D01*
X120686171Y-90252338D01*
X120467500Y-90233207D01*
X120248828Y-90252338D01*
X120036795Y-90309153D01*
X119854109Y-90394341D01*
X119837854Y-90401921D01*
X119731920Y-90476097D01*
X119658039Y-90527829D01*
X119502829Y-90683039D01*
X119502826Y-90683042D01*
X119502826Y-90683043D01*
X119383402Y-90853599D01*
X119376920Y-90862856D01*
X119284153Y-91061795D01*
X119227338Y-91273828D01*
X119208207Y-91492500D01*
X115226792Y-91492500D01*
X115207661Y-91273826D01*
X115150847Y-91061797D01*
X115058079Y-90862854D01*
X114932174Y-90683043D01*
X114776957Y-90527826D01*
X114597146Y-90401921D01*
X114505421Y-90359149D01*
X114398204Y-90309153D01*
X114186171Y-90252338D01*
X113967500Y-90233207D01*
X113748828Y-90252338D01*
X113536795Y-90309153D01*
X113354109Y-90394341D01*
X113337854Y-90401921D01*
X113231920Y-90476097D01*
X113158039Y-90527829D01*
X113002829Y-90683039D01*
X113002826Y-90683042D01*
X113002826Y-90683043D01*
X112883402Y-90853599D01*
X112876920Y-90862856D01*
X112784153Y-91061795D01*
X112727338Y-91273828D01*
X112708207Y-91492500D01*
X111118000Y-91492500D01*
X111118000Y-91308283D01*
X111127439Y-91260830D01*
X111154319Y-91220602D01*
X113125602Y-89249319D01*
X113165830Y-89222439D01*
X113213283Y-89213000D01*
X125386162Y-89213000D01*
X125423449Y-89218739D01*
G37*
%TD.AperFunction*%
%TA.AperFunction,Conductor*%
G36*
X138656833Y-50000093D02*
G01*
X140193066Y-50059677D01*
X140195549Y-50059800D01*
X142003851Y-50168963D01*
X142006367Y-50169142D01*
X143811825Y-50317201D01*
X143814377Y-50317438D01*
X145616202Y-50504323D01*
X145618770Y-50504618D01*
X147416167Y-50730249D01*
X147418691Y-50730593D01*
X149210757Y-50994855D01*
X149213361Y-50995267D01*
X150999408Y-51298059D01*
X151001923Y-51298513D01*
X152780982Y-51639671D01*
X152783533Y-51640189D01*
X154326031Y-51970559D01*
X154327472Y-51970878D01*
X155005890Y-52126349D01*
X155006699Y-52126537D01*
X156320090Y-52437551D01*
X156322603Y-52438175D01*
X158075966Y-52893448D01*
X158078463Y-52894126D01*
X159775207Y-53373914D01*
X159821538Y-53387015D01*
X159824094Y-53387767D01*
X160689531Y-53652734D01*
X161556145Y-53918061D01*
X161558689Y-53918870D01*
X163278958Y-54486337D01*
X163281352Y-54487154D01*
X163691896Y-54632453D01*
X163775365Y-54661994D01*
X163781875Y-54664506D01*
X165212044Y-55263181D01*
X171743533Y-57997293D01*
X171756120Y-58003420D01*
X176219778Y-60497915D01*
X176266354Y-60543610D01*
X176283285Y-60606623D01*
X176249197Y-69714675D01*
X176232330Y-69776651D01*
X176186719Y-69821873D01*
X175274873Y-70342928D01*
X174633482Y-70709437D01*
X174591088Y-70733662D01*
X174529567Y-70750000D01*
X168422707Y-70750000D01*
X168372558Y-70739407D01*
X168330978Y-70709437D01*
X168305070Y-70665212D01*
X168000000Y-69750000D01*
X166750000Y-68500000D01*
X156000000Y-68500000D01*
X155593214Y-68855936D01*
X155565343Y-68874345D01*
X155330199Y-68987535D01*
X155073845Y-69148530D01*
X154837121Y-69337197D01*
X154622987Y-69551176D01*
X154434152Y-69787763D01*
X154328593Y-69955577D01*
X154305287Y-69982872D01*
X154000000Y-70249999D01*
X153966033Y-70963278D01*
X153965383Y-70971354D01*
X153939656Y-71198192D01*
X153939558Y-71326952D01*
X153939558Y-71326959D01*
X153939400Y-71519727D01*
X153939260Y-71525523D01*
X153750000Y-75499999D01*
X153749999Y-75499999D01*
X166249999Y-88250000D01*
X167480926Y-89234741D01*
X167511859Y-89271349D01*
X168734395Y-91471913D01*
X168750000Y-91532133D01*
X168750000Y-125948638D01*
X168740561Y-125996091D01*
X168713681Y-126036319D01*
X161036319Y-133713681D01*
X160996091Y-133740561D01*
X160948638Y-133750000D01*
X106051362Y-133750000D01*
X106003909Y-133740561D01*
X105963681Y-133713681D01*
X99498231Y-127248231D01*
X99471489Y-127208334D01*
X99461914Y-127161271D01*
X99431261Y-121858283D01*
X100432741Y-121858283D01*
X100451787Y-122112438D01*
X100508502Y-122360921D01*
X100601618Y-122598175D01*
X100729048Y-122818891D01*
X100729051Y-122818896D01*
X100887960Y-123018161D01*
X101074793Y-123191516D01*
X101285376Y-123335089D01*
X101515006Y-123445673D01*
X101758552Y-123520797D01*
X102010575Y-123558784D01*
X102265445Y-123558784D01*
X102517468Y-123520797D01*
X102761014Y-123445673D01*
X102990644Y-123335089D01*
X103201227Y-123191516D01*
X103388060Y-123018161D01*
X103546969Y-122818896D01*
X103674403Y-122598172D01*
X103767518Y-122360921D01*
X103824232Y-122112441D01*
X103843278Y-121858284D01*
X103824232Y-121604127D01*
X103767518Y-121355647D01*
X103674403Y-121118396D01*
X103651027Y-121077908D01*
X103572850Y-120942500D01*
X103546969Y-120897672D01*
X103388060Y-120698407D01*
X103201227Y-120525052D01*
X102990644Y-120381479D01*
X102761014Y-120270895D01*
X102517468Y-120195771D01*
X102265445Y-120157784D01*
X102010575Y-120157784D01*
X101758552Y-120195771D01*
X101515006Y-120270895D01*
X101398279Y-120327108D01*
X101285376Y-120381479D01*
X101243127Y-120410284D01*
X101074791Y-120525053D01*
X100954349Y-120636807D01*
X100887960Y-120698407D01*
X100756854Y-120862809D01*
X100729048Y-120897676D01*
X100601618Y-121118392D01*
X100508502Y-121355646D01*
X100451787Y-121604129D01*
X100432741Y-121858283D01*
X99431261Y-121858283D01*
X99286444Y-96805000D01*
X99973840Y-96805000D01*
X99994436Y-97040407D01*
X100023841Y-97150146D01*
X100055597Y-97268663D01*
X100155465Y-97482830D01*
X100291005Y-97676401D01*
X100458099Y-97843495D01*
X100651670Y-97979035D01*
X100865837Y-98078903D01*
X101094092Y-98140063D01*
X101329500Y-98160659D01*
X101564908Y-98140063D01*
X101593906Y-98132292D01*
X101650191Y-98130451D01*
X101701486Y-98153692D01*
X101737212Y-98197224D01*
X101750000Y-98252068D01*
X101750000Y-100083718D01*
X101740561Y-100131171D01*
X101713681Y-100171399D01*
X100302646Y-101582432D01*
X100300399Y-101584623D01*
X100236948Y-101644939D01*
X100203244Y-101693362D01*
X100197573Y-101700882D01*
X100160301Y-101746593D01*
X100146210Y-101773566D01*
X100138082Y-101786983D01*
X100120705Y-101811950D01*
X100097439Y-101866165D01*
X100093399Y-101874671D01*
X100066090Y-101926952D01*
X100057720Y-101956201D01*
X100052459Y-101970978D01*
X100040460Y-101998942D01*
X100028587Y-102056713D01*
X100026342Y-102065860D01*
X100010113Y-102122580D01*
X100007802Y-102152925D01*
X100005622Y-102168466D01*
X99999500Y-102198259D01*
X99999500Y-102257242D01*
X99999142Y-102266656D01*
X99994663Y-102325477D01*
X99998506Y-102355651D01*
X99999500Y-102371317D01*
X99999500Y-116410721D01*
X99999460Y-116413863D01*
X99997242Y-116501362D01*
X100007648Y-116559420D01*
X100008957Y-116568749D01*
X100014926Y-116627438D01*
X100024033Y-116656467D01*
X100027772Y-116671702D01*
X100033141Y-116701652D01*
X100055020Y-116756425D01*
X100058180Y-116765300D01*
X100074368Y-116816895D01*
X100075841Y-116821588D01*
X100090607Y-116848191D01*
X100097337Y-116862364D01*
X100108622Y-116890617D01*
X100141080Y-116939867D01*
X100145961Y-116947923D01*
X100174590Y-116999501D01*
X100194404Y-117022581D01*
X100203856Y-117035116D01*
X100218838Y-117057849D01*
X100220599Y-117060520D01*
X100262300Y-117102221D01*
X100268705Y-117109132D01*
X100307134Y-117153896D01*
X100331193Y-117172519D01*
X100342972Y-117182893D01*
X107399931Y-124239851D01*
X107402124Y-124242100D01*
X107462442Y-124305554D01*
X107510862Y-124339255D01*
X107518371Y-124344916D01*
X107564093Y-124382198D01*
X107591062Y-124396285D01*
X107604482Y-124404416D01*
X107629449Y-124421794D01*
X107629450Y-124421794D01*
X107629451Y-124421795D01*
X107657605Y-124433877D01*
X107683663Y-124445059D01*
X107692163Y-124449095D01*
X107725786Y-124466659D01*
X107744451Y-124476409D01*
X107773696Y-124484777D01*
X107788486Y-124490043D01*
X107795964Y-124493252D01*
X107816442Y-124502040D01*
X107874237Y-124513916D01*
X107883354Y-124516154D01*
X107940082Y-124532387D01*
X107970416Y-124534696D01*
X107985953Y-124536874D01*
X108015759Y-124543000D01*
X108074742Y-124543000D01*
X108084156Y-124543358D01*
X108142976Y-124547837D01*
X108173151Y-124543993D01*
X108188817Y-124543000D01*
X123083221Y-124543000D01*
X123086362Y-124543039D01*
X123173863Y-124545257D01*
X123231932Y-124534848D01*
X123241236Y-124533543D01*
X123299938Y-124527574D01*
X123328967Y-124518465D01*
X123344200Y-124514726D01*
X123374153Y-124509358D01*
X123428926Y-124487478D01*
X123437801Y-124484319D01*
X123455175Y-124478867D01*
X123494088Y-124466659D01*
X123520694Y-124451890D01*
X123534862Y-124445162D01*
X123563117Y-124433877D01*
X123612379Y-124401409D01*
X123620410Y-124396543D01*
X123672002Y-124367909D01*
X123695087Y-124348089D01*
X123707614Y-124338644D01*
X123733019Y-124321902D01*
X123774751Y-124280168D01*
X123781623Y-124273800D01*
X123826395Y-124235366D01*
X123845019Y-124211303D01*
X123855380Y-124199539D01*
X125830532Y-122224387D01*
X125865806Y-122199689D01*
X125907400Y-122188543D01*
X126032908Y-122177563D01*
X126261163Y-122116403D01*
X126475330Y-122016535D01*
X126668901Y-121880995D01*
X126835995Y-121713901D01*
X126971535Y-121520330D01*
X127071403Y-121306163D01*
X127132563Y-121077908D01*
X127153159Y-120842500D01*
X127132563Y-120607092D01*
X127071403Y-120378837D01*
X126971535Y-120164671D01*
X126835995Y-119971099D01*
X126668901Y-119804005D01*
X126475330Y-119668465D01*
X126261163Y-119568597D01*
X126167861Y-119543597D01*
X126032907Y-119507436D01*
X125797500Y-119486840D01*
X125562092Y-119507436D01*
X125333836Y-119568597D01*
X125119670Y-119668465D01*
X124926098Y-119804005D01*
X124759005Y-119971098D01*
X124629075Y-120156659D01*
X124584757Y-120195525D01*
X124527500Y-120209536D01*
X124470243Y-120195525D01*
X124425925Y-120156659D01*
X124397592Y-120116195D01*
X124295995Y-119971099D01*
X124128901Y-119804005D01*
X123935330Y-119668465D01*
X123721163Y-119568597D01*
X123627861Y-119543597D01*
X123492907Y-119507436D01*
X123257500Y-119486840D01*
X123022092Y-119507436D01*
X122793836Y-119568597D01*
X122579670Y-119668465D01*
X122386098Y-119804005D01*
X122219005Y-119971098D01*
X122089075Y-120156659D01*
X122044757Y-120195525D01*
X121987500Y-120209536D01*
X121930243Y-120195525D01*
X121885925Y-120156659D01*
X121857592Y-120116195D01*
X121755995Y-119971099D01*
X121588901Y-119804005D01*
X121395330Y-119668465D01*
X121181163Y-119568597D01*
X121087861Y-119543597D01*
X120952907Y-119507436D01*
X120717500Y-119486840D01*
X120482092Y-119507436D01*
X120253836Y-119568597D01*
X120039670Y-119668465D01*
X119846098Y-119804005D01*
X119679005Y-119971098D01*
X119549075Y-120156659D01*
X119504757Y-120195525D01*
X119447500Y-120209536D01*
X119390243Y-120195525D01*
X119345925Y-120156659D01*
X119317592Y-120116195D01*
X119215995Y-119971099D01*
X119048901Y-119804005D01*
X118855330Y-119668465D01*
X118641163Y-119568597D01*
X118547861Y-119543597D01*
X118412907Y-119507436D01*
X118177500Y-119486840D01*
X117942090Y-119507436D01*
X117925274Y-119511942D01*
X117861089Y-119511940D01*
X117805504Y-119479847D01*
X116774319Y-118448662D01*
X116747439Y-118408434D01*
X116738000Y-118360981D01*
X116738000Y-117151463D01*
X116752469Y-117093335D01*
X116792498Y-117048772D01*
X116848748Y-117028173D01*
X116850367Y-117027999D01*
X116850372Y-117027999D01*
X116909983Y-117021591D01*
X117044831Y-116971296D01*
X117160046Y-116885046D01*
X117246296Y-116769831D01*
X117296591Y-116634983D01*
X117303000Y-116575373D01*
X117302999Y-116541933D01*
X117318545Y-116481820D01*
X117361287Y-116436777D01*
X117420508Y-116418104D01*
X117481356Y-116430483D01*
X117528573Y-116470810D01*
X117601790Y-116575373D01*
X117604368Y-116579055D01*
X117760945Y-116735632D01*
X117942333Y-116862642D01*
X117942336Y-116862643D01*
X117942337Y-116862644D01*
X117986079Y-116883041D01*
X118143020Y-116956223D01*
X118356909Y-117013535D01*
X118577500Y-117032834D01*
X118798091Y-117013535D01*
X119011980Y-116956223D01*
X119212667Y-116862642D01*
X119394055Y-116735632D01*
X119550632Y-116579055D01*
X119677642Y-116397667D01*
X119735118Y-116274407D01*
X119780875Y-116222232D01*
X119847500Y-116202812D01*
X119914125Y-116222232D01*
X119959881Y-116274407D01*
X120017358Y-116397667D01*
X120144368Y-116579055D01*
X120300945Y-116735632D01*
X120482333Y-116862642D01*
X120482336Y-116862643D01*
X120482337Y-116862644D01*
X120526079Y-116883041D01*
X120683020Y-116956223D01*
X120896909Y-117013535D01*
X121117500Y-117032834D01*
X121338091Y-117013535D01*
X121551980Y-116956223D01*
X121752667Y-116862642D01*
X121818716Y-116816394D01*
X122957156Y-116816394D01*
X122957157Y-116816395D01*
X123022582Y-116862206D01*
X123223190Y-116955751D01*
X123436998Y-117013040D01*
X123657500Y-117032332D01*
X123878001Y-117013040D01*
X124091809Y-116955751D01*
X124292413Y-116862207D01*
X124357842Y-116816394D01*
X123657501Y-116116053D01*
X123657500Y-116116053D01*
X122957156Y-116816394D01*
X121818716Y-116816394D01*
X121934055Y-116735632D01*
X122090632Y-116579055D01*
X122217642Y-116397667D01*
X122275395Y-116273812D01*
X122321149Y-116221641D01*
X122387774Y-116202221D01*
X122454400Y-116221640D01*
X122500157Y-116273816D01*
X122557792Y-116397416D01*
X122603603Y-116462841D01*
X122603605Y-116462842D01*
X123303947Y-115762501D01*
X123303947Y-115762500D01*
X122603603Y-115062156D01*
X122557792Y-115127584D01*
X122500157Y-115251183D01*
X122454400Y-115303359D01*
X122387774Y-115322778D01*
X122321149Y-115303358D01*
X122275393Y-115251182D01*
X122217642Y-115127333D01*
X122090632Y-114945945D01*
X121934055Y-114789368D01*
X121818711Y-114708603D01*
X122957156Y-114708603D01*
X123657500Y-115408947D01*
X123657501Y-115408947D01*
X124357842Y-114708605D01*
X124357841Y-114708603D01*
X124292414Y-114662791D01*
X124091811Y-114569249D01*
X123878001Y-114511959D01*
X123657500Y-114492667D01*
X123436998Y-114511959D01*
X123223188Y-114569249D01*
X123022586Y-114662791D01*
X122957156Y-114708603D01*
X121818711Y-114708603D01*
X121752667Y-114662358D01*
X121752664Y-114662357D01*
X121752662Y-114662355D01*
X121551983Y-114568778D01*
X121551980Y-114568777D01*
X121444252Y-114539911D01*
X121338088Y-114511464D01*
X121117500Y-114492165D01*
X120896911Y-114511464D01*
X120683016Y-114568778D01*
X120482337Y-114662355D01*
X120300941Y-114789371D01*
X120144371Y-114945941D01*
X120017355Y-115127337D01*
X119959882Y-115250591D01*
X119914125Y-115302767D01*
X119847500Y-115322187D01*
X119780875Y-115302767D01*
X119735118Y-115250591D01*
X119677644Y-115127337D01*
X119677643Y-115127335D01*
X119677642Y-115127333D01*
X119550632Y-114945945D01*
X119394055Y-114789368D01*
X119212667Y-114662358D01*
X119212664Y-114662357D01*
X119212662Y-114662355D01*
X119011983Y-114568778D01*
X119011980Y-114568777D01*
X118904252Y-114539911D01*
X118798088Y-114511464D01*
X118577499Y-114492165D01*
X118377923Y-114509625D01*
X118324705Y-114502619D01*
X118279435Y-114473778D01*
X113954319Y-110148662D01*
X113927439Y-110108434D01*
X113918000Y-110060981D01*
X113918000Y-99584019D01*
X113927439Y-99536566D01*
X113954319Y-99496338D01*
X116412161Y-97038496D01*
X119775055Y-97038496D01*
X119775056Y-97038497D01*
X119838104Y-97082643D01*
X120036967Y-97175375D01*
X120248913Y-97232166D01*
X120467500Y-97251290D01*
X120686086Y-97232166D01*
X120898032Y-97175375D01*
X121096892Y-97082644D01*
X121159943Y-97038496D01*
X121005687Y-96884240D01*
X125499312Y-96884240D01*
X125564093Y-96929601D01*
X125764218Y-97022920D01*
X125977521Y-97080075D01*
X126197500Y-97099321D01*
X126417478Y-97080075D01*
X126630781Y-97022920D01*
X126830908Y-96929600D01*
X126895687Y-96884240D01*
X126197501Y-96186053D01*
X126197500Y-96186053D01*
X125499312Y-96884240D01*
X121005687Y-96884240D01*
X120467501Y-96346053D01*
X120467500Y-96346053D01*
X119775055Y-97038496D01*
X116412161Y-97038496D01*
X118171338Y-95279319D01*
X118211566Y-95252439D01*
X118259019Y-95243000D01*
X119238721Y-95243000D01*
X119298364Y-95258286D01*
X119343302Y-95300375D01*
X119362456Y-95358891D01*
X119351103Y-95419405D01*
X119284624Y-95561967D01*
X119227833Y-95773913D01*
X119208709Y-95992500D01*
X119227833Y-96211086D01*
X119284624Y-96423032D01*
X119377356Y-96621896D01*
X119421502Y-96684942D01*
X119421502Y-96684943D01*
X120379818Y-95726627D01*
X120435405Y-95694533D01*
X120499593Y-95694533D01*
X120555180Y-95726627D01*
X121513496Y-96684943D01*
X121557644Y-96621892D01*
X121650375Y-96423032D01*
X121707166Y-96211086D01*
X121726290Y-95992500D01*
X121707166Y-95773913D01*
X121650375Y-95561967D01*
X121583897Y-95419405D01*
X121572544Y-95358891D01*
X121591698Y-95300375D01*
X121636636Y-95258286D01*
X121696279Y-95243000D01*
X124887338Y-95243000D01*
X124942182Y-95255788D01*
X124985714Y-95291514D01*
X125008955Y-95342809D01*
X125007113Y-95399094D01*
X124949924Y-95612521D01*
X124930678Y-95832500D01*
X124949924Y-96052478D01*
X125007079Y-96265781D01*
X125100398Y-96465906D01*
X125145758Y-96530687D01*
X126109819Y-95566627D01*
X126165406Y-95534533D01*
X126229594Y-95534533D01*
X126285181Y-95566627D01*
X127249240Y-96530686D01*
X127262855Y-96529495D01*
X127317423Y-96537001D01*
X127363357Y-96567402D01*
X127382846Y-96600049D01*
X127383804Y-96599497D01*
X127484966Y-96774716D01*
X127611629Y-96915389D01*
X127764769Y-97026651D01*
X127937697Y-97103644D01*
X128092626Y-97136575D01*
X128126013Y-97148891D01*
X128154527Y-97170184D01*
X129280681Y-98296338D01*
X129307561Y-98336566D01*
X129317000Y-98384019D01*
X129317000Y-99206035D01*
X129304212Y-99260879D01*
X129268486Y-99304411D01*
X129217191Y-99327652D01*
X129160907Y-99325810D01*
X128959935Y-99271959D01*
X128958088Y-99271464D01*
X128737500Y-99252165D01*
X128516911Y-99271464D01*
X128303016Y-99328778D01*
X128102337Y-99422355D01*
X128047415Y-99460812D01*
X127920947Y-99549367D01*
X127920941Y-99549371D01*
X127764371Y-99705941D01*
X127637355Y-99887337D01*
X127579882Y-100010591D01*
X127534125Y-100062767D01*
X127467500Y-100082187D01*
X127400875Y-100062767D01*
X127355118Y-100010591D01*
X127297644Y-99887337D01*
X127297643Y-99887335D01*
X127297642Y-99887333D01*
X127170632Y-99705945D01*
X127014055Y-99549368D01*
X126832667Y-99422358D01*
X126832664Y-99422357D01*
X126832662Y-99422355D01*
X126631983Y-99328778D01*
X126631980Y-99328777D01*
X126419935Y-99271959D01*
X126418088Y-99271464D01*
X126197500Y-99252165D01*
X125976911Y-99271464D01*
X125763016Y-99328778D01*
X125562337Y-99422355D01*
X125507415Y-99460812D01*
X125380947Y-99549367D01*
X125380941Y-99549371D01*
X125224371Y-99705941D01*
X125097355Y-99887337D01*
X125039882Y-100010591D01*
X124994125Y-100062767D01*
X124927500Y-100082187D01*
X124860875Y-100062767D01*
X124815118Y-100010591D01*
X124757644Y-99887337D01*
X124757643Y-99887335D01*
X124757642Y-99887333D01*
X124630632Y-99705945D01*
X124474055Y-99549368D01*
X124292667Y-99422358D01*
X124292664Y-99422357D01*
X124292662Y-99422355D01*
X124091983Y-99328778D01*
X124091980Y-99328777D01*
X123879935Y-99271959D01*
X123878088Y-99271464D01*
X123657500Y-99252165D01*
X123436911Y-99271464D01*
X123223016Y-99328778D01*
X123022337Y-99422355D01*
X122967415Y-99460812D01*
X122840947Y-99549367D01*
X122840941Y-99549371D01*
X122684371Y-99705941D01*
X122557355Y-99887337D01*
X122499882Y-100010591D01*
X122454125Y-100062767D01*
X122387500Y-100082187D01*
X122320875Y-100062767D01*
X122275118Y-100010591D01*
X122217644Y-99887337D01*
X122217643Y-99887335D01*
X122217642Y-99887333D01*
X122090632Y-99705945D01*
X121934055Y-99549368D01*
X121752667Y-99422358D01*
X121752664Y-99422357D01*
X121752662Y-99422355D01*
X121551983Y-99328778D01*
X121551980Y-99328777D01*
X121339935Y-99271959D01*
X121338088Y-99271464D01*
X121117500Y-99252165D01*
X120896911Y-99271464D01*
X120683016Y-99328778D01*
X120482337Y-99422355D01*
X120427415Y-99460812D01*
X120300947Y-99549367D01*
X120300941Y-99549371D01*
X120144371Y-99705941D01*
X120144368Y-99705944D01*
X120144368Y-99705945D01*
X120039729Y-99855385D01*
X120017357Y-99887335D01*
X119959606Y-100011183D01*
X119913849Y-100063359D01*
X119847224Y-100082778D01*
X119780599Y-100063359D01*
X119734842Y-100011183D01*
X119677206Y-99887582D01*
X119631395Y-99822157D01*
X119631394Y-99822156D01*
X118773918Y-100679633D01*
X118732289Y-100707083D01*
X118576949Y-100769219D01*
X118529889Y-100778084D01*
X118482979Y-100768455D01*
X118443216Y-100741769D01*
X117523603Y-99822156D01*
X117519881Y-99822482D01*
X117481358Y-99855385D01*
X117420510Y-99867765D01*
X117361289Y-99849093D01*
X117318546Y-99804052D01*
X117302999Y-99743935D01*
X117302999Y-99709630D01*
X117302603Y-99705945D01*
X117296591Y-99650017D01*
X117246296Y-99515169D01*
X117211437Y-99468603D01*
X117877156Y-99468603D01*
X118577500Y-100168947D01*
X118577501Y-100168947D01*
X119277842Y-99468605D01*
X119277841Y-99468603D01*
X119212414Y-99422791D01*
X119011811Y-99329249D01*
X118798001Y-99271959D01*
X118577500Y-99252667D01*
X118356998Y-99271959D01*
X118143188Y-99329249D01*
X117942586Y-99422791D01*
X117877156Y-99468603D01*
X117211437Y-99468603D01*
X117160046Y-99399954D01*
X117044831Y-99313704D01*
X116909983Y-99263409D01*
X116850373Y-99257000D01*
X116850369Y-99257000D01*
X115224630Y-99257000D01*
X115165015Y-99263409D01*
X115030169Y-99313704D01*
X114914954Y-99399954D01*
X114828704Y-99515168D01*
X114778409Y-99650015D01*
X114778409Y-99650017D01*
X114772397Y-99705941D01*
X114772000Y-99709630D01*
X114772000Y-101335369D01*
X114778409Y-101394984D01*
X114802532Y-101459661D01*
X114828704Y-101529831D01*
X114914954Y-101645046D01*
X115030169Y-101731296D01*
X115165017Y-101781591D01*
X115224627Y-101788000D01*
X115836716Y-101787999D01*
X115884169Y-101797438D01*
X115924397Y-101824318D01*
X117739931Y-103639851D01*
X117742124Y-103642100D01*
X117802442Y-103705554D01*
X117850862Y-103739255D01*
X117858371Y-103744916D01*
X117904093Y-103782198D01*
X117931062Y-103796285D01*
X117944482Y-103804416D01*
X117969449Y-103821794D01*
X117969450Y-103821794D01*
X117969451Y-103821795D01*
X118000907Y-103835294D01*
X118023663Y-103845059D01*
X118032163Y-103849095D01*
X118084451Y-103876409D01*
X118113696Y-103884777D01*
X118128481Y-103890040D01*
X118142907Y-103896231D01*
X118188410Y-103929781D01*
X118214290Y-103980046D01*
X118215166Y-104036576D01*
X118190856Y-104087618D01*
X118146413Y-104122564D01*
X117954765Y-104211932D01*
X117768359Y-104342453D01*
X117607453Y-104503359D01*
X117476932Y-104689764D01*
X117380761Y-104896002D01*
X117321864Y-105115810D01*
X117302031Y-105342500D01*
X117321864Y-105569189D01*
X117380761Y-105788997D01*
X117476932Y-105995235D01*
X117607453Y-106181640D01*
X117768359Y-106342546D01*
X117854123Y-106402598D01*
X117892989Y-106446916D01*
X117907000Y-106504173D01*
X117907000Y-109561947D01*
X117887581Y-109628572D01*
X117835405Y-109674329D01*
X117754765Y-109711932D01*
X117568359Y-109842453D01*
X117407453Y-110003359D01*
X117276932Y-110189764D01*
X117180761Y-110396002D01*
X117121864Y-110615810D01*
X117102031Y-110842500D01*
X117121864Y-111069189D01*
X117180761Y-111288997D01*
X117276932Y-111495235D01*
X117407453Y-111681640D01*
X117568359Y-111842546D01*
X117754764Y-111973067D01*
X117754765Y-111973067D01*
X117754766Y-111973068D01*
X117961004Y-112069239D01*
X118180808Y-112128135D01*
X118407500Y-112147968D01*
X118634192Y-112128135D01*
X118853996Y-112069239D01*
X119060234Y-111973068D01*
X119246639Y-111842547D01*
X119407547Y-111681639D01*
X119538068Y-111495234D01*
X119634239Y-111288996D01*
X119693135Y-111069192D01*
X119712968Y-110842500D01*
X119712968Y-110842499D01*
X124722031Y-110842499D01*
X124741864Y-111069189D01*
X124800761Y-111288997D01*
X124896932Y-111495235D01*
X125027453Y-111681640D01*
X125188359Y-111842546D01*
X125374764Y-111973067D01*
X125374765Y-111973067D01*
X125374766Y-111973068D01*
X125581004Y-112069239D01*
X125800808Y-112128135D01*
X126027500Y-112147968D01*
X126254192Y-112128135D01*
X126473996Y-112069239D01*
X126680234Y-111973068D01*
X126866639Y-111842547D01*
X127027547Y-111681639D01*
X127158068Y-111495234D01*
X127254239Y-111288996D01*
X127313135Y-111069192D01*
X127332968Y-110842500D01*
X127313135Y-110615808D01*
X127254239Y-110396004D01*
X127158068Y-110189766D01*
X127103856Y-110112343D01*
X127027546Y-110003359D01*
X126866640Y-109842453D01*
X126680235Y-109711932D01*
X126473997Y-109615761D01*
X126254189Y-109556864D01*
X126027500Y-109537031D01*
X125800810Y-109556864D01*
X125581002Y-109615761D01*
X125374764Y-109711932D01*
X125188359Y-109842453D01*
X125027453Y-110003359D01*
X124896932Y-110189764D01*
X124800761Y-110396002D01*
X124741864Y-110615810D01*
X124722031Y-110842499D01*
X119712968Y-110842499D01*
X119693135Y-110615808D01*
X119634239Y-110396004D01*
X119538068Y-110189766D01*
X119509287Y-110148662D01*
X119407549Y-110003363D01*
X119407545Y-110003359D01*
X119344316Y-109940130D01*
X119317439Y-109899905D01*
X119308000Y-109852452D01*
X119308000Y-106504173D01*
X119322011Y-106446916D01*
X119360877Y-106402598D01*
X119446640Y-106342546D01*
X119607546Y-106181640D01*
X119658848Y-106108372D01*
X119738068Y-105995234D01*
X119834239Y-105788996D01*
X119886890Y-105592500D01*
X124948628Y-105592500D01*
X125001233Y-105788826D01*
X125097365Y-105994980D01*
X125227841Y-106181319D01*
X125388680Y-106342158D01*
X125575019Y-106472634D01*
X125781173Y-106568766D01*
X125977499Y-106621371D01*
X125977500Y-106621372D01*
X125977500Y-105592500D01*
X124948628Y-105592500D01*
X119886890Y-105592500D01*
X119893135Y-105569192D01*
X119912968Y-105342500D01*
X119893135Y-105115808D01*
X119834239Y-104896004D01*
X119738068Y-104689766D01*
X119706817Y-104645135D01*
X119607546Y-104503359D01*
X119446640Y-104342453D01*
X119260234Y-104211932D01*
X119190431Y-104179382D01*
X119140035Y-104136339D01*
X119119006Y-104073489D01*
X119133351Y-104008785D01*
X119178971Y-103960711D01*
X119242836Y-103943000D01*
X123203221Y-103943000D01*
X123206362Y-103943039D01*
X123293863Y-103945257D01*
X123351932Y-103934848D01*
X123361236Y-103933543D01*
X123419938Y-103927574D01*
X123448967Y-103918465D01*
X123464200Y-103914726D01*
X123494153Y-103909358D01*
X123548926Y-103887478D01*
X123557801Y-103884319D01*
X123575175Y-103878867D01*
X123614088Y-103866659D01*
X123640694Y-103851890D01*
X123654862Y-103845162D01*
X123683117Y-103833877D01*
X123732379Y-103801409D01*
X123740410Y-103796543D01*
X123792002Y-103767909D01*
X123792002Y-103767908D01*
X123799634Y-103763673D01*
X123858240Y-103748103D01*
X123917219Y-103762184D01*
X123944450Y-103776408D01*
X123944451Y-103776409D01*
X123973696Y-103784777D01*
X123988486Y-103790043D01*
X123989712Y-103790569D01*
X124016442Y-103802040D01*
X124074237Y-103813916D01*
X124083354Y-103816154D01*
X124140082Y-103832387D01*
X124170416Y-103834696D01*
X124185953Y-103836874D01*
X124215759Y-103843000D01*
X124274743Y-103843000D01*
X124284157Y-103843358D01*
X124342977Y-103847837D01*
X124373152Y-103843993D01*
X124388818Y-103843000D01*
X125191626Y-103843000D01*
X125241775Y-103853593D01*
X125283355Y-103883563D01*
X125309262Y-103927786D01*
X125355667Y-104067000D01*
X125408646Y-104225938D01*
X125411692Y-104293639D01*
X125378691Y-104352831D01*
X125227838Y-104503684D01*
X125097365Y-104690019D01*
X125001233Y-104896173D01*
X124948628Y-105092499D01*
X124948628Y-105092500D01*
X126353500Y-105092500D01*
X126415500Y-105109113D01*
X126460887Y-105154500D01*
X126477500Y-105216500D01*
X126477500Y-106621371D01*
X126588115Y-106591732D01*
X126636120Y-106588532D01*
X126681726Y-106603843D01*
X127509048Y-107076599D01*
X127852181Y-107272675D01*
X127890067Y-107306214D01*
X127911401Y-107352095D01*
X127912197Y-107384868D01*
X127912233Y-107384866D01*
X127916774Y-107459934D01*
X127917000Y-107467421D01*
X127917000Y-113000981D01*
X127907561Y-113048434D01*
X127880681Y-113088662D01*
X126495563Y-114473778D01*
X126450293Y-114502619D01*
X126397075Y-114509625D01*
X126197500Y-114492165D01*
X125976911Y-114511464D01*
X125763016Y-114568778D01*
X125562337Y-114662355D01*
X125380941Y-114789371D01*
X125224371Y-114945941D01*
X125224368Y-114945944D01*
X125224368Y-114945945D01*
X125169101Y-115024875D01*
X125097357Y-115127335D01*
X125039606Y-115251183D01*
X124993849Y-115303359D01*
X124927224Y-115322778D01*
X124860599Y-115303359D01*
X124814842Y-115251183D01*
X124757206Y-115127582D01*
X124711395Y-115062157D01*
X124711394Y-115062156D01*
X124011053Y-115762500D01*
X124011053Y-115762501D01*
X124711394Y-116462842D01*
X124757209Y-116397412D01*
X124814842Y-116273817D01*
X124860599Y-116221641D01*
X124927224Y-116202221D01*
X124993849Y-116221641D01*
X125039606Y-116273817D01*
X125097355Y-116397662D01*
X125097356Y-116397663D01*
X125097358Y-116397667D01*
X125224368Y-116579055D01*
X125380945Y-116735632D01*
X125562333Y-116862642D01*
X125562336Y-116862643D01*
X125562337Y-116862644D01*
X125606079Y-116883041D01*
X125763020Y-116956223D01*
X125976909Y-117013535D01*
X126197500Y-117032834D01*
X126418091Y-117013535D01*
X126631980Y-116956223D01*
X126832667Y-116862642D01*
X127014055Y-116735632D01*
X127170632Y-116579055D01*
X127297642Y-116397667D01*
X127355118Y-116274407D01*
X127400875Y-116222232D01*
X127467500Y-116202812D01*
X127534125Y-116222232D01*
X127579881Y-116274407D01*
X127637358Y-116397667D01*
X127764368Y-116579055D01*
X127920945Y-116735632D01*
X128102333Y-116862642D01*
X128102336Y-116862643D01*
X128102337Y-116862644D01*
X128146079Y-116883041D01*
X128303020Y-116956223D01*
X128516909Y-117013535D01*
X128737500Y-117032834D01*
X128958091Y-117013535D01*
X129171980Y-116956223D01*
X129201508Y-116942453D01*
X129265264Y-116931357D01*
X129325930Y-116953893D01*
X129366979Y-117003925D01*
X129368482Y-117007263D01*
X129371356Y-117014201D01*
X129389081Y-117060936D01*
X129392682Y-117070430D01*
X129398441Y-117078773D01*
X129409461Y-117098313D01*
X129413620Y-117107554D01*
X129413621Y-117107555D01*
X129413622Y-117107557D01*
X129415872Y-117110429D01*
X129450716Y-117154905D01*
X129455151Y-117160932D01*
X129489317Y-117210429D01*
X129534347Y-117250322D01*
X129539783Y-117255440D01*
X130890995Y-118606652D01*
X130915234Y-118640949D01*
X130926634Y-118681369D01*
X130931825Y-118730754D01*
X130990320Y-118910784D01*
X131084966Y-119074716D01*
X131211629Y-119215389D01*
X131364769Y-119326651D01*
X131537697Y-119403644D01*
X131722852Y-119443000D01*
X131722854Y-119443000D01*
X131912146Y-119443000D01*
X131912148Y-119443000D01*
X132035584Y-119416762D01*
X132097303Y-119403644D01*
X132270230Y-119326651D01*
X132343134Y-119273682D01*
X132377703Y-119256069D01*
X132416021Y-119250000D01*
X134393000Y-119250000D01*
X134455000Y-119266613D01*
X134500387Y-119312000D01*
X134517000Y-119374000D01*
X134517000Y-119717579D01*
X134516774Y-119725066D01*
X134513141Y-119785107D01*
X134523983Y-119844271D01*
X134525110Y-119851672D01*
X134532360Y-119911373D01*
X134535950Y-119920839D01*
X134541975Y-119942452D01*
X134543803Y-119952429D01*
X134568491Y-120007283D01*
X134571356Y-120014201D01*
X134592680Y-120070426D01*
X134592682Y-120070430D01*
X134598441Y-120078773D01*
X134609461Y-120098313D01*
X134613620Y-120107554D01*
X134613621Y-120107555D01*
X134613622Y-120107557D01*
X134623412Y-120120053D01*
X134650716Y-120154905D01*
X134655154Y-120160936D01*
X134688700Y-120209536D01*
X134689317Y-120210429D01*
X134734347Y-120250322D01*
X134739783Y-120255440D01*
X137404558Y-122920215D01*
X137409678Y-122925653D01*
X137449571Y-122970683D01*
X137449572Y-122970684D01*
X137499073Y-123004852D01*
X137505091Y-123009280D01*
X137552444Y-123046378D01*
X137561680Y-123050534D01*
X137581231Y-123061562D01*
X137589566Y-123067316D01*
X137589568Y-123067316D01*
X137589570Y-123067318D01*
X137645826Y-123088652D01*
X137652720Y-123091509D01*
X137707569Y-123116195D01*
X137717544Y-123118022D01*
X137739156Y-123124047D01*
X137748628Y-123127640D01*
X137808341Y-123134890D01*
X137815685Y-123136007D01*
X137874894Y-123146858D01*
X137931602Y-123143427D01*
X137934934Y-123143226D01*
X137942421Y-123143000D01*
X140395292Y-123143000D01*
X140461002Y-123161842D01*
X140506742Y-123212642D01*
X140518613Y-123279961D01*
X140512040Y-123342499D01*
X140531826Y-123530757D01*
X140590320Y-123710784D01*
X140684966Y-123874716D01*
X140811629Y-124015389D01*
X140964769Y-124126651D01*
X141137697Y-124203644D01*
X141329741Y-124244464D01*
X141388132Y-124274698D01*
X141422855Y-124330536D01*
X141424146Y-124396277D01*
X141391642Y-124453435D01*
X136481899Y-129363181D01*
X136441671Y-129390061D01*
X136394218Y-129399500D01*
X113249258Y-129399500D01*
X113188579Y-129405670D01*
X113097559Y-129414926D01*
X112903412Y-129475841D01*
X112725500Y-129574589D01*
X112571104Y-129707135D01*
X112446551Y-129868042D01*
X112356940Y-130050727D01*
X112305937Y-130247716D01*
X112295630Y-130450937D01*
X112326443Y-130652071D01*
X112397113Y-130842886D01*
X112504745Y-131015568D01*
X112504748Y-131015571D01*
X112644941Y-131163053D01*
X112811951Y-131279295D01*
X112998942Y-131359540D01*
X113198259Y-131400500D01*
X136845721Y-131400500D01*
X136848862Y-131400539D01*
X136936363Y-131402757D01*
X136994432Y-131392348D01*
X137003736Y-131391043D01*
X137062438Y-131385074D01*
X137091467Y-131375965D01*
X137106700Y-131372226D01*
X137136653Y-131366858D01*
X137191426Y-131344978D01*
X137200301Y-131341819D01*
X137217675Y-131336367D01*
X137256588Y-131324159D01*
X137283194Y-131309390D01*
X137297362Y-131302662D01*
X137325617Y-131291377D01*
X137374879Y-131258909D01*
X137382910Y-131254043D01*
X137434502Y-131225409D01*
X137457587Y-131205589D01*
X137470114Y-131196144D01*
X137495519Y-131179402D01*
X137537251Y-131137668D01*
X137544123Y-131131300D01*
X137588895Y-131092866D01*
X137607524Y-131068798D01*
X137617883Y-131057036D01*
X143760840Y-124914080D01*
X143857198Y-124795907D01*
X143951409Y-124615549D01*
X143991223Y-124476409D01*
X144007387Y-124419919D01*
X144008796Y-124401418D01*
X144022837Y-124217024D01*
X144006680Y-124090166D01*
X144017453Y-124021779D01*
X144063209Y-123969826D01*
X144129687Y-123950500D01*
X162107579Y-123950500D01*
X162115066Y-123950726D01*
X162118206Y-123950915D01*
X162175106Y-123954358D01*
X162234282Y-123943513D01*
X162241681Y-123942387D01*
X162301372Y-123935140D01*
X162310835Y-123931550D01*
X162332458Y-123925522D01*
X162342432Y-123923695D01*
X162397308Y-123898996D01*
X162404173Y-123896152D01*
X162460430Y-123874818D01*
X162468770Y-123869060D01*
X162488319Y-123858035D01*
X162497557Y-123853878D01*
X162544913Y-123816775D01*
X162550920Y-123812355D01*
X162600429Y-123778183D01*
X162640323Y-123733150D01*
X162645424Y-123727731D01*
X163477731Y-122895424D01*
X163483151Y-122890322D01*
X163528183Y-122850429D01*
X163562358Y-122800916D01*
X163566779Y-122794907D01*
X163603877Y-122747557D01*
X163608033Y-122738320D01*
X163619058Y-122718773D01*
X163624818Y-122710430D01*
X163646154Y-122654168D01*
X163649014Y-122647266D01*
X163673694Y-122592432D01*
X163675519Y-122582471D01*
X163681545Y-122560848D01*
X163685140Y-122551372D01*
X163692389Y-122491665D01*
X163693516Y-122484262D01*
X163704357Y-122425106D01*
X163700726Y-122365077D01*
X163700500Y-122357590D01*
X163700500Y-121641519D01*
X163709939Y-121594066D01*
X163736819Y-121553838D01*
X164096120Y-121194537D01*
X164522124Y-120768532D01*
X164572515Y-120737954D01*
X164631335Y-120734099D01*
X164685289Y-120757839D01*
X164722185Y-120803810D01*
X164733685Y-120861623D01*
X164717191Y-120918214D01*
X164601616Y-121118398D01*
X164508502Y-121355646D01*
X164451787Y-121604129D01*
X164432741Y-121858283D01*
X164451787Y-122112438D01*
X164508502Y-122360921D01*
X164601618Y-122598175D01*
X164729048Y-122818891D01*
X164729051Y-122818896D01*
X164887960Y-123018161D01*
X165074793Y-123191516D01*
X165285376Y-123335089D01*
X165515006Y-123445673D01*
X165758552Y-123520797D01*
X166010575Y-123558784D01*
X166265445Y-123558784D01*
X166517468Y-123520797D01*
X166761014Y-123445673D01*
X166990644Y-123335089D01*
X167201227Y-123191516D01*
X167388060Y-123018161D01*
X167546969Y-122818896D01*
X167674403Y-122598172D01*
X167767518Y-122360921D01*
X167824232Y-122112441D01*
X167843278Y-121858284D01*
X167824232Y-121604127D01*
X167767518Y-121355647D01*
X167674403Y-121118396D01*
X167651027Y-121077908D01*
X167572850Y-120942500D01*
X167546969Y-120897672D01*
X167388060Y-120698407D01*
X167201227Y-120525052D01*
X166990644Y-120381479D01*
X166761014Y-120270895D01*
X166517468Y-120195771D01*
X166265445Y-120157784D01*
X166010575Y-120157784D01*
X165758552Y-120195771D01*
X165515006Y-120270895D01*
X165285374Y-120381479D01*
X165195714Y-120442609D01*
X165138978Y-120463460D01*
X165079125Y-120455009D01*
X165030378Y-120419267D01*
X165004322Y-120364725D01*
X165007146Y-120304345D01*
X165038181Y-120252475D01*
X167727731Y-117562924D01*
X167733150Y-117557823D01*
X167778183Y-117517929D01*
X167812377Y-117468389D01*
X167816770Y-117462419D01*
X167853878Y-117415056D01*
X167858035Y-117405818D01*
X167869061Y-117386268D01*
X167874818Y-117377930D01*
X167896152Y-117321674D01*
X167898994Y-117314811D01*
X167923695Y-117259931D01*
X167925522Y-117249956D01*
X167931549Y-117228339D01*
X167935140Y-117218872D01*
X167942387Y-117159179D01*
X167943514Y-117151777D01*
X167943784Y-117150304D01*
X167954358Y-117092606D01*
X167950726Y-117032561D01*
X167950500Y-117025079D01*
X167950500Y-98024921D01*
X167950726Y-98017434D01*
X167951158Y-98010284D01*
X167954358Y-97957394D01*
X167943507Y-97898185D01*
X167942390Y-97890841D01*
X167935140Y-97831128D01*
X167931547Y-97821656D01*
X167925522Y-97800044D01*
X167923695Y-97790069D01*
X167899009Y-97735220D01*
X167896142Y-97728298D01*
X167874971Y-97672473D01*
X167867868Y-97613142D01*
X167889339Y-97557380D01*
X167924035Y-97507830D01*
X168023903Y-97293663D01*
X168085063Y-97065408D01*
X168105659Y-96830000D01*
X168085063Y-96594592D01*
X168023903Y-96366337D01*
X167924035Y-96152171D01*
X167788495Y-95958599D01*
X167621401Y-95791505D01*
X167435402Y-95661267D01*
X167396539Y-95616951D01*
X167382528Y-95559694D01*
X167396539Y-95502437D01*
X167435405Y-95458119D01*
X167621078Y-95328109D01*
X167788106Y-95161081D01*
X167923600Y-94967576D01*
X168023430Y-94753492D01*
X168080636Y-94540000D01*
X164084000Y-94540000D01*
X164022000Y-94523387D01*
X163976613Y-94478000D01*
X163960000Y-94416000D01*
X163960000Y-94164000D01*
X163976613Y-94102000D01*
X164022000Y-94056613D01*
X164084000Y-94040000D01*
X168080636Y-94040000D01*
X168080635Y-94039999D01*
X168023430Y-93826507D01*
X167923599Y-93612421D01*
X167788109Y-93418921D01*
X167621081Y-93251893D01*
X167435404Y-93121880D01*
X167396539Y-93077562D01*
X167382528Y-93020305D01*
X167396539Y-92963048D01*
X167435402Y-92918732D01*
X167621401Y-92788495D01*
X167788495Y-92621401D01*
X167924035Y-92427830D01*
X168023903Y-92213663D01*
X168085063Y-91985408D01*
X168105659Y-91750000D01*
X168085063Y-91514592D01*
X168023903Y-91286337D01*
X167924035Y-91072171D01*
X167788495Y-90878599D01*
X167621401Y-90711505D01*
X167427830Y-90575965D01*
X167213663Y-90476097D01*
X167152502Y-90459709D01*
X166985407Y-90414936D01*
X166750000Y-90394340D01*
X166514592Y-90414936D01*
X166286336Y-90476097D01*
X166072170Y-90575965D01*
X165878601Y-90711503D01*
X165756673Y-90833431D01*
X165703926Y-90864726D01*
X165642634Y-90866915D01*
X165587789Y-90839462D01*
X165552810Y-90789082D01*
X165543485Y-90764082D01*
X165503796Y-90657669D01*
X165417546Y-90542454D01*
X165302331Y-90456204D01*
X165167483Y-90405909D01*
X165107873Y-90399500D01*
X165107869Y-90399500D01*
X163312130Y-90399500D01*
X163252515Y-90405909D01*
X163117669Y-90456204D01*
X163002454Y-90542454D01*
X162916204Y-90657668D01*
X162875233Y-90767516D01*
X162865909Y-90792517D01*
X162860834Y-90839726D01*
X162859500Y-90852131D01*
X162859500Y-91634216D01*
X162850061Y-91681669D01*
X162823181Y-91721897D01*
X161831398Y-92713681D01*
X161791170Y-92740561D01*
X161743717Y-92750000D01*
X160548069Y-92750000D01*
X160504736Y-92742182D01*
X160407483Y-92705909D01*
X160347873Y-92699500D01*
X160347869Y-92699500D01*
X158652130Y-92699500D01*
X158592515Y-92705909D01*
X158457669Y-92756204D01*
X158342451Y-92842455D01*
X158335645Y-92851548D01*
X158286394Y-92890701D01*
X158224267Y-92900642D01*
X158165258Y-92878811D01*
X158152483Y-92869866D01*
X157946326Y-92773733D01*
X157726602Y-92714858D01*
X157500000Y-92695033D01*
X157273397Y-92714858D01*
X157053672Y-92773733D01*
X156847516Y-92869865D01*
X156774527Y-92920973D01*
X157765872Y-93912318D01*
X157797966Y-93967905D01*
X157797966Y-94032093D01*
X157765872Y-94087680D01*
X157587680Y-94265872D01*
X157532093Y-94297966D01*
X157467905Y-94297966D01*
X157412318Y-94265872D01*
X156420973Y-93274527D01*
X156369864Y-93347518D01*
X156273734Y-93553671D01*
X156245754Y-93658094D01*
X156220968Y-93705706D01*
X156178384Y-93738382D01*
X156125979Y-93750000D01*
X156124500Y-93750000D01*
X156062500Y-93733387D01*
X156017113Y-93688000D01*
X156000500Y-93626000D01*
X156000500Y-81839279D01*
X156000540Y-81836137D01*
X156002757Y-81748638D01*
X155992350Y-81690574D01*
X155991041Y-81681242D01*
X155985074Y-81622562D01*
X155975962Y-81593520D01*
X155972226Y-81578297D01*
X155966858Y-81548347D01*
X155944976Y-81493566D01*
X155941816Y-81484689D01*
X155924159Y-81428412D01*
X155909395Y-81401812D01*
X155902660Y-81387631D01*
X155901572Y-81384906D01*
X155891377Y-81359383D01*
X155858917Y-81310131D01*
X155854036Y-81302074D01*
X155842096Y-81280562D01*
X155825409Y-81250498D01*
X155805582Y-81227403D01*
X155796146Y-81214888D01*
X155779402Y-81189481D01*
X155779400Y-81189479D01*
X155779399Y-81189477D01*
X155737693Y-81147772D01*
X155731287Y-81140860D01*
X155692864Y-81096102D01*
X155668804Y-81077478D01*
X155657026Y-81067105D01*
X154145134Y-79555214D01*
X154140806Y-79550662D01*
X154139025Y-79548690D01*
X154091679Y-79496286D01*
X154046483Y-79463098D01*
X154032639Y-79452932D01*
X154027671Y-79449087D01*
X153970907Y-79402802D01*
X153968617Y-79401606D01*
X153956626Y-79395342D01*
X153940647Y-79385382D01*
X153927666Y-79375849D01*
X153861116Y-79345272D01*
X153855498Y-79342517D01*
X153790549Y-79308591D01*
X153790548Y-79308590D01*
X153790545Y-79308589D01*
X153775066Y-79304160D01*
X153757412Y-79297622D01*
X153742769Y-79290894D01*
X153671420Y-79274337D01*
X153665340Y-79272763D01*
X153594918Y-79252613D01*
X153578854Y-79251389D01*
X153560247Y-79248538D01*
X153551954Y-79246614D01*
X153544551Y-79244896D01*
X153471315Y-79243040D01*
X153465044Y-79242722D01*
X153392020Y-79237162D01*
X153376039Y-79239197D01*
X153357246Y-79240150D01*
X153341138Y-79239742D01*
X153269034Y-79252665D01*
X153262826Y-79253616D01*
X153190173Y-79262868D01*
X153174917Y-79268083D01*
X153156698Y-79272800D01*
X153140850Y-79275641D01*
X153072831Y-79302810D01*
X153066943Y-79304991D01*
X152997622Y-79328686D01*
X152983748Y-79336853D01*
X152966850Y-79345142D01*
X152951886Y-79351119D01*
X152890710Y-79391437D01*
X152885383Y-79394757D01*
X152822272Y-79431910D01*
X152810316Y-79442712D01*
X152795435Y-79454231D01*
X152781983Y-79463097D01*
X152730202Y-79514877D01*
X152725652Y-79519202D01*
X152671285Y-79568322D01*
X152661747Y-79581311D01*
X152649485Y-79595593D01*
X148585220Y-83659858D01*
X148529633Y-83691952D01*
X148465445Y-83691952D01*
X148409858Y-83659858D01*
X147054319Y-82304319D01*
X147027439Y-82264091D01*
X147018000Y-82216638D01*
X147018000Y-77393565D01*
X147020624Y-77368190D01*
X147163346Y-76685523D01*
X147250470Y-76268794D01*
X147262773Y-76235187D01*
X147284161Y-76206494D01*
X156801337Y-66689319D01*
X156841566Y-66662439D01*
X156889019Y-66653000D01*
X158222695Y-66653000D01*
X158280910Y-66667515D01*
X158325496Y-66707660D01*
X158346015Y-66764037D01*
X158352645Y-66827112D01*
X158364326Y-66938257D01*
X158422820Y-67118284D01*
X158517466Y-67282216D01*
X158644129Y-67422889D01*
X158797269Y-67534151D01*
X158970197Y-67611144D01*
X159125126Y-67644075D01*
X159158513Y-67656391D01*
X159187027Y-67677684D01*
X159237058Y-67727715D01*
X159242178Y-67733153D01*
X159282071Y-67778183D01*
X159330109Y-67811342D01*
X159331573Y-67812352D01*
X159337591Y-67816780D01*
X159384944Y-67853878D01*
X159394180Y-67858034D01*
X159413731Y-67869062D01*
X159422066Y-67874816D01*
X159422068Y-67874816D01*
X159422070Y-67874818D01*
X159478326Y-67896152D01*
X159485220Y-67899009D01*
X159540069Y-67923695D01*
X159550044Y-67925522D01*
X159571656Y-67931547D01*
X159581128Y-67935140D01*
X159640841Y-67942390D01*
X159648185Y-67943507D01*
X159707394Y-67954358D01*
X159764102Y-67950927D01*
X159767434Y-67950726D01*
X159774921Y-67950500D01*
X167975079Y-67950500D01*
X167982566Y-67950726D01*
X167985706Y-67950915D01*
X168042606Y-67954358D01*
X168101782Y-67943513D01*
X168109181Y-67942387D01*
X168168872Y-67935140D01*
X168178335Y-67931550D01*
X168199958Y-67925522D01*
X168209932Y-67923695D01*
X168264808Y-67898996D01*
X168271673Y-67896152D01*
X168327930Y-67874818D01*
X168336270Y-67869060D01*
X168355819Y-67858035D01*
X168365057Y-67853878D01*
X168409076Y-67819390D01*
X168445101Y-67799783D01*
X168485551Y-67793000D01*
X169166170Y-67793000D01*
X169214983Y-67803012D01*
X169255913Y-67831430D01*
X169282352Y-67873666D01*
X169311651Y-67952220D01*
X169336495Y-68018831D01*
X169422745Y-68134046D01*
X169537960Y-68220296D01*
X169672808Y-68270591D01*
X169732418Y-68277000D01*
X171196163Y-68276999D01*
X171255774Y-68270591D01*
X171390622Y-68220296D01*
X171505837Y-68134046D01*
X171592087Y-68018831D01*
X171642382Y-67883983D01*
X171648791Y-67824373D01*
X171648790Y-67545653D01*
X171662654Y-67488683D01*
X171701145Y-67444449D01*
X171755657Y-67422846D01*
X171814000Y-67428705D01*
X171863128Y-67460715D01*
X171892055Y-67511719D01*
X171895043Y-67522221D01*
X171992893Y-67718730D01*
X172125184Y-67893912D01*
X172287409Y-68041799D01*
X172470600Y-68155227D01*
X172474052Y-68157364D01*
X172678748Y-68236664D01*
X172894531Y-68277000D01*
X173114049Y-68277000D01*
X173114051Y-68277000D01*
X173329834Y-68236664D01*
X173534530Y-68157364D01*
X173721170Y-68041801D01*
X173848722Y-67925522D01*
X173883397Y-67893912D01*
X173898686Y-67873666D01*
X174015688Y-67718731D01*
X174113537Y-67522224D01*
X174119861Y-67500000D01*
X174173611Y-67311085D01*
X174180128Y-67240757D01*
X174193866Y-67092500D01*
X174173611Y-66873916D01*
X174173611Y-66873914D01*
X174113538Y-66662777D01*
X174015688Y-66466269D01*
X173883397Y-66291087D01*
X173721172Y-66143200D01*
X173534531Y-66027636D01*
X173372084Y-65964704D01*
X173329834Y-65948336D01*
X173114051Y-65908000D01*
X172894531Y-65908000D01*
X172678748Y-65948335D01*
X172678748Y-65948336D01*
X172474050Y-66027636D01*
X172287409Y-66143200D01*
X172125184Y-66291087D01*
X171992893Y-66466269D01*
X171895044Y-66662775D01*
X171892056Y-66673280D01*
X171863129Y-66724285D01*
X171814001Y-66756296D01*
X171755658Y-66762155D01*
X171701146Y-66740552D01*
X171662654Y-66696318D01*
X171648790Y-66639344D01*
X171648790Y-66360630D01*
X171646001Y-66334683D01*
X171642382Y-66301017D01*
X171592087Y-66166169D01*
X171505837Y-66050954D01*
X171390622Y-65964704D01*
X171255774Y-65914409D01*
X171196164Y-65908000D01*
X171196160Y-65908000D01*
X169732421Y-65908000D01*
X169672806Y-65914409D01*
X169537960Y-65964704D01*
X169422745Y-66050954D01*
X169336495Y-66166168D01*
X169282352Y-66311334D01*
X169255913Y-66353570D01*
X169214983Y-66381988D01*
X169166170Y-66392000D01*
X168182421Y-66392000D01*
X168174934Y-66391774D01*
X168168294Y-66391372D01*
X168101416Y-66387326D01*
X168049079Y-66372165D01*
X168008293Y-66336032D01*
X167986936Y-66285902D01*
X167989129Y-66231460D01*
X168003135Y-66179192D01*
X168022968Y-65952500D01*
X168019635Y-65914409D01*
X168011572Y-65822244D01*
X168003135Y-65725808D01*
X167944239Y-65506004D01*
X167848068Y-65299766D01*
X167832110Y-65276976D01*
X167717546Y-65113359D01*
X167556640Y-64952453D01*
X167470877Y-64892402D01*
X167432011Y-64848084D01*
X167418000Y-64790827D01*
X167418000Y-63742421D01*
X167418226Y-63734934D01*
X167418892Y-63723916D01*
X167421858Y-63674894D01*
X167411007Y-63615685D01*
X167409890Y-63608341D01*
X167402640Y-63548628D01*
X167399047Y-63539156D01*
X167393022Y-63517544D01*
X167391195Y-63507569D01*
X167366509Y-63452720D01*
X167363652Y-63445826D01*
X167342318Y-63389570D01*
X167342316Y-63389568D01*
X167342316Y-63389566D01*
X167336562Y-63381231D01*
X167325533Y-63361677D01*
X167321378Y-63352444D01*
X167284280Y-63305091D01*
X167279852Y-63299073D01*
X167245684Y-63249572D01*
X167241470Y-63245839D01*
X167200653Y-63209678D01*
X167195215Y-63204558D01*
X166983156Y-62992499D01*
X169274716Y-62992499D01*
X169294970Y-63211085D01*
X169355043Y-63422222D01*
X169452893Y-63618730D01*
X169585184Y-63793912D01*
X169747409Y-63941799D01*
X169747411Y-63941800D01*
X169747412Y-63941801D01*
X169764848Y-63952597D01*
X169893436Y-64032216D01*
X169934052Y-64057364D01*
X170138748Y-64136664D01*
X170354531Y-64177000D01*
X170574049Y-64177000D01*
X170574051Y-64177000D01*
X170789834Y-64136664D01*
X170994530Y-64057364D01*
X171181170Y-63941801D01*
X171343398Y-63793911D01*
X171475688Y-63618731D01*
X171573537Y-63422224D01*
X171614734Y-63277432D01*
X171615025Y-63276409D01*
X171647424Y-63221855D01*
X171702566Y-63190470D01*
X171766016Y-63190470D01*
X171821158Y-63221855D01*
X171853557Y-63276409D01*
X171895044Y-63422222D01*
X171992893Y-63618730D01*
X172125184Y-63793912D01*
X172287409Y-63941799D01*
X172287411Y-63941800D01*
X172287412Y-63941801D01*
X172304848Y-63952597D01*
X172433436Y-64032216D01*
X172474052Y-64057364D01*
X172678748Y-64136664D01*
X172894531Y-64177000D01*
X173114049Y-64177000D01*
X173114051Y-64177000D01*
X173329834Y-64136664D01*
X173534530Y-64057364D01*
X173721170Y-63941801D01*
X173883398Y-63793911D01*
X174015688Y-63618731D01*
X174113537Y-63422224D01*
X174116150Y-63413042D01*
X174173611Y-63211085D01*
X174176800Y-63176672D01*
X174193866Y-62992500D01*
X174174810Y-62786852D01*
X174173611Y-62773914D01*
X174113538Y-62562777D01*
X174015688Y-62366269D01*
X173883397Y-62191087D01*
X173721172Y-62043200D01*
X173534531Y-61927636D01*
X173432181Y-61887985D01*
X173329834Y-61848336D01*
X173114051Y-61808000D01*
X172894531Y-61808000D01*
X172687297Y-61846738D01*
X172678748Y-61848336D01*
X172474050Y-61927636D01*
X172287409Y-62043200D01*
X172125184Y-62191087D01*
X171992893Y-62366269D01*
X171895043Y-62562777D01*
X171853557Y-62708590D01*
X171821158Y-62763144D01*
X171766016Y-62794529D01*
X171702566Y-62794529D01*
X171647424Y-62763144D01*
X171615025Y-62708590D01*
X171573538Y-62562777D01*
X171475688Y-62366269D01*
X171343397Y-62191087D01*
X171181172Y-62043200D01*
X170994531Y-61927636D01*
X170892181Y-61887985D01*
X170789834Y-61848336D01*
X170574051Y-61808000D01*
X170354531Y-61808000D01*
X170147297Y-61846738D01*
X170138748Y-61848336D01*
X169934050Y-61927636D01*
X169747409Y-62043200D01*
X169585184Y-62191087D01*
X169452893Y-62366269D01*
X169355043Y-62562777D01*
X169294970Y-62773914D01*
X169274716Y-62992499D01*
X166983156Y-62992499D01*
X164262940Y-60272283D01*
X164257822Y-60266847D01*
X164217929Y-60221817D01*
X164215725Y-60220296D01*
X164168436Y-60187654D01*
X164162405Y-60183216D01*
X164115054Y-60146120D01*
X164105813Y-60141961D01*
X164086273Y-60130941D01*
X164077930Y-60125182D01*
X164077927Y-60125181D01*
X164077926Y-60125180D01*
X164021701Y-60103856D01*
X164014783Y-60100991D01*
X163959929Y-60076303D01*
X163949952Y-60074475D01*
X163928339Y-60068450D01*
X163918873Y-60064860D01*
X163859172Y-60057610D01*
X163851771Y-60056483D01*
X163792607Y-60045641D01*
X163732566Y-60049274D01*
X163725079Y-60049500D01*
X163046519Y-60049500D01*
X162999066Y-60040061D01*
X162958838Y-60013181D01*
X162634338Y-59688681D01*
X162604088Y-59639318D01*
X162599546Y-59581602D01*
X162621701Y-59528115D01*
X162665724Y-59490515D01*
X162722019Y-59477000D01*
X162897258Y-59477000D01*
X162897260Y-59477000D01*
X163113043Y-59436664D01*
X163317739Y-59357364D01*
X163504379Y-59241801D01*
X163666607Y-59093911D01*
X163798897Y-58918731D01*
X163896746Y-58722224D01*
X163898158Y-58717264D01*
X163936501Y-58582500D01*
X165438628Y-58582500D01*
X165491233Y-58778826D01*
X165587365Y-58984980D01*
X165717841Y-59171319D01*
X165878680Y-59332158D01*
X166065019Y-59462634D01*
X166271173Y-59558766D01*
X166467499Y-59611371D01*
X166467500Y-59611372D01*
X166467500Y-58582500D01*
X166967500Y-58582500D01*
X166967500Y-59611371D01*
X167163826Y-59558766D01*
X167369980Y-59462634D01*
X167556319Y-59332158D01*
X167717158Y-59171319D01*
X167847634Y-58984980D01*
X167943766Y-58778826D01*
X167996372Y-58582500D01*
X166967500Y-58582500D01*
X166467500Y-58582500D01*
X165438628Y-58582500D01*
X163936501Y-58582500D01*
X163956820Y-58511085D01*
X163959331Y-58483983D01*
X163977075Y-58292500D01*
X163957686Y-58083261D01*
X163957615Y-58082500D01*
X165438628Y-58082500D01*
X166467500Y-58082500D01*
X166467500Y-57053628D01*
X166967500Y-57053628D01*
X166967500Y-58082500D01*
X167996372Y-58082500D01*
X167996371Y-58082499D01*
X167943766Y-57886173D01*
X167847634Y-57680019D01*
X167717158Y-57493680D01*
X167556319Y-57332841D01*
X167369980Y-57202365D01*
X167163826Y-57106233D01*
X166967500Y-57053628D01*
X166467500Y-57053628D01*
X166467499Y-57053628D01*
X166271173Y-57106233D01*
X166065019Y-57202365D01*
X165878680Y-57332841D01*
X165717841Y-57493680D01*
X165587365Y-57680019D01*
X165491233Y-57886173D01*
X165438628Y-58082499D01*
X165438628Y-58082500D01*
X163957615Y-58082500D01*
X163956820Y-58073914D01*
X163896747Y-57862777D01*
X163798897Y-57666269D01*
X163666606Y-57491087D01*
X163504381Y-57343200D01*
X163317740Y-57227636D01*
X163196271Y-57180579D01*
X163113043Y-57148336D01*
X162897260Y-57108000D01*
X162677740Y-57108000D01*
X162502197Y-57140814D01*
X162461957Y-57148336D01*
X162257259Y-57227636D01*
X162070618Y-57343200D01*
X161908393Y-57491087D01*
X161776102Y-57666269D01*
X161678252Y-57862777D01*
X161636766Y-58008590D01*
X161604367Y-58063144D01*
X161549225Y-58094529D01*
X161485775Y-58094529D01*
X161430633Y-58063144D01*
X161398234Y-58008590D01*
X161356747Y-57862777D01*
X161258897Y-57666269D01*
X161126606Y-57491087D01*
X160964381Y-57343200D01*
X160777740Y-57227636D01*
X160656271Y-57180579D01*
X160573043Y-57148336D01*
X160357260Y-57108000D01*
X160137740Y-57108000D01*
X159962197Y-57140814D01*
X159921957Y-57148336D01*
X159717259Y-57227636D01*
X159530618Y-57343200D01*
X159368393Y-57491087D01*
X159236102Y-57666269D01*
X159138252Y-57862777D01*
X159078179Y-58073914D01*
X159057925Y-58292499D01*
X159078179Y-58511085D01*
X159138252Y-58722222D01*
X159236102Y-58918730D01*
X159368393Y-59093912D01*
X159530618Y-59241799D01*
X159648083Y-59314531D01*
X159717261Y-59357364D01*
X159921957Y-59436664D01*
X160137740Y-59477000D01*
X160357259Y-59477000D01*
X160357260Y-59477000D01*
X160363849Y-59475768D01*
X160423315Y-59479205D01*
X160474318Y-59509975D01*
X162168369Y-61204026D01*
X162197797Y-61250946D01*
X162203862Y-61305997D01*
X162185354Y-61358198D01*
X162145965Y-61397134D01*
X162145794Y-61397239D01*
X162145793Y-61397241D01*
X162787500Y-62038947D01*
X163784936Y-63036384D01*
X163784937Y-63036384D01*
X163798468Y-63018467D01*
X163896278Y-62822040D01*
X163956325Y-62610992D01*
X163976571Y-62392500D01*
X163964827Y-62265759D01*
X163973957Y-62206336D01*
X164009966Y-62158192D01*
X164064388Y-62132644D01*
X164124430Y-62135698D01*
X164175979Y-62166636D01*
X165980681Y-63971338D01*
X166007561Y-64011566D01*
X166017000Y-64059019D01*
X166017000Y-64790827D01*
X166002989Y-64848084D01*
X165964123Y-64892402D01*
X165878359Y-64952453D01*
X165717453Y-65113359D01*
X165657402Y-65199123D01*
X165613084Y-65237989D01*
X165555827Y-65252000D01*
X156572421Y-65252000D01*
X156564934Y-65251774D01*
X156504891Y-65248141D01*
X156445727Y-65258983D01*
X156438328Y-65260110D01*
X156378624Y-65267360D01*
X156369151Y-65270953D01*
X156347547Y-65276976D01*
X156337569Y-65278805D01*
X156282725Y-65303487D01*
X156275810Y-65306351D01*
X156219570Y-65327681D01*
X156211223Y-65333443D01*
X156191687Y-65344461D01*
X156182444Y-65348621D01*
X156135108Y-65385705D01*
X156129082Y-65390139D01*
X156079572Y-65424316D01*
X156039684Y-65469338D01*
X156034552Y-65474789D01*
X147665459Y-73843882D01*
X147625476Y-73870660D01*
X147578310Y-73880200D01*
X145491601Y-73889151D01*
X145435129Y-73875817D01*
X145390907Y-73838252D01*
X145368616Y-73784680D01*
X145373138Y-73726835D01*
X145385674Y-73688256D01*
X145405460Y-73500000D01*
X145385674Y-73311744D01*
X145327179Y-73131716D01*
X145327179Y-73131715D01*
X145232533Y-72967783D01*
X145105870Y-72827110D01*
X144952730Y-72715848D01*
X144779802Y-72638855D01*
X144594648Y-72599500D01*
X144594646Y-72599500D01*
X144405354Y-72599500D01*
X144405352Y-72599500D01*
X144220197Y-72638855D01*
X144047269Y-72715848D01*
X143894129Y-72827110D01*
X143767466Y-72967783D01*
X143672820Y-73131715D01*
X143614326Y-73311742D01*
X143594540Y-73500000D01*
X143614326Y-73688257D01*
X143672820Y-73868283D01*
X143705127Y-73924241D01*
X143721267Y-73975433D01*
X143714261Y-74028651D01*
X143685420Y-74073921D01*
X142496162Y-75263181D01*
X142455934Y-75290061D01*
X142408481Y-75299500D01*
X141274910Y-75299500D01*
X141267423Y-75299274D01*
X141207391Y-75295642D01*
X141148242Y-75306481D01*
X141140843Y-75307608D01*
X141081122Y-75314860D01*
X141071641Y-75318456D01*
X141050036Y-75324479D01*
X141040069Y-75326305D01*
X140985234Y-75350984D01*
X140978318Y-75353848D01*
X140922069Y-75375181D01*
X140913725Y-75380941D01*
X140894183Y-75391963D01*
X140884944Y-75396121D01*
X140837594Y-75433216D01*
X140831566Y-75437652D01*
X140782067Y-75471819D01*
X140742183Y-75516838D01*
X140737051Y-75522290D01*
X139053662Y-77205681D01*
X139013434Y-77232561D01*
X138965981Y-77242000D01*
X138925656Y-77242000D01*
X138887338Y-77235931D01*
X138852770Y-77218318D01*
X138770227Y-77158347D01*
X138597302Y-77081355D01*
X138412148Y-77042000D01*
X138412146Y-77042000D01*
X138222854Y-77042000D01*
X138222852Y-77042000D01*
X138037697Y-77081355D01*
X137864769Y-77158348D01*
X137711629Y-77269610D01*
X137584966Y-77410283D01*
X137490320Y-77574215D01*
X137431826Y-77754242D01*
X137412040Y-77942500D01*
X137431826Y-78130757D01*
X137490320Y-78310784D01*
X137584966Y-78474716D01*
X137711629Y-78615389D01*
X137864769Y-78726651D01*
X138037697Y-78803644D01*
X138222852Y-78843000D01*
X138222854Y-78843000D01*
X138412146Y-78843000D01*
X138412148Y-78843000D01*
X138547095Y-78814316D01*
X138597303Y-78803644D01*
X138770230Y-78726651D01*
X138852771Y-78666681D01*
X138887338Y-78649069D01*
X138925656Y-78643000D01*
X139502553Y-78643000D01*
X139502556Y-78643000D01*
X139536738Y-78634574D01*
X139551436Y-78631881D01*
X139586372Y-78627640D01*
X139619272Y-78615162D01*
X139633550Y-78610712D01*
X139667725Y-78602290D01*
X139698882Y-78585936D01*
X139712523Y-78579797D01*
X139745430Y-78567318D01*
X139774395Y-78547323D01*
X139787197Y-78539584D01*
X139818352Y-78523234D01*
X139844685Y-78499905D01*
X139856462Y-78490676D01*
X139885429Y-78470683D01*
X139908764Y-78444341D01*
X139919341Y-78433764D01*
X139945683Y-78410429D01*
X139965676Y-78381462D01*
X139974904Y-78369686D01*
X140006684Y-78333814D01*
X140062013Y-78297843D01*
X140127960Y-78295351D01*
X140185846Y-78327045D01*
X140219274Y-78383947D01*
X140246606Y-78485951D01*
X140330073Y-78664946D01*
X140339966Y-78686162D01*
X140466674Y-78867120D01*
X140622880Y-79023326D01*
X140803838Y-79150034D01*
X140932689Y-79210118D01*
X140984864Y-79255873D01*
X141004284Y-79322498D01*
X140984865Y-79389123D01*
X140932690Y-79434881D01*
X140803836Y-79494967D01*
X140622879Y-79621674D01*
X140466674Y-79777879D01*
X140339966Y-79958838D01*
X140246606Y-80159048D01*
X140189429Y-80372434D01*
X140170176Y-80592499D01*
X140189429Y-80812565D01*
X140246606Y-81025951D01*
X140322861Y-81189481D01*
X140339966Y-81226162D01*
X140466674Y-81407120D01*
X140622880Y-81563326D01*
X140803838Y-81690034D01*
X140876428Y-81723883D01*
X140932689Y-81750118D01*
X140984865Y-81795875D01*
X141004284Y-81862500D01*
X140984865Y-81929125D01*
X140932689Y-81974882D01*
X140803838Y-82034966D01*
X140622879Y-82161674D01*
X140466674Y-82317879D01*
X140339966Y-82498838D01*
X140246606Y-82699048D01*
X140189429Y-82912434D01*
X140170176Y-83132500D01*
X140187394Y-83329306D01*
X140180388Y-83382524D01*
X140151547Y-83427794D01*
X138344470Y-85234871D01*
X138296648Y-85264609D01*
X138240604Y-85270129D01*
X138187899Y-85250292D01*
X138159157Y-85219606D01*
X138158754Y-85219969D01*
X138023370Y-85069610D01*
X137870230Y-84958348D01*
X137697302Y-84881355D01*
X137542372Y-84848424D01*
X137508985Y-84836107D01*
X137480472Y-84814815D01*
X131530440Y-78864783D01*
X131525322Y-78859347D01*
X131485429Y-78814317D01*
X131435932Y-78780151D01*
X131429905Y-78775716D01*
X131382554Y-78738620D01*
X131373313Y-78734461D01*
X131353773Y-78723441D01*
X131345430Y-78717682D01*
X131345427Y-78717681D01*
X131345426Y-78717680D01*
X131289201Y-78696356D01*
X131282283Y-78693491D01*
X131227429Y-78668803D01*
X131217452Y-78666975D01*
X131195839Y-78660950D01*
X131186373Y-78657360D01*
X131126672Y-78650110D01*
X131119271Y-78648983D01*
X131060107Y-78638141D01*
X131000066Y-78641774D01*
X130992579Y-78642000D01*
X127508181Y-78642000D01*
X127453337Y-78629212D01*
X127409805Y-78593486D01*
X127386564Y-78542191D01*
X127388406Y-78485906D01*
X127429159Y-78333814D01*
X127445570Y-78272568D01*
X127464823Y-78052500D01*
X127445570Y-77832432D01*
X127388394Y-77619050D01*
X127295034Y-77418839D01*
X127168326Y-77237880D01*
X127012120Y-77081674D01*
X126831162Y-76954966D01*
X126630951Y-76861606D01*
X126417565Y-76804429D01*
X126197500Y-76785176D01*
X125977434Y-76804429D01*
X125764048Y-76861606D01*
X125563838Y-76954966D01*
X125382879Y-77081674D01*
X125226674Y-77237879D01*
X125099966Y-77418838D01*
X125006606Y-77619048D01*
X124951902Y-77823202D01*
X124919808Y-77878790D01*
X124864220Y-77910883D01*
X124800033Y-77910883D01*
X124744446Y-77878789D01*
X117008156Y-70142499D01*
X119112297Y-70142499D01*
X119131343Y-70396654D01*
X119188058Y-70645137D01*
X119281174Y-70882391D01*
X119402922Y-71093266D01*
X119408607Y-71103112D01*
X119567516Y-71302377D01*
X119754349Y-71475732D01*
X119964932Y-71619305D01*
X120194562Y-71729889D01*
X120438108Y-71805013D01*
X120690131Y-71843000D01*
X120945001Y-71843000D01*
X121197024Y-71805013D01*
X121440570Y-71729889D01*
X121670200Y-71619305D01*
X121880783Y-71475732D01*
X122067616Y-71302377D01*
X122226525Y-71103112D01*
X122353959Y-70882388D01*
X122447074Y-70645137D01*
X122503788Y-70396657D01*
X122522834Y-70142500D01*
X122503788Y-69888343D01*
X122447074Y-69639863D01*
X122353959Y-69402612D01*
X122326567Y-69355168D01*
X122276353Y-69268194D01*
X122226525Y-69181888D01*
X122159545Y-69097898D01*
X123936506Y-69097898D01*
X123974430Y-69579774D01*
X123974735Y-69583640D01*
X124042250Y-70009915D01*
X124050955Y-70064872D01*
X124060418Y-70104287D01*
X124164697Y-70538647D01*
X124315264Y-71002040D01*
X124501716Y-71452177D01*
X124722923Y-71886321D01*
X124977502Y-72301754D01*
X125193827Y-72599500D01*
X125263892Y-72695936D01*
X125580327Y-73066434D01*
X125924856Y-73410963D01*
X126295354Y-73727398D01*
X126334708Y-73755990D01*
X126689535Y-74013787D01*
X127104968Y-74268366D01*
X127539112Y-74489573D01*
X127939074Y-74655242D01*
X127989254Y-74676027D01*
X128158922Y-74731155D01*
X128452642Y-74826592D01*
X128610568Y-74864506D01*
X128926418Y-74940335D01*
X129407657Y-75016556D01*
X129893392Y-75054784D01*
X130114420Y-75054784D01*
X130137010Y-75054784D01*
X130176892Y-75054784D01*
X138085616Y-75054784D01*
X138085777Y-75054816D01*
X138137010Y-75054816D01*
X138380626Y-75054816D01*
X138380629Y-75054816D01*
X138866364Y-75016587D01*
X139347603Y-74940365D01*
X139821378Y-74826621D01*
X140284768Y-74676056D01*
X140734916Y-74489598D01*
X141169047Y-74268396D01*
X141584485Y-74013815D01*
X141978668Y-73727423D01*
X142349166Y-73410988D01*
X142693695Y-73066459D01*
X143010130Y-72695960D01*
X143296521Y-72301777D01*
X143551101Y-71886338D01*
X143772302Y-71452207D01*
X143958760Y-71002058D01*
X144068208Y-70665212D01*
X144109324Y-70538669D01*
X144146146Y-70385291D01*
X144204435Y-70142499D01*
X145712231Y-70142499D01*
X145731277Y-70396654D01*
X145787992Y-70645137D01*
X145881108Y-70882391D01*
X146002856Y-71093266D01*
X146008541Y-71103112D01*
X146167450Y-71302377D01*
X146354283Y-71475732D01*
X146564866Y-71619305D01*
X146794496Y-71729889D01*
X147038042Y-71805013D01*
X147290065Y-71843000D01*
X147544935Y-71843000D01*
X147796958Y-71805013D01*
X148040504Y-71729889D01*
X148270134Y-71619305D01*
X148480717Y-71475732D01*
X148667550Y-71302377D01*
X148826459Y-71103112D01*
X148953893Y-70882388D01*
X149047008Y-70645137D01*
X149103722Y-70396657D01*
X149122768Y-70142500D01*
X149103722Y-69888343D01*
X149047008Y-69639863D01*
X148953893Y-69402612D01*
X148926501Y-69355168D01*
X148876287Y-69268194D01*
X148826459Y-69181888D01*
X148667550Y-68982623D01*
X148480717Y-68809268D01*
X148270134Y-68665695D01*
X148040504Y-68555111D01*
X147796958Y-68479987D01*
X147544935Y-68442000D01*
X147290065Y-68442000D01*
X147038042Y-68479987D01*
X146794496Y-68555111D01*
X146589087Y-68654031D01*
X146564866Y-68665695D01*
X146529971Y-68689486D01*
X146354281Y-68809269D01*
X146284146Y-68874345D01*
X146167450Y-68982623D01*
X146009473Y-69180720D01*
X146008538Y-69181892D01*
X145881108Y-69402608D01*
X145787992Y-69639862D01*
X145731277Y-69888345D01*
X145712231Y-70142499D01*
X144204435Y-70142499D01*
X144223067Y-70064893D01*
X144299288Y-69583654D01*
X144337516Y-69097919D01*
X144337516Y-68610681D01*
X144299288Y-68124946D01*
X144223067Y-67643707D01*
X144143370Y-67311744D01*
X144109324Y-67169930D01*
X143958760Y-66706542D01*
X143772303Y-66256395D01*
X143732966Y-66179192D01*
X143551101Y-65822262D01*
X143296521Y-65406823D01*
X143010130Y-65012640D01*
X143010125Y-65012634D01*
X143010122Y-65012630D01*
X142693697Y-64642143D01*
X142349169Y-64297615D01*
X142349166Y-64297612D01*
X141978668Y-63981177D01*
X141584485Y-63694785D01*
X141584481Y-63694783D01*
X141584479Y-63694781D01*
X141169052Y-63440206D01*
X140734913Y-63219000D01*
X140443918Y-63098466D01*
X140284768Y-63032544D01*
X140053072Y-62957261D01*
X139821379Y-62881979D01*
X139654243Y-62841853D01*
X139347603Y-62768235D01*
X139347534Y-62768224D01*
X138866371Y-62692014D01*
X138866369Y-62692013D01*
X138866364Y-62692013D01*
X138380629Y-62653784D01*
X138380626Y-62653784D01*
X130188380Y-62653784D01*
X130188340Y-62653776D01*
X130137010Y-62653776D01*
X129893392Y-62653776D01*
X129407657Y-62692004D01*
X129407652Y-62692004D01*
X129407649Y-62692005D01*
X128926422Y-62768224D01*
X128452642Y-62881967D01*
X127989249Y-63032534D01*
X127539112Y-63218986D01*
X127104968Y-63440193D01*
X126689535Y-63694772D01*
X126295357Y-63981159D01*
X125924852Y-64297600D01*
X125580330Y-64642122D01*
X125263889Y-65012627D01*
X124977502Y-65406805D01*
X124722923Y-65822238D01*
X124501716Y-66256382D01*
X124315264Y-66706519D01*
X124164697Y-67169912D01*
X124050954Y-67643692D01*
X123974735Y-68124919D01*
X123974734Y-68124927D01*
X123936506Y-68610662D01*
X123936506Y-69097898D01*
X122159545Y-69097898D01*
X122067616Y-68982623D01*
X121880783Y-68809268D01*
X121670200Y-68665695D01*
X121440570Y-68555111D01*
X121197024Y-68479987D01*
X120945001Y-68442000D01*
X120690131Y-68442000D01*
X120438108Y-68479987D01*
X120194562Y-68555111D01*
X119989153Y-68654031D01*
X119964932Y-68665695D01*
X119930037Y-68689486D01*
X119754347Y-68809269D01*
X119684212Y-68874345D01*
X119567516Y-68982623D01*
X119409539Y-69180720D01*
X119408604Y-69181892D01*
X119281174Y-69402608D01*
X119188058Y-69639862D01*
X119131343Y-69888345D01*
X119112297Y-70142499D01*
X117008156Y-70142499D01*
X116486819Y-69621162D01*
X116459939Y-69580934D01*
X116450500Y-69533481D01*
X116450500Y-68524921D01*
X116450726Y-68517434D01*
X116450927Y-68514102D01*
X116454358Y-68457394D01*
X116443507Y-68398185D01*
X116442390Y-68390841D01*
X116435140Y-68331128D01*
X116431547Y-68321656D01*
X116425522Y-68300044D01*
X116423695Y-68290069D01*
X116399009Y-68235220D01*
X116396152Y-68228326D01*
X116374818Y-68172070D01*
X116369053Y-68163719D01*
X116358036Y-68144183D01*
X116353878Y-68134944D01*
X116316788Y-68087603D01*
X116312352Y-68081574D01*
X116278183Y-68032071D01*
X116233145Y-67992171D01*
X116227707Y-67987051D01*
X115640186Y-67399529D01*
X115615946Y-67365230D01*
X115604547Y-67324812D01*
X115603174Y-67311744D01*
X115572832Y-67218363D01*
X115544679Y-67131715D01*
X115450033Y-66967783D01*
X115323370Y-66827110D01*
X115170230Y-66715848D01*
X114997302Y-66638855D01*
X114812148Y-66599500D01*
X114812146Y-66599500D01*
X114622854Y-66599500D01*
X114622852Y-66599500D01*
X114437697Y-66638855D01*
X114264769Y-66715848D01*
X114111629Y-66827110D01*
X113984966Y-66967783D01*
X113890320Y-67131715D01*
X113831826Y-67311742D01*
X113820144Y-67422889D01*
X113812040Y-67500000D01*
X113814376Y-67522222D01*
X113831826Y-67688257D01*
X113890320Y-67868284D01*
X113984966Y-68032216D01*
X114111629Y-68172889D01*
X114264769Y-68284151D01*
X114437696Y-68361144D01*
X114633900Y-68402848D01*
X114667286Y-68415165D01*
X114695800Y-68436457D01*
X115013181Y-68753837D01*
X115040061Y-68794065D01*
X115049500Y-68841518D01*
X115049500Y-69850079D01*
X115049274Y-69857566D01*
X115045641Y-69917607D01*
X115056483Y-69976771D01*
X115057610Y-69984172D01*
X115064860Y-70043873D01*
X115068450Y-70053339D01*
X115074475Y-70074952D01*
X115076303Y-70084929D01*
X115100991Y-70139783D01*
X115103856Y-70146701D01*
X115125180Y-70202926D01*
X115125182Y-70202930D01*
X115130941Y-70211273D01*
X115141961Y-70230813D01*
X115146120Y-70240054D01*
X115183216Y-70287405D01*
X115187651Y-70293432D01*
X115221817Y-70342929D01*
X115266847Y-70382822D01*
X115272283Y-70387940D01*
X124704558Y-79820215D01*
X124709678Y-79825653D01*
X124749571Y-79870683D01*
X124799077Y-79904855D01*
X124805097Y-79909285D01*
X124852441Y-79946377D01*
X124852442Y-79946377D01*
X124852443Y-79946378D01*
X124861684Y-79950537D01*
X124881230Y-79961561D01*
X124889570Y-79967318D01*
X124940153Y-79986501D01*
X124994133Y-80026405D01*
X125019407Y-80088595D01*
X125008567Y-80154844D01*
X125006607Y-80159047D01*
X124949429Y-80372434D01*
X124930176Y-80592500D01*
X124949429Y-80812565D01*
X125006606Y-81025951D01*
X125082861Y-81189481D01*
X125099966Y-81226162D01*
X125226674Y-81407120D01*
X125382880Y-81563326D01*
X125563838Y-81690034D01*
X125613104Y-81713007D01*
X125693280Y-81750394D01*
X125745456Y-81796151D01*
X125764875Y-81862776D01*
X125745456Y-81929401D01*
X125693280Y-81975158D01*
X125564089Y-82035400D01*
X125499312Y-82080758D01*
X125499311Y-82080758D01*
X126197500Y-82778946D01*
X126197501Y-82778946D01*
X126895687Y-82080758D01*
X126830906Y-82035398D01*
X126701719Y-81975158D01*
X126649543Y-81929401D01*
X126630123Y-81862776D01*
X126649543Y-81796151D01*
X126701719Y-81750394D01*
X126758572Y-81723883D01*
X126831162Y-81690034D01*
X127012120Y-81563326D01*
X127168326Y-81407120D01*
X127295034Y-81226162D01*
X127388394Y-81025950D01*
X127445570Y-80812568D01*
X127464823Y-80592500D01*
X127445570Y-80372432D01*
X127399124Y-80199094D01*
X127397282Y-80142809D01*
X127420523Y-80091514D01*
X127464055Y-80055788D01*
X127518899Y-80043000D01*
X130675981Y-80043000D01*
X130723434Y-80052439D01*
X130763662Y-80079319D01*
X136490995Y-85806652D01*
X136515234Y-85840949D01*
X136526634Y-85881369D01*
X136531825Y-85930754D01*
X136590320Y-86110784D01*
X136684966Y-86274716D01*
X136811629Y-86415388D01*
X136898235Y-86478311D01*
X136933539Y-86518040D01*
X136948968Y-86568900D01*
X136941686Y-86621547D01*
X136913031Y-86666310D01*
X129877352Y-93701990D01*
X129821765Y-93734084D01*
X129757577Y-93734084D01*
X129701990Y-93701990D01*
X128926347Y-92926347D01*
X128897506Y-92881076D01*
X128890500Y-92827858D01*
X128906640Y-92776668D01*
X128944679Y-92710784D01*
X129003174Y-92530756D01*
X129022960Y-92342500D01*
X129003174Y-92154244D01*
X128963014Y-92030645D01*
X128944679Y-91974215D01*
X128850033Y-91810283D01*
X128849850Y-91810080D01*
X128826236Y-91771545D01*
X128818000Y-91727108D01*
X128818000Y-84967410D01*
X128818226Y-84959923D01*
X128818758Y-84951130D01*
X128821857Y-84899894D01*
X128811009Y-84840701D01*
X128809892Y-84833356D01*
X128802640Y-84773628D01*
X128799046Y-84764152D01*
X128793020Y-84742536D01*
X128791194Y-84732568D01*
X128766497Y-84677695D01*
X128763655Y-84670834D01*
X128742318Y-84614570D01*
X128736558Y-84606226D01*
X128725539Y-84586690D01*
X128721378Y-84577443D01*
X128713508Y-84567398D01*
X128684285Y-84530096D01*
X128679854Y-84524077D01*
X128645683Y-84474571D01*
X128600653Y-84434678D01*
X128595215Y-84429558D01*
X128030440Y-83864783D01*
X128025322Y-83859347D01*
X127985429Y-83814317D01*
X127935932Y-83780151D01*
X127929905Y-83775716D01*
X127882554Y-83738620D01*
X127873313Y-83734461D01*
X127853773Y-83723441D01*
X127845430Y-83717682D01*
X127845427Y-83717681D01*
X127845426Y-83717680D01*
X127789201Y-83696356D01*
X127782283Y-83693491D01*
X127727429Y-83668803D01*
X127717452Y-83666975D01*
X127695839Y-83660950D01*
X127686373Y-83657360D01*
X127626672Y-83650110D01*
X127619271Y-83648983D01*
X127560106Y-83638141D01*
X127537186Y-83639528D01*
X127479949Y-83629336D01*
X127433648Y-83594176D01*
X127408462Y-83541778D01*
X127409925Y-83483660D01*
X127445075Y-83352478D01*
X127464321Y-83132499D01*
X127445075Y-82912521D01*
X127387921Y-82699220D01*
X127294598Y-82499089D01*
X127249240Y-82434311D01*
X126285180Y-83398372D01*
X126229593Y-83430466D01*
X126165405Y-83430466D01*
X126109818Y-83398372D01*
X125145758Y-82434312D01*
X125100400Y-82499089D01*
X125007078Y-82699219D01*
X124949924Y-82912521D01*
X124935148Y-83081409D01*
X124909996Y-83146088D01*
X124854030Y-83187123D01*
X124784781Y-83191662D01*
X124723939Y-83158282D01*
X124530440Y-82964783D01*
X124525322Y-82959347D01*
X124485429Y-82914317D01*
X124482827Y-82912521D01*
X124435936Y-82880154D01*
X124429905Y-82875716D01*
X124382554Y-82838620D01*
X124373313Y-82834461D01*
X124353773Y-82823441D01*
X124345430Y-82817682D01*
X124345427Y-82817681D01*
X124345426Y-82817680D01*
X124289201Y-82796356D01*
X124282283Y-82793491D01*
X124227429Y-82768803D01*
X124217452Y-82766975D01*
X124195839Y-82760950D01*
X124186373Y-82757360D01*
X124126672Y-82750110D01*
X124119271Y-82748983D01*
X124060107Y-82738141D01*
X124000066Y-82741774D01*
X123992579Y-82742000D01*
X122232784Y-82742000D01*
X122175527Y-82727989D01*
X122131209Y-82689123D01*
X122088326Y-82627879D01*
X121932120Y-82471674D01*
X121751162Y-82344966D01*
X121550951Y-82251606D01*
X121337565Y-82194429D01*
X121117499Y-82175176D01*
X120897434Y-82194429D01*
X120684048Y-82251606D01*
X120483838Y-82344966D01*
X120302879Y-82471674D01*
X120146674Y-82627879D01*
X120019966Y-82808838D01*
X119926606Y-83009048D01*
X119869429Y-83222434D01*
X119850176Y-83442499D01*
X119869429Y-83662565D01*
X119926606Y-83875951D01*
X119955810Y-83938579D01*
X120019966Y-84076162D01*
X120146674Y-84257120D01*
X120302880Y-84413326D01*
X120350151Y-84446426D01*
X120390478Y-84493642D01*
X120402858Y-84554489D01*
X120384186Y-84613710D01*
X120339144Y-84656453D01*
X120279028Y-84672000D01*
X114283691Y-84672000D01*
X114223575Y-84656453D01*
X114178533Y-84613711D01*
X114159861Y-84554491D01*
X114172240Y-84493643D01*
X114212566Y-84446426D01*
X114215687Y-84444240D01*
X113517501Y-83746053D01*
X113517500Y-83746053D01*
X112819312Y-84444240D01*
X112822432Y-84446425D01*
X112862758Y-84493642D01*
X112875138Y-84554490D01*
X112856466Y-84613710D01*
X112811424Y-84656453D01*
X112751308Y-84672000D01*
X110401779Y-84672000D01*
X110398637Y-84671960D01*
X110311137Y-84669742D01*
X110253080Y-84680148D01*
X110243751Y-84681457D01*
X110185062Y-84687426D01*
X110156027Y-84696535D01*
X110140790Y-84700274D01*
X110110846Y-84705641D01*
X110056068Y-84727521D01*
X110047198Y-84730679D01*
X109990914Y-84748339D01*
X109964319Y-84763101D01*
X109950141Y-84769834D01*
X109921885Y-84781120D01*
X109872622Y-84813587D01*
X109864566Y-84818467D01*
X109812995Y-84847091D01*
X109789906Y-84866912D01*
X109777383Y-84876355D01*
X109751984Y-84893096D01*
X109710282Y-84934797D01*
X109703375Y-84941198D01*
X109658604Y-84979634D01*
X109639980Y-85003694D01*
X109629607Y-85015471D01*
X105720146Y-88924932D01*
X105717899Y-88927123D01*
X105654448Y-88987439D01*
X105620744Y-89035862D01*
X105615073Y-89043382D01*
X105577801Y-89089093D01*
X105563710Y-89116066D01*
X105555582Y-89129483D01*
X105538205Y-89154450D01*
X105514939Y-89208665D01*
X105510899Y-89217171D01*
X105483590Y-89269452D01*
X105475220Y-89298701D01*
X105469959Y-89313478D01*
X105457960Y-89341442D01*
X105446087Y-89399213D01*
X105443842Y-89408360D01*
X105427613Y-89465080D01*
X105425302Y-89495425D01*
X105423122Y-89510966D01*
X105417000Y-89540759D01*
X105417000Y-89599742D01*
X105416642Y-89609156D01*
X105412163Y-89667977D01*
X105416006Y-89698151D01*
X105417000Y-89713817D01*
X105417000Y-91340542D01*
X105402989Y-91397799D01*
X105364123Y-91442117D01*
X105309185Y-91463481D01*
X105250589Y-91457064D01*
X105201577Y-91424315D01*
X105173225Y-91372635D01*
X105155982Y-91308283D01*
X105143403Y-91261337D01*
X105043535Y-91047171D01*
X104907995Y-90853599D01*
X104740901Y-90686505D01*
X104547330Y-90550965D01*
X104333163Y-90451097D01*
X104266396Y-90433207D01*
X104104907Y-90389936D01*
X103869500Y-90369340D01*
X103634092Y-90389936D01*
X103405836Y-90451097D01*
X103191670Y-90550965D01*
X102998101Y-90686503D01*
X102876173Y-90808431D01*
X102823426Y-90839726D01*
X102762134Y-90841915D01*
X102707289Y-90814462D01*
X102672310Y-90764082D01*
X102652699Y-90711503D01*
X102623296Y-90632669D01*
X102537046Y-90517454D01*
X102421831Y-90431204D01*
X102286983Y-90380909D01*
X102227373Y-90374500D01*
X102227369Y-90374500D01*
X100431630Y-90374500D01*
X100372015Y-90380909D01*
X100237169Y-90431204D01*
X100121954Y-90517454D01*
X100035704Y-90632668D01*
X99985409Y-90767516D01*
X99979000Y-90827130D01*
X99979000Y-92622869D01*
X99985409Y-92682484D01*
X99996014Y-92710917D01*
X100035704Y-92817331D01*
X100121954Y-92932546D01*
X100237169Y-93018796D01*
X100369098Y-93068002D01*
X100419478Y-93102981D01*
X100446931Y-93157825D01*
X100444742Y-93219118D01*
X100413447Y-93271865D01*
X100291388Y-93393924D01*
X100155900Y-93587421D01*
X100056069Y-93801507D01*
X99998864Y-94014999D01*
X99998864Y-94015000D01*
X103995500Y-94015000D01*
X104057500Y-94031613D01*
X104102887Y-94077000D01*
X104119500Y-94139000D01*
X104119500Y-94391000D01*
X104102887Y-94453000D01*
X104057500Y-94498387D01*
X103995500Y-94515000D01*
X99998864Y-94515000D01*
X100056069Y-94728492D01*
X100155899Y-94942576D01*
X100291393Y-95136081D01*
X100458418Y-95303106D01*
X100644095Y-95433119D01*
X100682960Y-95477437D01*
X100696971Y-95534694D01*
X100682960Y-95591951D01*
X100644095Y-95636269D01*
X100560886Y-95694533D01*
X100458234Y-95766411D01*
X100458095Y-95766508D01*
X100291005Y-95933598D01*
X100155465Y-96127170D01*
X100055597Y-96341336D01*
X99994436Y-96569592D01*
X99973840Y-96805000D01*
X99286444Y-96805000D01*
X99250261Y-90545293D01*
X99257544Y-90502705D01*
X99278996Y-90465204D01*
X100496409Y-89004308D01*
X100503967Y-88996032D01*
X100961460Y-88538539D01*
X101021765Y-88505282D01*
X101051167Y-88507013D01*
X101059978Y-88506052D01*
X101078946Y-88507581D01*
X101124464Y-88499332D01*
X101133127Y-88498075D01*
X101167224Y-88494359D01*
X101167225Y-88494358D01*
X101174695Y-88493544D01*
X101183371Y-88487244D01*
X101208521Y-88468980D01*
X101215791Y-88464085D01*
X101226297Y-88457537D01*
X101238031Y-88447553D01*
X101254838Y-88435350D01*
X101254839Y-88435347D01*
X101255826Y-88434631D01*
X101275482Y-88408310D01*
X106327560Y-83392500D01*
X112250678Y-83392500D01*
X112269924Y-83612478D01*
X112327079Y-83825781D01*
X112420398Y-84025906D01*
X112465758Y-84090687D01*
X113163946Y-83392501D01*
X113871053Y-83392501D01*
X114569240Y-84090686D01*
X114614600Y-84025908D01*
X114707920Y-83825781D01*
X114765075Y-83612478D01*
X114784321Y-83392500D01*
X114765075Y-83172521D01*
X114707921Y-82959220D01*
X114614598Y-82759089D01*
X114569240Y-82694311D01*
X113871053Y-83392500D01*
X113871053Y-83392501D01*
X113163946Y-83392501D01*
X113163946Y-83392500D01*
X112465758Y-82694311D01*
X112465758Y-82694312D01*
X112420400Y-82759089D01*
X112327078Y-82959219D01*
X112269924Y-83172521D01*
X112250678Y-83392500D01*
X106327560Y-83392500D01*
X107386907Y-82340758D01*
X112819311Y-82340758D01*
X113517500Y-83038946D01*
X113517501Y-83038946D01*
X114215687Y-82340758D01*
X114150906Y-82295398D01*
X113950781Y-82202079D01*
X113737478Y-82144924D01*
X113517500Y-82125678D01*
X113297521Y-82144924D01*
X113084219Y-82202078D01*
X112884089Y-82295400D01*
X112819312Y-82340758D01*
X112819311Y-82340758D01*
X107386907Y-82340758D01*
X114240092Y-75536771D01*
X114262508Y-75520926D01*
X114265751Y-75516856D01*
X114265754Y-75516856D01*
X114282551Y-75495787D01*
X114292131Y-75485105D01*
X114294804Y-75482453D01*
X114297468Y-75478245D01*
X114305252Y-75467314D01*
X114322811Y-75445292D01*
X114322811Y-75445288D01*
X114326652Y-75440472D01*
X114330668Y-75430824D01*
X114331379Y-75424708D01*
X114331380Y-75424707D01*
X114334631Y-75396749D01*
X114336909Y-75383488D01*
X114337490Y-75380941D01*
X114338013Y-75378649D01*
X114338012Y-75374883D01*
X114338842Y-75360542D01*
X114341954Y-75333794D01*
X114341953Y-75333792D01*
X114342555Y-75328623D01*
X114338002Y-75301545D01*
X114338002Y-75299274D01*
X114337991Y-75213380D01*
X114347426Y-75165926D01*
X114374304Y-75125695D01*
X114500000Y-75000000D01*
X114337711Y-71754236D01*
X114337559Y-71748152D01*
X114337516Y-71405313D01*
X114337521Y-71405289D01*
X114337515Y-71353945D01*
X114337516Y-71353945D01*
X114337497Y-71202300D01*
X114303502Y-70900922D01*
X114295089Y-70864084D01*
X114292133Y-70842678D01*
X114250000Y-70000000D01*
X114250000Y-69999999D01*
X113259089Y-69179460D01*
X112608921Y-68641078D01*
X112608920Y-68641077D01*
X111284504Y-68653778D01*
X111283315Y-68653784D01*
X102101100Y-68653784D01*
X102100869Y-68653809D01*
X102022852Y-68653809D01*
X101797359Y-68689521D01*
X101640301Y-68740550D01*
X101603174Y-68746612D01*
X101249999Y-68749999D01*
X99786811Y-70944783D01*
X99742147Y-70985328D01*
X99683637Y-71000000D01*
X93302160Y-71000000D01*
X93254080Y-70990299D01*
X93213523Y-70962714D01*
X92048975Y-69772341D01*
X92022837Y-69732560D01*
X92013612Y-69685862D01*
X92002732Y-63942500D01*
X93927925Y-63942500D01*
X93927957Y-63942841D01*
X93948179Y-64161085D01*
X94008252Y-64372222D01*
X94106102Y-64568730D01*
X94238393Y-64743912D01*
X94400618Y-64891799D01*
X94400620Y-64891800D01*
X94400621Y-64891801D01*
X94587261Y-65007364D01*
X94791957Y-65086664D01*
X95007740Y-65127000D01*
X95227258Y-65127000D01*
X95227260Y-65127000D01*
X95443043Y-65086664D01*
X95647739Y-65007364D01*
X95834379Y-64891801D01*
X95996607Y-64743911D01*
X96128897Y-64568731D01*
X96226746Y-64372224D01*
X96268234Y-64226409D01*
X96300633Y-64171855D01*
X96355775Y-64140470D01*
X96419225Y-64140470D01*
X96474367Y-64171855D01*
X96506766Y-64226409D01*
X96548253Y-64372222D01*
X96646102Y-64568730D01*
X96778393Y-64743912D01*
X96940618Y-64891799D01*
X96940620Y-64891800D01*
X96940621Y-64891801D01*
X97127261Y-65007364D01*
X97331957Y-65086664D01*
X97547740Y-65127000D01*
X97767258Y-65127000D01*
X97767260Y-65127000D01*
X97983043Y-65086664D01*
X98152572Y-65020987D01*
X98219022Y-65014521D01*
X98279195Y-65043450D01*
X98315644Y-65099388D01*
X98317803Y-65166119D01*
X98285045Y-65224296D01*
X97179790Y-66329551D01*
X97174338Y-66334683D01*
X97129316Y-66374570D01*
X97095149Y-66424068D01*
X97090713Y-66430097D01*
X97053621Y-66477442D01*
X97049461Y-66486686D01*
X97038441Y-66506225D01*
X97032682Y-66514569D01*
X97011353Y-66570805D01*
X97008489Y-66577719D01*
X96983803Y-66632570D01*
X96981975Y-66642547D01*
X96975954Y-66664148D01*
X96972359Y-66673628D01*
X96965109Y-66733327D01*
X96963983Y-66740726D01*
X96953141Y-66799891D01*
X96956774Y-66859934D01*
X96957000Y-66867421D01*
X96957000Y-67023516D01*
X96946434Y-67073602D01*
X96916538Y-67115153D01*
X96778393Y-67241087D01*
X96646102Y-67416269D01*
X96548253Y-67612776D01*
X96545265Y-67623280D01*
X96516339Y-67674285D01*
X96467211Y-67706296D01*
X96408867Y-67712156D01*
X96354355Y-67690553D01*
X96315863Y-67646319D01*
X96301999Y-67589345D01*
X96301999Y-67310630D01*
X96301999Y-67310627D01*
X96295591Y-67251017D01*
X96245296Y-67116169D01*
X96159046Y-67000954D01*
X96043831Y-66914704D01*
X95908983Y-66864409D01*
X95849373Y-66858000D01*
X95849369Y-66858000D01*
X94385630Y-66858000D01*
X94326015Y-66864409D01*
X94191169Y-66914704D01*
X94075954Y-67000954D01*
X93989704Y-67116168D01*
X93939409Y-67251015D01*
X93939409Y-67251017D01*
X93934251Y-67298997D01*
X93933000Y-67310630D01*
X93933000Y-68774369D01*
X93939409Y-68833984D01*
X93950135Y-68862742D01*
X93989704Y-68968831D01*
X94075954Y-69084046D01*
X94191169Y-69170296D01*
X94326017Y-69220591D01*
X94385627Y-69227000D01*
X95684980Y-69226999D01*
X95732433Y-69236438D01*
X95772661Y-69263318D01*
X96487058Y-69977715D01*
X96492178Y-69983153D01*
X96519817Y-70014351D01*
X96532072Y-70028184D01*
X96581569Y-70062349D01*
X96587602Y-70066788D01*
X96634943Y-70103877D01*
X96644174Y-70108031D01*
X96663726Y-70119058D01*
X96672070Y-70124818D01*
X96728322Y-70146151D01*
X96735228Y-70149012D01*
X96790068Y-70173694D01*
X96800030Y-70175519D01*
X96821650Y-70181546D01*
X96831125Y-70185139D01*
X96831128Y-70185140D01*
X96890856Y-70192392D01*
X96898201Y-70193509D01*
X96957394Y-70204357D01*
X97017422Y-70200726D01*
X97024910Y-70200500D01*
X97763206Y-70200500D01*
X97799139Y-70205821D01*
X97831989Y-70221326D01*
X98250000Y-70500000D01*
X98552636Y-70222582D01*
X98584577Y-70201350D01*
X98621479Y-70190894D01*
X98668872Y-70185140D01*
X98678335Y-70181550D01*
X98699958Y-70175522D01*
X98709932Y-70173695D01*
X98764808Y-70148996D01*
X98771673Y-70146152D01*
X98827930Y-70124818D01*
X98836270Y-70119060D01*
X98855819Y-70108035D01*
X98865057Y-70103878D01*
X98912413Y-70066775D01*
X98918420Y-70062355D01*
X98967929Y-70028183D01*
X99007823Y-69983150D01*
X99012924Y-69977731D01*
X99477731Y-69512924D01*
X99483150Y-69507823D01*
X99528183Y-69467929D01*
X99562377Y-69418389D01*
X99566770Y-69412419D01*
X99603878Y-69365056D01*
X99608035Y-69355818D01*
X99619061Y-69336268D01*
X99624818Y-69327930D01*
X99646152Y-69271674D01*
X99648999Y-69264799D01*
X99673695Y-69209931D01*
X99673695Y-69209926D01*
X99674703Y-69207689D01*
X99703984Y-69167179D01*
X100995567Y-67983228D01*
X101043776Y-67955852D01*
X101099100Y-67952220D01*
X101150477Y-67973063D01*
X101164764Y-67983067D01*
X101164765Y-67983067D01*
X101164766Y-67983068D01*
X101371004Y-68079239D01*
X101590808Y-68138135D01*
X101817500Y-68157968D01*
X102044192Y-68138135D01*
X102263996Y-68079239D01*
X102470234Y-67983068D01*
X102656639Y-67852547D01*
X102817547Y-67691639D01*
X102948068Y-67505234D01*
X103044239Y-67298996D01*
X103103135Y-67079192D01*
X103122968Y-66852500D01*
X103103135Y-66625808D01*
X103044239Y-66406004D01*
X102948068Y-66199766D01*
X102924543Y-66166169D01*
X102817546Y-66013359D01*
X102656640Y-65852453D01*
X102570877Y-65792402D01*
X102532011Y-65748084D01*
X102518000Y-65690827D01*
X102518000Y-63824369D01*
X104363000Y-63824369D01*
X104369409Y-63883984D01*
X104394556Y-63951406D01*
X104419704Y-64018831D01*
X104505954Y-64134046D01*
X104621169Y-64220296D01*
X104756017Y-64270591D01*
X104815627Y-64277000D01*
X106279372Y-64276999D01*
X106338983Y-64270591D01*
X106473831Y-64220296D01*
X106589046Y-64134046D01*
X106623698Y-64087757D01*
X107445793Y-64087757D01*
X107557484Y-64156913D01*
X107762095Y-64236179D01*
X107977788Y-64276500D01*
X108197212Y-64276500D01*
X108412904Y-64236179D01*
X108617515Y-64156913D01*
X108729205Y-64087757D01*
X108087501Y-63446053D01*
X108087500Y-63446053D01*
X107445793Y-64087757D01*
X106623698Y-64087757D01*
X106675296Y-64018831D01*
X106725591Y-63883983D01*
X106732000Y-63824373D01*
X106731999Y-63543823D01*
X106745863Y-63486854D01*
X106784354Y-63442619D01*
X106838866Y-63421016D01*
X106897209Y-63426875D01*
X106946337Y-63458885D01*
X106975264Y-63509889D01*
X106978721Y-63522039D01*
X107076531Y-63718468D01*
X107090061Y-63736384D01*
X107090062Y-63736384D01*
X107733947Y-63092501D01*
X107733947Y-63092500D01*
X107090062Y-62448615D01*
X107090061Y-62448615D01*
X107076531Y-62466533D01*
X106978722Y-62662959D01*
X106975265Y-62675110D01*
X106946338Y-62726115D01*
X106897210Y-62758126D01*
X106838867Y-62763986D01*
X106784355Y-62742383D01*
X106745863Y-62698149D01*
X106731999Y-62641175D01*
X106731999Y-62360630D01*
X106731999Y-62360627D01*
X106725591Y-62301017D01*
X106675296Y-62166169D01*
X106623696Y-62097241D01*
X107445793Y-62097241D01*
X108087500Y-62738947D01*
X108087501Y-62738947D01*
X108729205Y-62097241D01*
X108729204Y-62097240D01*
X108617518Y-62028087D01*
X108412904Y-61948820D01*
X108197212Y-61908500D01*
X107977788Y-61908500D01*
X107762095Y-61948820D01*
X107557481Y-62028087D01*
X107445794Y-62097240D01*
X107445793Y-62097241D01*
X106623696Y-62097241D01*
X106589046Y-62050954D01*
X106473831Y-61964704D01*
X106338983Y-61914409D01*
X106279373Y-61908000D01*
X106279369Y-61908000D01*
X104815630Y-61908000D01*
X104756015Y-61914409D01*
X104621169Y-61964704D01*
X104505954Y-62050954D01*
X104419704Y-62166168D01*
X104369409Y-62301015D01*
X104369409Y-62301017D01*
X104363343Y-62357443D01*
X104363000Y-62360630D01*
X104363000Y-63824369D01*
X102518000Y-63824369D01*
X102518000Y-63064019D01*
X102527439Y-63016566D01*
X102554319Y-62976338D01*
X103008656Y-62522001D01*
X105320681Y-60209973D01*
X105371680Y-60179205D01*
X105431144Y-60175767D01*
X105437740Y-60177000D01*
X105657258Y-60177000D01*
X105657260Y-60177000D01*
X105873043Y-60136664D01*
X106077739Y-60057364D01*
X106264379Y-59941801D01*
X106426607Y-59793911D01*
X106558897Y-59618731D01*
X106656746Y-59422224D01*
X106688676Y-59310000D01*
X106698234Y-59276409D01*
X106730633Y-59221855D01*
X106785775Y-59190470D01*
X106849225Y-59190470D01*
X106904367Y-59221855D01*
X106936766Y-59276409D01*
X106978253Y-59422222D01*
X107076102Y-59618730D01*
X107208393Y-59793912D01*
X107370618Y-59941799D01*
X107370620Y-59941800D01*
X107370621Y-59941801D01*
X107411745Y-59967264D01*
X107556931Y-60057160D01*
X107557261Y-60057364D01*
X107761957Y-60136664D01*
X107977740Y-60177000D01*
X108197258Y-60177000D01*
X108197260Y-60177000D01*
X108413043Y-60136664D01*
X108617739Y-60057364D01*
X108804379Y-59941801D01*
X108966607Y-59793911D01*
X109023381Y-59718730D01*
X109076546Y-59648329D01*
X109124368Y-59610089D01*
X109184658Y-59599395D01*
X109242715Y-59618853D01*
X109284382Y-59663721D01*
X109299500Y-59723056D01*
X109299500Y-62362777D01*
X109284382Y-62422112D01*
X109242715Y-62466980D01*
X109184658Y-62486438D01*
X109124368Y-62475744D01*
X109090963Y-62449032D01*
X109084936Y-62448614D01*
X108441053Y-63092500D01*
X109118983Y-63770431D01*
X109131170Y-63778656D01*
X109158892Y-63825416D01*
X109172820Y-63868284D01*
X109267466Y-64032216D01*
X109394129Y-64172889D01*
X109547269Y-64284151D01*
X109720197Y-64361144D01*
X109905352Y-64400500D01*
X109905354Y-64400500D01*
X110094646Y-64400500D01*
X110094648Y-64400500D01*
X110227685Y-64372222D01*
X110279803Y-64361144D01*
X110452730Y-64284151D01*
X110518758Y-64236179D01*
X110605870Y-64172889D01*
X110682524Y-64087757D01*
X110732533Y-64032216D01*
X110827179Y-63868284D01*
X110829494Y-63861158D01*
X110860356Y-63811184D01*
X110910755Y-63781019D01*
X110969382Y-63777432D01*
X111023082Y-63801228D01*
X111059808Y-63847067D01*
X111084724Y-63900500D01*
X111086933Y-63905236D01*
X111217453Y-64091640D01*
X111378359Y-64252546D01*
X111564764Y-64383067D01*
X111564765Y-64383067D01*
X111564766Y-64383068D01*
X111771004Y-64479239D01*
X111990808Y-64538135D01*
X112217500Y-64557968D01*
X112444192Y-64538135D01*
X112663996Y-64479239D01*
X112870234Y-64383068D01*
X113056639Y-64252547D01*
X113217547Y-64091639D01*
X113348068Y-63905234D01*
X113444239Y-63698996D01*
X113503135Y-63479192D01*
X113522968Y-63252500D01*
X113503135Y-63025808D01*
X113444239Y-62806004D01*
X113348068Y-62599766D01*
X113322168Y-62562777D01*
X113217546Y-62413359D01*
X113056640Y-62252453D01*
X112870235Y-62121932D01*
X112663997Y-62025761D01*
X112444189Y-61966864D01*
X112217500Y-61947031D01*
X111990810Y-61966864D01*
X111771002Y-62025761D01*
X111564764Y-62121932D01*
X111378359Y-62252453D01*
X111217453Y-62413359D01*
X111086932Y-62599764D01*
X110990761Y-62806002D01*
X110956779Y-62932826D01*
X110929154Y-62983704D01*
X110881443Y-63016496D01*
X110824044Y-63024053D01*
X110769471Y-63004729D01*
X110742519Y-62976329D01*
X110741254Y-62977469D01*
X110732350Y-62967580D01*
X110708736Y-62929045D01*
X110700500Y-62884608D01*
X110700500Y-60174369D01*
X114876210Y-60174369D01*
X114882619Y-60233984D01*
X114907766Y-60301407D01*
X114932914Y-60368831D01*
X115019164Y-60484046D01*
X115134379Y-60570296D01*
X115269227Y-60620591D01*
X115328837Y-60627000D01*
X116334980Y-60626999D01*
X116382433Y-60636438D01*
X116422661Y-60663318D01*
X119487058Y-63727715D01*
X119492178Y-63733153D01*
X119532071Y-63778183D01*
X119581577Y-63812354D01*
X119587596Y-63816785D01*
X119626249Y-63847067D01*
X119634943Y-63853878D01*
X119644190Y-63858039D01*
X119663726Y-63869058D01*
X119672070Y-63874818D01*
X119728334Y-63896155D01*
X119735195Y-63898997D01*
X119790068Y-63923694D01*
X119800036Y-63925520D01*
X119821652Y-63931546D01*
X119831128Y-63935140D01*
X119890856Y-63942392D01*
X119898201Y-63943509D01*
X119957394Y-63954357D01*
X120017422Y-63950726D01*
X120024910Y-63950500D01*
X123105079Y-63950500D01*
X123112566Y-63950726D01*
X123115706Y-63950915D01*
X123172606Y-63954358D01*
X123231782Y-63943513D01*
X123239181Y-63942387D01*
X123298872Y-63935140D01*
X123308335Y-63931550D01*
X123329958Y-63925522D01*
X123339932Y-63923695D01*
X123394808Y-63898996D01*
X123401673Y-63896152D01*
X123457930Y-63874818D01*
X123466270Y-63869060D01*
X123485819Y-63858035D01*
X123495057Y-63853878D01*
X123542413Y-63816775D01*
X123548420Y-63812355D01*
X123597929Y-63778183D01*
X123637823Y-63733150D01*
X123642924Y-63727731D01*
X125370655Y-62000000D01*
X140344540Y-62000000D01*
X140364326Y-62188257D01*
X140422820Y-62368284D01*
X140517466Y-62532216D01*
X140644129Y-62672889D01*
X140797269Y-62784151D01*
X140970197Y-62861144D01*
X141155352Y-62900500D01*
X141155354Y-62900500D01*
X141344646Y-62900500D01*
X141344648Y-62900500D01*
X141468083Y-62874262D01*
X141529803Y-62861144D01*
X141702730Y-62784151D01*
X141737506Y-62758885D01*
X141855870Y-62672889D01*
X141873080Y-62653776D01*
X141982533Y-62532216D01*
X142077179Y-62368284D01*
X142135674Y-62188256D01*
X142155460Y-62000000D01*
X142135674Y-61811744D01*
X142090291Y-61672070D01*
X142077179Y-61631715D01*
X141982533Y-61467783D01*
X141855870Y-61327110D01*
X141702730Y-61215848D01*
X141529802Y-61138855D01*
X141344648Y-61099500D01*
X141344646Y-61099500D01*
X141155354Y-61099500D01*
X141155352Y-61099500D01*
X140970197Y-61138855D01*
X140797269Y-61215848D01*
X140644129Y-61327110D01*
X140517466Y-61467783D01*
X140422820Y-61631715D01*
X140364326Y-61811742D01*
X140344540Y-62000000D01*
X125370655Y-62000000D01*
X128460682Y-58909973D01*
X128511682Y-58879205D01*
X128571147Y-58875768D01*
X128577737Y-58877000D01*
X128577740Y-58877000D01*
X128797258Y-58877000D01*
X128797260Y-58877000D01*
X129013043Y-58836664D01*
X129217739Y-58757364D01*
X129404379Y-58641801D01*
X129552577Y-58506701D01*
X129566606Y-58493912D01*
X129581229Y-58474548D01*
X129698897Y-58318731D01*
X129796746Y-58122224D01*
X129844447Y-57954571D01*
X129849713Y-57936064D01*
X129882316Y-57881310D01*
X129937808Y-57849980D01*
X130001533Y-57850348D01*
X130056660Y-57882317D01*
X131028955Y-58854612D01*
X131061049Y-58910199D01*
X131061049Y-58974386D01*
X131031864Y-59083308D01*
X131012031Y-59310000D01*
X131031864Y-59536689D01*
X131090761Y-59756497D01*
X131186932Y-59962735D01*
X131317453Y-60149140D01*
X131478359Y-60310046D01*
X131664764Y-60440567D01*
X131664765Y-60440567D01*
X131664766Y-60440568D01*
X131871004Y-60536739D01*
X132090808Y-60595635D01*
X132317500Y-60615468D01*
X132544192Y-60595635D01*
X132763996Y-60536739D01*
X132970234Y-60440568D01*
X133156639Y-60310047D01*
X133317547Y-60149139D01*
X133448068Y-59962734D01*
X133544239Y-59756496D01*
X133603135Y-59536692D01*
X133617719Y-59370000D01*
X135212031Y-59370000D01*
X135231864Y-59596689D01*
X135290761Y-59816497D01*
X135386932Y-60022735D01*
X135517453Y-60209140D01*
X135678359Y-60370046D01*
X135864764Y-60500567D01*
X135864765Y-60500567D01*
X135864766Y-60500568D01*
X136071004Y-60596739D01*
X136290808Y-60655635D01*
X136517500Y-60675468D01*
X136744192Y-60655635D01*
X136963996Y-60596739D01*
X137170234Y-60500568D01*
X137349565Y-60375000D01*
X141719540Y-60375000D01*
X141739326Y-60563257D01*
X141797820Y-60743284D01*
X141892466Y-60907216D01*
X142019129Y-61047889D01*
X142172269Y-61159151D01*
X142345197Y-61236144D01*
X142500126Y-61269075D01*
X142533513Y-61281391D01*
X142562027Y-61302684D01*
X143513181Y-62253838D01*
X143540061Y-62294066D01*
X143549500Y-62341519D01*
X143549500Y-62384608D01*
X143541264Y-62429045D01*
X143517650Y-62467580D01*
X143517466Y-62467783D01*
X143422820Y-62631715D01*
X143364326Y-62811742D01*
X143351997Y-62929045D01*
X143344540Y-63000000D01*
X143352274Y-63073582D01*
X143364326Y-63188257D01*
X143422820Y-63368284D01*
X143517466Y-63532216D01*
X143644129Y-63672889D01*
X143797269Y-63784151D01*
X143970197Y-63861144D01*
X144155352Y-63900500D01*
X144155354Y-63900500D01*
X144344646Y-63900500D01*
X144344648Y-63900500D01*
X144492551Y-63869062D01*
X144529803Y-63861144D01*
X144702730Y-63784151D01*
X144772901Y-63733169D01*
X144855870Y-63672889D01*
X144982533Y-63532216D01*
X145077179Y-63368284D01*
X145087766Y-63335700D01*
X145135674Y-63188256D01*
X145155460Y-63000000D01*
X145135674Y-62811744D01*
X145087331Y-62662959D01*
X145077179Y-62631715D01*
X144982533Y-62467783D01*
X144982350Y-62467580D01*
X144958736Y-62429045D01*
X144950500Y-62384608D01*
X144950500Y-62024921D01*
X144950726Y-62017434D01*
X144950927Y-62014102D01*
X144954358Y-61957394D01*
X144943507Y-61898185D01*
X144942390Y-61890840D01*
X144935140Y-61831128D01*
X144931546Y-61821651D01*
X144925521Y-61800034D01*
X144923695Y-61790068D01*
X144905917Y-61750567D01*
X144899009Y-61735218D01*
X144896151Y-61728322D01*
X144874818Y-61672070D01*
X144869061Y-61663730D01*
X144858035Y-61644181D01*
X144853877Y-61634941D01*
X144816785Y-61587597D01*
X144812355Y-61581577D01*
X144778183Y-61532071D01*
X144733153Y-61492178D01*
X144727715Y-61487058D01*
X143551503Y-60310846D01*
X143527263Y-60276548D01*
X143515864Y-60236130D01*
X143510674Y-60186744D01*
X143472019Y-60067778D01*
X143452179Y-60006715D01*
X143357533Y-59842783D01*
X143230870Y-59702110D01*
X143077730Y-59590848D01*
X142904802Y-59513855D01*
X142719648Y-59474500D01*
X142719646Y-59474500D01*
X142530354Y-59474500D01*
X142530352Y-59474500D01*
X142345197Y-59513855D01*
X142172269Y-59590848D01*
X142019129Y-59702110D01*
X141892466Y-59842783D01*
X141797820Y-60006715D01*
X141739326Y-60186742D01*
X141719540Y-60375000D01*
X137349565Y-60375000D01*
X137356639Y-60370047D01*
X137517547Y-60209139D01*
X137648068Y-60022734D01*
X137744239Y-59816496D01*
X137803135Y-59596692D01*
X137813607Y-59477000D01*
X137823914Y-59359193D01*
X137825714Y-59359350D01*
X137831357Y-59319707D01*
X137863032Y-59273272D01*
X137911955Y-59245593D01*
X137968071Y-59242357D01*
X138019851Y-59264230D01*
X138047272Y-59284153D01*
X138220197Y-59361144D01*
X138405352Y-59400500D01*
X138405354Y-59400500D01*
X138594646Y-59400500D01*
X138594648Y-59400500D01*
X138738138Y-59370000D01*
X138779803Y-59361144D01*
X138952730Y-59284151D01*
X139011023Y-59241799D01*
X139105870Y-59172889D01*
X139132505Y-59143308D01*
X139232533Y-59032216D01*
X139286350Y-58938999D01*
X139331737Y-58893612D01*
X139393738Y-58876999D01*
X140779370Y-58876999D01*
X140779372Y-58876999D01*
X140838983Y-58870591D01*
X140973831Y-58820296D01*
X141089046Y-58734046D01*
X141123698Y-58687757D01*
X141945793Y-58687757D01*
X142057484Y-58756913D01*
X142262095Y-58836179D01*
X142477788Y-58876500D01*
X142697212Y-58876500D01*
X142912904Y-58836179D01*
X143117515Y-58756913D01*
X143229205Y-58687757D01*
X142587501Y-58046053D01*
X142587500Y-58046053D01*
X141945793Y-58687757D01*
X141123698Y-58687757D01*
X141175296Y-58618831D01*
X141225591Y-58483983D01*
X141232000Y-58424373D01*
X141231999Y-58143823D01*
X141245863Y-58086852D01*
X141284354Y-58042618D01*
X141338866Y-58021015D01*
X141397209Y-58026874D01*
X141446337Y-58058885D01*
X141475265Y-58109890D01*
X141478722Y-58122041D01*
X141576531Y-58318468D01*
X141590061Y-58336384D01*
X141590062Y-58336384D01*
X142140128Y-57786319D01*
X142180356Y-57759439D01*
X142227809Y-57750000D01*
X142249999Y-57750000D01*
X142250000Y-57750000D01*
X142314555Y-57620888D01*
X142337782Y-57588664D01*
X142499818Y-57426628D01*
X142555405Y-57394534D01*
X142619593Y-57394534D01*
X142675180Y-57426628D01*
X143584936Y-58336384D01*
X143590915Y-58328467D01*
X143636022Y-58291498D01*
X143693041Y-58279238D01*
X143749357Y-58294399D01*
X143792514Y-58333629D01*
X143812963Y-58388248D01*
X143814860Y-58403873D01*
X143818450Y-58413339D01*
X143824475Y-58434952D01*
X143826303Y-58444929D01*
X143850991Y-58499783D01*
X143853856Y-58506701D01*
X143875180Y-58562926D01*
X143875182Y-58562930D01*
X143880941Y-58571273D01*
X143891961Y-58590813D01*
X143896120Y-58600054D01*
X143933216Y-58647405D01*
X143937654Y-58653436D01*
X143967253Y-58696318D01*
X143971817Y-58702929D01*
X144016847Y-58742822D01*
X144022283Y-58747940D01*
X144996471Y-59722128D01*
X145025312Y-59767398D01*
X145032318Y-59820616D01*
X145012031Y-60052499D01*
X145031864Y-60279189D01*
X145090761Y-60498997D01*
X145186932Y-60705235D01*
X145317453Y-60891640D01*
X145478359Y-61052546D01*
X145564123Y-61112598D01*
X145602989Y-61156916D01*
X145617000Y-61214173D01*
X145617000Y-63042579D01*
X145616774Y-63050066D01*
X145613141Y-63110107D01*
X145623983Y-63169271D01*
X145625110Y-63176672D01*
X145632360Y-63236373D01*
X145635950Y-63245839D01*
X145641975Y-63267452D01*
X145643803Y-63277429D01*
X145668491Y-63332283D01*
X145671356Y-63339201D01*
X145692680Y-63395426D01*
X145692682Y-63395430D01*
X145698441Y-63403773D01*
X145709461Y-63423313D01*
X145713620Y-63432554D01*
X145713621Y-63432555D01*
X145713622Y-63432557D01*
X145719613Y-63440204D01*
X145750716Y-63479905D01*
X145755154Y-63485936D01*
X145778870Y-63520295D01*
X145789317Y-63535429D01*
X145834347Y-63575322D01*
X145839783Y-63580440D01*
X149323495Y-67064152D01*
X149347734Y-67098449D01*
X149359134Y-67138869D01*
X149364325Y-67188254D01*
X149422820Y-67368284D01*
X149517466Y-67532216D01*
X149644129Y-67672889D01*
X149797269Y-67784151D01*
X149970197Y-67861144D01*
X150155352Y-67900500D01*
X150155354Y-67900500D01*
X150344646Y-67900500D01*
X150344648Y-67900500D01*
X150492551Y-67869062D01*
X150529803Y-67861144D01*
X150702730Y-67784151D01*
X150772901Y-67733169D01*
X150855870Y-67672889D01*
X150982533Y-67532216D01*
X151077179Y-67368284D01*
X151078171Y-67365230D01*
X151135674Y-67188256D01*
X151155460Y-67000000D01*
X151135674Y-66811744D01*
X151098170Y-66696318D01*
X151077179Y-66631715D01*
X150982533Y-66467783D01*
X150855870Y-66327110D01*
X150702730Y-66215848D01*
X150529802Y-66138855D01*
X150374872Y-66105924D01*
X150341485Y-66093607D01*
X150312972Y-66072315D01*
X147054319Y-62813662D01*
X147027439Y-62773434D01*
X147018000Y-62725981D01*
X147018000Y-62352499D01*
X154912031Y-62352499D01*
X154931864Y-62579189D01*
X154990761Y-62798997D01*
X155086932Y-63005235D01*
X155217453Y-63191640D01*
X155378359Y-63352546D01*
X155564764Y-63483067D01*
X155564765Y-63483067D01*
X155564766Y-63483068D01*
X155771004Y-63579239D01*
X155990808Y-63638135D01*
X156217500Y-63657968D01*
X156444192Y-63638135D01*
X156663996Y-63579239D01*
X156870234Y-63483068D01*
X157056639Y-63352547D01*
X157121585Y-63287599D01*
X157177170Y-63255508D01*
X157241357Y-63255508D01*
X157296945Y-63287602D01*
X157573495Y-63564152D01*
X157597734Y-63598449D01*
X157609134Y-63638869D01*
X157614325Y-63688254D01*
X157672820Y-63868284D01*
X157767466Y-64032216D01*
X157894129Y-64172889D01*
X158047269Y-64284151D01*
X158220197Y-64361144D01*
X158405352Y-64400500D01*
X158405354Y-64400500D01*
X158594646Y-64400500D01*
X158594648Y-64400500D01*
X158727685Y-64372222D01*
X158779803Y-64361144D01*
X158952730Y-64284151D01*
X159018758Y-64236179D01*
X159105870Y-64172889D01*
X159182524Y-64087757D01*
X159232533Y-64032216D01*
X159327179Y-63868284D01*
X159385674Y-63688256D01*
X159385696Y-63688044D01*
X159386132Y-63686845D01*
X159389702Y-63675860D01*
X159390084Y-63675984D01*
X159406212Y-63631665D01*
X159450799Y-63591515D01*
X159509017Y-63576999D01*
X159515618Y-63576999D01*
X159515627Y-63577000D01*
X160979372Y-63576999D01*
X161038983Y-63570591D01*
X161173831Y-63520296D01*
X161289046Y-63434046D01*
X161323698Y-63387757D01*
X162145793Y-63387757D01*
X162257484Y-63456913D01*
X162462095Y-63536179D01*
X162677788Y-63576500D01*
X162897212Y-63576500D01*
X163112904Y-63536179D01*
X163317515Y-63456913D01*
X163429205Y-63387757D01*
X162787501Y-62746053D01*
X162787500Y-62746053D01*
X162145793Y-63387757D01*
X161323698Y-63387757D01*
X161375296Y-63318831D01*
X161425591Y-63183983D01*
X161432000Y-63124373D01*
X161431999Y-62843823D01*
X161445863Y-62786852D01*
X161484354Y-62742618D01*
X161538866Y-62721015D01*
X161597209Y-62726874D01*
X161646337Y-62758885D01*
X161675265Y-62809890D01*
X161678722Y-62822041D01*
X161776531Y-63018468D01*
X161790061Y-63036384D01*
X161790062Y-63036384D01*
X162433947Y-62392501D01*
X162433947Y-62392500D01*
X161785643Y-61744196D01*
X161755598Y-61739828D01*
X161711373Y-61711373D01*
X161250000Y-61250000D01*
X161156779Y-61250000D01*
X161113446Y-61242182D01*
X161038983Y-61214409D01*
X160979373Y-61208000D01*
X160979369Y-61208000D01*
X159515630Y-61208000D01*
X159456015Y-61214409D01*
X159381554Y-61242182D01*
X159338221Y-61250000D01*
X158574500Y-61250000D01*
X158512500Y-61233387D01*
X158467113Y-61188000D01*
X158450500Y-61126000D01*
X158450500Y-55774910D01*
X158450726Y-55767423D01*
X158450793Y-55766303D01*
X158454357Y-55707394D01*
X158443509Y-55648201D01*
X158442392Y-55640856D01*
X158435140Y-55581128D01*
X158435139Y-55581125D01*
X158431546Y-55571650D01*
X158425519Y-55550029D01*
X158423694Y-55540068D01*
X158399012Y-55485228D01*
X158396151Y-55478322D01*
X158374818Y-55422070D01*
X158369058Y-55413726D01*
X158358030Y-55394172D01*
X158354008Y-55385235D01*
X158353877Y-55384943D01*
X158320625Y-55342500D01*
X158316788Y-55337602D01*
X158312349Y-55331569D01*
X158278184Y-55282072D01*
X158271792Y-55276409D01*
X158233153Y-55242178D01*
X158227715Y-55237058D01*
X157529071Y-54538414D01*
X157496977Y-54482826D01*
X157482937Y-54430428D01*
X157444239Y-54286004D01*
X157348068Y-54079766D01*
X157322464Y-54043200D01*
X157217546Y-53893359D01*
X157056640Y-53732453D01*
X156870235Y-53601932D01*
X156663997Y-53505761D01*
X156444189Y-53446864D01*
X156217500Y-53427031D01*
X155990810Y-53446864D01*
X155771002Y-53505761D01*
X155564764Y-53601932D01*
X155378359Y-53732453D01*
X155217453Y-53893359D01*
X155086932Y-54079764D01*
X154990761Y-54286002D01*
X154931864Y-54505810D01*
X154912031Y-54732499D01*
X154931864Y-54959189D01*
X154990761Y-55178997D01*
X155086932Y-55385235D01*
X155217453Y-55571640D01*
X155378359Y-55732546D01*
X155564764Y-55863067D01*
X155564765Y-55863067D01*
X155564766Y-55863068D01*
X155771004Y-55959239D01*
X155990808Y-56018135D01*
X156217500Y-56037968D01*
X156444192Y-56018135D01*
X156663996Y-55959239D01*
X156793027Y-55899070D01*
X156841826Y-55887504D01*
X156891214Y-55896213D01*
X156933114Y-55923771D01*
X157013181Y-56003838D01*
X157040061Y-56044066D01*
X157049500Y-56091519D01*
X157049500Y-61110884D01*
X157034214Y-61170527D01*
X156992125Y-61215465D01*
X156933610Y-61234619D01*
X156873095Y-61223266D01*
X156663997Y-61125761D01*
X156444189Y-61066864D01*
X156217500Y-61047031D01*
X155990810Y-61066864D01*
X155771002Y-61125761D01*
X155564764Y-61221932D01*
X155378359Y-61352453D01*
X155217453Y-61513359D01*
X155086932Y-61699764D01*
X154990761Y-61906002D01*
X154931864Y-62125810D01*
X154912031Y-62352499D01*
X147018000Y-62352499D01*
X147018000Y-61214173D01*
X147032011Y-61156916D01*
X147070877Y-61112598D01*
X147123012Y-61076092D01*
X147156639Y-61052547D01*
X147317547Y-60891639D01*
X147448068Y-60705234D01*
X147544239Y-60498996D01*
X147603135Y-60279192D01*
X147622968Y-60052500D01*
X147603135Y-59825808D01*
X147602749Y-59824369D01*
X148563000Y-59824369D01*
X148569409Y-59883984D01*
X148573112Y-59893911D01*
X148619704Y-60018831D01*
X148705954Y-60134046D01*
X148821169Y-60220296D01*
X148956017Y-60270591D01*
X149015627Y-60277000D01*
X150479372Y-60276999D01*
X150538983Y-60270591D01*
X150673831Y-60220296D01*
X150789046Y-60134046D01*
X150875296Y-60018831D01*
X150925591Y-59883983D01*
X150932000Y-59824373D01*
X150931999Y-59545653D01*
X150945863Y-59488683D01*
X150984354Y-59444449D01*
X151038866Y-59422846D01*
X151097209Y-59428705D01*
X151146337Y-59460715D01*
X151175264Y-59511719D01*
X151178252Y-59522221D01*
X151276102Y-59718730D01*
X151408393Y-59893912D01*
X151570618Y-60041799D01*
X151570620Y-60041800D01*
X151570621Y-60041801D01*
X151613688Y-60068467D01*
X151743978Y-60149140D01*
X151757261Y-60157364D01*
X151961957Y-60236664D01*
X152177740Y-60277000D01*
X152397258Y-60277000D01*
X152397260Y-60277000D01*
X152613043Y-60236664D01*
X152817739Y-60157364D01*
X153004379Y-60041801D01*
X153166607Y-59893911D01*
X153298897Y-59718731D01*
X153396746Y-59522224D01*
X153399128Y-59513855D01*
X153456820Y-59311085D01*
X153461162Y-59264230D01*
X153477075Y-59092500D01*
X153457106Y-58876999D01*
X153456820Y-58873914D01*
X153396747Y-58662777D01*
X153298897Y-58466269D01*
X153166606Y-58291087D01*
X153004381Y-58143200D01*
X152817740Y-58027636D01*
X152685226Y-57976300D01*
X152613043Y-57948336D01*
X152397260Y-57908000D01*
X152177740Y-57908000D01*
X152027608Y-57936064D01*
X151961957Y-57948336D01*
X151757259Y-58027636D01*
X151570618Y-58143200D01*
X151408393Y-58291087D01*
X151276102Y-58466269D01*
X151178253Y-58662775D01*
X151175265Y-58673280D01*
X151146338Y-58724285D01*
X151097210Y-58756296D01*
X151038867Y-58762155D01*
X150984355Y-58740552D01*
X150945863Y-58696318D01*
X150931999Y-58639344D01*
X150931999Y-58360630D01*
X150929831Y-58340462D01*
X150925591Y-58301017D01*
X150875296Y-58166169D01*
X150789046Y-58050954D01*
X150673831Y-57964704D01*
X150538983Y-57914409D01*
X150479373Y-57908000D01*
X150479369Y-57908000D01*
X149015630Y-57908000D01*
X148956015Y-57914409D01*
X148821169Y-57964704D01*
X148705954Y-58050954D01*
X148619704Y-58166168D01*
X148569409Y-58301015D01*
X148569409Y-58301017D01*
X148565607Y-58336384D01*
X148563000Y-58360630D01*
X148563000Y-59824369D01*
X147602749Y-59824369D01*
X147544239Y-59606004D01*
X147448068Y-59399766D01*
X147443513Y-59393261D01*
X147317546Y-59213359D01*
X147156640Y-59052453D01*
X147070877Y-58992402D01*
X147032011Y-58948084D01*
X147018000Y-58890827D01*
X147018000Y-58764019D01*
X147027439Y-58716566D01*
X147054319Y-58676338D01*
X147453051Y-58277606D01*
X149520681Y-56209973D01*
X149571680Y-56179205D01*
X149631144Y-56175767D01*
X149637740Y-56177000D01*
X149857258Y-56177000D01*
X149857260Y-56177000D01*
X150073043Y-56136664D01*
X150277739Y-56057364D01*
X150464379Y-55941801D01*
X150626607Y-55793911D01*
X150758897Y-55618731D01*
X150856746Y-55422224D01*
X150886272Y-55318450D01*
X150898234Y-55276409D01*
X150930633Y-55221855D01*
X150985775Y-55190470D01*
X151049225Y-55190470D01*
X151104367Y-55221855D01*
X151136766Y-55276409D01*
X151178253Y-55422222D01*
X151276102Y-55618730D01*
X151408393Y-55793912D01*
X151570618Y-55941799D01*
X151570620Y-55941800D01*
X151570621Y-55941801D01*
X151757261Y-56057364D01*
X151961957Y-56136664D01*
X152177740Y-56177000D01*
X152397258Y-56177000D01*
X152397260Y-56177000D01*
X152613043Y-56136664D01*
X152817739Y-56057364D01*
X153004379Y-55941801D01*
X153166607Y-55793911D01*
X153298897Y-55618731D01*
X153396746Y-55422224D01*
X153399163Y-55413731D01*
X153456820Y-55211085D01*
X153459793Y-55178996D01*
X153477075Y-54992500D01*
X153456820Y-54773916D01*
X153456820Y-54773914D01*
X153396747Y-54562777D01*
X153298897Y-54366269D01*
X153166606Y-54191087D01*
X153004381Y-54043200D01*
X152817740Y-53927636D01*
X152679338Y-53874019D01*
X152613043Y-53848336D01*
X152397260Y-53808000D01*
X152177740Y-53808000D01*
X151961956Y-53848336D01*
X151961957Y-53848336D01*
X151757259Y-53927636D01*
X151570618Y-54043200D01*
X151408393Y-54191087D01*
X151276102Y-54366269D01*
X151178252Y-54562777D01*
X151136766Y-54708590D01*
X151104367Y-54763144D01*
X151049225Y-54794529D01*
X150985775Y-54794529D01*
X150930633Y-54763144D01*
X150898234Y-54708590D01*
X150856747Y-54562777D01*
X150758897Y-54366269D01*
X150626606Y-54191087D01*
X150464381Y-54043200D01*
X150277740Y-53927636D01*
X150139338Y-53874019D01*
X150073043Y-53848336D01*
X149857260Y-53808000D01*
X149637740Y-53808000D01*
X149421956Y-53848336D01*
X149421957Y-53848336D01*
X149217259Y-53927636D01*
X149030618Y-54043200D01*
X148868393Y-54191087D01*
X148736102Y-54366269D01*
X148638252Y-54562777D01*
X148578179Y-54773914D01*
X148557925Y-54992500D01*
X148569423Y-55116587D01*
X148562582Y-55170140D01*
X148533633Y-55215709D01*
X145839790Y-57909551D01*
X145834338Y-57914683D01*
X145789316Y-57954570D01*
X145755149Y-58004068D01*
X145750713Y-58010097D01*
X145713621Y-58057442D01*
X145709461Y-58066686D01*
X145698441Y-58086225D01*
X145692682Y-58094569D01*
X145671353Y-58150805D01*
X145668487Y-58157724D01*
X145663036Y-58169835D01*
X145626433Y-58216554D01*
X145572311Y-58240911D01*
X145513070Y-58237327D01*
X145462280Y-58206623D01*
X145236819Y-57981162D01*
X145209939Y-57940934D01*
X145200500Y-57893481D01*
X145200500Y-57274921D01*
X145200726Y-57267434D01*
X145203133Y-57227636D01*
X145204358Y-57207394D01*
X145193507Y-57148185D01*
X145192390Y-57140841D01*
X145185140Y-57081128D01*
X145181547Y-57071656D01*
X145175522Y-57050044D01*
X145173695Y-57040069D01*
X145149007Y-56985217D01*
X145146147Y-56978313D01*
X145124818Y-56922070D01*
X145119061Y-56913730D01*
X145108035Y-56894181D01*
X145103877Y-56884941D01*
X145066785Y-56837597D01*
X145062355Y-56831577D01*
X145028183Y-56782071D01*
X144983153Y-56742178D01*
X144977715Y-56737058D01*
X143762940Y-55522283D01*
X143757822Y-55516847D01*
X143717929Y-55471817D01*
X143668432Y-55437651D01*
X143662405Y-55433216D01*
X143615054Y-55396120D01*
X143605813Y-55391961D01*
X143586273Y-55380941D01*
X143577930Y-55375182D01*
X143577927Y-55375181D01*
X143577926Y-55375180D01*
X143521701Y-55353856D01*
X143514783Y-55350991D01*
X143459929Y-55326303D01*
X143449952Y-55324475D01*
X143428339Y-55318450D01*
X143418873Y-55314860D01*
X143359172Y-55307610D01*
X143351771Y-55306483D01*
X143292607Y-55295641D01*
X143232566Y-55299274D01*
X143225079Y-55299500D01*
X142841519Y-55299500D01*
X142794066Y-55290061D01*
X142753838Y-55263181D01*
X142479338Y-54988681D01*
X142449088Y-54939318D01*
X142444546Y-54881602D01*
X142466701Y-54828115D01*
X142510724Y-54790515D01*
X142567019Y-54777000D01*
X142697258Y-54777000D01*
X142697260Y-54777000D01*
X142913043Y-54736664D01*
X143117739Y-54657364D01*
X143304379Y-54541801D01*
X143466607Y-54393911D01*
X143598897Y-54218731D01*
X143696746Y-54022224D01*
X143703057Y-54000046D01*
X143756820Y-53811085D01*
X143764106Y-53732453D01*
X143777075Y-53592500D01*
X143756820Y-53373916D01*
X143756820Y-53373914D01*
X143696747Y-53162777D01*
X143598897Y-52966269D01*
X143466606Y-52791087D01*
X143347491Y-52682500D01*
X145038628Y-52682500D01*
X145091233Y-52878826D01*
X145187365Y-53084980D01*
X145317841Y-53271319D01*
X145478680Y-53432158D01*
X145665019Y-53562634D01*
X145871173Y-53658766D01*
X146067499Y-53711371D01*
X146067500Y-53711372D01*
X146067500Y-52682500D01*
X146567500Y-52682500D01*
X146567500Y-53711371D01*
X146763826Y-53658766D01*
X146969980Y-53562634D01*
X147156319Y-53432158D01*
X147317158Y-53271319D01*
X147447634Y-53084980D01*
X147543766Y-52878826D01*
X147596372Y-52682500D01*
X146567500Y-52682500D01*
X146067500Y-52682500D01*
X145038628Y-52682500D01*
X143347491Y-52682500D01*
X143304381Y-52643200D01*
X143117740Y-52527636D01*
X143015391Y-52487986D01*
X142913043Y-52448336D01*
X142697260Y-52408000D01*
X142477740Y-52408000D01*
X142261956Y-52448336D01*
X142261957Y-52448336D01*
X142057259Y-52527636D01*
X141870618Y-52643200D01*
X141708393Y-52791087D01*
X141576102Y-52966269D01*
X141478252Y-53162777D01*
X141436766Y-53308590D01*
X141404367Y-53363144D01*
X141349225Y-53394529D01*
X141285775Y-53394529D01*
X141230633Y-53363144D01*
X141198234Y-53308590D01*
X141156747Y-53162777D01*
X141058897Y-52966269D01*
X140926606Y-52791087D01*
X140764381Y-52643200D01*
X140577740Y-52527636D01*
X140475391Y-52487986D01*
X140373043Y-52448336D01*
X140157260Y-52408000D01*
X139937740Y-52408000D01*
X139721956Y-52448336D01*
X139721957Y-52448336D01*
X139517259Y-52527636D01*
X139330618Y-52643200D01*
X139168393Y-52791087D01*
X139081457Y-52906211D01*
X139025511Y-52947787D01*
X138955975Y-52952613D01*
X138894822Y-52919165D01*
X138158157Y-52182500D01*
X145038628Y-52182500D01*
X146067500Y-52182500D01*
X146067500Y-51153628D01*
X146567500Y-51153628D01*
X146567500Y-52182500D01*
X147596372Y-52182500D01*
X147596371Y-52182499D01*
X147543766Y-51986173D01*
X147447634Y-51780019D01*
X147317158Y-51593680D01*
X147156319Y-51432841D01*
X146969980Y-51302365D01*
X146763826Y-51206233D01*
X146567500Y-51153628D01*
X146067500Y-51153628D01*
X146067499Y-51153628D01*
X145871173Y-51206233D01*
X145665019Y-51302365D01*
X145478680Y-51432841D01*
X145317841Y-51593680D01*
X145187365Y-51780019D01*
X145091233Y-51986173D01*
X145038628Y-52182499D01*
X145038628Y-52182500D01*
X138158157Y-52182500D01*
X137856025Y-51880368D01*
X137827183Y-51835096D01*
X137820178Y-51781880D01*
X137822968Y-51750000D01*
X137819850Y-51714365D01*
X137803135Y-51523310D01*
X137803135Y-51523308D01*
X137744239Y-51303504D01*
X137648068Y-51097266D01*
X137576650Y-50995270D01*
X137517546Y-50910859D01*
X137356640Y-50749953D01*
X137170235Y-50619432D01*
X136963997Y-50523261D01*
X136744189Y-50464364D01*
X136517500Y-50444531D01*
X136290810Y-50464364D01*
X136071002Y-50523261D01*
X135864764Y-50619432D01*
X135678359Y-50749953D01*
X135517453Y-50910859D01*
X135386932Y-51097264D01*
X135290761Y-51303502D01*
X135231864Y-51523310D01*
X135212031Y-51750000D01*
X135231864Y-51976689D01*
X135290761Y-52196497D01*
X135386932Y-52402735D01*
X135517453Y-52589140D01*
X135678359Y-52750046D01*
X135864764Y-52880567D01*
X135864765Y-52880567D01*
X135864766Y-52880568D01*
X136071004Y-52976739D01*
X136290808Y-53035635D01*
X136517500Y-53055468D01*
X136744192Y-53035635D01*
X136900435Y-52993770D01*
X136964619Y-52993770D01*
X137020207Y-53025864D01*
X137780681Y-53786338D01*
X137807561Y-53826566D01*
X137817000Y-53874019D01*
X137817000Y-57865173D01*
X137808764Y-57909611D01*
X137785149Y-57948146D01*
X137767466Y-57967784D01*
X137672820Y-58131715D01*
X137614325Y-58311747D01*
X137611455Y-58339051D01*
X137585513Y-58402856D01*
X137529525Y-58442975D01*
X137460767Y-58447029D01*
X137400453Y-58413767D01*
X137356639Y-58369952D01*
X137170235Y-58239432D01*
X136963997Y-58143261D01*
X136744189Y-58084364D01*
X136517500Y-58064531D01*
X136290810Y-58084364D01*
X136071002Y-58143261D01*
X135864764Y-58239432D01*
X135678359Y-58369953D01*
X135517453Y-58530859D01*
X135386932Y-58717264D01*
X135290761Y-58923502D01*
X135231864Y-59143310D01*
X135212031Y-59370000D01*
X133617719Y-59370000D01*
X133622968Y-59310000D01*
X133603135Y-59083308D01*
X133544239Y-58863504D01*
X133448068Y-58657266D01*
X133445386Y-58653436D01*
X133317546Y-58470859D01*
X133156640Y-58309953D01*
X132970235Y-58179432D01*
X132763997Y-58083261D01*
X132544189Y-58024364D01*
X132317498Y-58004531D01*
X132230444Y-58012147D01*
X132177227Y-58005141D01*
X132131957Y-57976300D01*
X129677940Y-55522283D01*
X129672822Y-55516847D01*
X129632929Y-55471817D01*
X129583432Y-55437651D01*
X129577405Y-55433216D01*
X129530054Y-55396120D01*
X129520813Y-55391961D01*
X129501273Y-55380941D01*
X129492930Y-55375182D01*
X129492927Y-55375181D01*
X129492926Y-55375180D01*
X129436701Y-55353856D01*
X129429783Y-55350991D01*
X129374929Y-55326303D01*
X129364952Y-55324475D01*
X129343339Y-55318450D01*
X129333873Y-55314860D01*
X129274172Y-55307610D01*
X129266771Y-55306483D01*
X129207607Y-55295641D01*
X129147566Y-55299274D01*
X129140079Y-55299500D01*
X128841519Y-55299500D01*
X128794066Y-55290061D01*
X128753838Y-55263181D01*
X128479338Y-54988681D01*
X128449088Y-54939318D01*
X128444546Y-54881602D01*
X128466701Y-54828115D01*
X128510724Y-54790515D01*
X128567019Y-54777000D01*
X128797258Y-54777000D01*
X128797260Y-54777000D01*
X129013043Y-54736664D01*
X129217739Y-54657364D01*
X129404379Y-54541801D01*
X129566607Y-54393911D01*
X129698897Y-54218731D01*
X129796746Y-54022224D01*
X129803057Y-54000046D01*
X129856820Y-53811085D01*
X129864106Y-53732453D01*
X129877075Y-53592500D01*
X129856820Y-53373916D01*
X129856820Y-53373914D01*
X129796747Y-53162777D01*
X129698897Y-52966269D01*
X129566606Y-52791087D01*
X129404381Y-52643200D01*
X129217740Y-52527636D01*
X129115391Y-52487986D01*
X129013043Y-52448336D01*
X128797260Y-52408000D01*
X128577740Y-52408000D01*
X128361956Y-52448336D01*
X128361957Y-52448336D01*
X128157259Y-52527636D01*
X127970618Y-52643200D01*
X127808393Y-52791087D01*
X127676102Y-52966269D01*
X127578252Y-53162777D01*
X127536766Y-53308590D01*
X127504367Y-53363144D01*
X127449225Y-53394529D01*
X127385775Y-53394529D01*
X127330633Y-53363144D01*
X127298234Y-53308590D01*
X127256747Y-53162777D01*
X127158897Y-52966269D01*
X127026606Y-52791087D01*
X126864381Y-52643200D01*
X126677740Y-52527636D01*
X126575391Y-52487986D01*
X126473043Y-52448336D01*
X126257260Y-52408000D01*
X126037740Y-52408000D01*
X125821956Y-52448336D01*
X125821957Y-52448336D01*
X125617259Y-52527636D01*
X125430618Y-52643200D01*
X125268393Y-52791087D01*
X125147840Y-52950727D01*
X125104158Y-52987000D01*
X125048886Y-53000000D01*
X123836593Y-53000000D01*
X123777742Y-52985145D01*
X123732992Y-52944139D01*
X123713065Y-52886807D01*
X123703135Y-52773310D01*
X123703135Y-52773308D01*
X123644239Y-52553504D01*
X123548068Y-52347266D01*
X123442499Y-52196497D01*
X123417546Y-52160859D01*
X123256640Y-51999953D01*
X123171017Y-51940000D01*
X131038628Y-51940000D01*
X131091233Y-52136326D01*
X131187365Y-52342480D01*
X131317841Y-52528819D01*
X131478680Y-52689658D01*
X131665019Y-52820134D01*
X131871173Y-52916266D01*
X132067499Y-52968871D01*
X132067500Y-52968872D01*
X132067500Y-51940000D01*
X132567500Y-51940000D01*
X132567500Y-52968871D01*
X132763826Y-52916266D01*
X132969980Y-52820134D01*
X133156319Y-52689658D01*
X133317158Y-52528819D01*
X133447634Y-52342480D01*
X133543766Y-52136326D01*
X133596372Y-51940000D01*
X132567500Y-51940000D01*
X132067500Y-51940000D01*
X131038628Y-51940000D01*
X123171017Y-51940000D01*
X123070235Y-51869432D01*
X122863997Y-51773261D01*
X122644189Y-51714364D01*
X122417500Y-51694531D01*
X122190810Y-51714364D01*
X121971002Y-51773261D01*
X121764764Y-51869432D01*
X121578359Y-51999953D01*
X121417453Y-52160859D01*
X121286932Y-52347264D01*
X121190761Y-52553502D01*
X121131864Y-52773310D01*
X121112031Y-52999999D01*
X121131864Y-53226689D01*
X121190761Y-53446497D01*
X121286932Y-53652735D01*
X121417453Y-53839140D01*
X121578359Y-54000046D01*
X121688949Y-54077481D01*
X121715693Y-54102911D01*
X121733768Y-54135086D01*
X121735949Y-54140837D01*
X121741975Y-54162452D01*
X121743803Y-54172429D01*
X121768491Y-54227283D01*
X121771356Y-54234201D01*
X121791003Y-54286003D01*
X121792682Y-54290430D01*
X121798441Y-54298773D01*
X121809461Y-54318313D01*
X121813620Y-54327554D01*
X121850716Y-54374905D01*
X121855151Y-54380932D01*
X121889317Y-54430429D01*
X121934347Y-54470322D01*
X121939783Y-54475440D01*
X124926681Y-57462337D01*
X124953561Y-57502565D01*
X124963000Y-57550018D01*
X124963000Y-58424369D01*
X124969409Y-58483983D01*
X124992182Y-58545041D01*
X125000000Y-58588374D01*
X125000000Y-60337981D01*
X124990561Y-60385434D01*
X124963681Y-60425662D01*
X122876162Y-62513181D01*
X122835934Y-62540061D01*
X122788481Y-62549500D01*
X120341519Y-62549500D01*
X120294066Y-62540061D01*
X120253838Y-62513181D01*
X118578838Y-60838181D01*
X118548588Y-60788818D01*
X118544046Y-60731102D01*
X118566201Y-60677615D01*
X118610224Y-60640015D01*
X118666519Y-60626500D01*
X118710422Y-60626500D01*
X118745193Y-60620000D01*
X121112031Y-60620000D01*
X121131864Y-60846689D01*
X121190761Y-61066497D01*
X121286932Y-61272735D01*
X121417453Y-61459140D01*
X121578359Y-61620046D01*
X121764764Y-61750567D01*
X121764765Y-61750567D01*
X121764766Y-61750568D01*
X121971004Y-61846739D01*
X122190808Y-61905635D01*
X122417500Y-61925468D01*
X122644192Y-61905635D01*
X122863996Y-61846739D01*
X123070234Y-61750568D01*
X123256639Y-61620047D01*
X123417547Y-61459139D01*
X123548068Y-61272734D01*
X123644239Y-61066496D01*
X123703135Y-60846692D01*
X123722968Y-60620000D01*
X123703135Y-60393308D01*
X123644239Y-60173504D01*
X123548068Y-59967266D01*
X123544895Y-59962735D01*
X123417546Y-59780859D01*
X123256640Y-59619953D01*
X123070235Y-59489432D01*
X122863997Y-59393261D01*
X122644189Y-59334364D01*
X122417500Y-59314531D01*
X122190810Y-59334364D01*
X121971002Y-59393261D01*
X121764764Y-59489432D01*
X121578359Y-59619953D01*
X121417453Y-59780859D01*
X121286932Y-59967264D01*
X121190761Y-60173502D01*
X121131864Y-60393310D01*
X121112031Y-60620000D01*
X118745193Y-60620000D01*
X118926114Y-60586179D01*
X119130725Y-60506913D01*
X119242415Y-60437757D01*
X118600710Y-59796053D01*
X118247157Y-59442500D01*
X118954263Y-59442500D01*
X119598146Y-60086384D01*
X119598147Y-60086384D01*
X119611678Y-60068467D01*
X119709488Y-59872040D01*
X119769535Y-59660992D01*
X119789781Y-59442499D01*
X119769535Y-59224007D01*
X119709488Y-59012959D01*
X119611678Y-58816534D01*
X119598146Y-58798614D01*
X118954263Y-59442500D01*
X118247157Y-59442500D01*
X117603272Y-58798615D01*
X117603271Y-58798615D01*
X117589741Y-58816533D01*
X117491934Y-59012955D01*
X117488476Y-59025110D01*
X117459549Y-59076115D01*
X117410421Y-59108127D01*
X117352078Y-59113987D01*
X117297565Y-59092385D01*
X117259073Y-59048150D01*
X117245209Y-58991176D01*
X117245209Y-58710630D01*
X117244381Y-58702928D01*
X117238801Y-58651017D01*
X117188506Y-58516169D01*
X117136906Y-58447241D01*
X117959003Y-58447241D01*
X118600710Y-59088947D01*
X118600711Y-59088947D01*
X119242415Y-58447241D01*
X119242414Y-58447240D01*
X119130728Y-58378087D01*
X118926114Y-58298820D01*
X118710422Y-58258500D01*
X118490998Y-58258500D01*
X118275305Y-58298820D01*
X118070691Y-58378087D01*
X117959004Y-58447240D01*
X117959003Y-58447241D01*
X117136906Y-58447241D01*
X117102256Y-58400954D01*
X116987041Y-58314704D01*
X116852193Y-58264409D01*
X116792583Y-58258000D01*
X116792579Y-58258000D01*
X115328840Y-58258000D01*
X115269225Y-58264409D01*
X115134379Y-58314704D01*
X115019164Y-58400954D01*
X114932914Y-58516168D01*
X114882619Y-58651015D01*
X114882619Y-58651017D01*
X114877749Y-58696318D01*
X114876210Y-58710630D01*
X114876210Y-60174369D01*
X110700500Y-60174369D01*
X110700500Y-58191519D01*
X110709939Y-58144066D01*
X110736819Y-58103838D01*
X110928449Y-57912208D01*
X111887128Y-56953526D01*
X111932396Y-56924687D01*
X111985614Y-56917681D01*
X112217500Y-56937968D01*
X112444192Y-56918135D01*
X112663996Y-56859239D01*
X112870234Y-56763068D01*
X113056639Y-56632547D01*
X113217547Y-56471639D01*
X113348068Y-56285234D01*
X113444239Y-56078996D01*
X113503135Y-55859192D01*
X113522968Y-55632500D01*
X113503135Y-55405808D01*
X113486171Y-55342499D01*
X114871135Y-55342499D01*
X114891389Y-55561085D01*
X114951462Y-55772222D01*
X115049312Y-55968730D01*
X115181603Y-56143912D01*
X115343828Y-56291799D01*
X115343830Y-56291800D01*
X115343831Y-56291801D01*
X115530471Y-56407364D01*
X115735167Y-56486664D01*
X115950950Y-56527000D01*
X116170468Y-56527000D01*
X116170470Y-56527000D01*
X116386253Y-56486664D01*
X116590949Y-56407364D01*
X116777589Y-56291801D01*
X116939817Y-56143911D01*
X117072107Y-55968731D01*
X117169956Y-55772224D01*
X117205233Y-55648237D01*
X117211444Y-55626409D01*
X117243843Y-55571855D01*
X117298985Y-55540470D01*
X117362435Y-55540470D01*
X117417577Y-55571855D01*
X117449976Y-55626409D01*
X117491463Y-55772222D01*
X117589312Y-55968730D01*
X117721603Y-56143912D01*
X117883828Y-56291799D01*
X117883830Y-56291800D01*
X117883831Y-56291801D01*
X118070471Y-56407364D01*
X118275167Y-56486664D01*
X118490950Y-56527000D01*
X118710468Y-56527000D01*
X118710470Y-56527000D01*
X118926253Y-56486664D01*
X119130949Y-56407364D01*
X119317589Y-56291801D01*
X119479817Y-56143911D01*
X119612107Y-55968731D01*
X119709956Y-55772224D01*
X119721246Y-55732546D01*
X119770030Y-55561085D01*
X119777059Y-55485228D01*
X119790285Y-55342500D01*
X119770030Y-55123916D01*
X119770030Y-55123914D01*
X119709957Y-54912777D01*
X119612107Y-54716269D01*
X119479816Y-54541087D01*
X119317591Y-54393200D01*
X119130950Y-54277636D01*
X118978898Y-54218731D01*
X118926253Y-54198336D01*
X118710470Y-54158000D01*
X118490950Y-54158000D01*
X118313947Y-54191087D01*
X118275167Y-54198336D01*
X118070469Y-54277636D01*
X117883828Y-54393200D01*
X117721603Y-54541087D01*
X117589312Y-54716269D01*
X117491462Y-54912777D01*
X117449976Y-55058590D01*
X117417577Y-55113144D01*
X117362435Y-55144529D01*
X117298985Y-55144529D01*
X117243843Y-55113144D01*
X117211444Y-55058590D01*
X117169957Y-54912777D01*
X117072107Y-54716269D01*
X116939816Y-54541087D01*
X116777591Y-54393200D01*
X116590950Y-54277636D01*
X116438898Y-54218731D01*
X116386253Y-54198336D01*
X116170470Y-54158000D01*
X115950950Y-54158000D01*
X115773947Y-54191087D01*
X115735167Y-54198336D01*
X115530469Y-54277636D01*
X115343828Y-54393200D01*
X115181603Y-54541087D01*
X115049312Y-54716269D01*
X114951462Y-54912777D01*
X114891389Y-55123914D01*
X114871135Y-55342499D01*
X113486171Y-55342499D01*
X113444239Y-55186004D01*
X113348068Y-54979766D01*
X113319746Y-54939318D01*
X113217546Y-54793359D01*
X113056640Y-54632453D01*
X112870235Y-54501932D01*
X112663997Y-54405761D01*
X112444189Y-54346864D01*
X112217500Y-54327031D01*
X111990810Y-54346864D01*
X111771002Y-54405761D01*
X111564764Y-54501932D01*
X111378359Y-54632453D01*
X111217453Y-54793359D01*
X111086932Y-54979764D01*
X110990761Y-55186002D01*
X110931864Y-55405810D01*
X110912031Y-55632500D01*
X110932318Y-55864383D01*
X110925312Y-55917601D01*
X110896471Y-55962871D01*
X109522290Y-57337051D01*
X109516838Y-57342183D01*
X109471816Y-57382070D01*
X109437649Y-57431568D01*
X109433213Y-57437597D01*
X109396121Y-57484942D01*
X109391961Y-57494186D01*
X109380941Y-57513725D01*
X109375182Y-57522069D01*
X109353853Y-57578305D01*
X109350989Y-57585219D01*
X109326303Y-57640070D01*
X109324475Y-57650047D01*
X109318454Y-57671648D01*
X109314859Y-57681128D01*
X109307609Y-57740827D01*
X109306483Y-57748226D01*
X109295641Y-57807391D01*
X109299274Y-57867434D01*
X109299500Y-57874921D01*
X109299500Y-58261944D01*
X109284382Y-58321279D01*
X109242715Y-58366147D01*
X109184658Y-58385605D01*
X109124368Y-58374911D01*
X109076546Y-58336671D01*
X108966606Y-58191087D01*
X108804381Y-58043200D01*
X108617740Y-57927636D01*
X108496421Y-57880637D01*
X108413043Y-57848336D01*
X108197260Y-57808000D01*
X107977740Y-57808000D01*
X107761957Y-57848335D01*
X107761957Y-57848336D01*
X107557259Y-57927636D01*
X107370618Y-58043200D01*
X107208393Y-58191087D01*
X107076102Y-58366269D01*
X106978252Y-58562777D01*
X106936766Y-58708590D01*
X106904367Y-58763144D01*
X106849225Y-58794529D01*
X106785775Y-58794529D01*
X106730633Y-58763144D01*
X106698234Y-58708590D01*
X106656747Y-58562777D01*
X106558897Y-58366269D01*
X106426606Y-58191087D01*
X106264381Y-58043200D01*
X106077740Y-57927636D01*
X105956421Y-57880637D01*
X105873043Y-57848336D01*
X105657260Y-57808000D01*
X105437740Y-57808000D01*
X105221957Y-57848335D01*
X105221957Y-57848336D01*
X105017259Y-57927636D01*
X104830618Y-58043200D01*
X104668393Y-58191087D01*
X104536102Y-58366269D01*
X104438252Y-58562777D01*
X104378179Y-58773914D01*
X104357925Y-58992500D01*
X104369423Y-59116587D01*
X104362582Y-59170140D01*
X104333633Y-59215709D01*
X101339790Y-62209551D01*
X101334338Y-62214683D01*
X101289316Y-62254570D01*
X101255149Y-62304068D01*
X101250713Y-62310097D01*
X101213621Y-62357442D01*
X101209461Y-62366686D01*
X101198441Y-62386225D01*
X101192682Y-62394569D01*
X101171353Y-62450805D01*
X101168489Y-62457719D01*
X101143803Y-62512570D01*
X101141975Y-62522547D01*
X101135954Y-62544148D01*
X101132359Y-62553628D01*
X101125109Y-62613327D01*
X101123983Y-62620726D01*
X101113141Y-62679891D01*
X101116774Y-62739934D01*
X101117000Y-62747421D01*
X101117000Y-63626000D01*
X101100387Y-63688000D01*
X101055000Y-63733387D01*
X100993000Y-63750000D01*
X99750000Y-63750000D01*
X99730436Y-63787497D01*
X99695511Y-63828877D01*
X99646281Y-63851428D01*
X99470197Y-63888855D01*
X99297269Y-63965848D01*
X99144129Y-64077111D01*
X99049200Y-64182539D01*
X98998118Y-64216568D01*
X98936974Y-64221930D01*
X98880749Y-64197310D01*
X98843219Y-64148742D01*
X98833580Y-64088127D01*
X98847075Y-63942500D01*
X98827678Y-63733171D01*
X98826820Y-63723914D01*
X98766747Y-63512777D01*
X98668897Y-63316269D01*
X98536606Y-63141087D01*
X98374381Y-62993200D01*
X98187740Y-62877636D01*
X98044232Y-62822041D01*
X97983043Y-62798336D01*
X97767260Y-62758000D01*
X97547740Y-62758000D01*
X97352323Y-62794529D01*
X97331957Y-62798336D01*
X97127259Y-62877636D01*
X96940618Y-62993200D01*
X96778393Y-63141087D01*
X96646102Y-63316269D01*
X96548252Y-63512777D01*
X96506766Y-63658590D01*
X96474367Y-63713144D01*
X96419225Y-63744529D01*
X96355775Y-63744529D01*
X96300633Y-63713144D01*
X96268234Y-63658590D01*
X96226747Y-63512777D01*
X96128897Y-63316269D01*
X95996606Y-63141087D01*
X95834381Y-62993200D01*
X95647740Y-62877636D01*
X95504232Y-62822041D01*
X95443043Y-62798336D01*
X95227260Y-62758000D01*
X95007740Y-62758000D01*
X94812323Y-62794529D01*
X94791957Y-62798336D01*
X94587259Y-62877636D01*
X94400618Y-62993200D01*
X94238393Y-63141087D01*
X94106102Y-63316269D01*
X94008252Y-63512777D01*
X93948179Y-63723914D01*
X93929499Y-63925517D01*
X93927925Y-63942500D01*
X92002732Y-63942500D01*
X92000138Y-62573303D01*
X92017277Y-62510170D01*
X92064159Y-62464543D01*
X97460237Y-59482500D01*
X100538628Y-59482500D01*
X100591233Y-59678826D01*
X100687365Y-59884980D01*
X100817841Y-60071319D01*
X100978680Y-60232158D01*
X101165019Y-60362634D01*
X101371173Y-60458766D01*
X101567499Y-60511371D01*
X101567500Y-60511372D01*
X101567500Y-59482500D01*
X102067500Y-59482500D01*
X102067500Y-60511371D01*
X102263826Y-60458766D01*
X102469980Y-60362634D01*
X102656319Y-60232158D01*
X102817158Y-60071319D01*
X102947634Y-59884980D01*
X103043766Y-59678826D01*
X103096372Y-59482500D01*
X102067500Y-59482500D01*
X101567500Y-59482500D01*
X100538628Y-59482500D01*
X97460237Y-59482500D01*
X98364999Y-58982500D01*
X100538628Y-58982500D01*
X101567500Y-58982500D01*
X101567500Y-57953628D01*
X102067500Y-57953628D01*
X102067500Y-58982500D01*
X103096372Y-58982500D01*
X103096371Y-58982499D01*
X103043766Y-58786173D01*
X102947634Y-58580019D01*
X102817158Y-58393680D01*
X102656319Y-58232841D01*
X102469980Y-58102365D01*
X102263826Y-58006233D01*
X102067500Y-57953628D01*
X101567500Y-57953628D01*
X101567499Y-57953628D01*
X101371173Y-58006233D01*
X101165019Y-58102365D01*
X100978680Y-58232841D01*
X100817841Y-58393680D01*
X100687365Y-58580019D01*
X100591233Y-58786173D01*
X100538628Y-58982499D01*
X100538628Y-58982500D01*
X98364999Y-58982500D01*
X100358846Y-57880637D01*
X100366512Y-57876744D01*
X101346092Y-57421724D01*
X101348514Y-57420632D01*
X101408019Y-57394534D01*
X102622703Y-56861789D01*
X102631890Y-56858191D01*
X114426217Y-52775540D01*
X114434543Y-52772983D01*
X114595692Y-52729660D01*
X114601803Y-52728185D01*
X120613329Y-51440000D01*
X131038628Y-51440000D01*
X132067500Y-51440000D01*
X132067500Y-50411128D01*
X132567500Y-50411128D01*
X132567500Y-51440000D01*
X133596372Y-51440000D01*
X133596371Y-51439999D01*
X133543766Y-51243673D01*
X133447634Y-51037519D01*
X133317158Y-50851180D01*
X133156319Y-50690341D01*
X132969980Y-50559865D01*
X132763826Y-50463733D01*
X132567500Y-50411128D01*
X132067500Y-50411128D01*
X132067499Y-50411128D01*
X131871173Y-50463733D01*
X131665019Y-50559865D01*
X131478680Y-50690341D01*
X131317841Y-50851180D01*
X131187365Y-51037519D01*
X131091233Y-51243673D01*
X131038628Y-51439999D01*
X131038628Y-51440000D01*
X120613329Y-51440000D01*
X121494946Y-51251082D01*
X121505148Y-51249339D01*
X129723105Y-50195755D01*
X129730256Y-50195050D01*
X131126986Y-50098700D01*
X131129502Y-50098554D01*
X132939024Y-50012817D01*
X132941507Y-50012726D01*
X133432750Y-50000041D01*
X133435952Y-50000000D01*
X138652027Y-50000000D01*
X138656833Y-50000093D01*
G37*
%TD.AperFunction*%
%TD*%
M02*
