M48
; DRILL file {KiCad 7.0.1} date Wed Jun  7 19:09:28 2023
; FORMAT={-:-/ absolute / inch / decimal}
; #@! TF.CreationDate,2023-06-07T19:09:28+09:00
; #@! TF.GenerationSoftware,Kicad,Pcbnew,7.0.1
; #@! TF.FileFunction,Plated,1,4,PTH
FMAT,2
INCH
; #@! TA.AperFunction,Plated,PTH,ViaDrill
T1C0.0177
; #@! TA.AperFunction,Plated,PTH,ComponentDrill
T2C0.0300
; #@! TA.AperFunction,Plated,PTH,ComponentDrill
T3C0.0315
; #@! TA.AperFunction,Plated,PTH,ComponentDrill
T4C0.0339
; #@! TA.AperFunction,Plated,PTH,ComponentDrill
T5C0.0394
; #@! TA.AperFunction,Plated,PTH,ComponentDrill
T6C0.0402
; #@! TA.AperFunction,Plated,PTH,ComponentDrill
T7C0.0524
%
G90
G05
T1
X3.5079Y-3.811
X3.5728Y-3.6122
X3.6319Y-3.8976
X3.6614Y-2.5295
X3.689Y-3.4528
X3.8878Y-2.3622
X3.9272Y-2.5492
X3.9272Y-2.5984
X3.9665Y-3.2972
X3.9961Y-5.0098
X4.0945Y-5.1083
X4.1535Y-2.6673
X4.166Y-4.0079
X4.1831Y-5.1969
X4.1897Y-4.3954
X4.2421Y-2.6673
X4.2448Y-4.041
X4.2881Y-4.7536
X4.3307Y-2.5
X4.3406Y-2.6673
X4.4023Y-4.1119
X4.4062Y-4.5607
X4.4606Y-5.1339
X4.5164Y-2.6575
X4.5374Y-4.0551
X4.5374Y-4.1339
X4.5374Y-4.3209
X4.6063Y-3.0807
X4.6752Y-2.5886
X4.7047Y-3.0807
X4.7539Y-2.5886
X4.8465Y-3.8465
X4.9016Y-2.9331
X4.9213Y-4.2421
X5.0295Y-4.4094
X5.044Y-3.6355
X5.0479Y-3.7891
X5.0834Y-4.2103
X5.1083Y-3.1693
X5.1083Y-4.8031
X5.1083Y-4.9016
X5.1188Y-4.2733
X5.1227Y-4.0453
X5.1378Y-3.4055
X5.1378Y-3.5039
X5.1897Y-4.667
X5.1969Y-4.8031
X5.1969Y-4.9016
X5.2205Y-3.0512
X5.2212Y-3.8284
X5.2251Y-4.1316
X5.2854Y-4.8031
X5.2854Y-4.9016
X5.3235Y-4.2851
X5.3543Y-3.5827
X5.4023Y-4.2655
X5.4101Y-3.3757
X5.4101Y-3.5765
X5.4456Y-3.0686
X5.4456Y-4.7615
X5.4528Y-2.3031
X5.4771Y-3.4505
X5.5204Y-4.2576
X5.5558Y-4.7615
X5.561Y-2.4409
X5.5676Y-4.856
X5.6152Y-2.377
X5.6306Y-4.8914
X5.6345Y-4.2261
X5.6464Y-4.2851
X5.6594Y-5.1378
X5.6791Y-2.4803
X5.689Y-2.8937
X5.689Y-3.7106
X5.7087Y-3.2972
X5.7185Y-3.189
X5.7874Y-5.1378
X5.855Y-3.8796
X5.8957Y-3.0709
X5.9055Y-5.1378
X5.9154Y-2.6378
X5.9154Y-4.6654
X5.918Y-4.2615
X5.9547Y-3.4252
X5.9646Y-2.4902
X6.0361Y-4.2458
X6.0401Y-3.1592
X6.0531Y-3.3268
X6.1306Y-3.8678
X6.1417Y-3.1299
X6.1516Y-2.2343
X6.2402Y-2.5
X6.2598Y-4.3602
X6.2598Y-4.439
X6.2598Y-4.6811
X6.2697Y-2.628
X6.2697Y-3.2579
X6.2697Y-3.4843
X6.2697Y-4.0157
X6.3091Y-2.1457
X6.3189Y-4.3602
X6.3189Y-4.439
X6.3287Y-5.187
X6.4272Y-3.4154
X6.437Y-5.0787
X6.5157Y-3.8937
X6.5256Y-4.9803
X6.7028Y-2.3031
X6.8858Y-3.7756
X6.8996Y-2.4311
X6.8996Y-2.5098
X6.8996Y-2.6083
X6.9587Y-3.9567
X7.0591Y-3.9252
T2
X4.0551Y-4.1815
X4.0551Y-4.2815
X4.0551Y-4.3815
X4.4692Y-3.2832
X4.7684Y-3.2851
X4.9684Y-3.0729
X4.9684Y-3.1729
X4.9684Y-3.2729
X4.9684Y-3.3729
X4.9684Y-3.4729
X4.9684Y-3.5729
X4.9684Y-3.6729
X4.9684Y-3.7729
X5.5684Y-3.0729
X5.5684Y-3.1729
X5.5684Y-3.2729
X5.5684Y-3.3729
X5.5684Y-3.4729
X5.5684Y-3.5729
X5.5684Y-3.6729
X5.5684Y-3.7729
X5.5857Y-4.1021
X5.5857Y-4.421
X5.6857Y-4.1021
X5.6857Y-4.421
X5.7857Y-4.1021
X5.7857Y-4.421
T3
X3.7573Y-3.2445
X3.8873Y-3.3645
X3.9501Y-3.0147
X4.0086Y-2.332
X4.0086Y-2.632
X4.0801Y-3.1347
X4.418Y-2.1903
X4.418Y-2.4903
X4.6617Y-4.3639
X4.6696Y-4.1473
X4.8196Y-2.0866
X4.8196Y-2.3866
X4.9617Y-4.3639
X4.9696Y-4.1473
X5.2094Y-2.035
X5.2094Y-2.335
X5.3747Y-2.0374
X5.3747Y-2.3374
X5.7605Y-2.0643
X5.7605Y-2.3643
X6.1503Y-2.1548
X6.1503Y-2.4548
X6.2008Y-3.7008
X6.2795Y-3.7008
X6.4773Y-3.1147
X6.5637Y-2.2966
X6.5637Y-2.5966
X6.6023Y-3.0097
X6.6701Y-3.3445
X6.7951Y-3.2395
T4
X3.3696Y-4.0564
X3.4211Y-3.9707
X3.508Y-4.1395
X3.5595Y-4.0538
X3.7448Y-2.5174
X3.7448Y-2.6788
X3.8448Y-2.5174
X3.8448Y-2.6788
X4.1554Y-2.3225
X4.1554Y-2.484
X4.2554Y-2.3225
X4.2554Y-2.484
X4.5693Y-2.1788
X4.5693Y-2.3403
X4.6693Y-2.1788
X4.6693Y-2.3403
X4.9664Y-2.1099
X4.9664Y-2.2714
X5.0664Y-2.1099
X5.0664Y-2.2714
X5.5137Y-2.1099
X5.5137Y-2.2714
X5.6137Y-2.1099
X5.6137Y-2.2714
X5.8956Y-2.1651
X5.8956Y-2.3265
X5.9956Y-2.1651
X5.9956Y-2.3265
X6.309Y-2.295
X6.309Y-2.4564
X6.409Y-2.295
X6.409Y-2.4564
X6.7112Y-2.48
X6.7112Y-2.6414
X6.8112Y-2.48
X6.8112Y-2.6414
X6.9818Y-4.0538
X7.0333Y-4.1395
X7.1202Y-3.9707
X7.1717Y-4.0564
T5
X3.9894Y-3.6112
X3.9894Y-3.7112
X3.9894Y-3.8112
X4.0581Y-2.8842
X4.0894Y-3.6112
X4.0894Y-3.7112
X4.0894Y-3.8112
X4.1224Y-2.8076
X4.1347Y-2.9485
X4.199Y-2.8718
X4.2113Y-3.0127
X4.2756Y-2.9361
X4.4527Y-4.7576
X4.4869Y-3.6021
X4.4869Y-3.7792
X4.5527Y-4.7576
X4.6527Y-4.7576
X4.7428Y-3.6021
X4.7428Y-3.7792
X4.7527Y-4.7576
X4.8527Y-4.7576
X4.9527Y-4.7576
X5.6375Y-4.7566
X5.7375Y-4.7566
X5.7836Y-3.6099
X5.7836Y-3.7871
X5.8375Y-4.7566
X5.9375Y-4.7566
X6.0375Y-4.7566
X6.0395Y-3.6099
X6.0395Y-3.7871
X6.1375Y-4.7566
X6.1503Y-4.0503
X6.1503Y-4.1503
X6.1503Y-4.3964
X6.1503Y-4.4964
X6.2982Y-2.9494
X6.3624Y-3.026
X6.3748Y-2.8852
X6.4062Y-4.4908
X6.4062Y-4.5908
X6.439Y-2.9618
X6.4514Y-2.8209
X6.465Y-3.6122
X6.465Y-3.7122
X6.465Y-3.8122
X6.5156Y-2.8975
X6.565Y-3.6122
X6.565Y-3.7122
X6.565Y-3.8122
T6
X4.5684Y-3.9576
X4.5684Y-4.5576
X4.6684Y-3.9576
X4.6684Y-4.5576
X4.7684Y-3.9576
X4.7684Y-4.5576
X4.8684Y-3.9576
X4.8684Y-4.5576
X4.9684Y-3.9576
X4.9684Y-4.5576
X5.0684Y-3.9576
X5.0684Y-4.5576
X5.1684Y-3.9576
X5.1684Y-4.5576
X5.2684Y-3.9576
X5.2684Y-4.5576
X5.3684Y-3.9576
X5.3684Y-4.5576
X5.4684Y-3.9576
X5.4684Y-4.5576
X5.5684Y-3.9576
X5.5684Y-4.5576
X5.6684Y-3.9576
X5.6684Y-4.5576
X5.7684Y-3.9576
X5.7684Y-4.5576
X5.8684Y-3.9576
X5.8684Y-4.5576
X5.9684Y-3.9576
X5.9684Y-4.5576
T7
X6.5194Y-4.067
X6.5194Y-4.167
X6.5194Y-4.267
T0
M30
