%TF.GenerationSoftware,KiCad,Pcbnew,7.0.1*%
%TF.CreationDate,2023-06-07T19:09:21+09:00*%
%TF.ProjectId,trace,74726163-652e-46b6-9963-61645f706362,rev?*%
%TF.SameCoordinates,Original*%
%TF.FileFunction,Legend,Top*%
%TF.FilePolarity,Positive*%
%FSLAX46Y46*%
G04 Gerber Fmt 4.6, Leading zero omitted, Abs format (unit mm)*
G04 Created by KiCad (PCBNEW 7.0.1) date 2023-06-07 19:09:21*
%MOMM*%
%LPD*%
G01*
G04 APERTURE LIST*
%ADD10C,0.150000*%
%ADD11C,0.100000*%
%ADD12C,0.254000*%
%ADD13C,0.120000*%
%ADD14C,0.127000*%
%ADD15C,0.400000*%
%ADD16C,0.200000*%
G04 APERTURE END LIST*
D10*
X134217500Y-125992500D02*
X168917500Y-125992500D01*
X134217500Y-138092500D02*
X99217500Y-138092500D01*
X107400000Y-113400000D02*
X108700000Y-113400000D01*
X108600000Y-104400000D02*
X107400000Y-104400000D01*
X134217500Y-138092500D02*
X169200000Y-138092500D01*
X107400000Y-104400000D02*
X107400000Y-113400000D01*
X134217500Y-125992500D02*
X99217500Y-125992500D01*
D11*
X143400000Y-88247666D02*
X143500000Y-88281000D01*
X143500000Y-88281000D02*
X143533333Y-88314333D01*
X143533333Y-88314333D02*
X143566666Y-88381000D01*
X143566666Y-88381000D02*
X143566666Y-88481000D01*
X143566666Y-88481000D02*
X143533333Y-88547666D01*
X143533333Y-88547666D02*
X143500000Y-88581000D01*
X143500000Y-88581000D02*
X143433333Y-88614333D01*
X143433333Y-88614333D02*
X143166666Y-88614333D01*
X143166666Y-88614333D02*
X143166666Y-87914333D01*
X143166666Y-87914333D02*
X143400000Y-87914333D01*
X143400000Y-87914333D02*
X143466666Y-87947666D01*
X143466666Y-87947666D02*
X143500000Y-87981000D01*
X143500000Y-87981000D02*
X143533333Y-88047666D01*
X143533333Y-88047666D02*
X143533333Y-88114333D01*
X143533333Y-88114333D02*
X143500000Y-88181000D01*
X143500000Y-88181000D02*
X143466666Y-88214333D01*
X143466666Y-88214333D02*
X143400000Y-88247666D01*
X143400000Y-88247666D02*
X143166666Y-88247666D01*
X143866666Y-88614333D02*
X143866666Y-87914333D01*
X144566666Y-88614333D02*
X144166666Y-88614333D01*
X144366666Y-88614333D02*
X144366666Y-87914333D01*
X144366666Y-87914333D02*
X144299999Y-88014333D01*
X144299999Y-88014333D02*
X144233333Y-88081000D01*
X144233333Y-88081000D02*
X144166666Y-88114333D01*
X159566666Y-116414333D02*
X159800000Y-117114333D01*
X159800000Y-117114333D02*
X160033333Y-116414333D01*
X160266666Y-116847666D02*
X160800000Y-116847666D01*
X160533333Y-117114333D02*
X160533333Y-116581000D01*
X172700000Y-83314333D02*
X173166666Y-83314333D01*
X173166666Y-83314333D02*
X172866666Y-84014333D01*
X173766667Y-83314333D02*
X173433333Y-83314333D01*
X173433333Y-83314333D02*
X173400000Y-83647666D01*
X173400000Y-83647666D02*
X173433333Y-83614333D01*
X173433333Y-83614333D02*
X173500000Y-83581000D01*
X173500000Y-83581000D02*
X173666667Y-83581000D01*
X173666667Y-83581000D02*
X173733333Y-83614333D01*
X173733333Y-83614333D02*
X173766667Y-83647666D01*
X173766667Y-83647666D02*
X173800000Y-83714333D01*
X173800000Y-83714333D02*
X173800000Y-83881000D01*
X173800000Y-83881000D02*
X173766667Y-83947666D01*
X173766667Y-83947666D02*
X173733333Y-83981000D01*
X173733333Y-83981000D02*
X173666667Y-84014333D01*
X173666667Y-84014333D02*
X173500000Y-84014333D01*
X173500000Y-84014333D02*
X173433333Y-83981000D01*
X173433333Y-83981000D02*
X173400000Y-83947666D01*
X153000000Y-103914333D02*
X153066666Y-103914333D01*
X153066666Y-103914333D02*
X153133333Y-103947666D01*
X153133333Y-103947666D02*
X153166666Y-103981000D01*
X153166666Y-103981000D02*
X153200000Y-104047666D01*
X153200000Y-104047666D02*
X153233333Y-104181000D01*
X153233333Y-104181000D02*
X153233333Y-104347666D01*
X153233333Y-104347666D02*
X153200000Y-104481000D01*
X153200000Y-104481000D02*
X153166666Y-104547666D01*
X153166666Y-104547666D02*
X153133333Y-104581000D01*
X153133333Y-104581000D02*
X153066666Y-104614333D01*
X153066666Y-104614333D02*
X153000000Y-104614333D01*
X153000000Y-104614333D02*
X152933333Y-104581000D01*
X152933333Y-104581000D02*
X152900000Y-104547666D01*
X152900000Y-104547666D02*
X152866666Y-104481000D01*
X152866666Y-104481000D02*
X152833333Y-104347666D01*
X152833333Y-104347666D02*
X152833333Y-104181000D01*
X152833333Y-104181000D02*
X152866666Y-104047666D01*
X152866666Y-104047666D02*
X152900000Y-103981000D01*
X152900000Y-103981000D02*
X152933333Y-103947666D01*
X152933333Y-103947666D02*
X153000000Y-103914333D01*
X153533333Y-104547666D02*
X153566667Y-104581000D01*
X153566667Y-104581000D02*
X153533333Y-104614333D01*
X153533333Y-104614333D02*
X153500000Y-104581000D01*
X153500000Y-104581000D02*
X153533333Y-104547666D01*
X153533333Y-104547666D02*
X153533333Y-104614333D01*
X154233333Y-104614333D02*
X153833333Y-104614333D01*
X154033333Y-104614333D02*
X154033333Y-103914333D01*
X154033333Y-103914333D02*
X153966666Y-104014333D01*
X153966666Y-104014333D02*
X153900000Y-104081000D01*
X153900000Y-104081000D02*
X153833333Y-104114333D01*
X154833333Y-104147666D02*
X154833333Y-104614333D01*
X154533333Y-104147666D02*
X154533333Y-104514333D01*
X154533333Y-104514333D02*
X154566667Y-104581000D01*
X154566667Y-104581000D02*
X154633333Y-104614333D01*
X154633333Y-104614333D02*
X154733333Y-104614333D01*
X154733333Y-104614333D02*
X154800000Y-104581000D01*
X154800000Y-104581000D02*
X154833333Y-104547666D01*
X143033333Y-83114333D02*
X143366666Y-83114333D01*
X142966666Y-83314333D02*
X143200000Y-82614333D01*
X143200000Y-82614333D02*
X143433333Y-83314333D01*
X143666666Y-83314333D02*
X143666666Y-82614333D01*
X144366666Y-83314333D02*
X143966666Y-83314333D01*
X144166666Y-83314333D02*
X144166666Y-82614333D01*
X144166666Y-82614333D02*
X144099999Y-82714333D01*
X144099999Y-82714333D02*
X144033333Y-82781000D01*
X144033333Y-82781000D02*
X143966666Y-82814333D01*
X167166666Y-103014333D02*
X167400000Y-103714333D01*
X167400000Y-103714333D02*
X167633333Y-103014333D01*
X168266666Y-103647666D02*
X168233333Y-103681000D01*
X168233333Y-103681000D02*
X168133333Y-103714333D01*
X168133333Y-103714333D02*
X168066666Y-103714333D01*
X168066666Y-103714333D02*
X167966666Y-103681000D01*
X167966666Y-103681000D02*
X167900000Y-103614333D01*
X167900000Y-103614333D02*
X167866666Y-103547666D01*
X167866666Y-103547666D02*
X167833333Y-103414333D01*
X167833333Y-103414333D02*
X167833333Y-103314333D01*
X167833333Y-103314333D02*
X167866666Y-103181000D01*
X167866666Y-103181000D02*
X167900000Y-103114333D01*
X167900000Y-103114333D02*
X167966666Y-103047666D01*
X167966666Y-103047666D02*
X168066666Y-103014333D01*
X168066666Y-103014333D02*
X168133333Y-103014333D01*
X168133333Y-103014333D02*
X168233333Y-103047666D01*
X168233333Y-103047666D02*
X168266666Y-103081000D01*
X168966666Y-103647666D02*
X168933333Y-103681000D01*
X168933333Y-103681000D02*
X168833333Y-103714333D01*
X168833333Y-103714333D02*
X168766666Y-103714333D01*
X168766666Y-103714333D02*
X168666666Y-103681000D01*
X168666666Y-103681000D02*
X168600000Y-103614333D01*
X168600000Y-103614333D02*
X168566666Y-103547666D01*
X168566666Y-103547666D02*
X168533333Y-103414333D01*
X168533333Y-103414333D02*
X168533333Y-103314333D01*
X168533333Y-103314333D02*
X168566666Y-103181000D01*
X168566666Y-103181000D02*
X168600000Y-103114333D01*
X168600000Y-103114333D02*
X168666666Y-103047666D01*
X168666666Y-103047666D02*
X168766666Y-103014333D01*
X168766666Y-103014333D02*
X168833333Y-103014333D01*
X168833333Y-103014333D02*
X168933333Y-103047666D01*
X168933333Y-103047666D02*
X168966666Y-103081000D01*
X96833333Y-87414333D02*
X96433333Y-87414333D01*
X96633333Y-87414333D02*
X96633333Y-86714333D01*
X96633333Y-86714333D02*
X96566666Y-86814333D01*
X96566666Y-86814333D02*
X96500000Y-86881000D01*
X96500000Y-86881000D02*
X96433333Y-86914333D01*
X97133333Y-87414333D02*
X97133333Y-86714333D01*
X97200000Y-87147666D02*
X97400000Y-87414333D01*
X97400000Y-86947666D02*
X97133333Y-87214333D01*
X120114333Y-58200000D02*
X120114333Y-57766666D01*
X120114333Y-57766666D02*
X120381000Y-58000000D01*
X120381000Y-58000000D02*
X120381000Y-57900000D01*
X120381000Y-57900000D02*
X120414333Y-57833333D01*
X120414333Y-57833333D02*
X120447666Y-57800000D01*
X120447666Y-57800000D02*
X120514333Y-57766666D01*
X120514333Y-57766666D02*
X120681000Y-57766666D01*
X120681000Y-57766666D02*
X120747666Y-57800000D01*
X120747666Y-57800000D02*
X120781000Y-57833333D01*
X120781000Y-57833333D02*
X120814333Y-57900000D01*
X120814333Y-57900000D02*
X120814333Y-58100000D01*
X120814333Y-58100000D02*
X120781000Y-58166666D01*
X120781000Y-58166666D02*
X120747666Y-58200000D01*
X120114333Y-57533333D02*
X120114333Y-57099999D01*
X120114333Y-57099999D02*
X120381000Y-57333333D01*
X120381000Y-57333333D02*
X120381000Y-57233333D01*
X120381000Y-57233333D02*
X120414333Y-57166666D01*
X120414333Y-57166666D02*
X120447666Y-57133333D01*
X120447666Y-57133333D02*
X120514333Y-57099999D01*
X120514333Y-57099999D02*
X120681000Y-57099999D01*
X120681000Y-57099999D02*
X120747666Y-57133333D01*
X120747666Y-57133333D02*
X120781000Y-57166666D01*
X120781000Y-57166666D02*
X120814333Y-57233333D01*
X120814333Y-57233333D02*
X120814333Y-57433333D01*
X120814333Y-57433333D02*
X120781000Y-57499999D01*
X120781000Y-57499999D02*
X120747666Y-57533333D01*
X148414333Y-124333333D02*
X148081000Y-124566666D01*
X148414333Y-124733333D02*
X147714333Y-124733333D01*
X147714333Y-124733333D02*
X147714333Y-124466666D01*
X147714333Y-124466666D02*
X147747666Y-124400000D01*
X147747666Y-124400000D02*
X147781000Y-124366666D01*
X147781000Y-124366666D02*
X147847666Y-124333333D01*
X147847666Y-124333333D02*
X147947666Y-124333333D01*
X147947666Y-124333333D02*
X148014333Y-124366666D01*
X148014333Y-124366666D02*
X148047666Y-124400000D01*
X148047666Y-124400000D02*
X148081000Y-124466666D01*
X148081000Y-124466666D02*
X148081000Y-124733333D01*
X148414333Y-124033333D02*
X147714333Y-124033333D01*
X148047666Y-124033333D02*
X148047666Y-123633333D01*
X148414333Y-123633333D02*
X147714333Y-123633333D01*
X148214333Y-123333333D02*
X148214333Y-123000000D01*
X148414333Y-123400000D02*
X147714333Y-123166667D01*
X147714333Y-123166667D02*
X148414333Y-122933333D01*
X122933333Y-88414333D02*
X123266666Y-88414333D01*
X122866666Y-88614333D02*
X123100000Y-87914333D01*
X123100000Y-87914333D02*
X123333333Y-88614333D01*
X123700000Y-87914333D02*
X123833333Y-87914333D01*
X123833333Y-87914333D02*
X123900000Y-87947666D01*
X123900000Y-87947666D02*
X123966666Y-88014333D01*
X123966666Y-88014333D02*
X124000000Y-88147666D01*
X124000000Y-88147666D02*
X124000000Y-88381000D01*
X124000000Y-88381000D02*
X123966666Y-88514333D01*
X123966666Y-88514333D02*
X123900000Y-88581000D01*
X123900000Y-88581000D02*
X123833333Y-88614333D01*
X123833333Y-88614333D02*
X123700000Y-88614333D01*
X123700000Y-88614333D02*
X123633333Y-88581000D01*
X123633333Y-88581000D02*
X123566666Y-88514333D01*
X123566666Y-88514333D02*
X123533333Y-88381000D01*
X123533333Y-88381000D02*
X123533333Y-88147666D01*
X123533333Y-88147666D02*
X123566666Y-88014333D01*
X123566666Y-88014333D02*
X123633333Y-87947666D01*
X123633333Y-87947666D02*
X123700000Y-87914333D01*
X124266666Y-87981000D02*
X124299999Y-87947666D01*
X124299999Y-87947666D02*
X124366666Y-87914333D01*
X124366666Y-87914333D02*
X124533333Y-87914333D01*
X124533333Y-87914333D02*
X124599999Y-87947666D01*
X124599999Y-87947666D02*
X124633333Y-87981000D01*
X124633333Y-87981000D02*
X124666666Y-88047666D01*
X124666666Y-88047666D02*
X124666666Y-88114333D01*
X124666666Y-88114333D02*
X124633333Y-88214333D01*
X124633333Y-88214333D02*
X124233333Y-88614333D01*
X124233333Y-88614333D02*
X124666666Y-88614333D01*
X167500000Y-108314333D02*
X167166666Y-108314333D01*
X167166666Y-108314333D02*
X167133333Y-108647666D01*
X167133333Y-108647666D02*
X167166666Y-108614333D01*
X167166666Y-108614333D02*
X167233333Y-108581000D01*
X167233333Y-108581000D02*
X167400000Y-108581000D01*
X167400000Y-108581000D02*
X167466666Y-108614333D01*
X167466666Y-108614333D02*
X167500000Y-108647666D01*
X167500000Y-108647666D02*
X167533333Y-108714333D01*
X167533333Y-108714333D02*
X167533333Y-108881000D01*
X167533333Y-108881000D02*
X167500000Y-108947666D01*
X167500000Y-108947666D02*
X167466666Y-108981000D01*
X167466666Y-108981000D02*
X167400000Y-109014333D01*
X167400000Y-109014333D02*
X167233333Y-109014333D01*
X167233333Y-109014333D02*
X167166666Y-108981000D01*
X167166666Y-108981000D02*
X167133333Y-108947666D01*
X167733333Y-108314333D02*
X167966667Y-109014333D01*
X167966667Y-109014333D02*
X168200000Y-108314333D01*
X143300000Y-90347666D02*
X143400000Y-90381000D01*
X143400000Y-90381000D02*
X143433333Y-90414333D01*
X143433333Y-90414333D02*
X143466666Y-90481000D01*
X143466666Y-90481000D02*
X143466666Y-90581000D01*
X143466666Y-90581000D02*
X143433333Y-90647666D01*
X143433333Y-90647666D02*
X143400000Y-90681000D01*
X143400000Y-90681000D02*
X143333333Y-90714333D01*
X143333333Y-90714333D02*
X143066666Y-90714333D01*
X143066666Y-90714333D02*
X143066666Y-90014333D01*
X143066666Y-90014333D02*
X143300000Y-90014333D01*
X143300000Y-90014333D02*
X143366666Y-90047666D01*
X143366666Y-90047666D02*
X143400000Y-90081000D01*
X143400000Y-90081000D02*
X143433333Y-90147666D01*
X143433333Y-90147666D02*
X143433333Y-90214333D01*
X143433333Y-90214333D02*
X143400000Y-90281000D01*
X143400000Y-90281000D02*
X143366666Y-90314333D01*
X143366666Y-90314333D02*
X143300000Y-90347666D01*
X143300000Y-90347666D02*
X143066666Y-90347666D01*
X143766666Y-90714333D02*
X143766666Y-90014333D01*
X144066666Y-90081000D02*
X144099999Y-90047666D01*
X144099999Y-90047666D02*
X144166666Y-90014333D01*
X144166666Y-90014333D02*
X144333333Y-90014333D01*
X144333333Y-90014333D02*
X144399999Y-90047666D01*
X144399999Y-90047666D02*
X144433333Y-90081000D01*
X144433333Y-90081000D02*
X144466666Y-90147666D01*
X144466666Y-90147666D02*
X144466666Y-90214333D01*
X144466666Y-90214333D02*
X144433333Y-90314333D01*
X144433333Y-90314333D02*
X144033333Y-90714333D01*
X144033333Y-90714333D02*
X144466666Y-90714333D01*
X143200000Y-85114333D02*
X143633333Y-85114333D01*
X143633333Y-85114333D02*
X143400000Y-85381000D01*
X143400000Y-85381000D02*
X143500000Y-85381000D01*
X143500000Y-85381000D02*
X143566666Y-85414333D01*
X143566666Y-85414333D02*
X143600000Y-85447666D01*
X143600000Y-85447666D02*
X143633333Y-85514333D01*
X143633333Y-85514333D02*
X143633333Y-85681000D01*
X143633333Y-85681000D02*
X143600000Y-85747666D01*
X143600000Y-85747666D02*
X143566666Y-85781000D01*
X143566666Y-85781000D02*
X143500000Y-85814333D01*
X143500000Y-85814333D02*
X143300000Y-85814333D01*
X143300000Y-85814333D02*
X143233333Y-85781000D01*
X143233333Y-85781000D02*
X143200000Y-85747666D01*
X143866667Y-85347666D02*
X144033333Y-85814333D01*
X144033333Y-85814333D02*
X144200000Y-85347666D01*
X144400000Y-85114333D02*
X144833333Y-85114333D01*
X144833333Y-85114333D02*
X144600000Y-85381000D01*
X144600000Y-85381000D02*
X144700000Y-85381000D01*
X144700000Y-85381000D02*
X144766666Y-85414333D01*
X144766666Y-85414333D02*
X144800000Y-85447666D01*
X144800000Y-85447666D02*
X144833333Y-85514333D01*
X144833333Y-85514333D02*
X144833333Y-85681000D01*
X144833333Y-85681000D02*
X144800000Y-85747666D01*
X144800000Y-85747666D02*
X144766666Y-85781000D01*
X144766666Y-85781000D02*
X144700000Y-85814333D01*
X144700000Y-85814333D02*
X144500000Y-85814333D01*
X144500000Y-85814333D02*
X144433333Y-85781000D01*
X144433333Y-85781000D02*
X144400000Y-85747666D01*
X169433333Y-86814333D02*
X169033333Y-86814333D01*
X169233333Y-86814333D02*
X169233333Y-86114333D01*
X169233333Y-86114333D02*
X169166666Y-86214333D01*
X169166666Y-86214333D02*
X169100000Y-86281000D01*
X169100000Y-86281000D02*
X169033333Y-86314333D01*
X169733333Y-86814333D02*
X169733333Y-86114333D01*
X169800000Y-86547666D02*
X170000000Y-86814333D01*
X170000000Y-86347666D02*
X169733333Y-86614333D01*
X151180333Y-124233333D02*
X150847000Y-124466666D01*
X151180333Y-124633333D02*
X150480333Y-124633333D01*
X150480333Y-124633333D02*
X150480333Y-124366666D01*
X150480333Y-124366666D02*
X150513666Y-124300000D01*
X150513666Y-124300000D02*
X150547000Y-124266666D01*
X150547000Y-124266666D02*
X150613666Y-124233333D01*
X150613666Y-124233333D02*
X150713666Y-124233333D01*
X150713666Y-124233333D02*
X150780333Y-124266666D01*
X150780333Y-124266666D02*
X150813666Y-124300000D01*
X150813666Y-124300000D02*
X150847000Y-124366666D01*
X150847000Y-124366666D02*
X150847000Y-124633333D01*
X151180333Y-123933333D02*
X150480333Y-123933333D01*
X150813666Y-123933333D02*
X150813666Y-123533333D01*
X151180333Y-123533333D02*
X150480333Y-123533333D01*
X150813666Y-122966667D02*
X150847000Y-122866667D01*
X150847000Y-122866667D02*
X150880333Y-122833333D01*
X150880333Y-122833333D02*
X150947000Y-122800000D01*
X150947000Y-122800000D02*
X151047000Y-122800000D01*
X151047000Y-122800000D02*
X151113666Y-122833333D01*
X151113666Y-122833333D02*
X151147000Y-122866667D01*
X151147000Y-122866667D02*
X151180333Y-122933333D01*
X151180333Y-122933333D02*
X151180333Y-123200000D01*
X151180333Y-123200000D02*
X150480333Y-123200000D01*
X150480333Y-123200000D02*
X150480333Y-122966667D01*
X150480333Y-122966667D02*
X150513666Y-122900000D01*
X150513666Y-122900000D02*
X150547000Y-122866667D01*
X150547000Y-122866667D02*
X150613666Y-122833333D01*
X150613666Y-122833333D02*
X150680333Y-122833333D01*
X150680333Y-122833333D02*
X150747000Y-122866667D01*
X150747000Y-122866667D02*
X150780333Y-122900000D01*
X150780333Y-122900000D02*
X150813666Y-122966667D01*
X150813666Y-122966667D02*
X150813666Y-123200000D01*
X143433333Y-95647666D02*
X143366666Y-95614333D01*
X143366666Y-95614333D02*
X143266666Y-95614333D01*
X143266666Y-95614333D02*
X143166666Y-95647666D01*
X143166666Y-95647666D02*
X143100000Y-95714333D01*
X143100000Y-95714333D02*
X143066666Y-95781000D01*
X143066666Y-95781000D02*
X143033333Y-95914333D01*
X143033333Y-95914333D02*
X143033333Y-96014333D01*
X143033333Y-96014333D02*
X143066666Y-96147666D01*
X143066666Y-96147666D02*
X143100000Y-96214333D01*
X143100000Y-96214333D02*
X143166666Y-96281000D01*
X143166666Y-96281000D02*
X143266666Y-96314333D01*
X143266666Y-96314333D02*
X143333333Y-96314333D01*
X143333333Y-96314333D02*
X143433333Y-96281000D01*
X143433333Y-96281000D02*
X143466666Y-96247666D01*
X143466666Y-96247666D02*
X143466666Y-96014333D01*
X143466666Y-96014333D02*
X143333333Y-96014333D01*
X143766666Y-96314333D02*
X143766666Y-95614333D01*
X143766666Y-95614333D02*
X144166666Y-96314333D01*
X144166666Y-96314333D02*
X144166666Y-95614333D01*
X144499999Y-96314333D02*
X144499999Y-95614333D01*
X144499999Y-95614333D02*
X144666666Y-95614333D01*
X144666666Y-95614333D02*
X144766666Y-95647666D01*
X144766666Y-95647666D02*
X144833333Y-95714333D01*
X144833333Y-95714333D02*
X144866666Y-95781000D01*
X144866666Y-95781000D02*
X144899999Y-95914333D01*
X144899999Y-95914333D02*
X144899999Y-96014333D01*
X144899999Y-96014333D02*
X144866666Y-96147666D01*
X144866666Y-96147666D02*
X144833333Y-96214333D01*
X144833333Y-96214333D02*
X144766666Y-96281000D01*
X144766666Y-96281000D02*
X144666666Y-96314333D01*
X144666666Y-96314333D02*
X144499999Y-96314333D01*
X130514333Y-55966666D02*
X130514333Y-56366666D01*
X130514333Y-56166666D02*
X129814333Y-56166666D01*
X129814333Y-56166666D02*
X129914333Y-56233333D01*
X129914333Y-56233333D02*
X129981000Y-56300000D01*
X129981000Y-56300000D02*
X130014333Y-56366666D01*
X130514333Y-55666666D02*
X129814333Y-55666666D01*
X130247666Y-55599999D02*
X130514333Y-55399999D01*
X130047666Y-55399999D02*
X130314333Y-55666666D01*
X123033333Y-82847666D02*
X122966666Y-82814333D01*
X122966666Y-82814333D02*
X122866666Y-82814333D01*
X122866666Y-82814333D02*
X122766666Y-82847666D01*
X122766666Y-82847666D02*
X122700000Y-82914333D01*
X122700000Y-82914333D02*
X122666666Y-82981000D01*
X122666666Y-82981000D02*
X122633333Y-83114333D01*
X122633333Y-83114333D02*
X122633333Y-83214333D01*
X122633333Y-83214333D02*
X122666666Y-83347666D01*
X122666666Y-83347666D02*
X122700000Y-83414333D01*
X122700000Y-83414333D02*
X122766666Y-83481000D01*
X122766666Y-83481000D02*
X122866666Y-83514333D01*
X122866666Y-83514333D02*
X122933333Y-83514333D01*
X122933333Y-83514333D02*
X123033333Y-83481000D01*
X123033333Y-83481000D02*
X123066666Y-83447666D01*
X123066666Y-83447666D02*
X123066666Y-83214333D01*
X123066666Y-83214333D02*
X122933333Y-83214333D01*
X123366666Y-83514333D02*
X123366666Y-82814333D01*
X123366666Y-82814333D02*
X123766666Y-83514333D01*
X123766666Y-83514333D02*
X123766666Y-82814333D01*
X124099999Y-83514333D02*
X124099999Y-82814333D01*
X124099999Y-82814333D02*
X124266666Y-82814333D01*
X124266666Y-82814333D02*
X124366666Y-82847666D01*
X124366666Y-82847666D02*
X124433333Y-82914333D01*
X124433333Y-82914333D02*
X124466666Y-82981000D01*
X124466666Y-82981000D02*
X124499999Y-83114333D01*
X124499999Y-83114333D02*
X124499999Y-83214333D01*
X124499999Y-83214333D02*
X124466666Y-83347666D01*
X124466666Y-83347666D02*
X124433333Y-83414333D01*
X124433333Y-83414333D02*
X124366666Y-83481000D01*
X124366666Y-83481000D02*
X124266666Y-83514333D01*
X124266666Y-83514333D02*
X124099999Y-83514333D01*
X123100000Y-93147666D02*
X123200000Y-93181000D01*
X123200000Y-93181000D02*
X123233333Y-93214333D01*
X123233333Y-93214333D02*
X123266666Y-93281000D01*
X123266666Y-93281000D02*
X123266666Y-93381000D01*
X123266666Y-93381000D02*
X123233333Y-93447666D01*
X123233333Y-93447666D02*
X123200000Y-93481000D01*
X123200000Y-93481000D02*
X123133333Y-93514333D01*
X123133333Y-93514333D02*
X122866666Y-93514333D01*
X122866666Y-93514333D02*
X122866666Y-92814333D01*
X122866666Y-92814333D02*
X123100000Y-92814333D01*
X123100000Y-92814333D02*
X123166666Y-92847666D01*
X123166666Y-92847666D02*
X123200000Y-92881000D01*
X123200000Y-92881000D02*
X123233333Y-92947666D01*
X123233333Y-92947666D02*
X123233333Y-93014333D01*
X123233333Y-93014333D02*
X123200000Y-93081000D01*
X123200000Y-93081000D02*
X123166666Y-93114333D01*
X123166666Y-93114333D02*
X123100000Y-93147666D01*
X123100000Y-93147666D02*
X122866666Y-93147666D01*
X123700000Y-92814333D02*
X123833333Y-92814333D01*
X123833333Y-92814333D02*
X123900000Y-92847666D01*
X123900000Y-92847666D02*
X123966666Y-92914333D01*
X123966666Y-92914333D02*
X124000000Y-93047666D01*
X124000000Y-93047666D02*
X124000000Y-93281000D01*
X124000000Y-93281000D02*
X123966666Y-93414333D01*
X123966666Y-93414333D02*
X123900000Y-93481000D01*
X123900000Y-93481000D02*
X123833333Y-93514333D01*
X123833333Y-93514333D02*
X123700000Y-93514333D01*
X123700000Y-93514333D02*
X123633333Y-93481000D01*
X123633333Y-93481000D02*
X123566666Y-93414333D01*
X123566666Y-93414333D02*
X123533333Y-93281000D01*
X123533333Y-93281000D02*
X123533333Y-93047666D01*
X123533333Y-93047666D02*
X123566666Y-92914333D01*
X123566666Y-92914333D02*
X123633333Y-92847666D01*
X123633333Y-92847666D02*
X123700000Y-92814333D01*
X124666666Y-93514333D02*
X124266666Y-93514333D01*
X124466666Y-93514333D02*
X124466666Y-92814333D01*
X124466666Y-92814333D02*
X124399999Y-92914333D01*
X124399999Y-92914333D02*
X124333333Y-92981000D01*
X124333333Y-92981000D02*
X124266666Y-93014333D01*
X123133333Y-95447666D02*
X123066666Y-95414333D01*
X123066666Y-95414333D02*
X122966666Y-95414333D01*
X122966666Y-95414333D02*
X122866666Y-95447666D01*
X122866666Y-95447666D02*
X122800000Y-95514333D01*
X122800000Y-95514333D02*
X122766666Y-95581000D01*
X122766666Y-95581000D02*
X122733333Y-95714333D01*
X122733333Y-95714333D02*
X122733333Y-95814333D01*
X122733333Y-95814333D02*
X122766666Y-95947666D01*
X122766666Y-95947666D02*
X122800000Y-96014333D01*
X122800000Y-96014333D02*
X122866666Y-96081000D01*
X122866666Y-96081000D02*
X122966666Y-96114333D01*
X122966666Y-96114333D02*
X123033333Y-96114333D01*
X123033333Y-96114333D02*
X123133333Y-96081000D01*
X123133333Y-96081000D02*
X123166666Y-96047666D01*
X123166666Y-96047666D02*
X123166666Y-95814333D01*
X123166666Y-95814333D02*
X123033333Y-95814333D01*
X123466666Y-96114333D02*
X123466666Y-95414333D01*
X123466666Y-95414333D02*
X123866666Y-96114333D01*
X123866666Y-96114333D02*
X123866666Y-95414333D01*
X124199999Y-96114333D02*
X124199999Y-95414333D01*
X124199999Y-95414333D02*
X124366666Y-95414333D01*
X124366666Y-95414333D02*
X124466666Y-95447666D01*
X124466666Y-95447666D02*
X124533333Y-95514333D01*
X124533333Y-95514333D02*
X124566666Y-95581000D01*
X124566666Y-95581000D02*
X124599999Y-95714333D01*
X124599999Y-95714333D02*
X124599999Y-95814333D01*
X124599999Y-95814333D02*
X124566666Y-95947666D01*
X124566666Y-95947666D02*
X124533333Y-96014333D01*
X124533333Y-96014333D02*
X124466666Y-96081000D01*
X124466666Y-96081000D02*
X124366666Y-96114333D01*
X124366666Y-96114333D02*
X124199999Y-96114333D01*
X152800000Y-112614333D02*
X152866666Y-112614333D01*
X152866666Y-112614333D02*
X152933333Y-112647666D01*
X152933333Y-112647666D02*
X152966666Y-112681000D01*
X152966666Y-112681000D02*
X153000000Y-112747666D01*
X153000000Y-112747666D02*
X153033333Y-112881000D01*
X153033333Y-112881000D02*
X153033333Y-113047666D01*
X153033333Y-113047666D02*
X153000000Y-113181000D01*
X153000000Y-113181000D02*
X152966666Y-113247666D01*
X152966666Y-113247666D02*
X152933333Y-113281000D01*
X152933333Y-113281000D02*
X152866666Y-113314333D01*
X152866666Y-113314333D02*
X152800000Y-113314333D01*
X152800000Y-113314333D02*
X152733333Y-113281000D01*
X152733333Y-113281000D02*
X152700000Y-113247666D01*
X152700000Y-113247666D02*
X152666666Y-113181000D01*
X152666666Y-113181000D02*
X152633333Y-113047666D01*
X152633333Y-113047666D02*
X152633333Y-112881000D01*
X152633333Y-112881000D02*
X152666666Y-112747666D01*
X152666666Y-112747666D02*
X152700000Y-112681000D01*
X152700000Y-112681000D02*
X152733333Y-112647666D01*
X152733333Y-112647666D02*
X152800000Y-112614333D01*
X153333333Y-113247666D02*
X153366667Y-113281000D01*
X153366667Y-113281000D02*
X153333333Y-113314333D01*
X153333333Y-113314333D02*
X153300000Y-113281000D01*
X153300000Y-113281000D02*
X153333333Y-113247666D01*
X153333333Y-113247666D02*
X153333333Y-113314333D01*
X154033333Y-113314333D02*
X153633333Y-113314333D01*
X153833333Y-113314333D02*
X153833333Y-112614333D01*
X153833333Y-112614333D02*
X153766666Y-112714333D01*
X153766666Y-112714333D02*
X153700000Y-112781000D01*
X153700000Y-112781000D02*
X153633333Y-112814333D01*
X154633333Y-112847666D02*
X154633333Y-113314333D01*
X154333333Y-112847666D02*
X154333333Y-113214333D01*
X154333333Y-113214333D02*
X154366667Y-113281000D01*
X154366667Y-113281000D02*
X154433333Y-113314333D01*
X154433333Y-113314333D02*
X154533333Y-113314333D01*
X154533333Y-113314333D02*
X154600000Y-113281000D01*
X154600000Y-113281000D02*
X154633333Y-113247666D01*
X148414333Y-57366666D02*
X148414333Y-57766666D01*
X148414333Y-57566666D02*
X147714333Y-57566666D01*
X147714333Y-57566666D02*
X147814333Y-57633333D01*
X147814333Y-57633333D02*
X147881000Y-57700000D01*
X147881000Y-57700000D02*
X147914333Y-57766666D01*
X148414333Y-57066666D02*
X147714333Y-57066666D01*
X148147666Y-56999999D02*
X148414333Y-56799999D01*
X147947666Y-56799999D02*
X148214333Y-57066666D01*
X143133333Y-80814333D02*
X143466666Y-80814333D01*
X143066666Y-81014333D02*
X143300000Y-80314333D01*
X143300000Y-80314333D02*
X143533333Y-81014333D01*
X143766666Y-81014333D02*
X143766666Y-80314333D01*
X144066666Y-80381000D02*
X144099999Y-80347666D01*
X144099999Y-80347666D02*
X144166666Y-80314333D01*
X144166666Y-80314333D02*
X144333333Y-80314333D01*
X144333333Y-80314333D02*
X144399999Y-80347666D01*
X144399999Y-80347666D02*
X144433333Y-80381000D01*
X144433333Y-80381000D02*
X144466666Y-80447666D01*
X144466666Y-80447666D02*
X144466666Y-80514333D01*
X144466666Y-80514333D02*
X144433333Y-80614333D01*
X144433333Y-80614333D02*
X144033333Y-81014333D01*
X144033333Y-81014333D02*
X144466666Y-81014333D01*
X123466666Y-77914333D02*
X123700000Y-78614333D01*
X123700000Y-78614333D02*
X123933333Y-77914333D01*
X124166666Y-78614333D02*
X124166666Y-77914333D01*
X124166666Y-77914333D02*
X124400000Y-78414333D01*
X124400000Y-78414333D02*
X124633333Y-77914333D01*
X124633333Y-77914333D02*
X124633333Y-78614333D01*
X99814333Y-63766666D02*
X99814333Y-64166666D01*
X99814333Y-63966666D02*
X99114333Y-63966666D01*
X99114333Y-63966666D02*
X99214333Y-64033333D01*
X99214333Y-64033333D02*
X99281000Y-64100000D01*
X99281000Y-64100000D02*
X99314333Y-64166666D01*
X99814333Y-63466666D02*
X99114333Y-63466666D01*
X99547666Y-63399999D02*
X99814333Y-63199999D01*
X99347666Y-63199999D02*
X99614333Y-63466666D01*
X93400000Y-83814333D02*
X93866666Y-83814333D01*
X93866666Y-83814333D02*
X93566666Y-84514333D01*
X94466667Y-83814333D02*
X94133333Y-83814333D01*
X94133333Y-83814333D02*
X94100000Y-84147666D01*
X94100000Y-84147666D02*
X94133333Y-84114333D01*
X94133333Y-84114333D02*
X94200000Y-84081000D01*
X94200000Y-84081000D02*
X94366667Y-84081000D01*
X94366667Y-84081000D02*
X94433333Y-84114333D01*
X94433333Y-84114333D02*
X94466667Y-84147666D01*
X94466667Y-84147666D02*
X94500000Y-84214333D01*
X94500000Y-84214333D02*
X94500000Y-84381000D01*
X94500000Y-84381000D02*
X94466667Y-84447666D01*
X94466667Y-84447666D02*
X94433333Y-84481000D01*
X94433333Y-84481000D02*
X94366667Y-84514333D01*
X94366667Y-84514333D02*
X94200000Y-84514333D01*
X94200000Y-84514333D02*
X94133333Y-84481000D01*
X94133333Y-84481000D02*
X94100000Y-84447666D01*
X164633333Y-113847666D02*
X164566666Y-113814333D01*
X164566666Y-113814333D02*
X164466666Y-113814333D01*
X164466666Y-113814333D02*
X164366666Y-113847666D01*
X164366666Y-113847666D02*
X164300000Y-113914333D01*
X164300000Y-113914333D02*
X164266666Y-113981000D01*
X164266666Y-113981000D02*
X164233333Y-114114333D01*
X164233333Y-114114333D02*
X164233333Y-114214333D01*
X164233333Y-114214333D02*
X164266666Y-114347666D01*
X164266666Y-114347666D02*
X164300000Y-114414333D01*
X164300000Y-114414333D02*
X164366666Y-114481000D01*
X164366666Y-114481000D02*
X164466666Y-114514333D01*
X164466666Y-114514333D02*
X164533333Y-114514333D01*
X164533333Y-114514333D02*
X164633333Y-114481000D01*
X164633333Y-114481000D02*
X164666666Y-114447666D01*
X164666666Y-114447666D02*
X164666666Y-114214333D01*
X164666666Y-114214333D02*
X164533333Y-114214333D01*
X164966666Y-114514333D02*
X164966666Y-113814333D01*
X164966666Y-113814333D02*
X165366666Y-114514333D01*
X165366666Y-114514333D02*
X165366666Y-113814333D01*
X165699999Y-114514333D02*
X165699999Y-113814333D01*
X165699999Y-113814333D02*
X165866666Y-113814333D01*
X165866666Y-113814333D02*
X165966666Y-113847666D01*
X165966666Y-113847666D02*
X166033333Y-113914333D01*
X166033333Y-113914333D02*
X166066666Y-113981000D01*
X166066666Y-113981000D02*
X166099999Y-114114333D01*
X166099999Y-114114333D02*
X166099999Y-114214333D01*
X166099999Y-114214333D02*
X166066666Y-114347666D01*
X166066666Y-114347666D02*
X166033333Y-114414333D01*
X166033333Y-114414333D02*
X165966666Y-114481000D01*
X165966666Y-114481000D02*
X165866666Y-114514333D01*
X165866666Y-114514333D02*
X165699999Y-114514333D01*
X138114333Y-56400000D02*
X138114333Y-55966666D01*
X138114333Y-55966666D02*
X138381000Y-56200000D01*
X138381000Y-56200000D02*
X138381000Y-56100000D01*
X138381000Y-56100000D02*
X138414333Y-56033333D01*
X138414333Y-56033333D02*
X138447666Y-56000000D01*
X138447666Y-56000000D02*
X138514333Y-55966666D01*
X138514333Y-55966666D02*
X138681000Y-55966666D01*
X138681000Y-55966666D02*
X138747666Y-56000000D01*
X138747666Y-56000000D02*
X138781000Y-56033333D01*
X138781000Y-56033333D02*
X138814333Y-56100000D01*
X138814333Y-56100000D02*
X138814333Y-56300000D01*
X138814333Y-56300000D02*
X138781000Y-56366666D01*
X138781000Y-56366666D02*
X138747666Y-56400000D01*
X138114333Y-55733333D02*
X138114333Y-55299999D01*
X138114333Y-55299999D02*
X138381000Y-55533333D01*
X138381000Y-55533333D02*
X138381000Y-55433333D01*
X138381000Y-55433333D02*
X138414333Y-55366666D01*
X138414333Y-55366666D02*
X138447666Y-55333333D01*
X138447666Y-55333333D02*
X138514333Y-55299999D01*
X138514333Y-55299999D02*
X138681000Y-55299999D01*
X138681000Y-55299999D02*
X138747666Y-55333333D01*
X138747666Y-55333333D02*
X138781000Y-55366666D01*
X138781000Y-55366666D02*
X138814333Y-55433333D01*
X138814333Y-55433333D02*
X138814333Y-55633333D01*
X138814333Y-55633333D02*
X138781000Y-55699999D01*
X138781000Y-55699999D02*
X138747666Y-55733333D01*
X106066666Y-108914333D02*
X106300000Y-109614333D01*
X106300000Y-109614333D02*
X106533333Y-108914333D01*
X106766666Y-109347666D02*
X107300000Y-109347666D01*
X107033333Y-109614333D02*
X107033333Y-109081000D01*
X115247666Y-124266666D02*
X115214333Y-124333333D01*
X115214333Y-124333333D02*
X115214333Y-124433333D01*
X115214333Y-124433333D02*
X115247666Y-124533333D01*
X115247666Y-124533333D02*
X115314333Y-124600000D01*
X115314333Y-124600000D02*
X115381000Y-124633333D01*
X115381000Y-124633333D02*
X115514333Y-124666666D01*
X115514333Y-124666666D02*
X115614333Y-124666666D01*
X115614333Y-124666666D02*
X115747666Y-124633333D01*
X115747666Y-124633333D02*
X115814333Y-124600000D01*
X115814333Y-124600000D02*
X115881000Y-124533333D01*
X115881000Y-124533333D02*
X115914333Y-124433333D01*
X115914333Y-124433333D02*
X115914333Y-124366666D01*
X115914333Y-124366666D02*
X115881000Y-124266666D01*
X115881000Y-124266666D02*
X115847666Y-124233333D01*
X115847666Y-124233333D02*
X115614333Y-124233333D01*
X115614333Y-124233333D02*
X115614333Y-124366666D01*
X115914333Y-123933333D02*
X115214333Y-123933333D01*
X115214333Y-123933333D02*
X115914333Y-123533333D01*
X115914333Y-123533333D02*
X115214333Y-123533333D01*
X115914333Y-123200000D02*
X115214333Y-123200000D01*
X115214333Y-123200000D02*
X115214333Y-123033333D01*
X115214333Y-123033333D02*
X115247666Y-122933333D01*
X115247666Y-122933333D02*
X115314333Y-122866667D01*
X115314333Y-122866667D02*
X115381000Y-122833333D01*
X115381000Y-122833333D02*
X115514333Y-122800000D01*
X115514333Y-122800000D02*
X115614333Y-122800000D01*
X115614333Y-122800000D02*
X115747666Y-122833333D01*
X115747666Y-122833333D02*
X115814333Y-122866667D01*
X115814333Y-122866667D02*
X115881000Y-122933333D01*
X115881000Y-122933333D02*
X115914333Y-123033333D01*
X115914333Y-123033333D02*
X115914333Y-123200000D01*
X152914333Y-124800000D02*
X152914333Y-124366666D01*
X152914333Y-124366666D02*
X153181000Y-124600000D01*
X153181000Y-124600000D02*
X153181000Y-124500000D01*
X153181000Y-124500000D02*
X153214333Y-124433333D01*
X153214333Y-124433333D02*
X153247666Y-124400000D01*
X153247666Y-124400000D02*
X153314333Y-124366666D01*
X153314333Y-124366666D02*
X153481000Y-124366666D01*
X153481000Y-124366666D02*
X153547666Y-124400000D01*
X153547666Y-124400000D02*
X153581000Y-124433333D01*
X153581000Y-124433333D02*
X153614333Y-124500000D01*
X153614333Y-124500000D02*
X153614333Y-124700000D01*
X153614333Y-124700000D02*
X153581000Y-124766666D01*
X153581000Y-124766666D02*
X153547666Y-124800000D01*
X153147666Y-124133333D02*
X153614333Y-123966666D01*
X153614333Y-123966666D02*
X153147666Y-123799999D01*
X152914333Y-123600000D02*
X152914333Y-123166666D01*
X152914333Y-123166666D02*
X153181000Y-123400000D01*
X153181000Y-123400000D02*
X153181000Y-123300000D01*
X153181000Y-123300000D02*
X153214333Y-123233333D01*
X153214333Y-123233333D02*
X153247666Y-123200000D01*
X153247666Y-123200000D02*
X153314333Y-123166666D01*
X153314333Y-123166666D02*
X153481000Y-123166666D01*
X153481000Y-123166666D02*
X153547666Y-123200000D01*
X153547666Y-123200000D02*
X153581000Y-123233333D01*
X153581000Y-123233333D02*
X153614333Y-123300000D01*
X153614333Y-123300000D02*
X153614333Y-123500000D01*
X153614333Y-123500000D02*
X153581000Y-123566666D01*
X153581000Y-123566666D02*
X153547666Y-123600000D01*
X123000000Y-90547666D02*
X123100000Y-90581000D01*
X123100000Y-90581000D02*
X123133333Y-90614333D01*
X123133333Y-90614333D02*
X123166666Y-90681000D01*
X123166666Y-90681000D02*
X123166666Y-90781000D01*
X123166666Y-90781000D02*
X123133333Y-90847666D01*
X123133333Y-90847666D02*
X123100000Y-90881000D01*
X123100000Y-90881000D02*
X123033333Y-90914333D01*
X123033333Y-90914333D02*
X122766666Y-90914333D01*
X122766666Y-90914333D02*
X122766666Y-90214333D01*
X122766666Y-90214333D02*
X123000000Y-90214333D01*
X123000000Y-90214333D02*
X123066666Y-90247666D01*
X123066666Y-90247666D02*
X123100000Y-90281000D01*
X123100000Y-90281000D02*
X123133333Y-90347666D01*
X123133333Y-90347666D02*
X123133333Y-90414333D01*
X123133333Y-90414333D02*
X123100000Y-90481000D01*
X123100000Y-90481000D02*
X123066666Y-90514333D01*
X123066666Y-90514333D02*
X123000000Y-90547666D01*
X123000000Y-90547666D02*
X122766666Y-90547666D01*
X123600000Y-90214333D02*
X123733333Y-90214333D01*
X123733333Y-90214333D02*
X123800000Y-90247666D01*
X123800000Y-90247666D02*
X123866666Y-90314333D01*
X123866666Y-90314333D02*
X123900000Y-90447666D01*
X123900000Y-90447666D02*
X123900000Y-90681000D01*
X123900000Y-90681000D02*
X123866666Y-90814333D01*
X123866666Y-90814333D02*
X123800000Y-90881000D01*
X123800000Y-90881000D02*
X123733333Y-90914333D01*
X123733333Y-90914333D02*
X123600000Y-90914333D01*
X123600000Y-90914333D02*
X123533333Y-90881000D01*
X123533333Y-90881000D02*
X123466666Y-90814333D01*
X123466666Y-90814333D02*
X123433333Y-90681000D01*
X123433333Y-90681000D02*
X123433333Y-90447666D01*
X123433333Y-90447666D02*
X123466666Y-90314333D01*
X123466666Y-90314333D02*
X123533333Y-90247666D01*
X123533333Y-90247666D02*
X123600000Y-90214333D01*
X124166666Y-90281000D02*
X124199999Y-90247666D01*
X124199999Y-90247666D02*
X124266666Y-90214333D01*
X124266666Y-90214333D02*
X124433333Y-90214333D01*
X124433333Y-90214333D02*
X124499999Y-90247666D01*
X124499999Y-90247666D02*
X124533333Y-90281000D01*
X124533333Y-90281000D02*
X124566666Y-90347666D01*
X124566666Y-90347666D02*
X124566666Y-90414333D01*
X124566666Y-90414333D02*
X124533333Y-90514333D01*
X124533333Y-90514333D02*
X124133333Y-90914333D01*
X124133333Y-90914333D02*
X124566666Y-90914333D01*
X157914333Y-59000000D02*
X157914333Y-58566666D01*
X157914333Y-58566666D02*
X158181000Y-58800000D01*
X158181000Y-58800000D02*
X158181000Y-58700000D01*
X158181000Y-58700000D02*
X158214333Y-58633333D01*
X158214333Y-58633333D02*
X158247666Y-58600000D01*
X158247666Y-58600000D02*
X158314333Y-58566666D01*
X158314333Y-58566666D02*
X158481000Y-58566666D01*
X158481000Y-58566666D02*
X158547666Y-58600000D01*
X158547666Y-58600000D02*
X158581000Y-58633333D01*
X158581000Y-58633333D02*
X158614333Y-58700000D01*
X158614333Y-58700000D02*
X158614333Y-58900000D01*
X158614333Y-58900000D02*
X158581000Y-58966666D01*
X158581000Y-58966666D02*
X158547666Y-59000000D01*
X157914333Y-58333333D02*
X157914333Y-57899999D01*
X157914333Y-57899999D02*
X158181000Y-58133333D01*
X158181000Y-58133333D02*
X158181000Y-58033333D01*
X158181000Y-58033333D02*
X158214333Y-57966666D01*
X158214333Y-57966666D02*
X158247666Y-57933333D01*
X158247666Y-57933333D02*
X158314333Y-57899999D01*
X158314333Y-57899999D02*
X158481000Y-57899999D01*
X158481000Y-57899999D02*
X158547666Y-57933333D01*
X158547666Y-57933333D02*
X158581000Y-57966666D01*
X158581000Y-57966666D02*
X158614333Y-58033333D01*
X158614333Y-58033333D02*
X158614333Y-58233333D01*
X158614333Y-58233333D02*
X158581000Y-58299999D01*
X158581000Y-58299999D02*
X158547666Y-58333333D01*
X167633333Y-105547666D02*
X167566666Y-105514333D01*
X167566666Y-105514333D02*
X167466666Y-105514333D01*
X167466666Y-105514333D02*
X167366666Y-105547666D01*
X167366666Y-105547666D02*
X167300000Y-105614333D01*
X167300000Y-105614333D02*
X167266666Y-105681000D01*
X167266666Y-105681000D02*
X167233333Y-105814333D01*
X167233333Y-105814333D02*
X167233333Y-105914333D01*
X167233333Y-105914333D02*
X167266666Y-106047666D01*
X167266666Y-106047666D02*
X167300000Y-106114333D01*
X167300000Y-106114333D02*
X167366666Y-106181000D01*
X167366666Y-106181000D02*
X167466666Y-106214333D01*
X167466666Y-106214333D02*
X167533333Y-106214333D01*
X167533333Y-106214333D02*
X167633333Y-106181000D01*
X167633333Y-106181000D02*
X167666666Y-106147666D01*
X167666666Y-106147666D02*
X167666666Y-105914333D01*
X167666666Y-105914333D02*
X167533333Y-105914333D01*
X167966666Y-106214333D02*
X167966666Y-105514333D01*
X167966666Y-105514333D02*
X168366666Y-106214333D01*
X168366666Y-106214333D02*
X168366666Y-105514333D01*
X168699999Y-106214333D02*
X168699999Y-105514333D01*
X168699999Y-105514333D02*
X168866666Y-105514333D01*
X168866666Y-105514333D02*
X168966666Y-105547666D01*
X168966666Y-105547666D02*
X169033333Y-105614333D01*
X169033333Y-105614333D02*
X169066666Y-105681000D01*
X169066666Y-105681000D02*
X169099999Y-105814333D01*
X169099999Y-105814333D02*
X169099999Y-105914333D01*
X169099999Y-105914333D02*
X169066666Y-106047666D01*
X169066666Y-106047666D02*
X169033333Y-106114333D01*
X169033333Y-106114333D02*
X168966666Y-106181000D01*
X168966666Y-106181000D02*
X168866666Y-106214333D01*
X168866666Y-106214333D02*
X168699999Y-106214333D01*
X155647666Y-124400000D02*
X155681000Y-124300000D01*
X155681000Y-124300000D02*
X155714333Y-124266666D01*
X155714333Y-124266666D02*
X155781000Y-124233333D01*
X155781000Y-124233333D02*
X155881000Y-124233333D01*
X155881000Y-124233333D02*
X155947666Y-124266666D01*
X155947666Y-124266666D02*
X155981000Y-124300000D01*
X155981000Y-124300000D02*
X156014333Y-124366666D01*
X156014333Y-124366666D02*
X156014333Y-124633333D01*
X156014333Y-124633333D02*
X155314333Y-124633333D01*
X155314333Y-124633333D02*
X155314333Y-124400000D01*
X155314333Y-124400000D02*
X155347666Y-124333333D01*
X155347666Y-124333333D02*
X155381000Y-124300000D01*
X155381000Y-124300000D02*
X155447666Y-124266666D01*
X155447666Y-124266666D02*
X155514333Y-124266666D01*
X155514333Y-124266666D02*
X155581000Y-124300000D01*
X155581000Y-124300000D02*
X155614333Y-124333333D01*
X155614333Y-124333333D02*
X155647666Y-124400000D01*
X155647666Y-124400000D02*
X155647666Y-124633333D01*
X155314333Y-123800000D02*
X155314333Y-123666666D01*
X155314333Y-123666666D02*
X155347666Y-123600000D01*
X155347666Y-123600000D02*
X155414333Y-123533333D01*
X155414333Y-123533333D02*
X155547666Y-123500000D01*
X155547666Y-123500000D02*
X155781000Y-123500000D01*
X155781000Y-123500000D02*
X155914333Y-123533333D01*
X155914333Y-123533333D02*
X155981000Y-123600000D01*
X155981000Y-123600000D02*
X156014333Y-123666666D01*
X156014333Y-123666666D02*
X156014333Y-123800000D01*
X156014333Y-123800000D02*
X155981000Y-123866666D01*
X155981000Y-123866666D02*
X155914333Y-123933333D01*
X155914333Y-123933333D02*
X155781000Y-123966666D01*
X155781000Y-123966666D02*
X155547666Y-123966666D01*
X155547666Y-123966666D02*
X155414333Y-123933333D01*
X155414333Y-123933333D02*
X155347666Y-123866666D01*
X155347666Y-123866666D02*
X155314333Y-123800000D01*
X155381000Y-123233333D02*
X155347666Y-123200000D01*
X155347666Y-123200000D02*
X155314333Y-123133333D01*
X155314333Y-123133333D02*
X155314333Y-122966667D01*
X155314333Y-122966667D02*
X155347666Y-122900000D01*
X155347666Y-122900000D02*
X155381000Y-122866667D01*
X155381000Y-122866667D02*
X155447666Y-122833333D01*
X155447666Y-122833333D02*
X155514333Y-122833333D01*
X155514333Y-122833333D02*
X155614333Y-122866667D01*
X155614333Y-122866667D02*
X156014333Y-123266667D01*
X156014333Y-123266667D02*
X156014333Y-122833333D01*
X122814333Y-124600000D02*
X122814333Y-124166666D01*
X122814333Y-124166666D02*
X123081000Y-124400000D01*
X123081000Y-124400000D02*
X123081000Y-124300000D01*
X123081000Y-124300000D02*
X123114333Y-124233333D01*
X123114333Y-124233333D02*
X123147666Y-124200000D01*
X123147666Y-124200000D02*
X123214333Y-124166666D01*
X123214333Y-124166666D02*
X123381000Y-124166666D01*
X123381000Y-124166666D02*
X123447666Y-124200000D01*
X123447666Y-124200000D02*
X123481000Y-124233333D01*
X123481000Y-124233333D02*
X123514333Y-124300000D01*
X123514333Y-124300000D02*
X123514333Y-124500000D01*
X123514333Y-124500000D02*
X123481000Y-124566666D01*
X123481000Y-124566666D02*
X123447666Y-124600000D01*
X123047666Y-123933333D02*
X123514333Y-123766666D01*
X123514333Y-123766666D02*
X123047666Y-123599999D01*
X122814333Y-123400000D02*
X122814333Y-122966666D01*
X122814333Y-122966666D02*
X123081000Y-123200000D01*
X123081000Y-123200000D02*
X123081000Y-123100000D01*
X123081000Y-123100000D02*
X123114333Y-123033333D01*
X123114333Y-123033333D02*
X123147666Y-123000000D01*
X123147666Y-123000000D02*
X123214333Y-122966666D01*
X123214333Y-122966666D02*
X123381000Y-122966666D01*
X123381000Y-122966666D02*
X123447666Y-123000000D01*
X123447666Y-123000000D02*
X123481000Y-123033333D01*
X123481000Y-123033333D02*
X123514333Y-123100000D01*
X123514333Y-123100000D02*
X123514333Y-123300000D01*
X123514333Y-123300000D02*
X123481000Y-123366666D01*
X123481000Y-123366666D02*
X123447666Y-123400000D01*
X145347666Y-124366666D02*
X145314333Y-124433333D01*
X145314333Y-124433333D02*
X145314333Y-124533333D01*
X145314333Y-124533333D02*
X145347666Y-124633333D01*
X145347666Y-124633333D02*
X145414333Y-124700000D01*
X145414333Y-124700000D02*
X145481000Y-124733333D01*
X145481000Y-124733333D02*
X145614333Y-124766666D01*
X145614333Y-124766666D02*
X145714333Y-124766666D01*
X145714333Y-124766666D02*
X145847666Y-124733333D01*
X145847666Y-124733333D02*
X145914333Y-124700000D01*
X145914333Y-124700000D02*
X145981000Y-124633333D01*
X145981000Y-124633333D02*
X146014333Y-124533333D01*
X146014333Y-124533333D02*
X146014333Y-124466666D01*
X146014333Y-124466666D02*
X145981000Y-124366666D01*
X145981000Y-124366666D02*
X145947666Y-124333333D01*
X145947666Y-124333333D02*
X145714333Y-124333333D01*
X145714333Y-124333333D02*
X145714333Y-124466666D01*
X146014333Y-124033333D02*
X145314333Y-124033333D01*
X145314333Y-124033333D02*
X146014333Y-123633333D01*
X146014333Y-123633333D02*
X145314333Y-123633333D01*
X146014333Y-123300000D02*
X145314333Y-123300000D01*
X145314333Y-123300000D02*
X145314333Y-123133333D01*
X145314333Y-123133333D02*
X145347666Y-123033333D01*
X145347666Y-123033333D02*
X145414333Y-122966667D01*
X145414333Y-122966667D02*
X145481000Y-122933333D01*
X145481000Y-122933333D02*
X145614333Y-122900000D01*
X145614333Y-122900000D02*
X145714333Y-122900000D01*
X145714333Y-122900000D02*
X145847666Y-122933333D01*
X145847666Y-122933333D02*
X145914333Y-122966667D01*
X145914333Y-122966667D02*
X145981000Y-123033333D01*
X145981000Y-123033333D02*
X146014333Y-123133333D01*
X146014333Y-123133333D02*
X146014333Y-123300000D01*
X120914333Y-124200000D02*
X120914333Y-124533333D01*
X120914333Y-124533333D02*
X120214333Y-124533333D01*
X120914333Y-123966666D02*
X120214333Y-123966666D01*
X120547666Y-123966666D02*
X120547666Y-123566666D01*
X120914333Y-123566666D02*
X120214333Y-123566666D01*
X120547666Y-123000000D02*
X120581000Y-122900000D01*
X120581000Y-122900000D02*
X120614333Y-122866666D01*
X120614333Y-122866666D02*
X120681000Y-122833333D01*
X120681000Y-122833333D02*
X120781000Y-122833333D01*
X120781000Y-122833333D02*
X120847666Y-122866666D01*
X120847666Y-122866666D02*
X120881000Y-122900000D01*
X120881000Y-122900000D02*
X120914333Y-122966666D01*
X120914333Y-122966666D02*
X120914333Y-123233333D01*
X120914333Y-123233333D02*
X120214333Y-123233333D01*
X120214333Y-123233333D02*
X120214333Y-123000000D01*
X120214333Y-123000000D02*
X120247666Y-122933333D01*
X120247666Y-122933333D02*
X120281000Y-122900000D01*
X120281000Y-122900000D02*
X120347666Y-122866666D01*
X120347666Y-122866666D02*
X120414333Y-122866666D01*
X120414333Y-122866666D02*
X120481000Y-122900000D01*
X120481000Y-122900000D02*
X120514333Y-122933333D01*
X120514333Y-122933333D02*
X120547666Y-123000000D01*
X120547666Y-123000000D02*
X120547666Y-123233333D01*
X109514333Y-60900000D02*
X109514333Y-60466666D01*
X109514333Y-60466666D02*
X109781000Y-60700000D01*
X109781000Y-60700000D02*
X109781000Y-60600000D01*
X109781000Y-60600000D02*
X109814333Y-60533333D01*
X109814333Y-60533333D02*
X109847666Y-60500000D01*
X109847666Y-60500000D02*
X109914333Y-60466666D01*
X109914333Y-60466666D02*
X110081000Y-60466666D01*
X110081000Y-60466666D02*
X110147666Y-60500000D01*
X110147666Y-60500000D02*
X110181000Y-60533333D01*
X110181000Y-60533333D02*
X110214333Y-60600000D01*
X110214333Y-60600000D02*
X110214333Y-60800000D01*
X110214333Y-60800000D02*
X110181000Y-60866666D01*
X110181000Y-60866666D02*
X110147666Y-60900000D01*
X109514333Y-60233333D02*
X109514333Y-59799999D01*
X109514333Y-59799999D02*
X109781000Y-60033333D01*
X109781000Y-60033333D02*
X109781000Y-59933333D01*
X109781000Y-59933333D02*
X109814333Y-59866666D01*
X109814333Y-59866666D02*
X109847666Y-59833333D01*
X109847666Y-59833333D02*
X109914333Y-59799999D01*
X109914333Y-59799999D02*
X110081000Y-59799999D01*
X110081000Y-59799999D02*
X110147666Y-59833333D01*
X110147666Y-59833333D02*
X110181000Y-59866666D01*
X110181000Y-59866666D02*
X110214333Y-59933333D01*
X110214333Y-59933333D02*
X110214333Y-60133333D01*
X110214333Y-60133333D02*
X110181000Y-60199999D01*
X110181000Y-60199999D02*
X110147666Y-60233333D01*
X122933333Y-85914333D02*
X123266666Y-85914333D01*
X122866666Y-86114333D02*
X123100000Y-85414333D01*
X123100000Y-85414333D02*
X123333333Y-86114333D01*
X123700000Y-85414333D02*
X123833333Y-85414333D01*
X123833333Y-85414333D02*
X123900000Y-85447666D01*
X123900000Y-85447666D02*
X123966666Y-85514333D01*
X123966666Y-85514333D02*
X124000000Y-85647666D01*
X124000000Y-85647666D02*
X124000000Y-85881000D01*
X124000000Y-85881000D02*
X123966666Y-86014333D01*
X123966666Y-86014333D02*
X123900000Y-86081000D01*
X123900000Y-86081000D02*
X123833333Y-86114333D01*
X123833333Y-86114333D02*
X123700000Y-86114333D01*
X123700000Y-86114333D02*
X123633333Y-86081000D01*
X123633333Y-86081000D02*
X123566666Y-86014333D01*
X123566666Y-86014333D02*
X123533333Y-85881000D01*
X123533333Y-85881000D02*
X123533333Y-85647666D01*
X123533333Y-85647666D02*
X123566666Y-85514333D01*
X123566666Y-85514333D02*
X123633333Y-85447666D01*
X123633333Y-85447666D02*
X123700000Y-85414333D01*
X124666666Y-86114333D02*
X124266666Y-86114333D01*
X124466666Y-86114333D02*
X124466666Y-85414333D01*
X124466666Y-85414333D02*
X124399999Y-85514333D01*
X124399999Y-85514333D02*
X124333333Y-85581000D01*
X124333333Y-85581000D02*
X124266666Y-85614333D01*
X143747666Y-124500000D02*
X143781000Y-124400000D01*
X143781000Y-124400000D02*
X143814333Y-124366666D01*
X143814333Y-124366666D02*
X143881000Y-124333333D01*
X143881000Y-124333333D02*
X143981000Y-124333333D01*
X143981000Y-124333333D02*
X144047666Y-124366666D01*
X144047666Y-124366666D02*
X144081000Y-124400000D01*
X144081000Y-124400000D02*
X144114333Y-124466666D01*
X144114333Y-124466666D02*
X144114333Y-124733333D01*
X144114333Y-124733333D02*
X143414333Y-124733333D01*
X143414333Y-124733333D02*
X143414333Y-124500000D01*
X143414333Y-124500000D02*
X143447666Y-124433333D01*
X143447666Y-124433333D02*
X143481000Y-124400000D01*
X143481000Y-124400000D02*
X143547666Y-124366666D01*
X143547666Y-124366666D02*
X143614333Y-124366666D01*
X143614333Y-124366666D02*
X143681000Y-124400000D01*
X143681000Y-124400000D02*
X143714333Y-124433333D01*
X143714333Y-124433333D02*
X143747666Y-124500000D01*
X143747666Y-124500000D02*
X143747666Y-124733333D01*
X143414333Y-123900000D02*
X143414333Y-123766666D01*
X143414333Y-123766666D02*
X143447666Y-123700000D01*
X143447666Y-123700000D02*
X143514333Y-123633333D01*
X143514333Y-123633333D02*
X143647666Y-123600000D01*
X143647666Y-123600000D02*
X143881000Y-123600000D01*
X143881000Y-123600000D02*
X144014333Y-123633333D01*
X144014333Y-123633333D02*
X144081000Y-123700000D01*
X144081000Y-123700000D02*
X144114333Y-123766666D01*
X144114333Y-123766666D02*
X144114333Y-123900000D01*
X144114333Y-123900000D02*
X144081000Y-123966666D01*
X144081000Y-123966666D02*
X144014333Y-124033333D01*
X144014333Y-124033333D02*
X143881000Y-124066666D01*
X143881000Y-124066666D02*
X143647666Y-124066666D01*
X143647666Y-124066666D02*
X143514333Y-124033333D01*
X143514333Y-124033333D02*
X143447666Y-123966666D01*
X143447666Y-123966666D02*
X143414333Y-123900000D01*
X144114333Y-122933333D02*
X144114333Y-123333333D01*
X144114333Y-123133333D02*
X143414333Y-123133333D01*
X143414333Y-123133333D02*
X143514333Y-123200000D01*
X143514333Y-123200000D02*
X143581000Y-123266667D01*
X143581000Y-123266667D02*
X143614333Y-123333333D01*
X100066666Y-106014333D02*
X100300000Y-106714333D01*
X100300000Y-106714333D02*
X100533333Y-106014333D01*
X101166666Y-106647666D02*
X101133333Y-106681000D01*
X101133333Y-106681000D02*
X101033333Y-106714333D01*
X101033333Y-106714333D02*
X100966666Y-106714333D01*
X100966666Y-106714333D02*
X100866666Y-106681000D01*
X100866666Y-106681000D02*
X100800000Y-106614333D01*
X100800000Y-106614333D02*
X100766666Y-106547666D01*
X100766666Y-106547666D02*
X100733333Y-106414333D01*
X100733333Y-106414333D02*
X100733333Y-106314333D01*
X100733333Y-106314333D02*
X100766666Y-106181000D01*
X100766666Y-106181000D02*
X100800000Y-106114333D01*
X100800000Y-106114333D02*
X100866666Y-106047666D01*
X100866666Y-106047666D02*
X100966666Y-106014333D01*
X100966666Y-106014333D02*
X101033333Y-106014333D01*
X101033333Y-106014333D02*
X101133333Y-106047666D01*
X101133333Y-106047666D02*
X101166666Y-106081000D01*
X101866666Y-106647666D02*
X101833333Y-106681000D01*
X101833333Y-106681000D02*
X101733333Y-106714333D01*
X101733333Y-106714333D02*
X101666666Y-106714333D01*
X101666666Y-106714333D02*
X101566666Y-106681000D01*
X101566666Y-106681000D02*
X101500000Y-106614333D01*
X101500000Y-106614333D02*
X101466666Y-106547666D01*
X101466666Y-106547666D02*
X101433333Y-106414333D01*
X101433333Y-106414333D02*
X101433333Y-106314333D01*
X101433333Y-106314333D02*
X101466666Y-106181000D01*
X101466666Y-106181000D02*
X101500000Y-106114333D01*
X101500000Y-106114333D02*
X101566666Y-106047666D01*
X101566666Y-106047666D02*
X101666666Y-106014333D01*
X101666666Y-106014333D02*
X101733333Y-106014333D01*
X101733333Y-106014333D02*
X101833333Y-106047666D01*
X101833333Y-106047666D02*
X101866666Y-106081000D01*
X118514333Y-124200000D02*
X118514333Y-124533333D01*
X118514333Y-124533333D02*
X117814333Y-124533333D01*
X118514333Y-123966666D02*
X117814333Y-123966666D01*
X118147666Y-123966666D02*
X118147666Y-123566666D01*
X118514333Y-123566666D02*
X117814333Y-123566666D01*
X118314333Y-123266666D02*
X118314333Y-122933333D01*
X118514333Y-123333333D02*
X117814333Y-123100000D01*
X117814333Y-123100000D02*
X118514333Y-122866666D01*
X122133333Y-103514333D02*
X121733333Y-103514333D01*
X121933333Y-103514333D02*
X121933333Y-102814333D01*
X121933333Y-102814333D02*
X121866666Y-102914333D01*
X121866666Y-102914333D02*
X121800000Y-102981000D01*
X121800000Y-102981000D02*
X121733333Y-103014333D01*
X122566667Y-102814333D02*
X122633333Y-102814333D01*
X122633333Y-102814333D02*
X122700000Y-102847666D01*
X122700000Y-102847666D02*
X122733333Y-102881000D01*
X122733333Y-102881000D02*
X122766667Y-102947666D01*
X122766667Y-102947666D02*
X122800000Y-103081000D01*
X122800000Y-103081000D02*
X122800000Y-103247666D01*
X122800000Y-103247666D02*
X122766667Y-103381000D01*
X122766667Y-103381000D02*
X122733333Y-103447666D01*
X122733333Y-103447666D02*
X122700000Y-103481000D01*
X122700000Y-103481000D02*
X122633333Y-103514333D01*
X122633333Y-103514333D02*
X122566667Y-103514333D01*
X122566667Y-103514333D02*
X122500000Y-103481000D01*
X122500000Y-103481000D02*
X122466667Y-103447666D01*
X122466667Y-103447666D02*
X122433333Y-103381000D01*
X122433333Y-103381000D02*
X122400000Y-103247666D01*
X122400000Y-103247666D02*
X122400000Y-103081000D01*
X122400000Y-103081000D02*
X122433333Y-102947666D01*
X122433333Y-102947666D02*
X122466667Y-102881000D01*
X122466667Y-102881000D02*
X122500000Y-102847666D01*
X122500000Y-102847666D02*
X122566667Y-102814333D01*
X123100000Y-103514333D02*
X123100000Y-102814333D01*
X123166667Y-103247666D02*
X123366667Y-103514333D01*
X123366667Y-103047666D02*
X123100000Y-103314333D01*
X125814333Y-124766666D02*
X125814333Y-124433333D01*
X126014333Y-124833333D02*
X125314333Y-124600000D01*
X125314333Y-124600000D02*
X126014333Y-124366666D01*
X125314333Y-124000000D02*
X125314333Y-123866666D01*
X125314333Y-123866666D02*
X125347666Y-123800000D01*
X125347666Y-123800000D02*
X125414333Y-123733333D01*
X125414333Y-123733333D02*
X125547666Y-123700000D01*
X125547666Y-123700000D02*
X125781000Y-123700000D01*
X125781000Y-123700000D02*
X125914333Y-123733333D01*
X125914333Y-123733333D02*
X125981000Y-123800000D01*
X125981000Y-123800000D02*
X126014333Y-123866666D01*
X126014333Y-123866666D02*
X126014333Y-124000000D01*
X126014333Y-124000000D02*
X125981000Y-124066666D01*
X125981000Y-124066666D02*
X125914333Y-124133333D01*
X125914333Y-124133333D02*
X125781000Y-124166666D01*
X125781000Y-124166666D02*
X125547666Y-124166666D01*
X125547666Y-124166666D02*
X125414333Y-124133333D01*
X125414333Y-124133333D02*
X125347666Y-124066666D01*
X125347666Y-124066666D02*
X125314333Y-124000000D01*
X125381000Y-123433333D02*
X125347666Y-123400000D01*
X125347666Y-123400000D02*
X125314333Y-123333333D01*
X125314333Y-123333333D02*
X125314333Y-123166667D01*
X125314333Y-123166667D02*
X125347666Y-123100000D01*
X125347666Y-123100000D02*
X125381000Y-123066667D01*
X125381000Y-123066667D02*
X125447666Y-123033333D01*
X125447666Y-123033333D02*
X125514333Y-123033333D01*
X125514333Y-123033333D02*
X125614333Y-123066667D01*
X125614333Y-123066667D02*
X126014333Y-123466667D01*
X126014333Y-123466667D02*
X126014333Y-123033333D01*
X168914333Y-64266666D02*
X168914333Y-64666666D01*
X168914333Y-64466666D02*
X168214333Y-64466666D01*
X168214333Y-64466666D02*
X168314333Y-64533333D01*
X168314333Y-64533333D02*
X168381000Y-64600000D01*
X168381000Y-64600000D02*
X168414333Y-64666666D01*
X168914333Y-63966666D02*
X168214333Y-63966666D01*
X168647666Y-63899999D02*
X168914333Y-63699999D01*
X168447666Y-63699999D02*
X168714333Y-63966666D01*
X121733333Y-112581000D02*
X121766666Y-112547666D01*
X121766666Y-112547666D02*
X121833333Y-112514333D01*
X121833333Y-112514333D02*
X122000000Y-112514333D01*
X122000000Y-112514333D02*
X122066666Y-112547666D01*
X122066666Y-112547666D02*
X122100000Y-112581000D01*
X122100000Y-112581000D02*
X122133333Y-112647666D01*
X122133333Y-112647666D02*
X122133333Y-112714333D01*
X122133333Y-112714333D02*
X122100000Y-112814333D01*
X122100000Y-112814333D02*
X121700000Y-113214333D01*
X121700000Y-113214333D02*
X122133333Y-113214333D01*
X122566667Y-112514333D02*
X122633333Y-112514333D01*
X122633333Y-112514333D02*
X122700000Y-112547666D01*
X122700000Y-112547666D02*
X122733333Y-112581000D01*
X122733333Y-112581000D02*
X122766667Y-112647666D01*
X122766667Y-112647666D02*
X122800000Y-112781000D01*
X122800000Y-112781000D02*
X122800000Y-112947666D01*
X122800000Y-112947666D02*
X122766667Y-113081000D01*
X122766667Y-113081000D02*
X122733333Y-113147666D01*
X122733333Y-113147666D02*
X122700000Y-113181000D01*
X122700000Y-113181000D02*
X122633333Y-113214333D01*
X122633333Y-113214333D02*
X122566667Y-113214333D01*
X122566667Y-113214333D02*
X122500000Y-113181000D01*
X122500000Y-113181000D02*
X122466667Y-113147666D01*
X122466667Y-113147666D02*
X122433333Y-113081000D01*
X122433333Y-113081000D02*
X122400000Y-112947666D01*
X122400000Y-112947666D02*
X122400000Y-112781000D01*
X122400000Y-112781000D02*
X122433333Y-112647666D01*
X122433333Y-112647666D02*
X122466667Y-112581000D01*
X122466667Y-112581000D02*
X122500000Y-112547666D01*
X122500000Y-112547666D02*
X122566667Y-112514333D01*
X123100000Y-113214333D02*
X123100000Y-112514333D01*
X123166667Y-112947666D02*
X123366667Y-113214333D01*
X123366667Y-112747666D02*
X123100000Y-113014333D01*
X113014333Y-124866666D02*
X113014333Y-124533333D01*
X113214333Y-124933333D02*
X112514333Y-124700000D01*
X112514333Y-124700000D02*
X113214333Y-124466666D01*
X112514333Y-124100000D02*
X112514333Y-123966666D01*
X112514333Y-123966666D02*
X112547666Y-123900000D01*
X112547666Y-123900000D02*
X112614333Y-123833333D01*
X112614333Y-123833333D02*
X112747666Y-123800000D01*
X112747666Y-123800000D02*
X112981000Y-123800000D01*
X112981000Y-123800000D02*
X113114333Y-123833333D01*
X113114333Y-123833333D02*
X113181000Y-123900000D01*
X113181000Y-123900000D02*
X113214333Y-123966666D01*
X113214333Y-123966666D02*
X113214333Y-124100000D01*
X113214333Y-124100000D02*
X113181000Y-124166666D01*
X113181000Y-124166666D02*
X113114333Y-124233333D01*
X113114333Y-124233333D02*
X112981000Y-124266666D01*
X112981000Y-124266666D02*
X112747666Y-124266666D01*
X112747666Y-124266666D02*
X112614333Y-124233333D01*
X112614333Y-124233333D02*
X112547666Y-124166666D01*
X112547666Y-124166666D02*
X112514333Y-124100000D01*
X113214333Y-123133333D02*
X113214333Y-123533333D01*
X113214333Y-123333333D02*
X112514333Y-123333333D01*
X112514333Y-123333333D02*
X112614333Y-123400000D01*
X112614333Y-123400000D02*
X112681000Y-123466667D01*
X112681000Y-123466667D02*
X112714333Y-123533333D01*
D10*
%TO.C,R3*%
X122780119Y-57166666D02*
X122303928Y-57499999D01*
X122780119Y-57738094D02*
X121780119Y-57738094D01*
X121780119Y-57738094D02*
X121780119Y-57357142D01*
X121780119Y-57357142D02*
X121827738Y-57261904D01*
X121827738Y-57261904D02*
X121875357Y-57214285D01*
X121875357Y-57214285D02*
X121970595Y-57166666D01*
X121970595Y-57166666D02*
X122113452Y-57166666D01*
X122113452Y-57166666D02*
X122208690Y-57214285D01*
X122208690Y-57214285D02*
X122256309Y-57261904D01*
X122256309Y-57261904D02*
X122303928Y-57357142D01*
X122303928Y-57357142D02*
X122303928Y-57738094D01*
X121780119Y-56833332D02*
X121780119Y-56214285D01*
X121780119Y-56214285D02*
X122161071Y-56547618D01*
X122161071Y-56547618D02*
X122161071Y-56404761D01*
X122161071Y-56404761D02*
X122208690Y-56309523D01*
X122208690Y-56309523D02*
X122256309Y-56261904D01*
X122256309Y-56261904D02*
X122351547Y-56214285D01*
X122351547Y-56214285D02*
X122589642Y-56214285D01*
X122589642Y-56214285D02*
X122684880Y-56261904D01*
X122684880Y-56261904D02*
X122732500Y-56309523D01*
X122732500Y-56309523D02*
X122780119Y-56404761D01*
X122780119Y-56404761D02*
X122780119Y-56690475D01*
X122780119Y-56690475D02*
X122732500Y-56785713D01*
X122732500Y-56785713D02*
X122684880Y-56833332D01*
%TO.C,C2*%
X156050833Y-108114880D02*
X156003214Y-108162500D01*
X156003214Y-108162500D02*
X155860357Y-108210119D01*
X155860357Y-108210119D02*
X155765119Y-108210119D01*
X155765119Y-108210119D02*
X155622262Y-108162500D01*
X155622262Y-108162500D02*
X155527024Y-108067261D01*
X155527024Y-108067261D02*
X155479405Y-107972023D01*
X155479405Y-107972023D02*
X155431786Y-107781547D01*
X155431786Y-107781547D02*
X155431786Y-107638690D01*
X155431786Y-107638690D02*
X155479405Y-107448214D01*
X155479405Y-107448214D02*
X155527024Y-107352976D01*
X155527024Y-107352976D02*
X155622262Y-107257738D01*
X155622262Y-107257738D02*
X155765119Y-107210119D01*
X155765119Y-107210119D02*
X155860357Y-107210119D01*
X155860357Y-107210119D02*
X156003214Y-107257738D01*
X156003214Y-107257738D02*
X156050833Y-107305357D01*
X156431786Y-107305357D02*
X156479405Y-107257738D01*
X156479405Y-107257738D02*
X156574643Y-107210119D01*
X156574643Y-107210119D02*
X156812738Y-107210119D01*
X156812738Y-107210119D02*
X156907976Y-107257738D01*
X156907976Y-107257738D02*
X156955595Y-107305357D01*
X156955595Y-107305357D02*
X157003214Y-107400595D01*
X157003214Y-107400595D02*
X157003214Y-107495833D01*
X157003214Y-107495833D02*
X156955595Y-107638690D01*
X156955595Y-107638690D02*
X156384167Y-108210119D01*
X156384167Y-108210119D02*
X157003214Y-108210119D01*
%TO.C,R2*%
X102280119Y-63209166D02*
X101803928Y-63542499D01*
X102280119Y-63780594D02*
X101280119Y-63780594D01*
X101280119Y-63780594D02*
X101280119Y-63399642D01*
X101280119Y-63399642D02*
X101327738Y-63304404D01*
X101327738Y-63304404D02*
X101375357Y-63256785D01*
X101375357Y-63256785D02*
X101470595Y-63209166D01*
X101470595Y-63209166D02*
X101613452Y-63209166D01*
X101613452Y-63209166D02*
X101708690Y-63256785D01*
X101708690Y-63256785D02*
X101756309Y-63304404D01*
X101756309Y-63304404D02*
X101803928Y-63399642D01*
X101803928Y-63399642D02*
X101803928Y-63780594D01*
X101375357Y-62828213D02*
X101327738Y-62780594D01*
X101327738Y-62780594D02*
X101280119Y-62685356D01*
X101280119Y-62685356D02*
X101280119Y-62447261D01*
X101280119Y-62447261D02*
X101327738Y-62352023D01*
X101327738Y-62352023D02*
X101375357Y-62304404D01*
X101375357Y-62304404D02*
X101470595Y-62256785D01*
X101470595Y-62256785D02*
X101565833Y-62256785D01*
X101565833Y-62256785D02*
X101708690Y-62304404D01*
X101708690Y-62304404D02*
X102280119Y-62875832D01*
X102280119Y-62875832D02*
X102280119Y-62256785D01*
%TO.C,R7*%
X156789119Y-58552166D02*
X156312928Y-58885499D01*
X156789119Y-59123594D02*
X155789119Y-59123594D01*
X155789119Y-59123594D02*
X155789119Y-58742642D01*
X155789119Y-58742642D02*
X155836738Y-58647404D01*
X155836738Y-58647404D02*
X155884357Y-58599785D01*
X155884357Y-58599785D02*
X155979595Y-58552166D01*
X155979595Y-58552166D02*
X156122452Y-58552166D01*
X156122452Y-58552166D02*
X156217690Y-58599785D01*
X156217690Y-58599785D02*
X156265309Y-58647404D01*
X156265309Y-58647404D02*
X156312928Y-58742642D01*
X156312928Y-58742642D02*
X156312928Y-59123594D01*
X155789119Y-58218832D02*
X155789119Y-57552166D01*
X155789119Y-57552166D02*
X156789119Y-57980737D01*
%TO.C,U1*%
X125570888Y-110861978D02*
X126706147Y-110861978D01*
X126706147Y-110861978D02*
X126839707Y-110795198D01*
X126839707Y-110795198D02*
X126906487Y-110728418D01*
X126906487Y-110728418D02*
X126973266Y-110594858D01*
X126973266Y-110594858D02*
X126973266Y-110327739D01*
X126973266Y-110327739D02*
X126906487Y-110194179D01*
X126906487Y-110194179D02*
X126839707Y-110127399D01*
X126839707Y-110127399D02*
X126706147Y-110060619D01*
X126706147Y-110060619D02*
X125570888Y-110060619D01*
X126973266Y-108658241D02*
X126973266Y-109459600D01*
X126973266Y-109058920D02*
X125570888Y-109058920D01*
X125570888Y-109058920D02*
X125771228Y-109192480D01*
X125771228Y-109192480D02*
X125904788Y-109326040D01*
X125904788Y-109326040D02*
X125971568Y-109459600D01*
%TO.C,J1*%
X109790119Y-121175833D02*
X110504404Y-121175833D01*
X110504404Y-121175833D02*
X110647261Y-121223452D01*
X110647261Y-121223452D02*
X110742500Y-121318690D01*
X110742500Y-121318690D02*
X110790119Y-121461547D01*
X110790119Y-121461547D02*
X110790119Y-121556785D01*
X110790119Y-120175833D02*
X110790119Y-120747261D01*
X110790119Y-120461547D02*
X109790119Y-120461547D01*
X109790119Y-120461547D02*
X109932976Y-120556785D01*
X109932976Y-120556785D02*
X110028214Y-120652023D01*
X110028214Y-120652023D02*
X110075833Y-120747261D01*
D11*
%TO.C,U14*%
X132780119Y-88180594D02*
X133589642Y-88180594D01*
X133589642Y-88180594D02*
X133684880Y-88132975D01*
X133684880Y-88132975D02*
X133732500Y-88085356D01*
X133732500Y-88085356D02*
X133780119Y-87990118D01*
X133780119Y-87990118D02*
X133780119Y-87799642D01*
X133780119Y-87799642D02*
X133732500Y-87704404D01*
X133732500Y-87704404D02*
X133684880Y-87656785D01*
X133684880Y-87656785D02*
X133589642Y-87609166D01*
X133589642Y-87609166D02*
X132780119Y-87609166D01*
X133780119Y-86609166D02*
X133780119Y-87180594D01*
X133780119Y-86894880D02*
X132780119Y-86894880D01*
X132780119Y-86894880D02*
X132922976Y-86990118D01*
X132922976Y-86990118D02*
X133018214Y-87085356D01*
X133018214Y-87085356D02*
X133065833Y-87180594D01*
X133113452Y-85752023D02*
X133780119Y-85752023D01*
X132732500Y-85990118D02*
X133446785Y-86228213D01*
X133446785Y-86228213D02*
X133446785Y-85609166D01*
D10*
%TO.C,R10*%
X121874642Y-110805119D02*
X121541309Y-110328928D01*
X121303214Y-110805119D02*
X121303214Y-109805119D01*
X121303214Y-109805119D02*
X121684166Y-109805119D01*
X121684166Y-109805119D02*
X121779404Y-109852738D01*
X121779404Y-109852738D02*
X121827023Y-109900357D01*
X121827023Y-109900357D02*
X121874642Y-109995595D01*
X121874642Y-109995595D02*
X121874642Y-110138452D01*
X121874642Y-110138452D02*
X121827023Y-110233690D01*
X121827023Y-110233690D02*
X121779404Y-110281309D01*
X121779404Y-110281309D02*
X121684166Y-110328928D01*
X121684166Y-110328928D02*
X121303214Y-110328928D01*
X122827023Y-110805119D02*
X122255595Y-110805119D01*
X122541309Y-110805119D02*
X122541309Y-109805119D01*
X122541309Y-109805119D02*
X122446071Y-109947976D01*
X122446071Y-109947976D02*
X122350833Y-110043214D01*
X122350833Y-110043214D02*
X122255595Y-110090833D01*
X123446071Y-109805119D02*
X123541309Y-109805119D01*
X123541309Y-109805119D02*
X123636547Y-109852738D01*
X123636547Y-109852738D02*
X123684166Y-109900357D01*
X123684166Y-109900357D02*
X123731785Y-109995595D01*
X123731785Y-109995595D02*
X123779404Y-110186071D01*
X123779404Y-110186071D02*
X123779404Y-110424166D01*
X123779404Y-110424166D02*
X123731785Y-110614642D01*
X123731785Y-110614642D02*
X123684166Y-110709880D01*
X123684166Y-110709880D02*
X123636547Y-110757500D01*
X123636547Y-110757500D02*
X123541309Y-110805119D01*
X123541309Y-110805119D02*
X123446071Y-110805119D01*
X123446071Y-110805119D02*
X123350833Y-110757500D01*
X123350833Y-110757500D02*
X123303214Y-110709880D01*
X123303214Y-110709880D02*
X123255595Y-110614642D01*
X123255595Y-110614642D02*
X123207976Y-110424166D01*
X123207976Y-110424166D02*
X123207976Y-110186071D01*
X123207976Y-110186071D02*
X123255595Y-109995595D01*
X123255595Y-109995595D02*
X123303214Y-109900357D01*
X123303214Y-109900357D02*
X123350833Y-109852738D01*
X123350833Y-109852738D02*
X123446071Y-109805119D01*
%TO.C,J2*%
X166663327Y-70524665D02*
X166116152Y-70983799D01*
X166116152Y-70983799D02*
X165976108Y-71039148D01*
X165976108Y-71039148D02*
X165841934Y-71027409D01*
X165841934Y-71027409D02*
X165713629Y-70948583D01*
X165713629Y-70948583D02*
X165652411Y-70875627D01*
X166865851Y-70914188D02*
X166932938Y-70920058D01*
X166932938Y-70920058D02*
X167030634Y-70962405D01*
X167030634Y-70962405D02*
X167183679Y-71144797D01*
X167183679Y-71144797D02*
X167208418Y-71248362D01*
X167208418Y-71248362D02*
X167202549Y-71315450D01*
X167202549Y-71315450D02*
X167160201Y-71413146D01*
X167160201Y-71413146D02*
X167087244Y-71474364D01*
X167087244Y-71474364D02*
X166947201Y-71529712D01*
X166947201Y-71529712D02*
X166142154Y-71459280D01*
X166142154Y-71459280D02*
X166540070Y-71933498D01*
%TO.C,S2*%
X149086333Y-91523500D02*
X149286333Y-91590166D01*
X149286333Y-91590166D02*
X149619667Y-91590166D01*
X149619667Y-91590166D02*
X149753000Y-91523500D01*
X149753000Y-91523500D02*
X149819667Y-91456833D01*
X149819667Y-91456833D02*
X149886333Y-91323500D01*
X149886333Y-91323500D02*
X149886333Y-91190166D01*
X149886333Y-91190166D02*
X149819667Y-91056833D01*
X149819667Y-91056833D02*
X149753000Y-90990166D01*
X149753000Y-90990166D02*
X149619667Y-90923500D01*
X149619667Y-90923500D02*
X149353000Y-90856833D01*
X149353000Y-90856833D02*
X149219667Y-90790166D01*
X149219667Y-90790166D02*
X149153000Y-90723500D01*
X149153000Y-90723500D02*
X149086333Y-90590166D01*
X149086333Y-90590166D02*
X149086333Y-90456833D01*
X149086333Y-90456833D02*
X149153000Y-90323500D01*
X149153000Y-90323500D02*
X149219667Y-90256833D01*
X149219667Y-90256833D02*
X149353000Y-90190166D01*
X149353000Y-90190166D02*
X149686333Y-90190166D01*
X149686333Y-90190166D02*
X149886333Y-90256833D01*
X150419666Y-90323500D02*
X150486333Y-90256833D01*
X150486333Y-90256833D02*
X150619666Y-90190166D01*
X150619666Y-90190166D02*
X150953000Y-90190166D01*
X150953000Y-90190166D02*
X151086333Y-90256833D01*
X151086333Y-90256833D02*
X151153000Y-90323500D01*
X151153000Y-90323500D02*
X151219666Y-90456833D01*
X151219666Y-90456833D02*
X151219666Y-90590166D01*
X151219666Y-90590166D02*
X151153000Y-90790166D01*
X151153000Y-90790166D02*
X150353000Y-91590166D01*
X150353000Y-91590166D02*
X151219666Y-91590166D01*
%TO.C,R5*%
X137080119Y-55726666D02*
X136603928Y-56059999D01*
X137080119Y-56298094D02*
X136080119Y-56298094D01*
X136080119Y-56298094D02*
X136080119Y-55917142D01*
X136080119Y-55917142D02*
X136127738Y-55821904D01*
X136127738Y-55821904D02*
X136175357Y-55774285D01*
X136175357Y-55774285D02*
X136270595Y-55726666D01*
X136270595Y-55726666D02*
X136413452Y-55726666D01*
X136413452Y-55726666D02*
X136508690Y-55774285D01*
X136508690Y-55774285D02*
X136556309Y-55821904D01*
X136556309Y-55821904D02*
X136603928Y-55917142D01*
X136603928Y-55917142D02*
X136603928Y-56298094D01*
X136080119Y-54821904D02*
X136080119Y-55298094D01*
X136080119Y-55298094D02*
X136556309Y-55345713D01*
X136556309Y-55345713D02*
X136508690Y-55298094D01*
X136508690Y-55298094D02*
X136461071Y-55202856D01*
X136461071Y-55202856D02*
X136461071Y-54964761D01*
X136461071Y-54964761D02*
X136508690Y-54869523D01*
X136508690Y-54869523D02*
X136556309Y-54821904D01*
X136556309Y-54821904D02*
X136651547Y-54774285D01*
X136651547Y-54774285D02*
X136889642Y-54774285D01*
X136889642Y-54774285D02*
X136984880Y-54821904D01*
X136984880Y-54821904D02*
X137032500Y-54869523D01*
X137032500Y-54869523D02*
X137080119Y-54964761D01*
X137080119Y-54964761D02*
X137080119Y-55202856D01*
X137080119Y-55202856D02*
X137032500Y-55298094D01*
X137032500Y-55298094D02*
X136984880Y-55345713D01*
%TO.C,R4*%
X132980119Y-55766666D02*
X132503928Y-56099999D01*
X132980119Y-56338094D02*
X131980119Y-56338094D01*
X131980119Y-56338094D02*
X131980119Y-55957142D01*
X131980119Y-55957142D02*
X132027738Y-55861904D01*
X132027738Y-55861904D02*
X132075357Y-55814285D01*
X132075357Y-55814285D02*
X132170595Y-55766666D01*
X132170595Y-55766666D02*
X132313452Y-55766666D01*
X132313452Y-55766666D02*
X132408690Y-55814285D01*
X132408690Y-55814285D02*
X132456309Y-55861904D01*
X132456309Y-55861904D02*
X132503928Y-55957142D01*
X132503928Y-55957142D02*
X132503928Y-56338094D01*
X132313452Y-54909523D02*
X132980119Y-54909523D01*
X131932500Y-55147618D02*
X132646785Y-55385713D01*
X132646785Y-55385713D02*
X132646785Y-54766666D01*
D11*
%TO.C,U12*%
X143179405Y-103155119D02*
X143179405Y-103964642D01*
X143179405Y-103964642D02*
X143227024Y-104059880D01*
X143227024Y-104059880D02*
X143274643Y-104107500D01*
X143274643Y-104107500D02*
X143369881Y-104155119D01*
X143369881Y-104155119D02*
X143560357Y-104155119D01*
X143560357Y-104155119D02*
X143655595Y-104107500D01*
X143655595Y-104107500D02*
X143703214Y-104059880D01*
X143703214Y-104059880D02*
X143750833Y-103964642D01*
X143750833Y-103964642D02*
X143750833Y-103155119D01*
X144750833Y-104155119D02*
X144179405Y-104155119D01*
X144465119Y-104155119D02*
X144465119Y-103155119D01*
X144465119Y-103155119D02*
X144369881Y-103297976D01*
X144369881Y-103297976D02*
X144274643Y-103393214D01*
X144274643Y-103393214D02*
X144179405Y-103440833D01*
X145131786Y-103250357D02*
X145179405Y-103202738D01*
X145179405Y-103202738D02*
X145274643Y-103155119D01*
X145274643Y-103155119D02*
X145512738Y-103155119D01*
X145512738Y-103155119D02*
X145607976Y-103202738D01*
X145607976Y-103202738D02*
X145655595Y-103250357D01*
X145655595Y-103250357D02*
X145703214Y-103345595D01*
X145703214Y-103345595D02*
X145703214Y-103440833D01*
X145703214Y-103440833D02*
X145655595Y-103583690D01*
X145655595Y-103583690D02*
X145084167Y-104155119D01*
X145084167Y-104155119D02*
X145703214Y-104155119D01*
D10*
%TO.C,J4*%
X165146666Y-88882619D02*
X165146666Y-89596904D01*
X165146666Y-89596904D02*
X165099047Y-89739761D01*
X165099047Y-89739761D02*
X165003809Y-89835000D01*
X165003809Y-89835000D02*
X164860952Y-89882619D01*
X164860952Y-89882619D02*
X164765714Y-89882619D01*
X166051428Y-89215952D02*
X166051428Y-89882619D01*
X165813333Y-88835000D02*
X165575238Y-89549285D01*
X165575238Y-89549285D02*
X166194285Y-89549285D01*
%TO.C,R14*%
X166249892Y-81847408D02*
X166400413Y-81285971D01*
X165882585Y-81409668D02*
X166648629Y-80766881D01*
X166648629Y-80766881D02*
X166893501Y-81058707D01*
X166893501Y-81058707D02*
X166918240Y-81162273D01*
X166918240Y-81162273D02*
X166912371Y-81229360D01*
X166912371Y-81229360D02*
X166870023Y-81327056D01*
X166870023Y-81327056D02*
X166760588Y-81418883D01*
X166760588Y-81418883D02*
X166657023Y-81443623D01*
X166657023Y-81443623D02*
X166589936Y-81437753D01*
X166589936Y-81437753D02*
X166492239Y-81395406D01*
X166492239Y-81395406D02*
X166247368Y-81103579D01*
X166862071Y-82576974D02*
X166494764Y-82139235D01*
X166678417Y-82358104D02*
X167444462Y-81715317D01*
X167444462Y-81715317D02*
X167273809Y-81734187D01*
X167273809Y-81734187D02*
X167139634Y-81722448D01*
X167139634Y-81722448D02*
X167041938Y-81680101D01*
X167923728Y-82805059D02*
X167413032Y-83233584D01*
X168062510Y-82377796D02*
X167362290Y-82654538D01*
X167362290Y-82654538D02*
X167760207Y-83128756D01*
%TO.C,J5*%
X102266166Y-88857619D02*
X102266166Y-89571904D01*
X102266166Y-89571904D02*
X102218547Y-89714761D01*
X102218547Y-89714761D02*
X102123309Y-89810000D01*
X102123309Y-89810000D02*
X101980452Y-89857619D01*
X101980452Y-89857619D02*
X101885214Y-89857619D01*
X103218547Y-88857619D02*
X102742357Y-88857619D01*
X102742357Y-88857619D02*
X102694738Y-89333809D01*
X102694738Y-89333809D02*
X102742357Y-89286190D01*
X102742357Y-89286190D02*
X102837595Y-89238571D01*
X102837595Y-89238571D02*
X103075690Y-89238571D01*
X103075690Y-89238571D02*
X103170928Y-89286190D01*
X103170928Y-89286190D02*
X103218547Y-89333809D01*
X103218547Y-89333809D02*
X103266166Y-89429047D01*
X103266166Y-89429047D02*
X103266166Y-89667142D01*
X103266166Y-89667142D02*
X103218547Y-89762380D01*
X103218547Y-89762380D02*
X103170928Y-89810000D01*
X103170928Y-89810000D02*
X103075690Y-89857619D01*
X103075690Y-89857619D02*
X102837595Y-89857619D01*
X102837595Y-89857619D02*
X102742357Y-89810000D01*
X102742357Y-89810000D02*
X102694738Y-89762380D01*
%TO.C,J7*%
X139885119Y-121150833D02*
X140599404Y-121150833D01*
X140599404Y-121150833D02*
X140742261Y-121198452D01*
X140742261Y-121198452D02*
X140837500Y-121293690D01*
X140837500Y-121293690D02*
X140885119Y-121436547D01*
X140885119Y-121436547D02*
X140885119Y-121531785D01*
X139885119Y-120769880D02*
X139885119Y-120103214D01*
X139885119Y-120103214D02*
X140885119Y-120531785D01*
%TO.C,J3*%
X101481160Y-70697323D02*
X102028335Y-71156457D01*
X102028335Y-71156457D02*
X102107161Y-71284762D01*
X102107161Y-71284762D02*
X102118900Y-71418937D01*
X102118900Y-71418937D02*
X102063551Y-71558980D01*
X102063551Y-71558980D02*
X102002333Y-71631937D01*
X101726032Y-70405496D02*
X102123948Y-69931278D01*
X102123948Y-69931278D02*
X102201512Y-70431498D01*
X102201512Y-70431498D02*
X102293339Y-70322063D01*
X102293339Y-70322063D02*
X102391035Y-70279715D01*
X102391035Y-70279715D02*
X102458122Y-70273846D01*
X102458122Y-70273846D02*
X102561688Y-70298586D01*
X102561688Y-70298586D02*
X102744079Y-70451630D01*
X102744079Y-70451630D02*
X102786427Y-70549326D01*
X102786427Y-70549326D02*
X102792296Y-70616414D01*
X102792296Y-70616414D02*
X102767557Y-70719979D01*
X102767557Y-70719979D02*
X102583903Y-70938849D01*
X102583903Y-70938849D02*
X102486207Y-70981197D01*
X102486207Y-70981197D02*
X102419120Y-70987066D01*
%TO.C,C1*%
X156050833Y-109704880D02*
X156003214Y-109752500D01*
X156003214Y-109752500D02*
X155860357Y-109800119D01*
X155860357Y-109800119D02*
X155765119Y-109800119D01*
X155765119Y-109800119D02*
X155622262Y-109752500D01*
X155622262Y-109752500D02*
X155527024Y-109657261D01*
X155527024Y-109657261D02*
X155479405Y-109562023D01*
X155479405Y-109562023D02*
X155431786Y-109371547D01*
X155431786Y-109371547D02*
X155431786Y-109228690D01*
X155431786Y-109228690D02*
X155479405Y-109038214D01*
X155479405Y-109038214D02*
X155527024Y-108942976D01*
X155527024Y-108942976D02*
X155622262Y-108847738D01*
X155622262Y-108847738D02*
X155765119Y-108800119D01*
X155765119Y-108800119D02*
X155860357Y-108800119D01*
X155860357Y-108800119D02*
X156003214Y-108847738D01*
X156003214Y-108847738D02*
X156050833Y-108895357D01*
X157003214Y-109800119D02*
X156431786Y-109800119D01*
X156717500Y-109800119D02*
X156717500Y-108800119D01*
X156717500Y-108800119D02*
X156622262Y-108942976D01*
X156622262Y-108942976D02*
X156527024Y-109038214D01*
X156527024Y-109038214D02*
X156431786Y-109085833D01*
D11*
%TO.C,SW1*%
X100595000Y-109858332D02*
X100642619Y-109715475D01*
X100642619Y-109715475D02*
X100642619Y-109477380D01*
X100642619Y-109477380D02*
X100595000Y-109382142D01*
X100595000Y-109382142D02*
X100547380Y-109334523D01*
X100547380Y-109334523D02*
X100452142Y-109286904D01*
X100452142Y-109286904D02*
X100356904Y-109286904D01*
X100356904Y-109286904D02*
X100261666Y-109334523D01*
X100261666Y-109334523D02*
X100214047Y-109382142D01*
X100214047Y-109382142D02*
X100166428Y-109477380D01*
X100166428Y-109477380D02*
X100118809Y-109667856D01*
X100118809Y-109667856D02*
X100071190Y-109763094D01*
X100071190Y-109763094D02*
X100023571Y-109810713D01*
X100023571Y-109810713D02*
X99928333Y-109858332D01*
X99928333Y-109858332D02*
X99833095Y-109858332D01*
X99833095Y-109858332D02*
X99737857Y-109810713D01*
X99737857Y-109810713D02*
X99690238Y-109763094D01*
X99690238Y-109763094D02*
X99642619Y-109667856D01*
X99642619Y-109667856D02*
X99642619Y-109429761D01*
X99642619Y-109429761D02*
X99690238Y-109286904D01*
X99642619Y-108953570D02*
X100642619Y-108715475D01*
X100642619Y-108715475D02*
X99928333Y-108524999D01*
X99928333Y-108524999D02*
X100642619Y-108334523D01*
X100642619Y-108334523D02*
X99642619Y-108096428D01*
X100642619Y-107191666D02*
X100642619Y-107763094D01*
X100642619Y-107477380D02*
X99642619Y-107477380D01*
X99642619Y-107477380D02*
X99785476Y-107572618D01*
X99785476Y-107572618D02*
X99880714Y-107667856D01*
X99880714Y-107667856D02*
X99928333Y-107763094D01*
D10*
%TO.C,R6*%
X146880119Y-56809166D02*
X146403928Y-57142499D01*
X146880119Y-57380594D02*
X145880119Y-57380594D01*
X145880119Y-57380594D02*
X145880119Y-56999642D01*
X145880119Y-56999642D02*
X145927738Y-56904404D01*
X145927738Y-56904404D02*
X145975357Y-56856785D01*
X145975357Y-56856785D02*
X146070595Y-56809166D01*
X146070595Y-56809166D02*
X146213452Y-56809166D01*
X146213452Y-56809166D02*
X146308690Y-56856785D01*
X146308690Y-56856785D02*
X146356309Y-56904404D01*
X146356309Y-56904404D02*
X146403928Y-56999642D01*
X146403928Y-56999642D02*
X146403928Y-57380594D01*
X145880119Y-55952023D02*
X145880119Y-56142499D01*
X145880119Y-56142499D02*
X145927738Y-56237737D01*
X145927738Y-56237737D02*
X145975357Y-56285356D01*
X145975357Y-56285356D02*
X146118214Y-56380594D01*
X146118214Y-56380594D02*
X146308690Y-56428213D01*
X146308690Y-56428213D02*
X146689642Y-56428213D01*
X146689642Y-56428213D02*
X146784880Y-56380594D01*
X146784880Y-56380594D02*
X146832500Y-56332975D01*
X146832500Y-56332975D02*
X146880119Y-56237737D01*
X146880119Y-56237737D02*
X146880119Y-56047261D01*
X146880119Y-56047261D02*
X146832500Y-55952023D01*
X146832500Y-55952023D02*
X146784880Y-55904404D01*
X146784880Y-55904404D02*
X146689642Y-55856785D01*
X146689642Y-55856785D02*
X146451547Y-55856785D01*
X146451547Y-55856785D02*
X146356309Y-55904404D01*
X146356309Y-55904404D02*
X146308690Y-55952023D01*
X146308690Y-55952023D02*
X146261071Y-56047261D01*
X146261071Y-56047261D02*
X146261071Y-56237737D01*
X146261071Y-56237737D02*
X146308690Y-56332975D01*
X146308690Y-56332975D02*
X146356309Y-56380594D01*
X146356309Y-56380594D02*
X146451547Y-56428213D01*
%TO.C,C3*%
X158333333Y-98117380D02*
X158285714Y-98165000D01*
X158285714Y-98165000D02*
X158142857Y-98212619D01*
X158142857Y-98212619D02*
X158047619Y-98212619D01*
X158047619Y-98212619D02*
X157904762Y-98165000D01*
X157904762Y-98165000D02*
X157809524Y-98069761D01*
X157809524Y-98069761D02*
X157761905Y-97974523D01*
X157761905Y-97974523D02*
X157714286Y-97784047D01*
X157714286Y-97784047D02*
X157714286Y-97641190D01*
X157714286Y-97641190D02*
X157761905Y-97450714D01*
X157761905Y-97450714D02*
X157809524Y-97355476D01*
X157809524Y-97355476D02*
X157904762Y-97260238D01*
X157904762Y-97260238D02*
X158047619Y-97212619D01*
X158047619Y-97212619D02*
X158142857Y-97212619D01*
X158142857Y-97212619D02*
X158285714Y-97260238D01*
X158285714Y-97260238D02*
X158333333Y-97307857D01*
X158666667Y-97212619D02*
X159285714Y-97212619D01*
X159285714Y-97212619D02*
X158952381Y-97593571D01*
X158952381Y-97593571D02*
X159095238Y-97593571D01*
X159095238Y-97593571D02*
X159190476Y-97641190D01*
X159190476Y-97641190D02*
X159238095Y-97688809D01*
X159238095Y-97688809D02*
X159285714Y-97784047D01*
X159285714Y-97784047D02*
X159285714Y-98022142D01*
X159285714Y-98022142D02*
X159238095Y-98117380D01*
X159238095Y-98117380D02*
X159190476Y-98165000D01*
X159190476Y-98165000D02*
X159095238Y-98212619D01*
X159095238Y-98212619D02*
X158809524Y-98212619D01*
X158809524Y-98212619D02*
X158714286Y-98165000D01*
X158714286Y-98165000D02*
X158666667Y-98117380D01*
%TO.C,R12*%
X101258667Y-83232322D02*
X100679621Y-83181581D01*
X100891359Y-83670062D02*
X100125315Y-83027275D01*
X100125315Y-83027275D02*
X100370186Y-82735448D01*
X100370186Y-82735448D02*
X100467883Y-82693100D01*
X100467883Y-82693100D02*
X100534970Y-82687231D01*
X100534970Y-82687231D02*
X100638535Y-82711971D01*
X100638535Y-82711971D02*
X100747970Y-82803797D01*
X100747970Y-82803797D02*
X100790318Y-82901494D01*
X100790318Y-82901494D02*
X100796187Y-82968581D01*
X100796187Y-82968581D02*
X100771448Y-83072146D01*
X100771448Y-83072146D02*
X100526576Y-83363973D01*
X101870845Y-82502756D02*
X101503538Y-82940496D01*
X101687192Y-82721626D02*
X100921147Y-82078839D01*
X100921147Y-82078839D02*
X100969364Y-82243622D01*
X100969364Y-82243622D02*
X100981103Y-82377796D01*
X100981103Y-82377796D02*
X100956363Y-82481362D01*
X101422629Y-81629360D02*
X101416760Y-81562273D01*
X101416760Y-81562273D02*
X101441499Y-81458707D01*
X101441499Y-81458707D02*
X101594544Y-81276316D01*
X101594544Y-81276316D02*
X101692240Y-81233968D01*
X101692240Y-81233968D02*
X101759327Y-81228099D01*
X101759327Y-81228099D02*
X101862893Y-81252838D01*
X101862893Y-81252838D02*
X101935849Y-81314056D01*
X101935849Y-81314056D02*
X102014675Y-81442361D01*
X102014675Y-81442361D02*
X102085108Y-82247408D01*
X102085108Y-82247408D02*
X102483024Y-81773190D01*
%TO.C,R9*%
X98164755Y-79667539D02*
X97585710Y-79616798D01*
X97797448Y-80105279D02*
X97031404Y-79462491D01*
X97031404Y-79462491D02*
X97276275Y-79170665D01*
X97276275Y-79170665D02*
X97373971Y-79128317D01*
X97373971Y-79128317D02*
X97441059Y-79122448D01*
X97441059Y-79122448D02*
X97544624Y-79147187D01*
X97544624Y-79147187D02*
X97654059Y-79239014D01*
X97654059Y-79239014D02*
X97696407Y-79336710D01*
X97696407Y-79336710D02*
X97702276Y-79403797D01*
X97702276Y-79403797D02*
X97677536Y-79507363D01*
X97677536Y-79507363D02*
X97432665Y-79799189D01*
X98470845Y-79302756D02*
X98593280Y-79156843D01*
X98593280Y-79156843D02*
X98618020Y-79053277D01*
X98618020Y-79053277D02*
X98612151Y-78986190D01*
X98612151Y-78986190D02*
X98563933Y-78821407D01*
X98563933Y-78821407D02*
X98448629Y-78662492D01*
X98448629Y-78662492D02*
X98156803Y-78417621D01*
X98156803Y-78417621D02*
X98053237Y-78392881D01*
X98053237Y-78392881D02*
X97986150Y-78398751D01*
X97986150Y-78398751D02*
X97888454Y-78441098D01*
X97888454Y-78441098D02*
X97766018Y-78587012D01*
X97766018Y-78587012D02*
X97741278Y-78690577D01*
X97741278Y-78690577D02*
X97747148Y-78757664D01*
X97747148Y-78757664D02*
X97789496Y-78855361D01*
X97789496Y-78855361D02*
X97971887Y-79008405D01*
X97971887Y-79008405D02*
X98075453Y-79033145D01*
X98075453Y-79033145D02*
X98142540Y-79027276D01*
X98142540Y-79027276D02*
X98240236Y-78984928D01*
X98240236Y-78984928D02*
X98362672Y-78839015D01*
X98362672Y-78839015D02*
X98387411Y-78735449D01*
X98387411Y-78735449D02*
X98381542Y-78668362D01*
X98381542Y-78668362D02*
X98339194Y-78570666D01*
D11*
%TO.C,U13*%
X118555594Y-84479880D02*
X118555594Y-83670357D01*
X118555594Y-83670357D02*
X118507975Y-83575119D01*
X118507975Y-83575119D02*
X118460356Y-83527500D01*
X118460356Y-83527500D02*
X118365118Y-83479880D01*
X118365118Y-83479880D02*
X118174642Y-83479880D01*
X118174642Y-83479880D02*
X118079404Y-83527500D01*
X118079404Y-83527500D02*
X118031785Y-83575119D01*
X118031785Y-83575119D02*
X117984166Y-83670357D01*
X117984166Y-83670357D02*
X117984166Y-84479880D01*
X116984166Y-83479880D02*
X117555594Y-83479880D01*
X117269880Y-83479880D02*
X117269880Y-84479880D01*
X117269880Y-84479880D02*
X117365118Y-84337023D01*
X117365118Y-84337023D02*
X117460356Y-84241785D01*
X117460356Y-84241785D02*
X117555594Y-84194166D01*
X116650832Y-84479880D02*
X116031785Y-84479880D01*
X116031785Y-84479880D02*
X116365118Y-84098928D01*
X116365118Y-84098928D02*
X116222261Y-84098928D01*
X116222261Y-84098928D02*
X116127023Y-84051309D01*
X116127023Y-84051309D02*
X116079404Y-84003690D01*
X116079404Y-84003690D02*
X116031785Y-83908452D01*
X116031785Y-83908452D02*
X116031785Y-83670357D01*
X116031785Y-83670357D02*
X116079404Y-83575119D01*
X116079404Y-83575119D02*
X116127023Y-83527500D01*
X116127023Y-83527500D02*
X116222261Y-83479880D01*
X116222261Y-83479880D02*
X116507975Y-83479880D01*
X116507975Y-83479880D02*
X116603213Y-83527500D01*
X116603213Y-83527500D02*
X116650832Y-83575119D01*
D10*
%TO.C,J6*%
X162384166Y-111200119D02*
X162384166Y-111914404D01*
X162384166Y-111914404D02*
X162336547Y-112057261D01*
X162336547Y-112057261D02*
X162241309Y-112152500D01*
X162241309Y-112152500D02*
X162098452Y-112200119D01*
X162098452Y-112200119D02*
X162003214Y-112200119D01*
X163288928Y-111200119D02*
X163098452Y-111200119D01*
X163098452Y-111200119D02*
X163003214Y-111247738D01*
X163003214Y-111247738D02*
X162955595Y-111295357D01*
X162955595Y-111295357D02*
X162860357Y-111438214D01*
X162860357Y-111438214D02*
X162812738Y-111628690D01*
X162812738Y-111628690D02*
X162812738Y-112009642D01*
X162812738Y-112009642D02*
X162860357Y-112104880D01*
X162860357Y-112104880D02*
X162907976Y-112152500D01*
X162907976Y-112152500D02*
X163003214Y-112200119D01*
X163003214Y-112200119D02*
X163193690Y-112200119D01*
X163193690Y-112200119D02*
X163288928Y-112152500D01*
X163288928Y-112152500D02*
X163336547Y-112104880D01*
X163336547Y-112104880D02*
X163384166Y-112009642D01*
X163384166Y-112009642D02*
X163384166Y-111771547D01*
X163384166Y-111771547D02*
X163336547Y-111676309D01*
X163336547Y-111676309D02*
X163288928Y-111628690D01*
X163288928Y-111628690D02*
X163193690Y-111581071D01*
X163193690Y-111581071D02*
X163003214Y-111581071D01*
X163003214Y-111581071D02*
X162907976Y-111628690D01*
X162907976Y-111628690D02*
X162860357Y-111676309D01*
X162860357Y-111676309D02*
X162812738Y-111771547D01*
%TO.C,S1*%
X116255833Y-94638500D02*
X116455833Y-94705166D01*
X116455833Y-94705166D02*
X116789167Y-94705166D01*
X116789167Y-94705166D02*
X116922500Y-94638500D01*
X116922500Y-94638500D02*
X116989167Y-94571833D01*
X116989167Y-94571833D02*
X117055833Y-94438500D01*
X117055833Y-94438500D02*
X117055833Y-94305166D01*
X117055833Y-94305166D02*
X116989167Y-94171833D01*
X116989167Y-94171833D02*
X116922500Y-94105166D01*
X116922500Y-94105166D02*
X116789167Y-94038500D01*
X116789167Y-94038500D02*
X116522500Y-93971833D01*
X116522500Y-93971833D02*
X116389167Y-93905166D01*
X116389167Y-93905166D02*
X116322500Y-93838500D01*
X116322500Y-93838500D02*
X116255833Y-93705166D01*
X116255833Y-93705166D02*
X116255833Y-93571833D01*
X116255833Y-93571833D02*
X116322500Y-93438500D01*
X116322500Y-93438500D02*
X116389167Y-93371833D01*
X116389167Y-93371833D02*
X116522500Y-93305166D01*
X116522500Y-93305166D02*
X116855833Y-93305166D01*
X116855833Y-93305166D02*
X117055833Y-93371833D01*
X118389166Y-94705166D02*
X117589166Y-94705166D01*
X117989166Y-94705166D02*
X117989166Y-93305166D01*
X117989166Y-93305166D02*
X117855833Y-93505166D01*
X117855833Y-93505166D02*
X117722500Y-93638500D01*
X117722500Y-93638500D02*
X117589166Y-93705166D01*
%TO.C,R1*%
X112780119Y-59709166D02*
X112303928Y-60042499D01*
X112780119Y-60280594D02*
X111780119Y-60280594D01*
X111780119Y-60280594D02*
X111780119Y-59899642D01*
X111780119Y-59899642D02*
X111827738Y-59804404D01*
X111827738Y-59804404D02*
X111875357Y-59756785D01*
X111875357Y-59756785D02*
X111970595Y-59709166D01*
X111970595Y-59709166D02*
X112113452Y-59709166D01*
X112113452Y-59709166D02*
X112208690Y-59756785D01*
X112208690Y-59756785D02*
X112256309Y-59804404D01*
X112256309Y-59804404D02*
X112303928Y-59899642D01*
X112303928Y-59899642D02*
X112303928Y-60280594D01*
X112780119Y-58756785D02*
X112780119Y-59328213D01*
X112780119Y-59042499D02*
X111780119Y-59042499D01*
X111780119Y-59042499D02*
X111922976Y-59137737D01*
X111922976Y-59137737D02*
X112018214Y-59232975D01*
X112018214Y-59232975D02*
X112065833Y-59328213D01*
%TO.C,R8*%
X167180119Y-62309166D02*
X166703928Y-62642499D01*
X167180119Y-62880594D02*
X166180119Y-62880594D01*
X166180119Y-62880594D02*
X166180119Y-62499642D01*
X166180119Y-62499642D02*
X166227738Y-62404404D01*
X166227738Y-62404404D02*
X166275357Y-62356785D01*
X166275357Y-62356785D02*
X166370595Y-62309166D01*
X166370595Y-62309166D02*
X166513452Y-62309166D01*
X166513452Y-62309166D02*
X166608690Y-62356785D01*
X166608690Y-62356785D02*
X166656309Y-62404404D01*
X166656309Y-62404404D02*
X166703928Y-62499642D01*
X166703928Y-62499642D02*
X166703928Y-62880594D01*
X166608690Y-61737737D02*
X166561071Y-61832975D01*
X166561071Y-61832975D02*
X166513452Y-61880594D01*
X166513452Y-61880594D02*
X166418214Y-61928213D01*
X166418214Y-61928213D02*
X166370595Y-61928213D01*
X166370595Y-61928213D02*
X166275357Y-61880594D01*
X166275357Y-61880594D02*
X166227738Y-61832975D01*
X166227738Y-61832975D02*
X166180119Y-61737737D01*
X166180119Y-61737737D02*
X166180119Y-61547261D01*
X166180119Y-61547261D02*
X166227738Y-61452023D01*
X166227738Y-61452023D02*
X166275357Y-61404404D01*
X166275357Y-61404404D02*
X166370595Y-61356785D01*
X166370595Y-61356785D02*
X166418214Y-61356785D01*
X166418214Y-61356785D02*
X166513452Y-61404404D01*
X166513452Y-61404404D02*
X166561071Y-61452023D01*
X166561071Y-61452023D02*
X166608690Y-61547261D01*
X166608690Y-61547261D02*
X166608690Y-61737737D01*
X166608690Y-61737737D02*
X166656309Y-61832975D01*
X166656309Y-61832975D02*
X166703928Y-61880594D01*
X166703928Y-61880594D02*
X166799166Y-61928213D01*
X166799166Y-61928213D02*
X166989642Y-61928213D01*
X166989642Y-61928213D02*
X167084880Y-61880594D01*
X167084880Y-61880594D02*
X167132500Y-61832975D01*
X167132500Y-61832975D02*
X167180119Y-61737737D01*
X167180119Y-61737737D02*
X167180119Y-61547261D01*
X167180119Y-61547261D02*
X167132500Y-61452023D01*
X167132500Y-61452023D02*
X167084880Y-61404404D01*
X167084880Y-61404404D02*
X166989642Y-61356785D01*
X166989642Y-61356785D02*
X166799166Y-61356785D01*
X166799166Y-61356785D02*
X166703928Y-61404404D01*
X166703928Y-61404404D02*
X166656309Y-61452023D01*
X166656309Y-61452023D02*
X166608690Y-61547261D01*
%TO.C,R13*%
X169149892Y-78747407D02*
X169300413Y-78185970D01*
X168782585Y-78309667D02*
X169548629Y-77666880D01*
X169548629Y-77666880D02*
X169793501Y-77958706D01*
X169793501Y-77958706D02*
X169818240Y-78062272D01*
X169818240Y-78062272D02*
X169812371Y-78129359D01*
X169812371Y-78129359D02*
X169770023Y-78227055D01*
X169770023Y-78227055D02*
X169660588Y-78318882D01*
X169660588Y-78318882D02*
X169557023Y-78343622D01*
X169557023Y-78343622D02*
X169489936Y-78337752D01*
X169489936Y-78337752D02*
X169392239Y-78295405D01*
X169392239Y-78295405D02*
X169147368Y-78003578D01*
X169762071Y-79476973D02*
X169394764Y-79039234D01*
X169578417Y-79258103D02*
X170344462Y-78615316D01*
X170344462Y-78615316D02*
X170173809Y-78634186D01*
X170173809Y-78634186D02*
X170039634Y-78622447D01*
X170039634Y-78622447D02*
X169941938Y-78580100D01*
X170742378Y-79089534D02*
X171140294Y-79563752D01*
X171140294Y-79563752D02*
X170634205Y-79553275D01*
X170634205Y-79553275D02*
X170726032Y-79662710D01*
X170726032Y-79662710D02*
X170750771Y-79766276D01*
X170750771Y-79766276D02*
X170744902Y-79833363D01*
X170744902Y-79833363D02*
X170702554Y-79931059D01*
X170702554Y-79931059D02*
X170520163Y-80084104D01*
X170520163Y-80084104D02*
X170416597Y-80108843D01*
X170416597Y-80108843D02*
X170349510Y-80102974D01*
X170349510Y-80102974D02*
X170251814Y-80060626D01*
X170251814Y-80060626D02*
X170068160Y-79841756D01*
X170068160Y-79841756D02*
X170043421Y-79738191D01*
X170043421Y-79738191D02*
X170049290Y-79671104D01*
%TO.C,R11*%
X121774642Y-106105119D02*
X121441309Y-105628928D01*
X121203214Y-106105119D02*
X121203214Y-105105119D01*
X121203214Y-105105119D02*
X121584166Y-105105119D01*
X121584166Y-105105119D02*
X121679404Y-105152738D01*
X121679404Y-105152738D02*
X121727023Y-105200357D01*
X121727023Y-105200357D02*
X121774642Y-105295595D01*
X121774642Y-105295595D02*
X121774642Y-105438452D01*
X121774642Y-105438452D02*
X121727023Y-105533690D01*
X121727023Y-105533690D02*
X121679404Y-105581309D01*
X121679404Y-105581309D02*
X121584166Y-105628928D01*
X121584166Y-105628928D02*
X121203214Y-105628928D01*
X122727023Y-106105119D02*
X122155595Y-106105119D01*
X122441309Y-106105119D02*
X122441309Y-105105119D01*
X122441309Y-105105119D02*
X122346071Y-105247976D01*
X122346071Y-105247976D02*
X122250833Y-105343214D01*
X122250833Y-105343214D02*
X122155595Y-105390833D01*
X123679404Y-106105119D02*
X123107976Y-106105119D01*
X123393690Y-106105119D02*
X123393690Y-105105119D01*
X123393690Y-105105119D02*
X123298452Y-105247976D01*
X123298452Y-105247976D02*
X123203214Y-105343214D01*
X123203214Y-105343214D02*
X123107976Y-105390833D01*
D12*
%TO.C,\u4E09\u7AEF\u5B501*%
X161635026Y-109017500D02*
X161635026Y-107687024D01*
X162239788Y-108896547D02*
X162239788Y-107807976D01*
X162905026Y-109138452D02*
X162905026Y-107566071D01*
X161816454Y-107263690D02*
X161816454Y-106719404D01*
X161876930Y-106537976D02*
X161876930Y-105751785D01*
X162058359Y-106658928D02*
X162058359Y-105691309D01*
X161514073Y-106961309D02*
X161816454Y-106961309D01*
X162300264Y-106598452D02*
X162905026Y-106598452D01*
X161574550Y-106537976D02*
X161876930Y-106537976D01*
X162300264Y-106296071D02*
X162905026Y-106296071D01*
X162058359Y-106175119D02*
X162300264Y-106235595D01*
X161453597Y-106175119D02*
X161876930Y-106175119D01*
X162300264Y-105993690D02*
X162905026Y-105993690D01*
X161574550Y-105751785D02*
X161876930Y-105751785D01*
X161937407Y-106840357D02*
X162602645Y-106900833D01*
X162542169Y-106719404D02*
X162663121Y-107263690D01*
X161937407Y-107142738D02*
X162481692Y-107082262D01*
X162300264Y-106598452D02*
X162300264Y-105751785D01*
X162300264Y-105751785D02*
X162905026Y-105751785D01*
X162905026Y-105751785D02*
X162905026Y-105812262D01*
X162239788Y-105388928D02*
X162239788Y-103816547D01*
X162905026Y-104965595D02*
X162905026Y-104602738D01*
X161937407Y-104602738D02*
X162905026Y-104602738D01*
X161635026Y-105207500D02*
X161635026Y-103997976D01*
X161635026Y-103997976D02*
X161755978Y-104179404D01*
X161755978Y-104179404D02*
X161937407Y-104602738D01*
X162905026Y-102667499D02*
X162905026Y-103393214D01*
X162905026Y-103030357D02*
X161635026Y-103030357D01*
X161635026Y-103030357D02*
X161816454Y-103151309D01*
X161816454Y-103151309D02*
X161937407Y-103272261D01*
X161937407Y-103272261D02*
X161997883Y-103393214D01*
D13*
%TO.C,R3*%
X121047500Y-60080000D02*
X121047500Y-53540000D01*
X121377500Y-60080000D02*
X121047500Y-60080000D01*
X123457500Y-60080000D02*
X123787500Y-60080000D01*
X123787500Y-60080000D02*
X123787500Y-53540000D01*
X121047500Y-53540000D02*
X121377500Y-53540000D01*
X123787500Y-53540000D02*
X123457500Y-53540000D01*
%TO.C,C2*%
X157547500Y-106747500D02*
X156217500Y-106747500D01*
X157547500Y-105417500D02*
X157547500Y-106747500D01*
X157547500Y-104147500D02*
X157547500Y-101547500D01*
X157547500Y-104147500D02*
X154887500Y-104147500D01*
X157547500Y-101547500D02*
X154887500Y-101547500D01*
X154887500Y-104147500D02*
X154887500Y-101547500D01*
%TO.C,R2*%
X100447500Y-66312500D02*
X100447500Y-59772500D01*
X100777500Y-66312500D02*
X100447500Y-66312500D01*
X102857500Y-66312500D02*
X103187500Y-66312500D01*
X103187500Y-66312500D02*
X103187500Y-59772500D01*
X100447500Y-59772500D02*
X100777500Y-59772500D01*
X103187500Y-59772500D02*
X102857500Y-59772500D01*
%TO.C,R7*%
X154847500Y-61812500D02*
X154847500Y-55272500D01*
X155177500Y-61812500D02*
X154847500Y-61812500D01*
X157257500Y-61812500D02*
X157587500Y-61812500D01*
X157587500Y-61812500D02*
X157587500Y-55272500D01*
X154847500Y-55272500D02*
X155177500Y-55272500D01*
X157587500Y-55272500D02*
X157257500Y-55272500D01*
D14*
%TO.C,U1*%
X108672500Y-117412500D02*
X108672500Y-98872500D01*
X158962500Y-117412500D02*
X108672500Y-117412500D01*
X108672500Y-98872500D02*
X158962500Y-98872500D01*
X158962500Y-98872500D02*
X158962500Y-117412500D01*
D15*
X116237500Y-118302500D02*
G75*
G03*
X116237500Y-118302500I-200000J0D01*
G01*
D13*
%TO.C,J1*%
X114367500Y-122172500D02*
X127127500Y-122172500D01*
X114367500Y-122172500D02*
X114367500Y-119512500D01*
X127127500Y-122172500D02*
X127127500Y-119512500D01*
X111767500Y-120842500D02*
X111767500Y-119512500D01*
X111767500Y-119512500D02*
X113097500Y-119512500D01*
X114367500Y-119512500D02*
X127127500Y-119512500D01*
D11*
%TO.C,U14*%
X124817500Y-97442500D02*
X142817500Y-97442500D01*
X142817500Y-97442500D02*
X142817500Y-76442500D01*
X142817500Y-76442500D02*
X124817500Y-76442500D01*
X124817500Y-76442500D02*
X124817500Y-97442500D01*
X131277500Y-90752500D02*
X136357500Y-90752500D01*
X136357500Y-90752500D02*
X136357500Y-83132500D01*
X136357500Y-83132500D02*
X131277500Y-83132500D01*
X131277500Y-83132500D02*
X131277500Y-90752500D01*
X131277500Y-80592500D02*
X135087500Y-80592500D01*
X135087500Y-80592500D02*
X135087500Y-78052500D01*
X135087500Y-78052500D02*
X131277500Y-78052500D01*
X131277500Y-78052500D02*
X131277500Y-80592500D01*
D13*
%TO.C,R10*%
X125487500Y-112212500D02*
X118947500Y-112212500D01*
X125487500Y-111882500D02*
X125487500Y-112212500D01*
X125487500Y-109802500D02*
X125487500Y-109472500D01*
X125487500Y-109472500D02*
X118947500Y-109472500D01*
X118947500Y-112212500D02*
X118947500Y-111882500D01*
X118947500Y-109472500D02*
X118947500Y-109802500D01*
%TO.C,J2*%
X164028640Y-69776508D02*
X164883547Y-70795347D01*
X163009800Y-70631416D02*
X164028640Y-69776508D01*
X162036924Y-71447756D02*
X158099456Y-74751684D01*
X162036924Y-71447756D02*
X163708172Y-73439472D01*
X158099456Y-74751684D02*
X161441951Y-78735116D01*
X165699887Y-71768224D02*
X167371135Y-73759939D01*
X163708172Y-73439472D02*
X165699887Y-71768224D01*
X167371135Y-73759939D02*
X161441951Y-78735116D01*
D14*
%TO.C,S2*%
X147153000Y-92760000D02*
X147153000Y-95125000D01*
X147970500Y-90942500D02*
X152335500Y-90942500D01*
X147970500Y-96942500D02*
X152335500Y-96942500D01*
X153153000Y-92760000D02*
X153153000Y-95125000D01*
D16*
X145503000Y-96192500D02*
G75*
G03*
X145503000Y-96192500I-100000J0D01*
G01*
D13*
%TO.C,R5*%
X135147500Y-58830000D02*
X135147500Y-52290000D01*
X135477500Y-58830000D02*
X135147500Y-58830000D01*
X137557500Y-58830000D02*
X137887500Y-58830000D01*
X137887500Y-58830000D02*
X137887500Y-52290000D01*
X135147500Y-52290000D02*
X135477500Y-52290000D01*
X137887500Y-52290000D02*
X137557500Y-52290000D01*
%TO.C,R4*%
X130947500Y-58770000D02*
X130947500Y-52230000D01*
X131277500Y-58770000D02*
X130947500Y-58770000D01*
X133357500Y-58770000D02*
X133687500Y-58770000D01*
X133687500Y-58770000D02*
X133687500Y-52230000D01*
X130947500Y-52230000D02*
X131277500Y-52230000D01*
X133687500Y-52230000D02*
X133357500Y-52230000D01*
D11*
%TO.C,U12*%
X137417500Y-103242500D02*
X151417500Y-103242500D01*
X151417500Y-103242500D02*
X151417500Y-113242500D01*
X151417500Y-113242500D02*
X137417500Y-113242500D01*
X137417500Y-113242500D02*
X137417500Y-103242500D01*
X148967500Y-107192500D02*
X150667500Y-107192500D01*
X150667500Y-107192500D02*
X150667500Y-108992500D01*
X150667500Y-108992500D02*
X148967500Y-108992500D01*
X148967500Y-108992500D02*
X148967500Y-107192500D01*
X149567500Y-110342500D02*
X149117500Y-110342500D01*
X149117500Y-110342500D02*
X149117500Y-109492500D01*
X149117500Y-109492500D02*
X149567500Y-109492500D01*
X149567500Y-109492500D02*
X149567500Y-110342500D01*
X149617500Y-106592500D02*
X149167500Y-106592500D01*
X149167500Y-106592500D02*
X149167500Y-105742500D01*
X149167500Y-105742500D02*
X149617500Y-105742500D01*
X149617500Y-105742500D02*
X149617500Y-106592500D01*
X150517500Y-106592500D02*
X150067500Y-106592500D01*
X150067500Y-106592500D02*
X150067500Y-105742500D01*
X150067500Y-105742500D02*
X150517500Y-105742500D01*
X150517500Y-105742500D02*
X150517500Y-106592500D01*
X150517500Y-110342500D02*
X150067500Y-110342500D01*
X150067500Y-110342500D02*
X150067500Y-109492500D01*
X150067500Y-109492500D02*
X150517500Y-109492500D01*
X150517500Y-109492500D02*
X150517500Y-110342500D01*
D13*
%TO.C,J4*%
X162880000Y-90420000D02*
X164210000Y-90420000D01*
X162880000Y-91750000D02*
X162880000Y-90420000D01*
X162880000Y-93020000D02*
X162880000Y-98160000D01*
X162880000Y-93020000D02*
X165480000Y-93020000D01*
X162880000Y-98160000D02*
X168080000Y-98160000D01*
X165480000Y-90420000D02*
X168080000Y-90420000D01*
X165480000Y-93020000D02*
X165480000Y-90420000D01*
X168080000Y-90420000D02*
X168080000Y-98160000D01*
%TO.C,R14*%
X165920066Y-78646916D02*
X170123897Y-83656847D01*
X165667272Y-78859036D02*
X165920066Y-78646916D01*
X164073899Y-80196034D02*
X163821104Y-80408154D01*
X163821104Y-80408154D02*
X168024935Y-85418085D01*
X170123897Y-83656847D02*
X169871102Y-83868967D01*
X168024935Y-85418085D02*
X168277730Y-85205965D01*
%TO.C,J5*%
X99999500Y-90395000D02*
X101329500Y-90395000D01*
X99999500Y-91725000D02*
X99999500Y-90395000D01*
X99999500Y-92995000D02*
X99999500Y-98135000D01*
X99999500Y-92995000D02*
X102599500Y-92995000D01*
X99999500Y-98135000D02*
X105199500Y-98135000D01*
X102599500Y-90395000D02*
X105199500Y-90395000D01*
X102599500Y-92995000D02*
X102599500Y-90395000D01*
X105199500Y-90395000D02*
X105199500Y-98135000D01*
%TO.C,J7*%
X144462500Y-122147500D02*
X157222500Y-122147500D01*
X144462500Y-122147500D02*
X144462500Y-119487500D01*
X157222500Y-122147500D02*
X157222500Y-119487500D01*
X141862500Y-120817500D02*
X141862500Y-119487500D01*
X141862500Y-119487500D02*
X143192500Y-119487500D01*
X144462500Y-119487500D02*
X157222500Y-119487500D01*
%TO.C,J3*%
X101201877Y-73421901D02*
X102056785Y-72403061D01*
X102220716Y-74276808D02*
X101201877Y-73421901D01*
X103193593Y-75093148D02*
X107131061Y-78397077D01*
X103193593Y-75093148D02*
X104864841Y-73101433D01*
X107131061Y-78397077D02*
X110473557Y-74413646D01*
X102873125Y-71430185D02*
X104544373Y-69438469D01*
X104864841Y-73101433D02*
X102873125Y-71430185D01*
X104544373Y-69438469D02*
X110473557Y-74413646D01*
%TO.C,C1*%
X154887500Y-110337500D02*
X156217500Y-110337500D01*
X154887500Y-111667500D02*
X154887500Y-110337500D01*
X154887500Y-112937500D02*
X154887500Y-115537500D01*
X154887500Y-112937500D02*
X157547500Y-112937500D01*
X154887500Y-115537500D02*
X157547500Y-115537500D01*
X157547500Y-112937500D02*
X157547500Y-115537500D01*
D11*
%TO.C,SW1*%
X101150000Y-113000000D02*
X104850000Y-113000000D01*
X104850000Y-113000000D02*
X104850000Y-104500000D01*
X104850000Y-104500000D02*
X101150000Y-104500000D01*
X101150000Y-104500000D02*
X101150000Y-113000000D01*
D13*
%TO.C,R6*%
X144947500Y-59512500D02*
X144947500Y-52972500D01*
X145277500Y-59512500D02*
X144947500Y-59512500D01*
X147357500Y-59512500D02*
X147687500Y-59512500D01*
X147687500Y-59512500D02*
X147687500Y-52972500D01*
X144947500Y-52972500D02*
X145277500Y-52972500D01*
X147687500Y-52972500D02*
X147357500Y-52972500D01*
%TO.C,C3*%
X161304775Y-95475000D02*
X160804775Y-95475000D01*
X161054775Y-95725000D02*
X161054775Y-95225000D01*
X158500000Y-96580000D02*
X158500000Y-95040000D01*
X158500000Y-92960000D02*
X158500000Y-91420000D01*
X158460000Y-96580000D02*
X158460000Y-95040000D01*
X158460000Y-92960000D02*
X158460000Y-91420000D01*
X158420000Y-96579000D02*
X158420000Y-95040000D01*
X158420000Y-92960000D02*
X158420000Y-91421000D01*
X158380000Y-96578000D02*
X158380000Y-95040000D01*
X158380000Y-92960000D02*
X158380000Y-91422000D01*
X158340000Y-96576000D02*
X158340000Y-95040000D01*
X158340000Y-92960000D02*
X158340000Y-91424000D01*
X158300000Y-96573000D02*
X158300000Y-95040000D01*
X158300000Y-92960000D02*
X158300000Y-91427000D01*
X158260000Y-96569000D02*
X158260000Y-95040000D01*
X158260000Y-92960000D02*
X158260000Y-91431000D01*
X158220000Y-96565000D02*
X158220000Y-95040000D01*
X158220000Y-92960000D02*
X158220000Y-91435000D01*
X158180000Y-96561000D02*
X158180000Y-95040000D01*
X158180000Y-92960000D02*
X158180000Y-91439000D01*
X158140000Y-96556000D02*
X158140000Y-95040000D01*
X158140000Y-92960000D02*
X158140000Y-91444000D01*
X158100000Y-96550000D02*
X158100000Y-95040000D01*
X158100000Y-92960000D02*
X158100000Y-91450000D01*
X158060000Y-96543000D02*
X158060000Y-95040000D01*
X158060000Y-92960000D02*
X158060000Y-91457000D01*
X158020000Y-96536000D02*
X158020000Y-95040000D01*
X158020000Y-92960000D02*
X158020000Y-91464000D01*
X157980000Y-96528000D02*
X157980000Y-95040000D01*
X157980000Y-92960000D02*
X157980000Y-91472000D01*
X157940000Y-96520000D02*
X157940000Y-95040000D01*
X157940000Y-92960000D02*
X157940000Y-91480000D01*
X157900000Y-96511000D02*
X157900000Y-95040000D01*
X157900000Y-92960000D02*
X157900000Y-91489000D01*
X157860000Y-96501000D02*
X157860000Y-95040000D01*
X157860000Y-92960000D02*
X157860000Y-91499000D01*
X157820000Y-96491000D02*
X157820000Y-95040000D01*
X157820000Y-92960000D02*
X157820000Y-91509000D01*
X157779000Y-96480000D02*
X157779000Y-95040000D01*
X157779000Y-92960000D02*
X157779000Y-91520000D01*
X157739000Y-96468000D02*
X157739000Y-95040000D01*
X157739000Y-92960000D02*
X157739000Y-91532000D01*
X157699000Y-96455000D02*
X157699000Y-95040000D01*
X157699000Y-92960000D02*
X157699000Y-91545000D01*
X157659000Y-96442000D02*
X157659000Y-95040000D01*
X157659000Y-92960000D02*
X157659000Y-91558000D01*
X157619000Y-96428000D02*
X157619000Y-95040000D01*
X157619000Y-92960000D02*
X157619000Y-91572000D01*
X157579000Y-96414000D02*
X157579000Y-95040000D01*
X157579000Y-92960000D02*
X157579000Y-91586000D01*
X157539000Y-96398000D02*
X157539000Y-95040000D01*
X157539000Y-92960000D02*
X157539000Y-91602000D01*
X157499000Y-96382000D02*
X157499000Y-95040000D01*
X157499000Y-92960000D02*
X157499000Y-91618000D01*
X157459000Y-96365000D02*
X157459000Y-95040000D01*
X157459000Y-92960000D02*
X157459000Y-91635000D01*
X157419000Y-96348000D02*
X157419000Y-95040000D01*
X157419000Y-92960000D02*
X157419000Y-91652000D01*
X157379000Y-96329000D02*
X157379000Y-95040000D01*
X157379000Y-92960000D02*
X157379000Y-91671000D01*
X157339000Y-96310000D02*
X157339000Y-95040000D01*
X157339000Y-92960000D02*
X157339000Y-91690000D01*
X157299000Y-96290000D02*
X157299000Y-95040000D01*
X157299000Y-92960000D02*
X157299000Y-91710000D01*
X157259000Y-96268000D02*
X157259000Y-95040000D01*
X157259000Y-92960000D02*
X157259000Y-91732000D01*
X157219000Y-96247000D02*
X157219000Y-95040000D01*
X157219000Y-92960000D02*
X157219000Y-91753000D01*
X157179000Y-96224000D02*
X157179000Y-95040000D01*
X157179000Y-92960000D02*
X157179000Y-91776000D01*
X157139000Y-96200000D02*
X157139000Y-95040000D01*
X157139000Y-92960000D02*
X157139000Y-91800000D01*
X157099000Y-96175000D02*
X157099000Y-95040000D01*
X157099000Y-92960000D02*
X157099000Y-91825000D01*
X157059000Y-96149000D02*
X157059000Y-95040000D01*
X157059000Y-92960000D02*
X157059000Y-91851000D01*
X157019000Y-96122000D02*
X157019000Y-95040000D01*
X157019000Y-92960000D02*
X157019000Y-91878000D01*
X156979000Y-96095000D02*
X156979000Y-95040000D01*
X156979000Y-92960000D02*
X156979000Y-91905000D01*
X156939000Y-96065000D02*
X156939000Y-95040000D01*
X156939000Y-92960000D02*
X156939000Y-91935000D01*
X156899000Y-96035000D02*
X156899000Y-95040000D01*
X156899000Y-92960000D02*
X156899000Y-91965000D01*
X156859000Y-96004000D02*
X156859000Y-95040000D01*
X156859000Y-92960000D02*
X156859000Y-91996000D01*
X156819000Y-95971000D02*
X156819000Y-95040000D01*
X156819000Y-92960000D02*
X156819000Y-92029000D01*
X156779000Y-95937000D02*
X156779000Y-95040000D01*
X156779000Y-92960000D02*
X156779000Y-92063000D01*
X156739000Y-95901000D02*
X156739000Y-95040000D01*
X156739000Y-92960000D02*
X156739000Y-92099000D01*
X156699000Y-95864000D02*
X156699000Y-95040000D01*
X156699000Y-92960000D02*
X156699000Y-92136000D01*
X156659000Y-95826000D02*
X156659000Y-95040000D01*
X156659000Y-92960000D02*
X156659000Y-92174000D01*
X156619000Y-95785000D02*
X156619000Y-95040000D01*
X156619000Y-92960000D02*
X156619000Y-92215000D01*
X156579000Y-95743000D02*
X156579000Y-95040000D01*
X156579000Y-92960000D02*
X156579000Y-92257000D01*
X156539000Y-95699000D02*
X156539000Y-95040000D01*
X156539000Y-92960000D02*
X156539000Y-92301000D01*
X156499000Y-95653000D02*
X156499000Y-95040000D01*
X156499000Y-92960000D02*
X156499000Y-92347000D01*
X156459000Y-95605000D02*
X156459000Y-92395000D01*
X156419000Y-95554000D02*
X156419000Y-92446000D01*
X156379000Y-95500000D02*
X156379000Y-92500000D01*
X156339000Y-95443000D02*
X156339000Y-92557000D01*
X156299000Y-95383000D02*
X156299000Y-92617000D01*
X156259000Y-95319000D02*
X156259000Y-92681000D01*
X156219000Y-95251000D02*
X156219000Y-92749000D01*
X156179000Y-95178000D02*
X156179000Y-92822000D01*
X156139000Y-95098000D02*
X156139000Y-92902000D01*
X156099000Y-95011000D02*
X156099000Y-92989000D01*
X156059000Y-94915000D02*
X156059000Y-93085000D01*
X156019000Y-94805000D02*
X156019000Y-93195000D01*
X155979000Y-94677000D02*
X155979000Y-93323000D01*
X155939000Y-94518000D02*
X155939000Y-93482000D01*
X155899000Y-94284000D02*
X155899000Y-93716000D01*
X161120000Y-94000000D02*
G75*
G03*
X161120000Y-94000000I-2620000J0D01*
G01*
%TO.C,R12*%
X98035104Y-84164847D02*
X102238935Y-79154916D01*
X98287899Y-84376967D02*
X98035104Y-84164847D01*
X99881272Y-85713965D02*
X100134066Y-85926085D01*
X100134066Y-85926085D02*
X104337897Y-80916154D01*
X102238935Y-79154916D02*
X102491730Y-79367036D01*
X104337897Y-80916154D02*
X104085102Y-80704034D01*
%TO.C,R9*%
X94733104Y-81116847D02*
X98936935Y-76106916D01*
X94985899Y-81328967D02*
X94733104Y-81116847D01*
X96579272Y-82665965D02*
X96832066Y-82878085D01*
X96832066Y-82878085D02*
X101035897Y-77868154D01*
X98936935Y-76106916D02*
X99189730Y-76319036D01*
X101035897Y-77868154D02*
X100783102Y-77656034D01*
D11*
%TO.C,U13*%
X120717500Y-85342500D02*
X119767500Y-85342500D01*
X120267500Y-85892500D02*
X120267500Y-84942500D01*
X123317708Y-83492500D02*
G75*
G03*
X123317708Y-83492500I-6000208J0D01*
G01*
D13*
%TO.C,J6*%
X161387500Y-112737500D02*
X162717500Y-112737500D01*
X161387500Y-114067500D02*
X161387500Y-112737500D01*
X161387500Y-115337500D02*
X161387500Y-117937500D01*
X161387500Y-115337500D02*
X164047500Y-115337500D01*
X161387500Y-117937500D02*
X164047500Y-117937500D01*
X164047500Y-115337500D02*
X164047500Y-117937500D01*
D14*
%TO.C,S1*%
X114217500Y-92560000D02*
X114217500Y-94925000D01*
X115035000Y-90742500D02*
X119400000Y-90742500D01*
X115035000Y-96742500D02*
X119400000Y-96742500D01*
X120217500Y-92560000D02*
X120217500Y-94925000D01*
D16*
X112567500Y-95992500D02*
G75*
G03*
X112567500Y-95992500I-100000J0D01*
G01*
D13*
%TO.C,R1*%
X110847500Y-62712500D02*
X110847500Y-56172500D01*
X111177500Y-62712500D02*
X110847500Y-62712500D01*
X113257500Y-62712500D02*
X113587500Y-62712500D01*
X113587500Y-62712500D02*
X113587500Y-56172500D01*
X110847500Y-56172500D02*
X111177500Y-56172500D01*
X113587500Y-56172500D02*
X113257500Y-56172500D01*
%TO.C,R8*%
X165347500Y-65412500D02*
X165347500Y-58872500D01*
X165677500Y-65412500D02*
X165347500Y-65412500D01*
X167757500Y-65412500D02*
X168087500Y-65412500D01*
X168087500Y-65412500D02*
X168087500Y-58872500D01*
X165347500Y-58872500D02*
X165677500Y-58872500D01*
X168087500Y-58872500D02*
X167757500Y-58872500D01*
%TO.C,R13*%
X169095066Y-75979916D02*
X173298897Y-80989847D01*
X168842272Y-76192036D02*
X169095066Y-75979916D01*
X167248899Y-77529034D02*
X166996104Y-77741154D01*
X166996104Y-77741154D02*
X171199935Y-82751085D01*
X173298897Y-80989847D02*
X173046102Y-81201967D01*
X171199935Y-82751085D02*
X171452730Y-82538965D01*
%TO.C,R11*%
X119147500Y-103972500D02*
X125687500Y-103972500D01*
X119147500Y-104302500D02*
X119147500Y-103972500D01*
X119147500Y-106382500D02*
X119147500Y-106712500D01*
X119147500Y-106712500D02*
X125687500Y-106712500D01*
X125687500Y-103972500D02*
X125687500Y-104302500D01*
X125687500Y-106712500D02*
X125687500Y-106382500D01*
D16*
%TO.C,\u4E09\u7AEF\u5B501*%
X162317500Y-110992500D02*
X165592500Y-110992500D01*
X162317500Y-100692500D02*
X162317500Y-110992500D01*
X167317500Y-100692500D02*
X162317500Y-100692500D01*
%TD*%
M02*
