%TF.GenerationSoftware,KiCad,Pcbnew,7.0.1*%
%TF.CreationDate,2023-06-07T19:09:21+09:00*%
%TF.ProjectId,trace,74726163-652e-46b6-9963-61645f706362,rev?*%
%TF.SameCoordinates,Original*%
%TF.FileFunction,Soldermask,Top*%
%TF.FilePolarity,Negative*%
%FSLAX46Y46*%
G04 Gerber Fmt 4.6, Leading zero omitted, Abs format (unit mm)*
G04 Created by KiCad (PCBNEW 7.0.1) date 2023-06-07 19:09:21*
%MOMM*%
%LPD*%
G01*
G04 APERTURE LIST*
G04 Aperture macros list*
%AMHorizOval*
0 Thick line with rounded ends*
0 $1 width*
0 $2 $3 position (X,Y) of the first rounded end (center of the circle)*
0 $4 $5 position (X,Y) of the second rounded end (center of the circle)*
0 Add line between two ends*
20,1,$1,$2,$3,$4,$5,0*
0 Add two circle primitives to create the rounded ends*
1,1,$1,$2,$3*
1,1,$1,$4,$5*%
%AMRotRect*
0 Rectangle, with rotation*
0 The origin of the aperture is its center*
0 $1 length*
0 $2 width*
0 $3 Rotation angle, in degrees counterclockwise*
0 Add horizontal line*
21,1,$1,$2,0,0,$3*%
G04 Aperture macros list end*
%ADD10C,1.600000*%
%ADD11O,1.600000X1.600000*%
%ADD12R,1.700000X1.700000*%
%ADD13O,1.700000X1.700000*%
%ADD14R,1.530000X1.530000*%
%ADD15C,1.530000*%
%ADD16C,1.524000*%
%ADD17RotRect,1.700000X1.700000X310.000000*%
%ADD18HorizOval,1.700000X0.000000X0.000000X0.000000X0.000000X0*%
%ADD19R,1.508000X1.508000*%
%ADD20C,1.508000*%
%ADD21R,1.524000X1.524000*%
%ADD22HorizOval,1.600000X0.000000X0.000000X0.000000X0.000000X0*%
%ADD23RotRect,1.700000X1.700000X50.000000*%
%ADD24HorizOval,1.700000X0.000000X0.000000X0.000000X0.000000X0*%
%ADD25R,1.600000X1.600000*%
%ADD26HorizOval,1.600000X0.000000X0.000000X0.000000X0.000000X0*%
%ADD27R,1.995000X1.995000*%
%ADD28C,1.995000*%
%ADD29R,1.368000X1.368000*%
%ADD30C,1.368000*%
%ADD31RotRect,1.368000X1.368000X301.000000*%
%ADD32RotRect,1.368000X1.368000X59.000000*%
G04 APERTURE END LIST*
D10*
%TO.C,R3*%
X122417500Y-60620000D03*
D11*
X122417500Y-53000000D03*
%TD*%
D12*
%TO.C,C2*%
X156217500Y-105417500D03*
D13*
X156217500Y-102877500D03*
%TD*%
D10*
%TO.C,R2*%
X101817500Y-66852500D03*
D11*
X101817500Y-59232500D03*
%TD*%
D10*
%TO.C,R7*%
X156217500Y-62352500D03*
D11*
X156217500Y-54732500D03*
%TD*%
D14*
%TO.C,U1*%
X116037500Y-115762500D03*
D15*
X118577500Y-115762500D03*
X121117500Y-115762500D03*
X123657500Y-115762500D03*
X126197500Y-115762500D03*
X128737500Y-115762500D03*
X131277500Y-115762500D03*
X133817500Y-115762500D03*
X136357500Y-115762500D03*
X138897500Y-115762500D03*
X141437500Y-115762500D03*
X143977500Y-115762500D03*
X146517500Y-115762500D03*
X149057500Y-115762500D03*
X151597500Y-115762500D03*
D14*
X116037500Y-100522500D03*
D15*
X118577500Y-100522500D03*
X121117500Y-100522500D03*
X123657500Y-100522500D03*
X126197500Y-100522500D03*
X128737500Y-100522500D03*
X131277500Y-100522500D03*
X133817500Y-100522500D03*
X136357500Y-100522500D03*
X138897500Y-100522500D03*
X141437500Y-100522500D03*
X143977500Y-100522500D03*
X146517500Y-100522500D03*
X149057500Y-100522500D03*
X151597500Y-100522500D03*
%TD*%
D12*
%TO.C,J1*%
X113097500Y-120842500D03*
D13*
X115637500Y-120842500D03*
X118177500Y-120842500D03*
X120717500Y-120842500D03*
X123257500Y-120842500D03*
X125797500Y-120842500D03*
%TD*%
D16*
%TO.C,U14*%
X126197500Y-95832500D03*
X126197500Y-93292500D03*
X126197500Y-90752500D03*
X126197500Y-88212500D03*
X126197500Y-85672500D03*
X126197500Y-83132500D03*
X126197500Y-80592500D03*
X126197500Y-78052500D03*
X141437500Y-78052500D03*
X141437500Y-80592500D03*
X141437500Y-83132500D03*
X141437500Y-85672500D03*
X141437500Y-88212500D03*
X141437500Y-90752500D03*
X141437500Y-93292500D03*
X141437500Y-95832500D03*
%TD*%
D10*
%TO.C,R10*%
X126027500Y-110842500D03*
D11*
X118407500Y-110842500D03*
%TD*%
D17*
%TO.C,J2*%
X163864708Y-71650255D03*
D18*
X165497389Y-73596008D03*
X161918955Y-73282936D03*
X163551636Y-75228688D03*
X159973202Y-74915616D03*
X161605883Y-76861369D03*
%TD*%
D19*
%TO.C,S2*%
X146903000Y-96192500D03*
D20*
X153403000Y-96192500D03*
X146903000Y-91692500D03*
X153403000Y-91692500D03*
%TD*%
D10*
%TO.C,R5*%
X136517500Y-59370000D03*
D11*
X136517500Y-51750000D03*
%TD*%
D10*
%TO.C,R4*%
X132317500Y-59310000D03*
D11*
X132317500Y-51690000D03*
%TD*%
D16*
%TO.C,U12*%
X141877500Y-104192500D03*
X144417500Y-104192500D03*
X146957500Y-104192500D03*
D21*
X141877500Y-112292500D03*
D16*
X144417500Y-112292500D03*
X146957500Y-112292500D03*
%TD*%
D12*
%TO.C,J4*%
X164210000Y-91750000D03*
D13*
X166750000Y-91750000D03*
X164210000Y-94290000D03*
X166750000Y-94290000D03*
X164210000Y-96830000D03*
X166750000Y-96830000D03*
%TD*%
D10*
%TO.C,R14*%
X164523480Y-79113871D03*
D22*
X169421522Y-84951130D03*
%TD*%
D12*
%TO.C,J5*%
X101329500Y-91725000D03*
D13*
X103869500Y-91725000D03*
X101329500Y-94265000D03*
X103869500Y-94265000D03*
X101329500Y-96805000D03*
X103869500Y-96805000D03*
%TD*%
D12*
%TO.C,J7*%
X143192500Y-120817500D03*
D13*
X145732500Y-120817500D03*
X148272500Y-120817500D03*
X150812500Y-120817500D03*
X153352500Y-120817500D03*
X155892500Y-120817500D03*
%TD*%
D23*
%TO.C,J3*%
X103075624Y-73257969D03*
D24*
X104708305Y-71312216D03*
X105021377Y-74890650D03*
X106654057Y-72944897D03*
X106967130Y-76523330D03*
X108599810Y-74577577D03*
%TD*%
D12*
%TO.C,C1*%
X156217500Y-111667500D03*
D13*
X156217500Y-114207500D03*
%TD*%
D16*
%TO.C,SW1*%
X103000000Y-106210000D03*
X103000000Y-108750000D03*
X103000000Y-111290000D03*
%TD*%
D10*
%TO.C,R6*%
X146317500Y-60052500D03*
D11*
X146317500Y-52432500D03*
%TD*%
D25*
%TO.C,C3*%
X159500000Y-94000000D03*
D10*
X157500000Y-94000000D03*
%TD*%
%TO.C,R12*%
X98737480Y-85459130D03*
D26*
X103635522Y-79621871D03*
%TD*%
D10*
%TO.C,R9*%
X95435480Y-82411130D03*
D26*
X100333522Y-76573871D03*
%TD*%
D16*
%TO.C,U13*%
X121117500Y-83442500D03*
X113517500Y-83392500D03*
%TD*%
D12*
%TO.C,J6*%
X162717500Y-114067500D03*
D13*
X162717500Y-116607500D03*
%TD*%
D19*
%TO.C,S1*%
X113967500Y-95992500D03*
D20*
X120467500Y-95992500D03*
X113967500Y-91492500D03*
X120467500Y-91492500D03*
%TD*%
D10*
%TO.C,R1*%
X112217500Y-63252500D03*
D11*
X112217500Y-55632500D03*
%TD*%
D10*
%TO.C,R8*%
X166717500Y-65952500D03*
D11*
X166717500Y-58332500D03*
%TD*%
D10*
%TO.C,R13*%
X167698480Y-76446871D03*
D22*
X172596522Y-82284130D03*
%TD*%
D10*
%TO.C,R11*%
X118607500Y-105342500D03*
D11*
X126227500Y-105342500D03*
%TD*%
D27*
%TO.C,\u4E09\u7AEF\u5B501*%
X165592500Y-108382500D03*
D28*
X165592500Y-105842500D03*
X165592500Y-103302500D03*
%TD*%
D29*
%TO.C,U9*%
X160247500Y-62392500D03*
D30*
X160247500Y-58292500D03*
X162787500Y-58292500D03*
X162787500Y-62392500D03*
%TD*%
D31*
%TO.C,U11*%
X177338709Y-102967226D03*
D30*
X180853095Y-100855569D03*
X182161291Y-103032774D03*
X178646905Y-105144431D03*
%TD*%
D29*
%TO.C,U8*%
X170464291Y-67092500D03*
D30*
X170464291Y-62992500D03*
X173004291Y-62992500D03*
X173004291Y-67092500D03*
%TD*%
D29*
%TO.C,U4*%
X126147500Y-57692500D03*
D30*
X126147500Y-53592500D03*
X128687500Y-53592500D03*
X128687500Y-57692500D03*
%TD*%
D32*
%TO.C,U10*%
X89103095Y-105144431D03*
D30*
X85588709Y-103032774D03*
X86896905Y-100855569D03*
X90411291Y-102967226D03*
%TD*%
D29*
%TO.C,U5*%
X116060710Y-59442500D03*
D30*
X116060710Y-55342500D03*
X118600710Y-55342500D03*
X118600710Y-59442500D03*
%TD*%
D29*
%TO.C,U7*%
X140047500Y-57692500D03*
D30*
X140047500Y-53592500D03*
X142587500Y-53592500D03*
X142587500Y-57692500D03*
%TD*%
D29*
%TO.C,U2*%
X95117500Y-68042500D03*
D30*
X95117500Y-63942500D03*
X97657500Y-63942500D03*
X97657500Y-68042500D03*
%TD*%
D29*
%TO.C,U6*%
X149747500Y-59092500D03*
D30*
X149747500Y-54992500D03*
X152287500Y-54992500D03*
X152287500Y-59092500D03*
%TD*%
D29*
%TO.C,U3*%
X105547500Y-63092500D03*
D30*
X105547500Y-58992500D03*
X108087500Y-58992500D03*
X108087500Y-63092500D03*
%TD*%
M02*
