%TF.GenerationSoftware,KiCad,Pcbnew,7.0.1*%
%TF.CreationDate,2023-06-07T19:09:21+09:00*%
%TF.ProjectId,trace,74726163-652e-46b6-9963-61645f706362,rev?*%
%TF.SameCoordinates,Original*%
%TF.FileFunction,Profile,NP*%
%FSLAX46Y46*%
G04 Gerber Fmt 4.6, Leading zero omitted, Abs format (unit mm)*
G04 Created by KiCad (PCBNEW 7.0.1) date 2023-06-07 19:09:21*
%MOMM*%
%LPD*%
G01*
G04 APERTURE LIST*
%TA.AperFunction,Profile*%
%ADD10C,0.200000*%
%TD*%
%TA.AperFunction,Profile*%
%ADD11C,0.100000*%
%TD*%
G04 APERTURE END LIST*
D10*
X99637010Y-71354310D02*
G75*
G03*
X100887010Y-70104284I-10J1250010D01*
G01*
X122317566Y-70142500D02*
G75*
G03*
X122317566Y-70142500I-1500000J0D01*
G01*
X159111195Y-72981741D02*
G75*
G03*
X158962226Y-75970978I1250705J-1560659D01*
G01*
X99050000Y-91850000D02*
X99050000Y-144400000D01*
X176638168Y-69355171D02*
X176638168Y-60161876D01*
X164137039Y-68854534D02*
X166137039Y-68854284D01*
X91637016Y-69354024D02*
G75*
G03*
X93637010Y-71354284I1999984J-276D01*
G01*
X167387216Y-70104859D02*
G75*
G03*
X166137039Y-68854284I-1250016J559D01*
G01*
X102137010Y-68854310D02*
G75*
G03*
X100887010Y-70104284I-10J-1249990D01*
G01*
X103638010Y-141858284D02*
G75*
G03*
X103638010Y-141858284I-1500000J0D01*
G01*
X99050005Y-144400000D02*
G75*
G03*
X104049095Y-149399095I4999095J0D01*
G01*
X176638167Y-60161879D02*
G75*
G03*
X91637919Y-62356855I-40615957J-74061671D01*
G01*
X163637101Y-69354596D02*
X159111178Y-72981719D01*
X91637919Y-62356855D02*
X91637010Y-69354024D01*
X167638010Y-141858284D02*
G75*
G03*
X167638010Y-141858284I-1500000J0D01*
G01*
X84690204Y-103902304D02*
X88353845Y-106838385D01*
X168384262Y-87750735D02*
G75*
G03*
X158962225Y-75970979I-57457462J-36299365D01*
G01*
X183584010Y-103902311D02*
G75*
G03*
X183916538Y-102834867I-625310J780311D01*
G01*
X130137010Y-62854276D02*
G75*
G03*
X130137010Y-74854284I0J-6000004D01*
G01*
X168638639Y-71356584D02*
X174638639Y-71355171D01*
X130137010Y-74854284D02*
X138137010Y-74854284D01*
D11*
X164500000Y-149400000D02*
G75*
G03*
X169200000Y-144700000I0J4700000D01*
G01*
D10*
X179920365Y-106838385D02*
X183584005Y-103902304D01*
X84357639Y-102834857D02*
G75*
G03*
X84690205Y-103902303I958061J-287043D01*
G01*
X167387116Y-70104859D02*
G75*
G03*
X168638639Y-71356584I1251084J-641D01*
G01*
D11*
X169200000Y-92100000D02*
X170652147Y-91226894D01*
D10*
X176746860Y-105828168D02*
G75*
G03*
X179920365Y-106838384I1922740J550368D01*
G01*
D11*
X99800000Y-87600000D02*
X101100000Y-88300000D01*
D10*
X104049095Y-149399095D02*
X164500000Y-149399095D01*
X102137010Y-68854284D02*
X104137171Y-68854284D01*
D11*
X163637039Y-68854596D02*
X164137039Y-68854534D01*
D10*
X138137010Y-62854284D02*
X130137010Y-62854284D01*
D11*
X167184614Y-88468926D02*
X168384251Y-87750742D01*
D10*
X183916540Y-102834867D02*
G75*
G03*
X164137101Y-69354534I-77589990J-23255653D01*
G01*
X114137510Y-75356084D02*
X101100000Y-88300000D01*
X104637108Y-68854284D02*
X111637011Y-68854284D01*
X104137108Y-69354534D02*
G75*
G03*
X84357673Y-102834867I57810262J-56735806D01*
G01*
X174638639Y-71355168D02*
G75*
G03*
X176638168Y-69355171I-439J1999968D01*
G01*
X138137010Y-74854316D02*
G75*
G03*
X138137010Y-62854284I-10J6000016D01*
G01*
X103638010Y-121858284D02*
G75*
G03*
X103638010Y-121858284I-1500000J0D01*
G01*
X109163031Y-72981719D02*
X104637108Y-69354596D01*
X97989253Y-91223711D02*
G75*
G03*
X91527338Y-105828165I58523647J-34626289D01*
G01*
X114137010Y-71353971D02*
X114137510Y-75356084D01*
X148917500Y-70142500D02*
G75*
G03*
X148917500Y-70142500I-1500000J0D01*
G01*
X88353875Y-106838347D02*
G75*
G03*
X91527338Y-105828165I1250725J1560647D01*
G01*
D11*
X163637101Y-69354596D02*
X164137101Y-69354534D01*
D10*
X176746870Y-105828165D02*
G75*
G03*
X170652146Y-91226894I-65374670J-18715435D01*
G01*
X156636003Y-68855540D02*
G75*
G03*
X154140041Y-71349711I197J-2496160D01*
G01*
D11*
X104137108Y-69354534D02*
X104637108Y-69354596D01*
D10*
X167638010Y-121858284D02*
G75*
G03*
X167638010Y-121858284I-1500000J0D01*
G01*
X114137016Y-71353971D02*
G75*
G03*
X111637011Y-68854284I-2500016J-329D01*
G01*
X93637010Y-71354284D02*
X99637010Y-71354284D01*
X169200000Y-144700000D02*
X169200000Y-92100000D01*
X109305024Y-75963875D02*
G75*
G03*
X99800001Y-87600000I47595676J-48578925D01*
G01*
D11*
X104137171Y-68854284D02*
X104637108Y-68854284D01*
D10*
X167184614Y-88468926D02*
X154136774Y-75353694D01*
X109312001Y-75970997D02*
G75*
G03*
X109163031Y-72981719I-1399701J1428597D01*
G01*
D11*
X97989259Y-91223715D02*
X99050000Y-91850000D01*
D10*
X156636003Y-68855471D02*
X163637039Y-68854596D01*
X154136774Y-75353694D02*
X154140040Y-71349711D01*
M02*
