%TF.GenerationSoftware,KiCad,Pcbnew,7.0.1*%
%TF.CreationDate,2023-06-07T19:09:20+09:00*%
%TF.ProjectId,trace,74726163-652e-46b6-9963-61645f706362,rev?*%
%TF.SameCoordinates,Original*%
%TF.FileFunction,Copper,L1,Top*%
%TF.FilePolarity,Positive*%
%FSLAX46Y46*%
G04 Gerber Fmt 4.6, Leading zero omitted, Abs format (unit mm)*
G04 Created by KiCad (PCBNEW 7.0.1) date 2023-06-07 19:09:20*
%MOMM*%
%LPD*%
G01*
G04 APERTURE LIST*
G04 Aperture macros list*
%AMHorizOval*
0 Thick line with rounded ends*
0 $1 width*
0 $2 $3 position (X,Y) of the first rounded end (center of the circle)*
0 $4 $5 position (X,Y) of the second rounded end (center of the circle)*
0 Add line between two ends*
20,1,$1,$2,$3,$4,$5,0*
0 Add two circle primitives to create the rounded ends*
1,1,$1,$2,$3*
1,1,$1,$4,$5*%
%AMRotRect*
0 Rectangle, with rotation*
0 The origin of the aperture is its center*
0 $1 length*
0 $2 width*
0 $3 Rotation angle, in degrees counterclockwise*
0 Add horizontal line*
21,1,$1,$2,0,0,$3*%
G04 Aperture macros list end*
%TA.AperFunction,ComponentPad*%
%ADD10C,1.600000*%
%TD*%
%TA.AperFunction,ComponentPad*%
%ADD11O,1.600000X1.600000*%
%TD*%
%TA.AperFunction,ComponentPad*%
%ADD12R,1.700000X1.700000*%
%TD*%
%TA.AperFunction,ComponentPad*%
%ADD13O,1.700000X1.700000*%
%TD*%
%TA.AperFunction,ComponentPad*%
%ADD14R,1.530000X1.530000*%
%TD*%
%TA.AperFunction,ComponentPad*%
%ADD15C,1.530000*%
%TD*%
%TA.AperFunction,ComponentPad*%
%ADD16C,1.524000*%
%TD*%
%TA.AperFunction,ComponentPad*%
%ADD17RotRect,1.700000X1.700000X310.000000*%
%TD*%
%TA.AperFunction,ComponentPad*%
%ADD18HorizOval,1.700000X0.000000X0.000000X0.000000X0.000000X0*%
%TD*%
%TA.AperFunction,ComponentPad*%
%ADD19R,1.508000X1.508000*%
%TD*%
%TA.AperFunction,ComponentPad*%
%ADD20C,1.508000*%
%TD*%
%TA.AperFunction,ComponentPad*%
%ADD21R,1.524000X1.524000*%
%TD*%
%TA.AperFunction,ComponentPad*%
%ADD22HorizOval,1.600000X0.000000X0.000000X0.000000X0.000000X0*%
%TD*%
%TA.AperFunction,ComponentPad*%
%ADD23RotRect,1.700000X1.700000X50.000000*%
%TD*%
%TA.AperFunction,ComponentPad*%
%ADD24HorizOval,1.700000X0.000000X0.000000X0.000000X0.000000X0*%
%TD*%
%TA.AperFunction,ComponentPad*%
%ADD25R,1.600000X1.600000*%
%TD*%
%TA.AperFunction,ComponentPad*%
%ADD26HorizOval,1.600000X0.000000X0.000000X0.000000X0.000000X0*%
%TD*%
%TA.AperFunction,ComponentPad*%
%ADD27R,1.995000X1.995000*%
%TD*%
%TA.AperFunction,ComponentPad*%
%ADD28C,1.995000*%
%TD*%
%TA.AperFunction,ComponentPad*%
%ADD29R,1.368000X1.368000*%
%TD*%
%TA.AperFunction,ComponentPad*%
%ADD30C,1.368000*%
%TD*%
%TA.AperFunction,ComponentPad*%
%ADD31RotRect,1.368000X1.368000X301.000000*%
%TD*%
%TA.AperFunction,ComponentPad*%
%ADD32RotRect,1.368000X1.368000X59.000000*%
%TD*%
%TA.AperFunction,ViaPad*%
%ADD33C,0.800000*%
%TD*%
%TA.AperFunction,Conductor*%
%ADD34C,0.400000*%
%TD*%
%TA.AperFunction,Conductor*%
%ADD35C,1.000000*%
%TD*%
G04 APERTURE END LIST*
D10*
%TO.P,R3,1*%
%TO.N,+3.3V*%
X122417500Y-60620000D03*
D11*
%TO.P,R3,2*%
%TO.N,Net-(R3-Pad2)*%
X122417500Y-53000000D03*
%TD*%
D12*
%TO.P,C2,1*%
%TO.N,+5V*%
X156217500Y-105417500D03*
D13*
%TO.P,C2,2*%
%TO.N,GND*%
X156217500Y-102877500D03*
%TD*%
D10*
%TO.P,R2,1*%
%TO.N,LLS*%
X101817500Y-66852500D03*
D11*
%TO.P,R2,2*%
%TO.N,GND*%
X101817500Y-59232500D03*
%TD*%
D10*
%TO.P,R7,1*%
%TO.N,+3.3V*%
X156217500Y-62352500D03*
D11*
%TO.P,R7,2*%
%TO.N,Net-(R7-Pad2)*%
X156217500Y-54732500D03*
%TD*%
D14*
%TO.P,U1,3_1,PA9*%
%TO.N,LHallA*%
X116037500Y-115762500D03*
D15*
%TO.P,U1,3_2,PA10*%
%TO.N,AIN1*%
X118577500Y-115762500D03*
%TO.P,U1,3_3,NRST_1*%
%TO.N,unconnected-(U1A-NRST_1-Pad3_3)*%
X121117500Y-115762500D03*
%TO.P,U1,3_4,GND_1*%
%TO.N,GND*%
X123657500Y-115762500D03*
%TO.P,U1,3_5,PA12*%
%TO.N,Net-(U13-IN)*%
X126197500Y-115762500D03*
%TO.P,U1,3_6,PB0*%
%TO.N,MRS*%
X128737500Y-115762500D03*
%TO.P,U1,3_7,PB7*%
%TO.N,SDA*%
X131277500Y-115762500D03*
%TO.P,U1,3_8,PB6*%
%TO.N,SCL*%
X133817500Y-115762500D03*
%TO.P,U1,3_9,PB1*%
%TO.N,MLS*%
X136357500Y-115762500D03*
%TO.P,U1,3_10,PF0*%
%TO.N,Net-(U1A-PF0)*%
X138897500Y-115762500D03*
%TO.P,U1,3_11,PF1*%
%TO.N,Net-(U1A-PF1)*%
X141437500Y-115762500D03*
%TO.P,U1,3_12,PA8*%
%TO.N,LHallB*%
X143977500Y-115762500D03*
%TO.P,U1,3_13,PA11*%
%TO.N,AIN2*%
X146517500Y-115762500D03*
%TO.P,U1,3_14,PB5*%
%TO.N,BIN2*%
X149057500Y-115762500D03*
%TO.P,U1,3_15,PB4*%
%TO.N,BIN1*%
X151597500Y-115762500D03*
D14*
%TO.P,U1,4_1,VIN*%
%TO.N,+5V*%
X116037500Y-100522500D03*
D15*
%TO.P,U1,4_2,GND_2*%
%TO.N,GND*%
X118577500Y-100522500D03*
%TO.P,U1,4_3,NRST_2*%
%TO.N,unconnected-(U1B-NRST_2-Pad4_3)*%
X121117500Y-100522500D03*
%TO.P,U1,4_4,+5V*%
%TO.N,+5V*%
X123657500Y-100522500D03*
%TO.P,U1,4_5,PA2*%
%TO.N,RHallB*%
X126197500Y-100522500D03*
%TO.P,U1,4_6,PA7*%
%TO.N,BSEN*%
X128737500Y-100522500D03*
%TO.P,U1,4_7,PA6*%
%TO.N,RRS*%
X131277500Y-100522500D03*
%TO.P,U1,4_8,PA5*%
%TO.N,FRS*%
X133817500Y-100522500D03*
%TO.P,U1,4_9,PA4*%
%TO.N,FLS*%
X136357500Y-100522500D03*
%TO.P,U1,4_10,PA3*%
%TO.N,LLS*%
X138897500Y-100522500D03*
%TO.P,U1,4_11,PA1*%
%TO.N,RHallA*%
X141437500Y-100522500D03*
%TO.P,U1,4_12,PA0*%
%TO.N,unconnected-(U1B-PA0-Pad4_12)*%
X143977500Y-100522500D03*
%TO.P,U1,4_13,AREF*%
%TO.N,unconnected-(U1B-AREF-Pad4_13)*%
X146517500Y-100522500D03*
%TO.P,U1,4_14,+3V3*%
%TO.N,+3.3V*%
X149057500Y-100522500D03*
%TO.P,U1,4_15,PB3*%
%TO.N,unconnected-(U1B-PB3-Pad4_15)*%
X151597500Y-100522500D03*
%TD*%
D12*
%TO.P,J1,1,Pin_1*%
%TO.N,Net-(J1-Pin_1)*%
X113097500Y-120842500D03*
D13*
%TO.P,J1,2,Pin_2*%
%TO.N,GND*%
X115637500Y-120842500D03*
%TO.P,J1,3,Pin_3*%
%TO.N,LHallA*%
X118177500Y-120842500D03*
%TO.P,J1,4,Pin_4*%
%TO.N,LHallB*%
X120717500Y-120842500D03*
%TO.P,J1,5,Pin_5*%
%TO.N,+3.3V*%
X123257500Y-120842500D03*
%TO.P,J1,6,Pin_6*%
%TO.N,Net-(J1-Pin_6)*%
X125797500Y-120842500D03*
%TD*%
D16*
%TO.P,U14,1,GND*%
%TO.N,GND*%
X126197500Y-95832500D03*
%TO.P,U14,2,BO1*%
%TO.N,Net-(J7-Pin_1)*%
X126197500Y-93292500D03*
%TO.P,U14,3,BO2*%
%TO.N,Net-(J7-Pin_6)*%
X126197500Y-90752500D03*
%TO.P,U14,4,AO2*%
%TO.N,Net-(J1-Pin_1)*%
X126197500Y-88212500D03*
%TO.P,U14,5,AO1*%
%TO.N,Net-(J1-Pin_6)*%
X126197500Y-85672500D03*
%TO.P,U14,6,GND*%
%TO.N,GND*%
X126197500Y-83132500D03*
%TO.P,U14,7,NC*%
%TO.N,unconnected-(U14-NC-Pad7)*%
X126197500Y-80592500D03*
%TO.P,U14,8,VM*%
%TO.N,VDD*%
X126197500Y-78052500D03*
%TO.P,U14,9,NC*%
%TO.N,unconnected-(U14-NC-Pad9)*%
X141437500Y-78052500D03*
%TO.P,U14,10,AIN2*%
%TO.N,AIN2*%
X141437500Y-80592500D03*
%TO.P,U14,11,AIN1*%
%TO.N,AIN1*%
X141437500Y-83132500D03*
%TO.P,U14,12,STBY*%
%TO.N,+3.3V*%
X141437500Y-85672500D03*
%TO.P,U14,13,BIN1*%
%TO.N,BIN1*%
X141437500Y-88212500D03*
%TO.P,U14,14,BIN2*%
%TO.N,BIN2*%
X141437500Y-90752500D03*
%TO.P,U14,15,NC*%
%TO.N,unconnected-(U14-NC-Pad15)*%
X141437500Y-93292500D03*
%TO.P,U14,16,GND*%
%TO.N,GND*%
X141437500Y-95832500D03*
%TD*%
D10*
%TO.P,R10,1*%
%TO.N,VCC*%
X126027500Y-110842500D03*
D11*
%TO.P,R10,2*%
%TO.N,BSEN*%
X118407500Y-110842500D03*
%TD*%
D17*
%TO.P,J2,1,Pin_1*%
%TO.N,Net-(J2-Pin_1)*%
X163864708Y-71650255D03*
D18*
%TO.P,J2,2,Pin_2*%
X165497389Y-73596008D03*
%TO.P,J2,3,Pin_3*%
%TO.N,Net-(J2-Pin_3)*%
X161918955Y-73282936D03*
%TO.P,J2,4,Pin_4*%
X163551636Y-75228688D03*
%TO.P,J2,5,Pin_5*%
%TO.N,Net-(J2-Pin_5)*%
X159973202Y-74915616D03*
%TO.P,J2,6,Pin_6*%
X161605883Y-76861369D03*
%TD*%
D19*
%TO.P,S2,1*%
%TO.N,GND*%
X146903000Y-96192500D03*
D20*
%TO.P,S2,2*%
X153403000Y-96192500D03*
%TO.P,S2,3*%
%TO.N,unconnected-(S2-Pad3)*%
X146903000Y-91692500D03*
%TO.P,S2,4*%
%TO.N,Net-(U1A-PF1)*%
X153403000Y-91692500D03*
%TD*%
D10*
%TO.P,R5,1*%
%TO.N,+3.3V*%
X136517500Y-59370000D03*
D11*
%TO.P,R5,2*%
%TO.N,Net-(R5-Pad2)*%
X136517500Y-51750000D03*
%TD*%
D10*
%TO.P,R4,1*%
%TO.N,FLS*%
X132317500Y-59310000D03*
D11*
%TO.P,R4,2*%
%TO.N,GND*%
X132317500Y-51690000D03*
%TD*%
D16*
%TO.P,U12,1,VCC*%
%TO.N,+3.3V*%
X141877500Y-104192500D03*
%TO.P,U12,2,VCCIO*%
%TO.N,unconnected-(U12-VCCIO-Pad2)*%
X144417500Y-104192500D03*
%TO.P,U12,3,3v3*%
%TO.N,+3.3V*%
X146957500Y-104192500D03*
D21*
%TO.P,U12,4,GND*%
%TO.N,GND*%
X141877500Y-112292500D03*
D16*
%TO.P,U12,5,SDA*%
%TO.N,SDA*%
X144417500Y-112292500D03*
%TO.P,U12,6,SCL*%
%TO.N,SCL*%
X146957500Y-112292500D03*
%TD*%
D12*
%TO.P,J4,1,Pin_1*%
%TO.N,+3.3V*%
X164210000Y-91750000D03*
D13*
%TO.P,J4,2,Pin_2*%
X166750000Y-91750000D03*
%TO.P,J4,3,Pin_3*%
%TO.N,GND*%
X164210000Y-94290000D03*
%TO.P,J4,4,Pin_4*%
X166750000Y-94290000D03*
%TO.P,J4,5,Pin_5*%
%TO.N,MLS*%
X164210000Y-96830000D03*
%TO.P,J4,6,Pin_6*%
X166750000Y-96830000D03*
%TD*%
D10*
%TO.P,R14,1*%
%TO.N,Net-(R14-Pad1)*%
X164523480Y-79113871D03*
D22*
%TO.P,R14,2*%
%TO.N,Net-(J2-Pin_5)*%
X169421522Y-84951130D03*
%TD*%
D12*
%TO.P,J5,1,Pin_1*%
%TO.N,+3.3V*%
X101329500Y-91725000D03*
D13*
%TO.P,J5,2,Pin_2*%
X103869500Y-91725000D03*
%TO.P,J5,3,Pin_3*%
%TO.N,GND*%
X101329500Y-94265000D03*
%TO.P,J5,4,Pin_4*%
X103869500Y-94265000D03*
%TO.P,J5,5,Pin_5*%
%TO.N,MRS*%
X101329500Y-96805000D03*
%TO.P,J5,6,Pin_6*%
X103869500Y-96805000D03*
%TD*%
D12*
%TO.P,J7,1,Pin_1*%
%TO.N,Net-(J7-Pin_1)*%
X143192500Y-120817500D03*
D13*
%TO.P,J7,2,Pin_2*%
%TO.N,GND*%
X145732500Y-120817500D03*
%TO.P,J7,3,Pin_3*%
%TO.N,RHallA*%
X148272500Y-120817500D03*
%TO.P,J7,4,Pin_4*%
%TO.N,RHallB*%
X150812500Y-120817500D03*
%TO.P,J7,5,Pin_5*%
%TO.N,+3.3V*%
X153352500Y-120817500D03*
%TO.P,J7,6,Pin_6*%
%TO.N,Net-(J7-Pin_6)*%
X155892500Y-120817500D03*
%TD*%
D23*
%TO.P,J3,1,Pin_1*%
%TO.N,Net-(J3-Pin_1)*%
X103075624Y-73257969D03*
D24*
%TO.P,J3,2,Pin_2*%
X104708305Y-71312216D03*
%TO.P,J3,3,Pin_3*%
%TO.N,Net-(J3-Pin_3)*%
X105021377Y-74890650D03*
%TO.P,J3,4,Pin_4*%
X106654057Y-72944897D03*
%TO.P,J3,5,Pin_5*%
%TO.N,Net-(J3-Pin_5)*%
X106967130Y-76523330D03*
%TO.P,J3,6,Pin_6*%
X108599810Y-74577577D03*
%TD*%
D12*
%TO.P,C1,1*%
%TO.N,VCC*%
X156217500Y-111667500D03*
D13*
%TO.P,C1,2*%
%TO.N,GND*%
X156217500Y-114207500D03*
%TD*%
D16*
%TO.P,SW1,1,A*%
%TO.N,VCC*%
X103000000Y-106210000D03*
%TO.P,SW1,2,B*%
%TO.N,VDD*%
X103000000Y-108750000D03*
%TO.P,SW1,3,C*%
%TO.N,unconnected-(SW1-C-Pad3)*%
X103000000Y-111290000D03*
%TD*%
D10*
%TO.P,R6,1*%
%TO.N,FRS*%
X146317500Y-60052500D03*
D11*
%TO.P,R6,2*%
%TO.N,GND*%
X146317500Y-52432500D03*
%TD*%
D25*
%TO.P,C3,1*%
%TO.N,VDD*%
X159500000Y-94000000D03*
D10*
%TO.P,C3,2*%
%TO.N,GND*%
X157500000Y-94000000D03*
%TD*%
%TO.P,R12,1*%
%TO.N,Net-(R12-Pad1)*%
X98737480Y-85459130D03*
D26*
%TO.P,R12,2*%
%TO.N,Net-(J3-Pin_5)*%
X103635522Y-79621871D03*
%TD*%
D10*
%TO.P,R9,1*%
%TO.N,Net-(J3-Pin_1)*%
X95435480Y-82411130D03*
D26*
%TO.P,R9,2*%
%TO.N,Net-(R9-Pad2)*%
X100333522Y-76573871D03*
%TD*%
D16*
%TO.P,U13,1,IN*%
%TO.N,Net-(U13-IN)*%
X121117500Y-83442500D03*
%TO.P,U13,2,OUT*%
%TO.N,GND*%
X113517500Y-83392500D03*
%TD*%
D12*
%TO.P,J6,1,Pin_1*%
%TO.N,GND*%
X162717500Y-114067500D03*
D13*
%TO.P,J6,2,Pin_2*%
%TO.N,VDD*%
X162717500Y-116607500D03*
%TD*%
D19*
%TO.P,S1,1*%
%TO.N,GND*%
X113967500Y-95992500D03*
D20*
%TO.P,S1,2*%
X120467500Y-95992500D03*
%TO.P,S1,3*%
%TO.N,unconnected-(S1-Pad3)*%
X113967500Y-91492500D03*
%TO.P,S1,4*%
%TO.N,Net-(U1A-PF0)*%
X120467500Y-91492500D03*
%TD*%
D10*
%TO.P,R1,1*%
%TO.N,+3.3V*%
X112217500Y-63252500D03*
D11*
%TO.P,R1,2*%
%TO.N,Net-(R1-Pad2)*%
X112217500Y-55632500D03*
%TD*%
D10*
%TO.P,R8,1*%
%TO.N,RRS*%
X166717500Y-65952500D03*
D11*
%TO.P,R8,2*%
%TO.N,GND*%
X166717500Y-58332500D03*
%TD*%
D10*
%TO.P,R13,1*%
%TO.N,Net-(J2-Pin_1)*%
X167698480Y-76446871D03*
D22*
%TO.P,R13,2*%
%TO.N,Net-(R13-Pad2)*%
X172596522Y-82284130D03*
%TD*%
D10*
%TO.P,R11,1*%
%TO.N,BSEN*%
X118607500Y-105342500D03*
D11*
%TO.P,R11,2*%
%TO.N,GND*%
X126227500Y-105342500D03*
%TD*%
D27*
%TO.P,\u4E09\u7AEF\u5B501,1,Pin_1*%
%TO.N,+5V*%
X165592500Y-108382500D03*
D28*
%TO.P,\u4E09\u7AEF\u5B501,2,Pin_2*%
%TO.N,GND*%
X165592500Y-105842500D03*
%TO.P,\u4E09\u7AEF\u5B501,3,Pin_3*%
%TO.N,VCC*%
X165592500Y-103302500D03*
%TD*%
D29*
%TO.P,U9,1*%
%TO.N,Net-(U8-Pad4)*%
X160247500Y-62392500D03*
D30*
%TO.P,U9,2*%
%TO.N,RRS*%
X160247500Y-58292500D03*
%TO.P,U9,3*%
%TO.N,+3.3V*%
X162787500Y-58292500D03*
%TO.P,U9,4*%
%TO.N,GND*%
X162787500Y-62392500D03*
%TD*%
D31*
%TO.P,U11,1*%
%TO.N,Net-(R13-Pad2)*%
X177338709Y-102967226D03*
D30*
%TO.P,U11,2*%
%TO.N,Net-(R14-Pad1)*%
X180853095Y-100855569D03*
%TO.P,U11,3*%
%TO.N,Net-(J2-Pin_1)*%
X182161291Y-103032774D03*
%TO.P,U11,4*%
%TO.N,Net-(J2-Pin_3)*%
X178646905Y-105144431D03*
%TD*%
D29*
%TO.P,U8,1*%
%TO.N,Net-(R7-Pad2)*%
X170464291Y-67092500D03*
D30*
%TO.P,U8,2*%
%TO.N,RRS*%
X170464291Y-62992500D03*
%TO.P,U8,3*%
%TO.N,+3.3V*%
X173004291Y-62992500D03*
%TO.P,U8,4*%
%TO.N,Net-(U8-Pad4)*%
X173004291Y-67092500D03*
%TD*%
D29*
%TO.P,U4,1*%
%TO.N,Net-(R3-Pad2)*%
X126147500Y-57692500D03*
D30*
%TO.P,U4,2*%
%TO.N,FLS*%
X126147500Y-53592500D03*
%TO.P,U4,3*%
%TO.N,+3.3V*%
X128687500Y-53592500D03*
%TO.P,U4,4*%
%TO.N,Net-(U4-Pad4)*%
X128687500Y-57692500D03*
%TD*%
D32*
%TO.P,U10,1*%
%TO.N,Net-(R9-Pad2)*%
X89103095Y-105144431D03*
D30*
%TO.P,U10,2*%
%TO.N,Net-(R12-Pad1)*%
X85588709Y-103032774D03*
%TO.P,U10,3*%
%TO.N,Net-(J3-Pin_1)*%
X86896905Y-100855569D03*
%TO.P,U10,4*%
%TO.N,Net-(J3-Pin_3)*%
X90411291Y-102967226D03*
%TD*%
D29*
%TO.P,U5,1*%
%TO.N,Net-(U4-Pad4)*%
X116060710Y-59442500D03*
D30*
%TO.P,U5,2*%
%TO.N,FLS*%
X116060710Y-55342500D03*
%TO.P,U5,3*%
%TO.N,+3.3V*%
X118600710Y-55342500D03*
%TO.P,U5,4*%
%TO.N,GND*%
X118600710Y-59442500D03*
%TD*%
D29*
%TO.P,U7,1*%
%TO.N,Net-(U6-Pad4)*%
X140047500Y-57692500D03*
D30*
%TO.P,U7,2*%
%TO.N,FRS*%
X140047500Y-53592500D03*
%TO.P,U7,3*%
%TO.N,+3.3V*%
X142587500Y-53592500D03*
%TO.P,U7,4*%
%TO.N,GND*%
X142587500Y-57692500D03*
%TD*%
D29*
%TO.P,U2,1*%
%TO.N,Net-(R1-Pad2)*%
X95117500Y-68042500D03*
D30*
%TO.P,U2,2*%
%TO.N,LLS*%
X95117500Y-63942500D03*
%TO.P,U2,3*%
%TO.N,+3.3V*%
X97657500Y-63942500D03*
%TO.P,U2,4*%
%TO.N,Net-(U2-Pad4)*%
X97657500Y-68042500D03*
%TD*%
D29*
%TO.P,U6,1*%
%TO.N,Net-(R5-Pad2)*%
X149747500Y-59092500D03*
D30*
%TO.P,U6,2*%
%TO.N,FRS*%
X149747500Y-54992500D03*
%TO.P,U6,3*%
%TO.N,+3.3V*%
X152287500Y-54992500D03*
%TO.P,U6,4*%
%TO.N,Net-(U6-Pad4)*%
X152287500Y-59092500D03*
%TD*%
D29*
%TO.P,U3,1*%
%TO.N,Net-(U2-Pad4)*%
X105547500Y-63092500D03*
D30*
%TO.P,U3,2*%
%TO.N,LLS*%
X105547500Y-58992500D03*
%TO.P,U3,3*%
%TO.N,+3.3V*%
X108087500Y-58992500D03*
%TO.P,U3,4*%
%TO.N,GND*%
X108087500Y-63092500D03*
%TD*%
D33*
%TO.N,Net-(J3-Pin_3)*%
X89100000Y-96800000D03*
%TO.N,RRS*%
X137417500Y-90842500D03*
%TO.N,+3.3V*%
X153317500Y-107842500D03*
X155717500Y-98242500D03*
X153417500Y-80242500D03*
%TO.N,Net-(R1-Pad2)*%
X99750000Y-66000000D03*
X110000000Y-63500000D03*
%TO.N,LLS*%
X137417500Y-85742500D03*
X139117500Y-87642500D03*
X114717500Y-67500000D03*
%TO.N,GND*%
X159000000Y-112750000D03*
X175250000Y-61750000D03*
X117000000Y-78250000D03*
X159250000Y-102000000D03*
X150250000Y-118500000D03*
X159250000Y-82750000D03*
X136000000Y-91000000D03*
X160500000Y-112750000D03*
X130500000Y-86500000D03*
X163500000Y-129000000D03*
X123100000Y-97700000D03*
X159000000Y-110750000D03*
X170250000Y-58500000D03*
X144500000Y-94250000D03*
X118750000Y-65750000D03*
X120750000Y-65750000D03*
X132000000Y-122000000D03*
X134250000Y-122000000D03*
X163250000Y-86750000D03*
X147000000Y-130500000D03*
X145250000Y-81000000D03*
X105500000Y-67750000D03*
X143750000Y-130500000D03*
X159000000Y-118900000D03*
X104000000Y-129750000D03*
X175250000Y-63750000D03*
X101500000Y-127250000D03*
X125000000Y-107750000D03*
X165750000Y-126500000D03*
X129750000Y-80500000D03*
X149750000Y-78000000D03*
X160250000Y-54500000D03*
X130500000Y-89000000D03*
X160500000Y-110750000D03*
X134250000Y-124500000D03*
X115250000Y-103000000D03*
X132600000Y-77500000D03*
X153750000Y-84500000D03*
X175250000Y-66250000D03*
X124500000Y-74500000D03*
X129750000Y-122000000D03*
X132000000Y-124500000D03*
X115250000Y-109750000D03*
X150000000Y-130500000D03*
X156000000Y-79500000D03*
X127750000Y-112000000D03*
X110250000Y-67750000D03*
X106250000Y-132000000D03*
X129750000Y-124500000D03*
X151500000Y-63250000D03*
X160750000Y-131750000D03*
X151250000Y-87000000D03*
X107750000Y-67750000D03*
X159250000Y-88500000D03*
X119500000Y-78250000D03*
X93000000Y-64250000D03*
X98750000Y-60000000D03*
X156250000Y-56750000D03*
X165500000Y-98900000D03*
X115250000Y-105000000D03*
%TO.N,FLS*%
X132617500Y-97242500D03*
%TO.N,Net-(R5-Pad2)*%
X138500000Y-58500000D03*
X141250000Y-62000000D03*
%TO.N,FRS*%
X144500000Y-73500000D03*
X150250000Y-67000000D03*
X138317500Y-77942500D03*
%TO.N,Net-(R7-Pad2)*%
X158500000Y-63500000D03*
X159250000Y-66750000D03*
%TO.N,RRS*%
X145000000Y-83750000D03*
%TO.N,Net-(U2-Pad4)*%
X99750000Y-64750000D03*
%TO.N,Net-(U6-Pad4)*%
X142625000Y-60375000D03*
X144250000Y-63000000D03*
%TO.N,Net-(J3-Pin_1)*%
X90750000Y-91750000D03*
%TO.N,Net-(R9-Pad2)*%
X100750000Y-83750000D03*
X92250000Y-99000000D03*
%TO.N,Net-(R13-Pad2)*%
X179300000Y-99700000D03*
%TO.N,Net-(R14-Pad1)*%
X174900000Y-95900000D03*
%TO.N,Net-(J3-Pin_3)*%
X93700000Y-87700000D03*
%TO.N,Net-(J2-Pin_3)*%
X176750000Y-100500000D03*
%TO.N,MLS*%
X138317500Y-120942500D03*
X141417500Y-123342500D03*
%TO.N,MRS*%
X106417500Y-111642500D03*
X105817500Y-101800000D03*
%TO.N,Net-(U1A-PF0)*%
X137217500Y-108342500D03*
%TO.N,Net-(U1A-PF1)*%
X148717500Y-98542500D03*
X143417500Y-108842500D03*
%TO.N,Net-(U13-IN)*%
X129117500Y-106942500D03*
X128217500Y-96242500D03*
X130117500Y-102750000D03*
X128117500Y-92342500D03*
%TO.N,BIN2*%
X143117500Y-107342500D03*
%TO.N,BIN1*%
X150317500Y-108242500D03*
%TO.N,AIN2*%
X140217500Y-108142500D03*
%TO.N,Net-(J7-Pin_6)*%
X108917500Y-120742500D03*
X107817500Y-102642500D03*
%TO.N,Net-(J7-Pin_1)*%
X111917500Y-115842500D03*
X111817500Y-104442500D03*
X143017500Y-124242500D03*
X113300000Y-130400000D03*
%TO.N,RHallA*%
X135217500Y-108842500D03*
X132717500Y-104942500D03*
%TO.N,RHallB*%
X130017500Y-108542500D03*
X131817500Y-118542500D03*
%TO.N,LHallB*%
X141117500Y-120942500D03*
%TD*%
D34*
%TO.N,Net-(U13-IN)*%
X130117500Y-105942500D02*
X129117500Y-106942500D01*
X130117500Y-102750000D02*
X130117500Y-105942500D01*
%TO.N,Net-(J2-Pin_3)*%
X163484730Y-75484730D02*
X163484730Y-75431314D01*
X166200000Y-78200000D02*
X163484730Y-75484730D01*
X166200000Y-79800000D02*
X166200000Y-78200000D01*
X173800000Y-91400000D02*
X173800000Y-87400000D01*
X176000000Y-93600000D02*
X173800000Y-91400000D01*
X176000000Y-99750000D02*
X176000000Y-93600000D01*
X173800000Y-87400000D02*
X166200000Y-79800000D01*
X176750000Y-100500000D02*
X176000000Y-99750000D01*
%TO.N,Net-(J3-Pin_3)*%
X90411291Y-98111291D02*
X90411291Y-102967226D01*
X89100000Y-96800000D02*
X90411291Y-98111291D01*
%TO.N,Net-(J2-Pin_1)*%
X182000000Y-102871483D02*
X182161291Y-103032774D01*
X182000000Y-99250000D02*
X182000000Y-102871483D01*
X178750000Y-93250000D02*
X178750000Y-96000000D01*
X174250000Y-85000000D02*
X176000000Y-86750000D01*
X173000000Y-85000000D02*
X174250000Y-85000000D01*
X176000000Y-90500000D02*
X178750000Y-93250000D01*
X178750000Y-96000000D02*
X182000000Y-99250000D01*
X167698480Y-79698480D02*
X173000000Y-85000000D01*
X167698480Y-76446871D02*
X167698480Y-79698480D01*
X176000000Y-86750000D02*
X176000000Y-90500000D01*
%TO.N,Net-(R9-Pad2)*%
X92000000Y-98750000D02*
X92250000Y-99000000D01*
X100750000Y-83750000D02*
X100750000Y-85250000D01*
X92000000Y-94000000D02*
X92000000Y-98750000D01*
X100750000Y-85250000D02*
X92000000Y-94000000D01*
%TO.N,RRS*%
X145000000Y-84560000D02*
X142617500Y-86942500D01*
X140917500Y-86942500D02*
X137417500Y-90842500D01*
X142617500Y-86942500D02*
X140917500Y-86942500D01*
X145000000Y-83750000D02*
X145000000Y-84560000D01*
%TO.N,Net-(U6-Pad4)*%
X148380000Y-63000000D02*
X152287500Y-59092500D01*
X144250000Y-63000000D02*
X148380000Y-63000000D01*
D35*
%TO.N,+3.3V*%
X112217500Y-63122500D02*
X108087500Y-58992500D01*
X152400000Y-79225000D02*
X153417500Y-80242500D01*
X120080000Y-62500000D02*
X122417500Y-60162500D01*
X130957500Y-53592500D02*
X136517500Y-59152500D01*
X122417500Y-60162500D02*
X122417500Y-59159290D01*
X164210000Y-91750000D02*
X166750000Y-91750000D01*
X116000000Y-62500000D02*
X120080000Y-62500000D01*
X116117500Y-67152500D02*
X116117500Y-74942500D01*
X123500000Y-55750000D02*
X126530000Y-55750000D01*
X156217500Y-58967500D02*
X156217500Y-60750000D01*
X163042500Y-58292500D02*
X165750000Y-61000000D01*
X108087500Y-59412500D02*
X108087500Y-58992500D01*
X142587500Y-53592500D02*
X142592500Y-53592500D01*
X146250000Y-57250000D02*
X150030000Y-57250000D01*
X122417500Y-59159290D02*
X120879105Y-57620895D01*
X113732500Y-64767500D02*
X116000000Y-62500000D01*
X152400000Y-79225000D02*
X152400000Y-66170000D01*
X125817500Y-126342500D02*
X150717500Y-126342500D01*
X161000000Y-60500000D02*
X156467500Y-60500000D01*
X152400000Y-66170000D02*
X156217500Y-62352500D01*
X162787500Y-58292500D02*
X163042500Y-58292500D01*
X137500000Y-55750000D02*
X140430000Y-55750000D01*
X120879105Y-57620895D02*
X121629105Y-57620895D01*
X101329500Y-91725000D02*
X103869500Y-91725000D01*
X156217500Y-60750000D02*
X156217500Y-62352500D01*
X142592500Y-53592500D02*
X146250000Y-57250000D01*
X113732500Y-64767500D02*
X112217500Y-63252500D01*
X128687500Y-53592500D02*
X130957500Y-53592500D01*
X121629105Y-57620895D02*
X123500000Y-55750000D01*
X97657500Y-63942500D02*
X98750000Y-62850000D01*
X153352500Y-123707500D02*
X153352500Y-120817500D01*
X116117500Y-74942500D02*
X103517500Y-87542500D01*
X152287500Y-55037500D02*
X156217500Y-58967500D01*
X162787500Y-58292500D02*
X162787500Y-58712500D01*
X156467500Y-60500000D02*
X156217500Y-60750000D01*
X116117500Y-67152500D02*
X113732500Y-64767500D01*
X153317500Y-100642500D02*
X155717500Y-98242500D01*
X162787500Y-58712500D02*
X161000000Y-60500000D01*
X103517500Y-91373000D02*
X103869500Y-91725000D01*
X98750000Y-62850000D02*
X98750000Y-62750000D01*
X136517500Y-56732500D02*
X137500000Y-55750000D01*
X123257500Y-123782500D02*
X125817500Y-126342500D01*
X140430000Y-55750000D02*
X142587500Y-53592500D01*
X123257500Y-120842500D02*
X123257500Y-123782500D01*
X171011791Y-61000000D02*
X173004291Y-62992500D01*
X98750000Y-62750000D02*
X100000000Y-61500000D01*
X136517500Y-59152500D02*
X136517500Y-56732500D01*
X106000000Y-61500000D02*
X108087500Y-59412500D01*
X165750000Y-61000000D02*
X171011791Y-61000000D01*
X120879105Y-57620895D02*
X118600710Y-55342500D01*
X100000000Y-61500000D02*
X106000000Y-61500000D01*
X150717500Y-126342500D02*
X153352500Y-123707500D01*
X150030000Y-57250000D02*
X152287500Y-54992500D01*
X103517500Y-87542500D02*
X103517500Y-91373000D01*
X126530000Y-55750000D02*
X128687500Y-53592500D01*
X153317500Y-107842500D02*
X153317500Y-100642500D01*
X152287500Y-54992500D02*
X152287500Y-55037500D01*
D34*
%TO.N,Net-(R1-Pad2)*%
X100250000Y-65500000D02*
X107000000Y-65500000D01*
X107000000Y-65500000D02*
X108000000Y-65500000D01*
X99750000Y-66000000D02*
X100250000Y-65500000D01*
X108000000Y-65500000D02*
X110000000Y-63500000D01*
%TO.N,LLS*%
X101817500Y-66852500D02*
X98027500Y-66852500D01*
X114717500Y-67500000D02*
X114070000Y-66852500D01*
X114070000Y-66852500D02*
X101817500Y-66852500D01*
X137417500Y-85742500D02*
X139117500Y-87642500D01*
X98027500Y-66852500D02*
X95117500Y-63942500D01*
%TO.N,GND*%
X105134500Y-93000000D02*
X105250000Y-93000000D01*
D35*
X121170000Y-118250000D02*
X123657500Y-115762500D01*
D34*
X155250000Y-84500000D02*
X159250000Y-88500000D01*
D35*
X115637500Y-120842500D02*
X115657500Y-120842500D01*
D34*
X150250000Y-118500000D02*
X151925000Y-118500000D01*
X163000000Y-105750000D02*
X165500000Y-105750000D01*
X136000000Y-91000000D02*
X140832500Y-95832500D01*
X127750000Y-112000000D02*
X133500000Y-112000000D01*
X101329500Y-94265000D02*
X103869500Y-94265000D01*
X103869500Y-94265000D02*
X105134500Y-93000000D01*
X159250000Y-89330000D02*
X159250000Y-88500000D01*
X165500000Y-105750000D02*
X165592500Y-105842500D01*
X155307500Y-96192500D02*
X157500000Y-94000000D01*
X153403000Y-96192500D02*
X155307500Y-96192500D01*
D35*
X115657500Y-120842500D02*
X118250000Y-118250000D01*
D34*
X164210000Y-94290000D02*
X159250000Y-89330000D01*
X110607500Y-83392500D02*
X105250000Y-88750000D01*
D35*
X118250000Y-118250000D02*
X121170000Y-118250000D01*
D34*
X133792500Y-112292500D02*
X133750000Y-112250000D01*
X141877500Y-112292500D02*
X133792500Y-112292500D01*
X156357500Y-114067500D02*
X162717500Y-114067500D01*
X162500000Y-106250000D02*
X163000000Y-105750000D01*
X105250000Y-93000000D02*
X105250000Y-88750000D01*
X113517500Y-83392500D02*
X110607500Y-83392500D01*
X162500000Y-113850000D02*
X162500000Y-106250000D01*
X145250000Y-81000000D02*
X151250000Y-87000000D01*
X153750000Y-84500000D02*
X155250000Y-84500000D01*
X162717500Y-114067500D02*
X162500000Y-113850000D01*
X140832500Y-95832500D02*
X141437500Y-95832500D01*
X129750000Y-80350000D02*
X132600000Y-77500000D01*
X156217500Y-114207500D02*
X156357500Y-114067500D01*
X151925000Y-118500000D02*
X156217500Y-114207500D01*
X129750000Y-80500000D02*
X129750000Y-80350000D01*
X113967500Y-95992500D02*
X120467500Y-95992500D01*
X133500000Y-112000000D02*
X133750000Y-112250000D01*
%TO.N,FLS*%
X124517500Y-81742500D02*
X129617500Y-81742500D01*
X123017500Y-80242500D02*
X124517500Y-81742500D01*
X129865000Y-59152500D02*
X132317500Y-59152500D01*
X129617500Y-81742500D02*
X132617500Y-84742500D01*
X132617500Y-84742500D02*
X132617500Y-97242500D01*
X117576605Y-53826605D02*
X116060710Y-55342500D01*
X122685000Y-54750000D02*
X122000000Y-54750000D01*
X122000000Y-54750000D02*
X121076605Y-53826605D01*
X121076605Y-53826605D02*
X117576605Y-53826605D01*
X123842500Y-53592500D02*
X122685000Y-54750000D01*
X126147500Y-53592500D02*
X123842500Y-53592500D01*
X123017500Y-66000000D02*
X129865000Y-59152500D01*
X123017500Y-66000000D02*
X123017500Y-80242500D01*
%TO.N,Net-(R5-Pad2)*%
X149747500Y-59092500D02*
X146840000Y-62000000D01*
X141250000Y-62000000D02*
X138500000Y-59250000D01*
X146840000Y-62000000D02*
X141250000Y-62000000D01*
X138500000Y-59250000D02*
X138500000Y-58500000D01*
%TO.N,FRS*%
X150250000Y-67000000D02*
X150250000Y-71750000D01*
X148500000Y-73500000D02*
X144500000Y-73500000D01*
X133817500Y-100522500D02*
X133817500Y-82142500D01*
X133817500Y-82142500D02*
X138317500Y-77942500D01*
X150250000Y-71750000D02*
X148500000Y-73500000D01*
%TO.N,Net-(R7-Pad2)*%
X158500000Y-63500000D02*
X158500000Y-66000000D01*
X158500000Y-66000000D02*
X159250000Y-66750000D01*
%TO.N,RRS*%
X170464291Y-62992500D02*
X169677500Y-62992500D01*
X169677500Y-62992500D02*
X166717500Y-65952500D01*
%TO.N,Net-(U2-Pad4)*%
X103890000Y-64750000D02*
X105547500Y-63092500D01*
X99750000Y-64750000D02*
X103890000Y-64750000D01*
%TO.N,Net-(U6-Pad4)*%
X140047500Y-57797500D02*
X140047500Y-57692500D01*
X142625000Y-60375000D02*
X140047500Y-57797500D01*
%TO.N,Net-(U8-Pad4)*%
X168750000Y-68250000D02*
X169500000Y-69000000D01*
X171096791Y-69000000D02*
X173004291Y-67092500D01*
X160247500Y-63497500D02*
X165000000Y-68250000D01*
X160247500Y-62392500D02*
X160247500Y-63497500D01*
X165000000Y-68250000D02*
X168750000Y-68250000D01*
X169500000Y-69000000D02*
X171096791Y-69000000D01*
D35*
%TO.N,VCC*%
X103192500Y-106402500D02*
X103000000Y-106210000D01*
X126727500Y-110142500D02*
X126027500Y-110842500D01*
X114277500Y-106402500D02*
X103192500Y-106402500D01*
X124027500Y-108842500D02*
X126027500Y-110842500D01*
X114277500Y-106402500D02*
X116717500Y-108842500D01*
X160750000Y-105250000D02*
X160750000Y-103750000D01*
X154692500Y-110142500D02*
X126727500Y-110142500D01*
X156217500Y-111667500D02*
X154692500Y-110142500D01*
X156217500Y-111667500D02*
X156217500Y-109782500D01*
X156217500Y-109782500D02*
X160750000Y-105250000D01*
X160750000Y-103750000D02*
X161197500Y-103302500D01*
X116717500Y-108842500D02*
X124027500Y-108842500D01*
X161197500Y-103302500D02*
X165592500Y-103302500D01*
D34*
%TO.N,BSEN*%
X128737500Y-100522500D02*
X128737500Y-100062500D01*
X118607500Y-105342500D02*
X119817500Y-104132500D01*
X120317500Y-99142500D02*
X119817500Y-99642500D01*
X127817500Y-99142500D02*
X120317500Y-99142500D01*
X119817500Y-104132500D02*
X119817500Y-99642500D01*
X128737500Y-100062500D02*
X127817500Y-99142500D01*
%TO.N,Net-(J3-Pin_1)*%
X102500000Y-73833593D02*
X103075624Y-73257969D01*
X100250000Y-78750000D02*
X100750000Y-79250000D01*
X95435480Y-83814520D02*
X92500000Y-86750000D01*
X102500000Y-77500000D02*
X102500000Y-73833593D01*
X103075624Y-72944897D02*
X104708305Y-71312216D01*
X95435480Y-82411130D02*
X95435480Y-83814520D01*
X103075624Y-73257969D02*
X103075624Y-72944897D01*
X99000000Y-78750000D02*
X100250000Y-78750000D01*
X92500000Y-90000000D02*
X92500000Y-86750000D01*
X97750000Y-80096610D02*
X97750000Y-80000000D01*
X95435480Y-82411130D02*
X97750000Y-80096610D01*
X90750000Y-91750000D02*
X92500000Y-90000000D01*
X100750000Y-79250000D02*
X102500000Y-77500000D01*
X97750000Y-80000000D02*
X99000000Y-78750000D01*
%TO.N,Net-(R12-Pad1)*%
X86750000Y-103250000D02*
X85805935Y-103250000D01*
X87400000Y-99150000D02*
X88750000Y-100500000D01*
X87400000Y-96850000D02*
X87400000Y-99150000D01*
X98737480Y-85459130D02*
X98737480Y-85512520D01*
X98737480Y-85512520D02*
X87400000Y-96850000D01*
X85805935Y-103250000D02*
X85588709Y-103032774D01*
X88750000Y-101250000D02*
X86750000Y-103250000D01*
X88750000Y-100500000D02*
X88750000Y-101250000D01*
%TO.N,Net-(J3-Pin_5)*%
X106967130Y-76523330D02*
X106734063Y-76523330D01*
X106967130Y-76210257D02*
X108599810Y-74577577D01*
X106734063Y-76523330D02*
X103635522Y-79621871D01*
X106967130Y-76523330D02*
X106967130Y-76210257D01*
%TO.N,Net-(J2-Pin_1)*%
X167698480Y-76446871D02*
X167698480Y-75797099D01*
X167698480Y-75797099D02*
X165497389Y-73596008D01*
D35*
X163797802Y-71852881D02*
X163797802Y-72165953D01*
X163797802Y-72165953D02*
X165430483Y-73798634D01*
D34*
%TO.N,Net-(R13-Pad2)*%
X177338709Y-101661291D02*
X177338709Y-102967226D01*
X179300000Y-99700000D02*
X177338709Y-101661291D01*
%TO.N,Net-(R14-Pad1)*%
X168000000Y-83400000D02*
X168000000Y-85500000D01*
X164523480Y-79113871D02*
X164523480Y-79923480D01*
X172400000Y-89900000D02*
X172400000Y-93400000D01*
X168000000Y-85500000D02*
X172400000Y-89900000D01*
X164523480Y-79923480D02*
X168000000Y-83400000D01*
X172400000Y-93400000D02*
X174900000Y-95900000D01*
D35*
%TO.N,Net-(J2-Pin_5)*%
X159906296Y-75431314D02*
X161538977Y-77063995D01*
X159906296Y-75118242D02*
X159906296Y-75431314D01*
D34*
%TO.N,Net-(J3-Pin_3)*%
X105021377Y-74890650D02*
X105021377Y-76228623D01*
X105021377Y-74577577D02*
X106654057Y-72944897D01*
X105021377Y-74890650D02*
X105021377Y-74577577D01*
X104750000Y-76550000D02*
X93700000Y-87600000D01*
X104750000Y-76500000D02*
X104750000Y-76550000D01*
X93700000Y-87600000D02*
X93700000Y-87700000D01*
X105021377Y-76228623D02*
X104750000Y-76500000D01*
D35*
%TO.N,Net-(J2-Pin_3)*%
X161852049Y-73485562D02*
X161852049Y-73798633D01*
X161852049Y-73798633D02*
X163484730Y-75431314D01*
%TO.N,MLS*%
X166750000Y-96830000D02*
X164210000Y-96830000D01*
D34*
X138317500Y-120942500D02*
X140717500Y-123342500D01*
X140717500Y-123342500D02*
X141417500Y-123342500D01*
%TO.N,MRS*%
X103869500Y-96805000D02*
X105817500Y-98753000D01*
X126417500Y-113442500D02*
X128737500Y-115762500D01*
X106417500Y-111642500D02*
X112817500Y-111642500D01*
X112817500Y-111642500D02*
X114617500Y-113442500D01*
X105817500Y-98753000D02*
X105817500Y-101800000D01*
X114617500Y-113442500D02*
X126417500Y-113442500D01*
X101329500Y-96805000D02*
X103869500Y-96805000D01*
%TO.N,SCL*%
X146957500Y-112292500D02*
X146957500Y-112902500D01*
X133837500Y-115762500D02*
X133817500Y-115762500D01*
X145217500Y-114642500D02*
X145217500Y-116542500D01*
X146957500Y-112902500D02*
X145217500Y-114642500D01*
X145217500Y-116542500D02*
X144817500Y-116942500D01*
X144817500Y-116942500D02*
X135017500Y-116942500D01*
X135017500Y-116942500D02*
X133837500Y-115762500D01*
%TO.N,SDA*%
X142567500Y-114142500D02*
X132897500Y-114142500D01*
X132897500Y-114142500D02*
X131277500Y-115762500D01*
X144417500Y-112292500D02*
X142567500Y-114142500D01*
D35*
%TO.N,VDD*%
X162250000Y-100442500D02*
X166142500Y-100442500D01*
X160017500Y-120642500D02*
X160017500Y-127582500D01*
X126197500Y-78052500D02*
X126197500Y-77062500D01*
X102317500Y-118542500D02*
X102292500Y-118542500D01*
X126197500Y-77062500D02*
X127217500Y-76042500D01*
X165992500Y-116607500D02*
X162717500Y-116607500D01*
X104417500Y-127060000D02*
X109900000Y-132542500D01*
X159500000Y-92500000D02*
X143042500Y-76042500D01*
X159500000Y-94000000D02*
X159500000Y-97692500D01*
X167900000Y-102200000D02*
X167900000Y-114700000D01*
X100750000Y-111000000D02*
X103000000Y-108750000D01*
X155057500Y-132542500D02*
X109900000Y-132542500D01*
X104417500Y-120642500D02*
X102317500Y-118542500D01*
X160017500Y-127582500D02*
X155057500Y-132542500D01*
X100750000Y-117000000D02*
X100750000Y-111000000D01*
X162717500Y-116607500D02*
X162717500Y-117942500D01*
X166142500Y-100442500D02*
X167900000Y-102200000D01*
X162717500Y-117942500D02*
X160017500Y-120642500D01*
X102292500Y-118542500D02*
X100750000Y-117000000D01*
X167900000Y-114700000D02*
X165992500Y-116607500D01*
X159500000Y-94000000D02*
X159500000Y-92500000D01*
X104417500Y-120642500D02*
X104417500Y-127060000D01*
X127217500Y-76042500D02*
X143042500Y-76042500D01*
X159500000Y-97692500D02*
X162250000Y-100442500D01*
D34*
%TO.N,Net-(U1A-PF0)*%
X120467500Y-92992500D02*
X125317500Y-97842500D01*
X129917500Y-101042500D02*
X137217500Y-108342500D01*
X128617500Y-97842500D02*
X129917500Y-99142500D01*
X125317500Y-97842500D02*
X128617500Y-97842500D01*
X129917500Y-99142500D02*
X129917500Y-101042500D01*
X120467500Y-91492500D02*
X120467500Y-92992500D01*
%TO.N,Net-(U1A-PF1)*%
X147817500Y-101042500D02*
X145717500Y-103142500D01*
X147817500Y-99742500D02*
X147817500Y-101042500D01*
X148717500Y-98542500D02*
X147817500Y-99442500D01*
X145717500Y-103142500D02*
X145717500Y-106542500D01*
X145717500Y-106542500D02*
X143417500Y-108842500D01*
X147817500Y-99442500D02*
X147817500Y-99742500D01*
%TO.N,Net-(U13-IN)*%
X128117500Y-96142500D02*
X128217500Y-96242500D01*
X128117500Y-92342500D02*
X128117500Y-96142500D01*
%TO.N,BIN2*%
X143217500Y-103342500D02*
X143217500Y-107242500D01*
X143217500Y-107242500D02*
X143117500Y-107342500D01*
X142717500Y-92032500D02*
X142717500Y-102842500D01*
X142717500Y-102842500D02*
X143217500Y-103342500D01*
X141437500Y-90752500D02*
X142717500Y-92032500D01*
%TO.N,BIN1*%
X146317500Y-88212500D02*
X141437500Y-88212500D01*
X150317500Y-108242500D02*
X150317500Y-92212500D01*
X150317500Y-92212500D02*
X146317500Y-88212500D01*
%TO.N,AIN2*%
X140217500Y-108142500D02*
X140217500Y-108042500D01*
X135017500Y-87012500D02*
X135017500Y-102342500D01*
X135017500Y-102342500D02*
X140217500Y-107542500D01*
X141437500Y-80592500D02*
X135017500Y-87012500D01*
X140217500Y-107542500D02*
X140217500Y-108142500D01*
D35*
%TO.N,Net-(J7-Pin_6)*%
X126197500Y-90752500D02*
X122487500Y-87042500D01*
X107917500Y-91142500D02*
X107917500Y-91242500D01*
X155892500Y-127667500D02*
X155892500Y-120817500D01*
X107917500Y-91242500D02*
X107817500Y-102642500D01*
X108917500Y-120742500D02*
X116917500Y-128742500D01*
X122487500Y-87042500D02*
X112017500Y-87042500D01*
X112017500Y-87042500D02*
X107917500Y-91142500D01*
X116917500Y-128742500D02*
X154817500Y-128742500D01*
X154817500Y-128742500D02*
X155892500Y-127667500D01*
%TO.N,Net-(J7-Pin_1)*%
X121317500Y-89442500D02*
X125167500Y-93292500D01*
X111817500Y-104442500D02*
X111817500Y-94242500D01*
X108500000Y-116000000D02*
X111760000Y-116000000D01*
X106417500Y-118082500D02*
X108500000Y-116000000D01*
X111817500Y-94242500D02*
X112417500Y-93642500D01*
X106417500Y-123517500D02*
X113300000Y-130400000D01*
X116717500Y-90942500D02*
X118217500Y-89442500D01*
X143017500Y-124242500D02*
X143017500Y-120992500D01*
X111760000Y-116000000D02*
X111917500Y-115842500D01*
X118217500Y-89442500D02*
X121317500Y-89442500D01*
X106417500Y-123517500D02*
X106417500Y-118082500D01*
X112417500Y-93642500D02*
X115017500Y-93642500D01*
X143017500Y-120992500D02*
X143192500Y-120817500D01*
X125167500Y-93292500D02*
X126197500Y-93292500D01*
X115017500Y-93642500D02*
X116717500Y-91942500D01*
X116717500Y-91942500D02*
X116717500Y-90942500D01*
D34*
%TO.N,RHallA*%
X132717500Y-106342500D02*
X135217500Y-108842500D01*
X132717500Y-104942500D02*
X132717500Y-106342500D01*
%TO.N,RHallB*%
X131817500Y-118542500D02*
X148537500Y-118542500D01*
X128917500Y-108542500D02*
X130017500Y-108542500D01*
X150812500Y-120817500D02*
X148537500Y-118542500D01*
X126197500Y-100522500D02*
X127717500Y-102042500D01*
X127717500Y-107342500D02*
X128917500Y-108542500D01*
X127717500Y-102042500D02*
X127717500Y-107342500D01*
X130017500Y-108542500D02*
X129917500Y-108542500D01*
%TO.N,LHallB*%
X126917500Y-118842500D02*
X128117500Y-120042500D01*
X122717500Y-118842500D02*
X126917500Y-118842500D01*
X128117500Y-120042500D02*
X140217500Y-120042500D01*
X120717500Y-120842500D02*
X122717500Y-118842500D01*
X140217500Y-120042500D02*
X141117500Y-120942500D01*
%TD*%
M02*
